%TF.GenerationSoftware,KiCad,Pcbnew,8.0.8*%
%TF.CreationDate,2025-03-13T16:31:01-06:00*%
%TF.ProjectId,micro_final_phaseD,6d696372-6f5f-4666-996e-616c5f706861,rev?*%
%TF.SameCoordinates,Original*%
%TF.FileFunction,Legend,Top*%
%TF.FilePolarity,Positive*%
%FSLAX46Y46*%
G04 Gerber Fmt 4.6, Leading zero omitted, Abs format (unit mm)*
G04 Created by KiCad (PCBNEW 8.0.8) date 2025-03-13 16:31:01*
%MOMM*%
%LPD*%
G01*
G04 APERTURE LIST*
%ADD10C,0.150000*%
%ADD11C,0.120000*%
%ADD12C,0.127000*%
%ADD13C,0.300000*%
G04 APERTURE END LIST*
D10*
X124370000Y-69640000D02*
X144370000Y-69640000D01*
X124370000Y-89640000D02*
X124370000Y-69640000D01*
X144370000Y-89640000D02*
X124370000Y-89640000D01*
X100740000Y-67620000D02*
X100740000Y-51620000D01*
X100740000Y-51620000D02*
X120740000Y-51620000D01*
X144370000Y-69640000D02*
X144370000Y-89640000D01*
X120740000Y-67620000D02*
X100740000Y-67620000D01*
X120740000Y-51620000D02*
X120740000Y-67620000D01*
X106047255Y-52559819D02*
X106237731Y-52559819D01*
X106237731Y-52559819D02*
X106332969Y-52607438D01*
X106332969Y-52607438D02*
X106428207Y-52702676D01*
X106428207Y-52702676D02*
X106475826Y-52893152D01*
X106475826Y-52893152D02*
X106475826Y-53226485D01*
X106475826Y-53226485D02*
X106428207Y-53416961D01*
X106428207Y-53416961D02*
X106332969Y-53512200D01*
X106332969Y-53512200D02*
X106237731Y-53559819D01*
X106237731Y-53559819D02*
X106047255Y-53559819D01*
X106047255Y-53559819D02*
X105952017Y-53512200D01*
X105952017Y-53512200D02*
X105856779Y-53416961D01*
X105856779Y-53416961D02*
X105809160Y-53226485D01*
X105809160Y-53226485D02*
X105809160Y-52893152D01*
X105809160Y-52893152D02*
X105856779Y-52702676D01*
X105856779Y-52702676D02*
X105952017Y-52607438D01*
X105952017Y-52607438D02*
X106047255Y-52559819D01*
X106904398Y-53559819D02*
X106904398Y-52559819D01*
X106904398Y-52559819D02*
X107285350Y-52559819D01*
X107285350Y-52559819D02*
X107380588Y-52607438D01*
X107380588Y-52607438D02*
X107428207Y-52655057D01*
X107428207Y-52655057D02*
X107475826Y-52750295D01*
X107475826Y-52750295D02*
X107475826Y-52893152D01*
X107475826Y-52893152D02*
X107428207Y-52988390D01*
X107428207Y-52988390D02*
X107380588Y-53036009D01*
X107380588Y-53036009D02*
X107285350Y-53083628D01*
X107285350Y-53083628D02*
X106904398Y-53083628D01*
X107904398Y-53036009D02*
X108237731Y-53036009D01*
X108380588Y-53559819D02*
X107904398Y-53559819D01*
X107904398Y-53559819D02*
X107904398Y-52559819D01*
X107904398Y-52559819D02*
X108380588Y-52559819D01*
X108809160Y-53559819D02*
X108809160Y-52559819D01*
X108809160Y-52559819D02*
X109380588Y-53559819D01*
X109380588Y-53559819D02*
X109380588Y-52559819D01*
X111094874Y-53559819D02*
X110618684Y-53559819D01*
X110618684Y-53559819D02*
X110618684Y-52559819D01*
X111618684Y-52559819D02*
X111809160Y-52559819D01*
X111809160Y-52559819D02*
X111904398Y-52607438D01*
X111904398Y-52607438D02*
X111999636Y-52702676D01*
X111999636Y-52702676D02*
X112047255Y-52893152D01*
X112047255Y-52893152D02*
X112047255Y-53226485D01*
X112047255Y-53226485D02*
X111999636Y-53416961D01*
X111999636Y-53416961D02*
X111904398Y-53512200D01*
X111904398Y-53512200D02*
X111809160Y-53559819D01*
X111809160Y-53559819D02*
X111618684Y-53559819D01*
X111618684Y-53559819D02*
X111523446Y-53512200D01*
X111523446Y-53512200D02*
X111428208Y-53416961D01*
X111428208Y-53416961D02*
X111380589Y-53226485D01*
X111380589Y-53226485D02*
X111380589Y-52893152D01*
X111380589Y-52893152D02*
X111428208Y-52702676D01*
X111428208Y-52702676D02*
X111523446Y-52607438D01*
X111523446Y-52607438D02*
X111618684Y-52559819D01*
X112999636Y-52607438D02*
X112904398Y-52559819D01*
X112904398Y-52559819D02*
X112761541Y-52559819D01*
X112761541Y-52559819D02*
X112618684Y-52607438D01*
X112618684Y-52607438D02*
X112523446Y-52702676D01*
X112523446Y-52702676D02*
X112475827Y-52797914D01*
X112475827Y-52797914D02*
X112428208Y-52988390D01*
X112428208Y-52988390D02*
X112428208Y-53131247D01*
X112428208Y-53131247D02*
X112475827Y-53321723D01*
X112475827Y-53321723D02*
X112523446Y-53416961D01*
X112523446Y-53416961D02*
X112618684Y-53512200D01*
X112618684Y-53512200D02*
X112761541Y-53559819D01*
X112761541Y-53559819D02*
X112856779Y-53559819D01*
X112856779Y-53559819D02*
X112999636Y-53512200D01*
X112999636Y-53512200D02*
X113047255Y-53464580D01*
X113047255Y-53464580D02*
X113047255Y-53131247D01*
X113047255Y-53131247D02*
X112856779Y-53131247D01*
X132419160Y-76554104D02*
X132895350Y-76554104D01*
X132323922Y-76839819D02*
X132657255Y-75839819D01*
X132657255Y-75839819D02*
X132990588Y-76839819D01*
X133752493Y-76792200D02*
X133657255Y-76839819D01*
X133657255Y-76839819D02*
X133466779Y-76839819D01*
X133466779Y-76839819D02*
X133371541Y-76792200D01*
X133371541Y-76792200D02*
X133323922Y-76744580D01*
X133323922Y-76744580D02*
X133276303Y-76649342D01*
X133276303Y-76649342D02*
X133276303Y-76363628D01*
X133276303Y-76363628D02*
X133323922Y-76268390D01*
X133323922Y-76268390D02*
X133371541Y-76220771D01*
X133371541Y-76220771D02*
X133466779Y-76173152D01*
X133466779Y-76173152D02*
X133657255Y-76173152D01*
X133657255Y-76173152D02*
X133752493Y-76220771D01*
X134609636Y-76792200D02*
X134514398Y-76839819D01*
X134514398Y-76839819D02*
X134323922Y-76839819D01*
X134323922Y-76839819D02*
X134228684Y-76792200D01*
X134228684Y-76792200D02*
X134181065Y-76744580D01*
X134181065Y-76744580D02*
X134133446Y-76649342D01*
X134133446Y-76649342D02*
X134133446Y-76363628D01*
X134133446Y-76363628D02*
X134181065Y-76268390D01*
X134181065Y-76268390D02*
X134228684Y-76220771D01*
X134228684Y-76220771D02*
X134323922Y-76173152D01*
X134323922Y-76173152D02*
X134514398Y-76173152D01*
X134514398Y-76173152D02*
X134609636Y-76220771D01*
X135419160Y-76792200D02*
X135323922Y-76839819D01*
X135323922Y-76839819D02*
X135133446Y-76839819D01*
X135133446Y-76839819D02*
X135038208Y-76792200D01*
X135038208Y-76792200D02*
X134990589Y-76696961D01*
X134990589Y-76696961D02*
X134990589Y-76316009D01*
X134990589Y-76316009D02*
X135038208Y-76220771D01*
X135038208Y-76220771D02*
X135133446Y-76173152D01*
X135133446Y-76173152D02*
X135323922Y-76173152D01*
X135323922Y-76173152D02*
X135419160Y-76220771D01*
X135419160Y-76220771D02*
X135466779Y-76316009D01*
X135466779Y-76316009D02*
X135466779Y-76411247D01*
X135466779Y-76411247D02*
X134990589Y-76506485D01*
X136038208Y-76839819D02*
X135942970Y-76792200D01*
X135942970Y-76792200D02*
X135895351Y-76696961D01*
X135895351Y-76696961D02*
X135895351Y-75839819D01*
X136800113Y-76792200D02*
X136704875Y-76839819D01*
X136704875Y-76839819D02*
X136514399Y-76839819D01*
X136514399Y-76839819D02*
X136419161Y-76792200D01*
X136419161Y-76792200D02*
X136371542Y-76696961D01*
X136371542Y-76696961D02*
X136371542Y-76316009D01*
X136371542Y-76316009D02*
X136419161Y-76220771D01*
X136419161Y-76220771D02*
X136514399Y-76173152D01*
X136514399Y-76173152D02*
X136704875Y-76173152D01*
X136704875Y-76173152D02*
X136800113Y-76220771D01*
X136800113Y-76220771D02*
X136847732Y-76316009D01*
X136847732Y-76316009D02*
X136847732Y-76411247D01*
X136847732Y-76411247D02*
X136371542Y-76506485D01*
X137276304Y-76839819D02*
X137276304Y-76173152D01*
X137276304Y-76363628D02*
X137323923Y-76268390D01*
X137323923Y-76268390D02*
X137371542Y-76220771D01*
X137371542Y-76220771D02*
X137466780Y-76173152D01*
X137466780Y-76173152D02*
X137562018Y-76173152D01*
X138038209Y-76839819D02*
X137942971Y-76792200D01*
X137942971Y-76792200D02*
X137895352Y-76744580D01*
X137895352Y-76744580D02*
X137847733Y-76649342D01*
X137847733Y-76649342D02*
X137847733Y-76363628D01*
X137847733Y-76363628D02*
X137895352Y-76268390D01*
X137895352Y-76268390D02*
X137942971Y-76220771D01*
X137942971Y-76220771D02*
X138038209Y-76173152D01*
X138038209Y-76173152D02*
X138181066Y-76173152D01*
X138181066Y-76173152D02*
X138276304Y-76220771D01*
X138276304Y-76220771D02*
X138323923Y-76268390D01*
X138323923Y-76268390D02*
X138371542Y-76363628D01*
X138371542Y-76363628D02*
X138371542Y-76649342D01*
X138371542Y-76649342D02*
X138323923Y-76744580D01*
X138323923Y-76744580D02*
X138276304Y-76792200D01*
X138276304Y-76792200D02*
X138181066Y-76839819D01*
X138181066Y-76839819D02*
X138038209Y-76839819D01*
X138800114Y-76839819D02*
X138800114Y-76173152D01*
X138800114Y-76268390D02*
X138847733Y-76220771D01*
X138847733Y-76220771D02*
X138942971Y-76173152D01*
X138942971Y-76173152D02*
X139085828Y-76173152D01*
X139085828Y-76173152D02*
X139181066Y-76220771D01*
X139181066Y-76220771D02*
X139228685Y-76316009D01*
X139228685Y-76316009D02*
X139228685Y-76839819D01*
X139228685Y-76316009D02*
X139276304Y-76220771D01*
X139276304Y-76220771D02*
X139371542Y-76173152D01*
X139371542Y-76173152D02*
X139514399Y-76173152D01*
X139514399Y-76173152D02*
X139609638Y-76220771D01*
X139609638Y-76220771D02*
X139657257Y-76316009D01*
X139657257Y-76316009D02*
X139657257Y-76839819D01*
X140514399Y-76792200D02*
X140419161Y-76839819D01*
X140419161Y-76839819D02*
X140228685Y-76839819D01*
X140228685Y-76839819D02*
X140133447Y-76792200D01*
X140133447Y-76792200D02*
X140085828Y-76696961D01*
X140085828Y-76696961D02*
X140085828Y-76316009D01*
X140085828Y-76316009D02*
X140133447Y-76220771D01*
X140133447Y-76220771D02*
X140228685Y-76173152D01*
X140228685Y-76173152D02*
X140419161Y-76173152D01*
X140419161Y-76173152D02*
X140514399Y-76220771D01*
X140514399Y-76220771D02*
X140562018Y-76316009D01*
X140562018Y-76316009D02*
X140562018Y-76411247D01*
X140562018Y-76411247D02*
X140085828Y-76506485D01*
X140847733Y-76173152D02*
X141228685Y-76173152D01*
X140990590Y-75839819D02*
X140990590Y-76696961D01*
X140990590Y-76696961D02*
X141038209Y-76792200D01*
X141038209Y-76792200D02*
X141133447Y-76839819D01*
X141133447Y-76839819D02*
X141228685Y-76839819D01*
X141942971Y-76792200D02*
X141847733Y-76839819D01*
X141847733Y-76839819D02*
X141657257Y-76839819D01*
X141657257Y-76839819D02*
X141562019Y-76792200D01*
X141562019Y-76792200D02*
X141514400Y-76696961D01*
X141514400Y-76696961D02*
X141514400Y-76316009D01*
X141514400Y-76316009D02*
X141562019Y-76220771D01*
X141562019Y-76220771D02*
X141657257Y-76173152D01*
X141657257Y-76173152D02*
X141847733Y-76173152D01*
X141847733Y-76173152D02*
X141942971Y-76220771D01*
X141942971Y-76220771D02*
X141990590Y-76316009D01*
X141990590Y-76316009D02*
X141990590Y-76411247D01*
X141990590Y-76411247D02*
X141514400Y-76506485D01*
X142419162Y-76839819D02*
X142419162Y-76173152D01*
X142419162Y-76363628D02*
X142466781Y-76268390D01*
X142466781Y-76268390D02*
X142514400Y-76220771D01*
X142514400Y-76220771D02*
X142609638Y-76173152D01*
X142609638Y-76173152D02*
X142704876Y-76173152D01*
X102676666Y-51624819D02*
X102676666Y-52339104D01*
X102676666Y-52339104D02*
X102629047Y-52481961D01*
X102629047Y-52481961D02*
X102533809Y-52577200D01*
X102533809Y-52577200D02*
X102390952Y-52624819D01*
X102390952Y-52624819D02*
X102295714Y-52624819D01*
X103676666Y-52624819D02*
X103105238Y-52624819D01*
X103390952Y-52624819D02*
X103390952Y-51624819D01*
X103390952Y-51624819D02*
X103295714Y-51767676D01*
X103295714Y-51767676D02*
X103200476Y-51862914D01*
X103200476Y-51862914D02*
X103105238Y-51910533D01*
X141574819Y-97973333D02*
X142289104Y-97973333D01*
X142289104Y-97973333D02*
X142431961Y-98020952D01*
X142431961Y-98020952D02*
X142527200Y-98116190D01*
X142527200Y-98116190D02*
X142574819Y-98259047D01*
X142574819Y-98259047D02*
X142574819Y-98354285D01*
X141574819Y-97592380D02*
X141574819Y-96973333D01*
X141574819Y-96973333D02*
X141955771Y-97306666D01*
X141955771Y-97306666D02*
X141955771Y-97163809D01*
X141955771Y-97163809D02*
X142003390Y-97068571D01*
X142003390Y-97068571D02*
X142051009Y-97020952D01*
X142051009Y-97020952D02*
X142146247Y-96973333D01*
X142146247Y-96973333D02*
X142384342Y-96973333D01*
X142384342Y-96973333D02*
X142479580Y-97020952D01*
X142479580Y-97020952D02*
X142527200Y-97068571D01*
X142527200Y-97068571D02*
X142574819Y-97163809D01*
X142574819Y-97163809D02*
X142574819Y-97449523D01*
X142574819Y-97449523D02*
X142527200Y-97544761D01*
X142527200Y-97544761D02*
X142479580Y-97592380D01*
X142604819Y-97913333D02*
X143319104Y-97913333D01*
X143319104Y-97913333D02*
X143461961Y-97960952D01*
X143461961Y-97960952D02*
X143557200Y-98056190D01*
X143557200Y-98056190D02*
X143604819Y-98199047D01*
X143604819Y-98199047D02*
X143604819Y-98294285D01*
X142700057Y-97484761D02*
X142652438Y-97437142D01*
X142652438Y-97437142D02*
X142604819Y-97341904D01*
X142604819Y-97341904D02*
X142604819Y-97103809D01*
X142604819Y-97103809D02*
X142652438Y-97008571D01*
X142652438Y-97008571D02*
X142700057Y-96960952D01*
X142700057Y-96960952D02*
X142795295Y-96913333D01*
X142795295Y-96913333D02*
X142890533Y-96913333D01*
X142890533Y-96913333D02*
X143033390Y-96960952D01*
X143033390Y-96960952D02*
X143604819Y-97532380D01*
X143604819Y-97532380D02*
X143604819Y-96913333D01*
X114264819Y-49293333D02*
X114979104Y-49293333D01*
X114979104Y-49293333D02*
X115121961Y-49340952D01*
X115121961Y-49340952D02*
X115217200Y-49436190D01*
X115217200Y-49436190D02*
X115264819Y-49579047D01*
X115264819Y-49579047D02*
X115264819Y-49674285D01*
X114598152Y-48388571D02*
X115264819Y-48388571D01*
X114217200Y-48626666D02*
X114931485Y-48864761D01*
X114931485Y-48864761D02*
X114931485Y-48245714D01*
X141194819Y-48923333D02*
X141909104Y-48923333D01*
X141909104Y-48923333D02*
X142051961Y-48970952D01*
X142051961Y-48970952D02*
X142147200Y-49066190D01*
X142147200Y-49066190D02*
X142194819Y-49209047D01*
X142194819Y-49209047D02*
X142194819Y-49304285D01*
X141194819Y-47970952D02*
X141194819Y-48447142D01*
X141194819Y-48447142D02*
X141671009Y-48494761D01*
X141671009Y-48494761D02*
X141623390Y-48447142D01*
X141623390Y-48447142D02*
X141575771Y-48351904D01*
X141575771Y-48351904D02*
X141575771Y-48113809D01*
X141575771Y-48113809D02*
X141623390Y-48018571D01*
X141623390Y-48018571D02*
X141671009Y-47970952D01*
X141671009Y-47970952D02*
X141766247Y-47923333D01*
X141766247Y-47923333D02*
X142004342Y-47923333D01*
X142004342Y-47923333D02*
X142099580Y-47970952D01*
X142099580Y-47970952D02*
X142147200Y-48018571D01*
X142147200Y-48018571D02*
X142194819Y-48113809D01*
X142194819Y-48113809D02*
X142194819Y-48351904D01*
X142194819Y-48351904D02*
X142147200Y-48447142D01*
X142147200Y-48447142D02*
X142099580Y-48494761D01*
D11*
%TO.C,J1*%
X101950000Y-53170000D02*
X103010000Y-53170000D01*
X101950000Y-54230000D02*
X101950000Y-53170000D01*
X101950000Y-55230000D02*
X101950000Y-65290000D01*
X101950000Y-55230000D02*
X104070000Y-55230000D01*
X101950000Y-65290000D02*
X104070000Y-65290000D01*
X104070000Y-55230000D02*
X104070000Y-65290000D01*
%TO.C,J3*%
X125760000Y-96310000D02*
X125760000Y-98970000D01*
X138520000Y-96310000D02*
X125760000Y-96310000D01*
X138520000Y-96310000D02*
X138520000Y-98970000D01*
X138520000Y-98970000D02*
X125760000Y-98970000D01*
X139790000Y-96310000D02*
X141120000Y-96310000D01*
X141120000Y-96310000D02*
X141120000Y-97640000D01*
%TO.C,J2*%
X144150000Y-98910000D02*
X144150000Y-97580000D01*
X145480000Y-98910000D02*
X144150000Y-98910000D01*
X146750000Y-96250000D02*
X164590000Y-96250000D01*
X146750000Y-98910000D02*
X146750000Y-96250000D01*
X146750000Y-98910000D02*
X164590000Y-98910000D01*
X164590000Y-98910000D02*
X164590000Y-96250000D01*
%TO.C,J4*%
X115810000Y-50290000D02*
X115810000Y-48960000D01*
X117140000Y-50290000D02*
X115810000Y-50290000D01*
X118410000Y-47630000D02*
X141330000Y-47630000D01*
X118410000Y-50290000D02*
X118410000Y-47630000D01*
X118410000Y-50290000D02*
X141330000Y-50290000D01*
X141330000Y-50290000D02*
X141330000Y-47630000D01*
%TO.C,R6*%
X134280000Y-56030000D02*
X134280000Y-62570000D01*
X134280000Y-62570000D02*
X137020000Y-62570000D01*
X135650000Y-55260000D02*
X135650000Y-56030000D01*
X135650000Y-63340000D02*
X135650000Y-62570000D01*
X137020000Y-56030000D02*
X134280000Y-56030000D01*
X137020000Y-62570000D02*
X137020000Y-56030000D01*
D12*
%TO.C,J8*%
X149304000Y-83797000D02*
X149066000Y-83797000D01*
X153354000Y-83797000D02*
X153110000Y-83797000D01*
X153354000Y-83797000D02*
G75*
G02*
X149066000Y-83797000I-2144000J-1557707D01*
G01*
D13*
X152610000Y-83040000D02*
G75*
G02*
X152410000Y-83040000I-100000J0D01*
G01*
X152410000Y-83040000D02*
G75*
G02*
X152610000Y-83040000I100000J0D01*
G01*
D11*
%TO.C,R4*%
X149930000Y-69900000D02*
X149930000Y-76440000D01*
X149930000Y-76440000D02*
X152670000Y-76440000D01*
X151300000Y-69130000D02*
X151300000Y-69900000D01*
X151300000Y-77210000D02*
X151300000Y-76440000D01*
X152670000Y-69900000D02*
X149930000Y-69900000D01*
X152670000Y-76440000D02*
X152670000Y-69900000D01*
%TO.C,D5*%
X140540000Y-62654000D02*
X140540000Y-62810000D01*
X140540000Y-64970000D02*
X140540000Y-65126000D01*
X140540000Y-62654484D02*
G75*
G02*
X143771397Y-62809939I1560000J-1235516D01*
G01*
X141059039Y-62810000D02*
G75*
G02*
X143140910Y-62809951I1040961J-1080000D01*
G01*
X143140910Y-64970049D02*
G75*
G02*
X141059039Y-64970000I-1040910J1080049D01*
G01*
X143771397Y-64970061D02*
G75*
G02*
X140540000Y-65125516I-1671397J1080061D01*
G01*
%TO.C,J6*%
X107170000Y-70620000D02*
X107170000Y-80900000D01*
X107170000Y-80900000D02*
X108820000Y-80900000D01*
X110820000Y-80900000D02*
X112470000Y-80900000D01*
X112470000Y-70620000D02*
X107170000Y-70620000D01*
X112470000Y-80900000D02*
X112470000Y-70620000D01*
X108820000Y-80900000D02*
G75*
G02*
X110820000Y-80900000I1000000J0D01*
G01*
%TO.C,R5*%
X145930000Y-56740000D02*
X145930000Y-63280000D01*
X145930000Y-63280000D02*
X148670000Y-63280000D01*
X147300000Y-55970000D02*
X147300000Y-56740000D01*
X147300000Y-64050000D02*
X147300000Y-63280000D01*
X148670000Y-56740000D02*
X145930000Y-56740000D01*
X148670000Y-63280000D02*
X148670000Y-56740000D01*
%TO.C,D4*%
X160170000Y-76100000D02*
X160170000Y-75944000D01*
X160170000Y-78416000D02*
X160170000Y-78260000D01*
X156938603Y-76099939D02*
G75*
G02*
X160170000Y-75944484I1671397J-1080061D01*
G01*
X157569090Y-76099951D02*
G75*
G02*
X159650961Y-76100000I1040910J-1080049D01*
G01*
X159650961Y-78260000D02*
G75*
G02*
X157569090Y-78260049I-1040961J1080000D01*
G01*
X160170000Y-78415516D02*
G75*
G02*
X156938603Y-78260061I-1560000J1235516D01*
G01*
%TO.C,J5*%
X142740000Y-49920000D02*
X142740000Y-48590000D01*
X144070000Y-49920000D02*
X142740000Y-49920000D01*
X145340000Y-47260000D02*
X163180000Y-47260000D01*
X145340000Y-49920000D02*
X145340000Y-47260000D01*
X145340000Y-49920000D02*
X163180000Y-49920000D01*
X163180000Y-49920000D02*
X163180000Y-47260000D01*
%TO.C,J9*%
X125320000Y-71460000D02*
X126650000Y-71460000D01*
X125320000Y-72790000D02*
X125320000Y-71460000D01*
X125320000Y-74060000D02*
X125320000Y-86820000D01*
X125320000Y-74060000D02*
X127980000Y-74060000D01*
X125320000Y-86820000D02*
X127980000Y-86820000D01*
X127980000Y-74060000D02*
X127980000Y-86820000D01*
%TO.C,R2*%
X149930000Y-56620000D02*
X149930000Y-63160000D01*
X149930000Y-63160000D02*
X152670000Y-63160000D01*
X151300000Y-55850000D02*
X151300000Y-56620000D01*
X151300000Y-63930000D02*
X151300000Y-63160000D01*
X152670000Y-56620000D02*
X149930000Y-56620000D01*
X152670000Y-63160000D02*
X152670000Y-56620000D01*
%TO.C,D6*%
X142790000Y-55770000D02*
X142790000Y-55614000D01*
X142790000Y-58086000D02*
X142790000Y-57930000D01*
X139558603Y-55769939D02*
G75*
G02*
X142790000Y-55614484I1671397J-1080061D01*
G01*
X140189090Y-55769951D02*
G75*
G02*
X142270961Y-55770000I1040910J-1080049D01*
G01*
X142270961Y-57930000D02*
G75*
G02*
X140189090Y-57930049I-1040961J1080000D01*
G01*
X142790000Y-58085516D02*
G75*
G02*
X139558603Y-57930061I-1560000J1235516D01*
G01*
%TO.C,D1*%
X156960000Y-54034000D02*
X156960000Y-54190000D01*
X156960000Y-56350000D02*
X156960000Y-56506000D01*
X156960000Y-54034484D02*
G75*
G02*
X160191397Y-54189939I1560000J-1235516D01*
G01*
X157479039Y-54190000D02*
G75*
G02*
X159560910Y-54189951I1040961J-1080000D01*
G01*
X159560910Y-56350049D02*
G75*
G02*
X157479039Y-56350000I-1040910J1080049D01*
G01*
X160191397Y-56350061D02*
G75*
G02*
X156960000Y-56505516I-1671397J1080061D01*
G01*
D12*
%TO.C,J7*%
X160626000Y-87183000D02*
X160870000Y-87183000D01*
X164676000Y-87183000D02*
X164914000Y-87183000D01*
X160626000Y-87183000D02*
G75*
G02*
X164914000Y-87183000I2144000J1557707D01*
G01*
D13*
X161570000Y-87940000D02*
G75*
G02*
X161370000Y-87940000I-100000J0D01*
G01*
X161370000Y-87940000D02*
G75*
G02*
X161570000Y-87940000I100000J0D01*
G01*
D11*
%TO.C,D3*%
X154940000Y-68334000D02*
X154940000Y-68490000D01*
X154940000Y-70650000D02*
X154940000Y-70806000D01*
X154940000Y-68334484D02*
G75*
G02*
X158171397Y-68489939I1560000J-1235516D01*
G01*
X155459039Y-68490000D02*
G75*
G02*
X157540910Y-68489951I1040961J-1080000D01*
G01*
X157540910Y-70650049D02*
G75*
G02*
X155459039Y-70650000I-1040910J1080049D01*
G01*
X158171397Y-70650061D02*
G75*
G02*
X154940000Y-70805516I-1671397J1080061D01*
G01*
%TO.C,R3*%
X162890000Y-70220000D02*
X162890000Y-76760000D01*
X162890000Y-76760000D02*
X165630000Y-76760000D01*
X164260000Y-69450000D02*
X164260000Y-70220000D01*
X164260000Y-77530000D02*
X164260000Y-76760000D01*
X165630000Y-70220000D02*
X162890000Y-70220000D01*
X165630000Y-76760000D02*
X165630000Y-70220000D01*
%TO.C,D2*%
X159690000Y-62790000D02*
X159690000Y-62634000D01*
X159690000Y-65106000D02*
X159690000Y-64950000D01*
X156458603Y-62789939D02*
G75*
G02*
X159690000Y-62634484I1671397J-1080061D01*
G01*
X157089090Y-62789951D02*
G75*
G02*
X159170961Y-62790000I1040910J-1080049D01*
G01*
X159170961Y-64950000D02*
G75*
G02*
X157089090Y-64950049I-1040961J1080000D01*
G01*
X159690000Y-65105516D02*
G75*
G02*
X156458603Y-64950061I-1560000J1235516D01*
G01*
%TO.C,J10*%
X108180000Y-84350000D02*
X109510000Y-84350000D01*
X108180000Y-85680000D02*
X108180000Y-84350000D01*
X108180000Y-86950000D02*
X108180000Y-92090000D01*
X108180000Y-86950000D02*
X110840000Y-86950000D01*
X108180000Y-92090000D02*
X110840000Y-92090000D01*
X110840000Y-86950000D02*
X110840000Y-92090000D01*
%TO.C,R1*%
X162830000Y-56780000D02*
X162830000Y-63320000D01*
X162830000Y-63320000D02*
X165570000Y-63320000D01*
X164200000Y-56010000D02*
X164200000Y-56780000D01*
X164200000Y-64090000D02*
X164200000Y-63320000D01*
X165570000Y-56780000D02*
X162830000Y-56780000D01*
X165570000Y-63320000D02*
X165570000Y-56780000D01*
%TD*%
M02*
