%TF.GenerationSoftware,KiCad,Pcbnew,8.0.8*%
%TF.CreationDate,2025-03-13T16:31:01-06:00*%
%TF.ProjectId,micro_final_phaseD,6d696372-6f5f-4666-996e-616c5f706861,rev?*%
%TF.SameCoordinates,Original*%
%TF.FileFunction,Copper,L2,Bot*%
%TF.FilePolarity,Positive*%
%FSLAX46Y46*%
G04 Gerber Fmt 4.6, Leading zero omitted, Abs format (unit mm)*
G04 Created by KiCad (PCBNEW 8.0.8) date 2025-03-13 16:31:01*
%MOMM*%
%LPD*%
G01*
G04 APERTURE LIST*
%TA.AperFunction,ComponentPad*%
%ADD10R,1.350000X1.350000*%
%TD*%
%TA.AperFunction,ComponentPad*%
%ADD11O,1.350000X1.350000*%
%TD*%
%TA.AperFunction,ComponentPad*%
%ADD12R,1.700000X1.700000*%
%TD*%
%TA.AperFunction,ComponentPad*%
%ADD13O,1.700000X1.700000*%
%TD*%
%TA.AperFunction,ComponentPad*%
%ADD14C,1.600000*%
%TD*%
%TA.AperFunction,ComponentPad*%
%ADD15O,1.600000X1.600000*%
%TD*%
%TA.AperFunction,ComponentPad*%
%ADD16O,1.000000X2.200000*%
%TD*%
%TA.AperFunction,ComponentPad*%
%ADD17R,1.800000X1.800000*%
%TD*%
%TA.AperFunction,ComponentPad*%
%ADD18C,1.800000*%
%TD*%
%TA.AperFunction,ComponentPad*%
%ADD19R,1.600000X1.600000*%
%TD*%
%TA.AperFunction,ViaPad*%
%ADD20C,0.600000*%
%TD*%
%TA.AperFunction,ViaPad*%
%ADD21C,0.800000*%
%TD*%
%TA.AperFunction,Conductor*%
%ADD22C,0.250000*%
%TD*%
G04 APERTURE END LIST*
D10*
%TO.P,J1,1,Pin_1*%
%TO.N,unconnected-(J1-Pin_1-Pad1)*%
X103010000Y-54230000D03*
D11*
%TO.P,J1,2,Pin_2*%
%TO.N,/RXI*%
X103010000Y-56230000D03*
%TO.P,J1,3,Pin_3*%
%TO.N,/TXO*%
X103010000Y-58230000D03*
%TO.P,J1,4,Pin_4*%
%TO.N,+5V*%
X103010000Y-60230000D03*
%TO.P,J1,5,Pin_5*%
%TO.N,GND*%
X103010000Y-62230000D03*
%TO.P,J1,6,Pin_6*%
%TO.N,unconnected-(J1-Pin_6-Pad6)*%
X103010000Y-64230000D03*
%TD*%
D12*
%TO.P,J3,1,Pin_1*%
%TO.N,/INTERNAL_TEMP*%
X139790000Y-97640000D03*
D13*
%TO.P,J3,2,Pin_2*%
%TO.N,/EXTERNAL_TEMP*%
X137250000Y-97640000D03*
%TO.P,J3,3,Pin_3*%
%TO.N,/ACCELZ*%
X134710000Y-97640000D03*
%TO.P,J3,4,Pin_4*%
%TO.N,/ACCELX*%
X132170000Y-97640000D03*
%TO.P,J3,5,Pin_5*%
%TO.N,/PRESSURE_OUTPUT*%
X129630000Y-97640000D03*
%TO.P,J3,6,Pin_6*%
%TO.N,/HUMIDITY_OUTPUT*%
X127090000Y-97640000D03*
%TD*%
D12*
%TO.P,J2,1,Pin_1*%
%TO.N,unconnected-(J2-Pin_1-Pad1)*%
X145480000Y-97580000D03*
D13*
%TO.P,J2,2,Pin_2*%
%TO.N,/IOREF*%
X148020000Y-97580000D03*
%TO.P,J2,3,Pin_3*%
%TO.N,/~{RESET}*%
X150560000Y-97580000D03*
%TO.P,J2,4,Pin_4*%
%TO.N,+3V3*%
X153100000Y-97580000D03*
%TO.P,J2,5,Pin_5*%
%TO.N,+5V*%
X155640000Y-97580000D03*
%TO.P,J2,6,Pin_6*%
%TO.N,GND*%
X158180000Y-97580000D03*
%TO.P,J2,7,Pin_7*%
X160720000Y-97580000D03*
%TO.P,J2,8,Pin_8*%
%TO.N,VCC*%
X163260000Y-97580000D03*
%TD*%
D12*
%TO.P,J4,1,Pin_1*%
%TO.N,/SCL{slash}A5*%
X117140000Y-48960000D03*
D13*
%TO.P,J4,2,Pin_2*%
%TO.N,/SDA{slash}A4*%
X119680000Y-48960000D03*
%TO.P,J4,3,Pin_3*%
%TO.N,/AREF*%
X122220000Y-48960000D03*
%TO.P,J4,4,Pin_4*%
%TO.N,GND*%
X124760000Y-48960000D03*
%TO.P,J4,5,Pin_5*%
%TO.N,/13*%
X127300000Y-48960000D03*
%TO.P,J4,6,Pin_6*%
%TO.N,/12*%
X129840000Y-48960000D03*
%TO.P,J4,7,Pin_7*%
%TO.N,/\u002A11*%
X132380000Y-48960000D03*
%TO.P,J4,8,Pin_8*%
%TO.N,/\u002A10*%
X134920000Y-48960000D03*
%TO.P,J4,9,Pin_9*%
%TO.N,/ACCELS_LED*%
X137460000Y-48960000D03*
%TO.P,J4,10,Pin_10*%
%TO.N,/8*%
X140000000Y-48960000D03*
%TD*%
D14*
%TO.P,R6,1*%
%TO.N,/ACCELS_LED*%
X135650000Y-64380000D03*
D15*
%TO.P,R6,2*%
%TO.N,Net-(D6-A)*%
X135650000Y-54220000D03*
%TD*%
D16*
%TO.P,J8,1,Pin_1*%
%TO.N,+5V*%
X152480000Y-85060000D03*
%TO.P,J8,2,Pin_2*%
%TO.N,/EXTERNAL_TEMP*%
X151210000Y-85060000D03*
%TO.P,J8,3,Pin_3*%
%TO.N,GND*%
X149940000Y-85060000D03*
%TD*%
D14*
%TO.P,R4,1*%
%TO.N,/HUMIDITY_LED*%
X151300000Y-68090000D03*
D15*
%TO.P,R4,2*%
%TO.N,Net-(D4-A)*%
X151300000Y-78250000D03*
%TD*%
D17*
%TO.P,D5,1,K*%
%TO.N,GND*%
X140830000Y-63890000D03*
D18*
%TO.P,D5,2,A*%
%TO.N,Net-(D5-A)*%
X143370000Y-63890000D03*
%TD*%
D19*
%TO.P,J6,1,Pin_1*%
%TO.N,unconnected-(J6-Pin_1-Pad1)*%
X113630000Y-79570000D03*
D15*
%TO.P,J6,2,Pin_2*%
%TO.N,+5V*%
X113630000Y-77030000D03*
%TO.P,J6,3,Pin_3*%
%TO.N,/PRESSURE_OUTPUT*%
X113630000Y-74490000D03*
%TO.P,J6,4,Pin_4*%
%TO.N,GND*%
X113630000Y-71950000D03*
%TO.P,J6,5,Pin_5*%
%TO.N,unconnected-(J6-Pin_5-Pad5)*%
X106010000Y-71950000D03*
%TO.P,J6,6,Pin_6*%
%TO.N,unconnected-(J6-Pin_6-Pad6)*%
X106010000Y-74490000D03*
%TO.P,J6,7,Pin_7*%
%TO.N,unconnected-(J6-Pin_7-Pad7)*%
X106010000Y-77030000D03*
%TO.P,J6,8,Pin_8*%
%TO.N,unconnected-(J6-Pin_8-Pad8)*%
X106010000Y-79570000D03*
%TD*%
D14*
%TO.P,R5,1*%
%TO.N,/PRESSURE_LED*%
X147300000Y-54930000D03*
D15*
%TO.P,R5,2*%
%TO.N,Net-(D5-A)*%
X147300000Y-65090000D03*
%TD*%
D17*
%TO.P,D4,1,K*%
%TO.N,GND*%
X159880000Y-77180000D03*
D18*
%TO.P,D4,2,A*%
%TO.N,Net-(D4-A)*%
X157340000Y-77180000D03*
%TD*%
D12*
%TO.P,J5,1,Pin_1*%
%TO.N,/RX1*%
X144070000Y-48590000D03*
D13*
%TO.P,J5,2,Pin_2*%
%TO.N,/2*%
X146610000Y-48590000D03*
%TO.P,J5,3,Pin_3*%
%TO.N,/PRESSURE_LED*%
X149150000Y-48590000D03*
%TO.P,J5,4,Pin_4*%
%TO.N,/INTERNAL_TEMP_LED*%
X151690000Y-48590000D03*
%TO.P,J5,5,Pin_5*%
%TO.N,/HUMIDITY_LED*%
X154230000Y-48590000D03*
%TO.P,J5,6,Pin_6*%
%TO.N,/EXTERNAL_TEMP_LED*%
X156770000Y-48590000D03*
%TO.P,J5,7,Pin_7*%
%TO.N,/ON_LED*%
X159310000Y-48590000D03*
%TO.P,J5,8,Pin_8*%
%TO.N,unconnected-(J5-Pin_8-Pad8)*%
X161850000Y-48590000D03*
%TD*%
D12*
%TO.P,J9,1,Pin_1*%
%TO.N,/SELF_TEST*%
X126650000Y-72790000D03*
D13*
%TO.P,J9,2,Pin_2*%
%TO.N,/ACCELZ*%
X126650000Y-75330000D03*
%TO.P,J9,3,Pin_3*%
%TO.N,/ACCELY*%
X126650000Y-77870000D03*
%TO.P,J9,4,Pin_4*%
%TO.N,/ACCELX*%
X126650000Y-80410000D03*
%TO.P,J9,5,Pin_5*%
%TO.N,GND*%
X126650000Y-82950000D03*
%TO.P,J9,6,Pin_6*%
%TO.N,+3V3*%
X126650000Y-85490000D03*
%TD*%
D14*
%TO.P,R2,1*%
%TO.N,/INTERNAL_TEMP_LED*%
X151300000Y-54810000D03*
D15*
%TO.P,R2,2*%
%TO.N,Net-(D2-A)*%
X151300000Y-64970000D03*
%TD*%
D17*
%TO.P,D6,1,K*%
%TO.N,GND*%
X142500000Y-56850000D03*
D18*
%TO.P,D6,2,A*%
%TO.N,Net-(D6-A)*%
X139960000Y-56850000D03*
%TD*%
D17*
%TO.P,D1,1,K*%
%TO.N,GND*%
X157250000Y-55270000D03*
D18*
%TO.P,D1,2,A*%
%TO.N,Net-(D1-A)*%
X159790000Y-55270000D03*
%TD*%
D16*
%TO.P,J7,1,Pin_1*%
%TO.N,+5V*%
X161500000Y-85920000D03*
%TO.P,J7,2,Pin_2*%
%TO.N,/INTERNAL_TEMP*%
X162770000Y-85920000D03*
%TO.P,J7,3,Pin_3*%
%TO.N,GND*%
X164040000Y-85920000D03*
%TD*%
D17*
%TO.P,D3,1,K*%
%TO.N,GND*%
X155230000Y-69570000D03*
D18*
%TO.P,D3,2,A*%
%TO.N,Net-(D3-A)*%
X157770000Y-69570000D03*
%TD*%
D14*
%TO.P,R3,1*%
%TO.N,/EXTERNAL_TEMP_LED*%
X164260000Y-78570000D03*
D15*
%TO.P,R3,2*%
%TO.N,Net-(D3-A)*%
X164260000Y-68410000D03*
%TD*%
D17*
%TO.P,D2,1,K*%
%TO.N,GND*%
X159400000Y-63870000D03*
D18*
%TO.P,D2,2,A*%
%TO.N,Net-(D2-A)*%
X156860000Y-63870000D03*
%TD*%
D12*
%TO.P,J10,1,Pin_1*%
%TO.N,+5V*%
X109510000Y-85680000D03*
D13*
%TO.P,J10,2,Pin_2*%
%TO.N,/HUMIDITY_OUTPUT*%
X109510000Y-88220000D03*
%TO.P,J10,3,Pin_3*%
%TO.N,GND*%
X109510000Y-90760000D03*
%TD*%
D14*
%TO.P,R1,1*%
%TO.N,/ON_LED*%
X164200000Y-54970000D03*
D15*
%TO.P,R1,2*%
%TO.N,Net-(D1-A)*%
X164200000Y-65130000D03*
%TD*%
D20*
%TO.N,+3V3*%
X145171942Y-93141942D03*
X135335000Y-90620000D03*
X131545000Y-89360000D03*
X141808058Y-92198058D03*
D21*
%TO.N,/PRESSURE_OUTPUT*%
X117512653Y-95197347D03*
X115527347Y-95262653D03*
%TO.N,/INTERNAL_TEMP*%
X154915000Y-91580000D03*
X156365000Y-91580000D03*
%TD*%
D22*
%TO.N,+3V3*%
X145171942Y-93141942D02*
X144228058Y-92198058D01*
X132805000Y-90620000D02*
X131545000Y-89360000D01*
X135335000Y-90620000D02*
X132805000Y-90620000D01*
X144228058Y-92198058D02*
X141808058Y-92198058D01*
%TO.N,/PRESSURE_OUTPUT*%
X117512653Y-95197347D02*
X115592653Y-95197347D01*
X115592653Y-95197347D02*
X115527347Y-95262653D01*
%TO.N,/INTERNAL_TEMP*%
X156365000Y-91580000D02*
X155280000Y-91580000D01*
X155250000Y-91610000D02*
X154945000Y-91610000D01*
X154945000Y-91610000D02*
X154915000Y-91580000D01*
X155280000Y-91580000D02*
X155250000Y-91610000D01*
%TD*%
%TA.AperFunction,Conductor*%
%TO.N,GND*%
G36*
X160254075Y-97387007D02*
G01*
X160220000Y-97514174D01*
X160220000Y-97645826D01*
X160254075Y-97772993D01*
X160286988Y-97830000D01*
X158613012Y-97830000D01*
X158645925Y-97772993D01*
X158680000Y-97645826D01*
X158680000Y-97514174D01*
X158645925Y-97387007D01*
X158613012Y-97330000D01*
X160286988Y-97330000D01*
X160254075Y-97387007D01*
G37*
%TD.AperFunction*%
%TA.AperFunction,Conductor*%
G36*
X163484404Y-46755185D02*
G01*
X163505046Y-46771819D01*
X165928181Y-49194954D01*
X165961666Y-49256277D01*
X165964500Y-49282635D01*
X165964500Y-59344982D01*
X165964500Y-59375018D01*
X165975994Y-59402767D01*
X165975995Y-59402768D01*
X168468181Y-61894954D01*
X168501666Y-61956277D01*
X168504500Y-61982635D01*
X168504500Y-96107364D01*
X168484815Y-96174403D01*
X168468181Y-96195045D01*
X165997233Y-98665994D01*
X165975995Y-98687231D01*
X165964500Y-98714982D01*
X165964500Y-99231907D01*
X165963903Y-99244062D01*
X165952505Y-99359778D01*
X165947763Y-99383618D01*
X165917832Y-99482290D01*
X165915789Y-99489024D01*
X165906486Y-99511482D01*
X165854561Y-99608627D01*
X165841056Y-99628839D01*
X165771176Y-99713988D01*
X165753988Y-99731176D01*
X165668839Y-99801056D01*
X165648627Y-99814561D01*
X165551482Y-99866486D01*
X165529028Y-99875787D01*
X165487028Y-99888528D01*
X165423618Y-99907763D01*
X165399778Y-99912505D01*
X165291162Y-99923203D01*
X165284060Y-99923903D01*
X165271907Y-99924500D01*
X100768093Y-99924500D01*
X100755939Y-99923903D01*
X100747995Y-99923120D01*
X100640221Y-99912505D01*
X100616381Y-99907763D01*
X100599445Y-99902625D01*
X100510968Y-99875786D01*
X100488517Y-99866486D01*
X100391372Y-99814561D01*
X100371160Y-99801056D01*
X100286011Y-99731176D01*
X100268823Y-99713988D01*
X100198943Y-99628839D01*
X100185438Y-99608627D01*
X100133510Y-99511476D01*
X100124215Y-99489037D01*
X100092234Y-99383612D01*
X100087494Y-99359777D01*
X100076097Y-99244061D01*
X100075500Y-99231907D01*
X100075500Y-97639994D01*
X125726844Y-97639994D01*
X125726844Y-97640005D01*
X125745434Y-97864359D01*
X125745436Y-97864371D01*
X125800703Y-98082614D01*
X125891140Y-98288792D01*
X126014276Y-98477265D01*
X126014284Y-98477276D01*
X126166756Y-98642902D01*
X126166760Y-98642906D01*
X126344424Y-98781189D01*
X126344425Y-98781189D01*
X126344427Y-98781191D01*
X126366729Y-98793260D01*
X126542426Y-98888342D01*
X126755365Y-98961444D01*
X126977431Y-98998500D01*
X127202569Y-98998500D01*
X127424635Y-98961444D01*
X127637574Y-98888342D01*
X127835576Y-98781189D01*
X128013240Y-98642906D01*
X128165722Y-98477268D01*
X128256193Y-98338790D01*
X128309338Y-98293437D01*
X128378569Y-98284013D01*
X128441905Y-98313515D01*
X128463804Y-98338787D01*
X128554278Y-98477268D01*
X128554283Y-98477273D01*
X128554284Y-98477276D01*
X128706756Y-98642902D01*
X128706760Y-98642906D01*
X128884424Y-98781189D01*
X128884425Y-98781189D01*
X128884427Y-98781191D01*
X128906729Y-98793260D01*
X129082426Y-98888342D01*
X129295365Y-98961444D01*
X129517431Y-98998500D01*
X129742569Y-98998500D01*
X129964635Y-98961444D01*
X130177574Y-98888342D01*
X130375576Y-98781189D01*
X130553240Y-98642906D01*
X130705722Y-98477268D01*
X130796193Y-98338790D01*
X130849338Y-98293437D01*
X130918569Y-98284013D01*
X130981905Y-98313515D01*
X131003804Y-98338787D01*
X131094278Y-98477268D01*
X131094283Y-98477273D01*
X131094284Y-98477276D01*
X131246756Y-98642902D01*
X131246760Y-98642906D01*
X131424424Y-98781189D01*
X131424425Y-98781189D01*
X131424427Y-98781191D01*
X131446729Y-98793260D01*
X131622426Y-98888342D01*
X131835365Y-98961444D01*
X132057431Y-98998500D01*
X132282569Y-98998500D01*
X132504635Y-98961444D01*
X132717574Y-98888342D01*
X132915576Y-98781189D01*
X133093240Y-98642906D01*
X133245722Y-98477268D01*
X133336193Y-98338790D01*
X133389338Y-98293437D01*
X133458569Y-98284013D01*
X133521905Y-98313515D01*
X133543804Y-98338787D01*
X133634278Y-98477268D01*
X133634283Y-98477273D01*
X133634284Y-98477276D01*
X133786756Y-98642902D01*
X133786760Y-98642906D01*
X133964424Y-98781189D01*
X133964425Y-98781189D01*
X133964427Y-98781191D01*
X133986729Y-98793260D01*
X134162426Y-98888342D01*
X134375365Y-98961444D01*
X134597431Y-98998500D01*
X134822569Y-98998500D01*
X135044635Y-98961444D01*
X135257574Y-98888342D01*
X135455576Y-98781189D01*
X135633240Y-98642906D01*
X135785722Y-98477268D01*
X135876193Y-98338790D01*
X135929338Y-98293437D01*
X135998569Y-98284013D01*
X136061905Y-98313515D01*
X136083804Y-98338787D01*
X136174278Y-98477268D01*
X136174283Y-98477273D01*
X136174284Y-98477276D01*
X136326756Y-98642902D01*
X136326760Y-98642906D01*
X136504424Y-98781189D01*
X136504425Y-98781189D01*
X136504427Y-98781191D01*
X136526729Y-98793260D01*
X136702426Y-98888342D01*
X136915365Y-98961444D01*
X137137431Y-98998500D01*
X137362569Y-98998500D01*
X137584635Y-98961444D01*
X137797574Y-98888342D01*
X137995576Y-98781189D01*
X138173240Y-98642906D01*
X138236452Y-98574239D01*
X138296337Y-98538250D01*
X138366175Y-98540349D01*
X138423791Y-98579873D01*
X138443861Y-98614888D01*
X138483510Y-98721187D01*
X138489111Y-98736204D01*
X138576739Y-98853261D01*
X138693796Y-98940889D01*
X138830799Y-98991989D01*
X138858050Y-98994918D01*
X138891345Y-98998499D01*
X138891362Y-98998500D01*
X140688638Y-98998500D01*
X140688654Y-98998499D01*
X140715692Y-98995591D01*
X140749201Y-98991989D01*
X140886204Y-98940889D01*
X141003261Y-98853261D01*
X141090889Y-98736204D01*
X141141989Y-98599201D01*
X141146753Y-98554889D01*
X141148499Y-98538654D01*
X141148500Y-98538637D01*
X141148500Y-96741362D01*
X141148499Y-96741345D01*
X141144672Y-96705759D01*
X141142048Y-96681345D01*
X144121500Y-96681345D01*
X144121500Y-98478654D01*
X144128011Y-98539202D01*
X144128011Y-98539204D01*
X144175303Y-98665994D01*
X144179111Y-98676204D01*
X144266739Y-98793261D01*
X144383796Y-98880889D01*
X144520799Y-98931989D01*
X144548050Y-98934918D01*
X144581345Y-98938499D01*
X144581362Y-98938500D01*
X146378638Y-98938500D01*
X146378654Y-98938499D01*
X146405692Y-98935591D01*
X146439201Y-98931989D01*
X146576204Y-98880889D01*
X146693261Y-98793261D01*
X146780889Y-98676204D01*
X146826138Y-98554887D01*
X146868009Y-98498956D01*
X146933474Y-98474539D01*
X147001746Y-98489391D01*
X147033545Y-98514236D01*
X147096760Y-98582906D01*
X147274424Y-98721189D01*
X147274425Y-98721189D01*
X147274427Y-98721191D01*
X147302169Y-98736204D01*
X147472426Y-98828342D01*
X147685365Y-98901444D01*
X147907431Y-98938500D01*
X148132569Y-98938500D01*
X148354635Y-98901444D01*
X148567574Y-98828342D01*
X148765576Y-98721189D01*
X148943240Y-98582906D01*
X149064594Y-98451082D01*
X149095715Y-98417276D01*
X149095715Y-98417275D01*
X149095722Y-98417268D01*
X149186193Y-98278790D01*
X149239338Y-98233437D01*
X149308569Y-98224013D01*
X149371905Y-98253515D01*
X149393804Y-98278787D01*
X149484278Y-98417268D01*
X149484283Y-98417273D01*
X149484284Y-98417276D01*
X149636756Y-98582902D01*
X149636761Y-98582907D01*
X149657697Y-98599202D01*
X149814424Y-98721189D01*
X149814425Y-98721189D01*
X149814427Y-98721191D01*
X149842169Y-98736204D01*
X150012426Y-98828342D01*
X150225365Y-98901444D01*
X150447431Y-98938500D01*
X150672569Y-98938500D01*
X150894635Y-98901444D01*
X151107574Y-98828342D01*
X151305576Y-98721189D01*
X151483240Y-98582906D01*
X151604594Y-98451082D01*
X151635715Y-98417276D01*
X151635715Y-98417275D01*
X151635722Y-98417268D01*
X151726193Y-98278790D01*
X151779338Y-98233437D01*
X151848569Y-98224013D01*
X151911905Y-98253515D01*
X151933804Y-98278787D01*
X152024278Y-98417268D01*
X152024283Y-98417273D01*
X152024284Y-98417276D01*
X152176756Y-98582902D01*
X152176761Y-98582907D01*
X152197697Y-98599202D01*
X152354424Y-98721189D01*
X152354425Y-98721189D01*
X152354427Y-98721191D01*
X152382169Y-98736204D01*
X152552426Y-98828342D01*
X152765365Y-98901444D01*
X152987431Y-98938500D01*
X153212569Y-98938500D01*
X153434635Y-98901444D01*
X153647574Y-98828342D01*
X153845576Y-98721189D01*
X154023240Y-98582906D01*
X154144594Y-98451082D01*
X154175715Y-98417276D01*
X154175715Y-98417275D01*
X154175722Y-98417268D01*
X154266193Y-98278790D01*
X154319338Y-98233437D01*
X154388569Y-98224013D01*
X154451905Y-98253515D01*
X154473804Y-98278787D01*
X154564278Y-98417268D01*
X154564283Y-98417273D01*
X154564284Y-98417276D01*
X154716756Y-98582902D01*
X154716761Y-98582907D01*
X154737697Y-98599202D01*
X154894424Y-98721189D01*
X154894425Y-98721189D01*
X154894427Y-98721191D01*
X154922169Y-98736204D01*
X155092426Y-98828342D01*
X155305365Y-98901444D01*
X155527431Y-98938500D01*
X155752569Y-98938500D01*
X155974635Y-98901444D01*
X156187574Y-98828342D01*
X156385576Y-98721189D01*
X156563240Y-98582906D01*
X156684594Y-98451082D01*
X156715715Y-98417276D01*
X156715715Y-98417275D01*
X156715722Y-98417268D01*
X156809749Y-98273347D01*
X156862894Y-98227994D01*
X156932125Y-98218570D01*
X156995461Y-98248072D01*
X157015130Y-98270048D01*
X157141890Y-98451078D01*
X157308917Y-98618105D01*
X157502421Y-98753600D01*
X157716507Y-98853429D01*
X157716516Y-98853433D01*
X157930000Y-98910634D01*
X157930000Y-98013012D01*
X157987007Y-98045925D01*
X158114174Y-98080000D01*
X158245826Y-98080000D01*
X158372993Y-98045925D01*
X158430000Y-98013012D01*
X158430000Y-98910633D01*
X158643483Y-98853433D01*
X158643492Y-98853429D01*
X158857578Y-98753600D01*
X159051082Y-98618105D01*
X159218105Y-98451082D01*
X159348425Y-98264968D01*
X159403002Y-98221344D01*
X159472501Y-98214151D01*
X159534855Y-98245673D01*
X159551575Y-98264968D01*
X159681894Y-98451082D01*
X159848917Y-98618105D01*
X160042421Y-98753600D01*
X160256507Y-98853429D01*
X160256516Y-98853433D01*
X160470000Y-98910634D01*
X160470000Y-98013012D01*
X160527007Y-98045925D01*
X160654174Y-98080000D01*
X160785826Y-98080000D01*
X160912993Y-98045925D01*
X160970000Y-98013012D01*
X160970000Y-98910633D01*
X161183483Y-98853433D01*
X161183492Y-98853429D01*
X161397578Y-98753600D01*
X161591082Y-98618105D01*
X161758105Y-98451082D01*
X161884868Y-98270048D01*
X161939445Y-98226423D01*
X162008944Y-98219231D01*
X162071298Y-98250753D01*
X162090251Y-98273350D01*
X162184276Y-98417265D01*
X162184284Y-98417276D01*
X162336756Y-98582902D01*
X162336761Y-98582907D01*
X162357697Y-98599202D01*
X162514424Y-98721189D01*
X162514425Y-98721189D01*
X162514427Y-98721191D01*
X162542169Y-98736204D01*
X162712426Y-98828342D01*
X162925365Y-98901444D01*
X163147431Y-98938500D01*
X163372569Y-98938500D01*
X163594635Y-98901444D01*
X163807574Y-98828342D01*
X164005576Y-98721189D01*
X164183240Y-98582906D01*
X164304594Y-98451082D01*
X164335715Y-98417276D01*
X164335717Y-98417273D01*
X164335722Y-98417268D01*
X164458860Y-98228791D01*
X164549296Y-98022616D01*
X164604564Y-97804368D01*
X164607164Y-97772993D01*
X164623156Y-97580005D01*
X164623156Y-97579994D01*
X164604565Y-97355640D01*
X164604563Y-97355628D01*
X164549296Y-97137385D01*
X164539071Y-97114075D01*
X164458860Y-96931209D01*
X164442706Y-96906484D01*
X164335723Y-96742734D01*
X164335715Y-96742723D01*
X164183243Y-96577097D01*
X164183238Y-96577092D01*
X164005577Y-96438812D01*
X164005572Y-96438808D01*
X163807580Y-96331661D01*
X163807577Y-96331659D01*
X163807574Y-96331658D01*
X163807571Y-96331657D01*
X163807569Y-96331656D01*
X163594637Y-96258556D01*
X163372569Y-96221500D01*
X163147431Y-96221500D01*
X162925362Y-96258556D01*
X162712430Y-96331656D01*
X162712419Y-96331661D01*
X162514427Y-96438808D01*
X162514422Y-96438812D01*
X162336761Y-96577092D01*
X162336756Y-96577097D01*
X162184284Y-96742723D01*
X162184276Y-96742734D01*
X162090251Y-96886650D01*
X162037105Y-96932007D01*
X161967873Y-96941430D01*
X161904538Y-96911928D01*
X161884868Y-96889951D01*
X161758113Y-96708926D01*
X161758108Y-96708920D01*
X161591082Y-96541894D01*
X161397578Y-96406399D01*
X161183492Y-96306570D01*
X161183486Y-96306567D01*
X160970000Y-96249364D01*
X160970000Y-97146988D01*
X160912993Y-97114075D01*
X160785826Y-97080000D01*
X160654174Y-97080000D01*
X160527007Y-97114075D01*
X160470000Y-97146988D01*
X160470000Y-96249364D01*
X160469999Y-96249364D01*
X160256513Y-96306567D01*
X160256507Y-96306570D01*
X160042422Y-96406399D01*
X160042420Y-96406400D01*
X159848926Y-96541886D01*
X159848920Y-96541891D01*
X159681891Y-96708920D01*
X159681890Y-96708922D01*
X159551575Y-96895031D01*
X159496998Y-96938655D01*
X159427499Y-96945848D01*
X159365145Y-96914326D01*
X159348425Y-96895031D01*
X159218109Y-96708922D01*
X159218108Y-96708920D01*
X159051082Y-96541894D01*
X158857578Y-96406399D01*
X158643492Y-96306570D01*
X158643486Y-96306567D01*
X158430000Y-96249364D01*
X158430000Y-97146988D01*
X158372993Y-97114075D01*
X158245826Y-97080000D01*
X158114174Y-97080000D01*
X157987007Y-97114075D01*
X157930000Y-97146988D01*
X157930000Y-96249364D01*
X157929999Y-96249364D01*
X157716513Y-96306567D01*
X157716507Y-96306570D01*
X157502422Y-96406399D01*
X157502420Y-96406400D01*
X157308926Y-96541886D01*
X157308920Y-96541891D01*
X157141891Y-96708920D01*
X157141890Y-96708922D01*
X157015131Y-96889952D01*
X156960554Y-96933577D01*
X156891055Y-96940769D01*
X156828701Y-96909247D01*
X156809752Y-96886656D01*
X156715722Y-96742732D01*
X156715715Y-96742725D01*
X156715715Y-96742723D01*
X156563243Y-96577097D01*
X156563238Y-96577092D01*
X156385577Y-96438812D01*
X156385572Y-96438808D01*
X156187580Y-96331661D01*
X156187577Y-96331659D01*
X156187574Y-96331658D01*
X156187571Y-96331657D01*
X156187569Y-96331656D01*
X155974637Y-96258556D01*
X155752569Y-96221500D01*
X155527431Y-96221500D01*
X155305362Y-96258556D01*
X155092430Y-96331656D01*
X155092419Y-96331661D01*
X154894427Y-96438808D01*
X154894422Y-96438812D01*
X154716761Y-96577092D01*
X154716756Y-96577097D01*
X154564284Y-96742723D01*
X154564276Y-96742734D01*
X154473808Y-96881206D01*
X154420662Y-96926562D01*
X154351431Y-96935986D01*
X154288095Y-96906484D01*
X154266192Y-96881206D01*
X154175723Y-96742734D01*
X154175715Y-96742723D01*
X154023243Y-96577097D01*
X154023238Y-96577092D01*
X153845577Y-96438812D01*
X153845572Y-96438808D01*
X153647580Y-96331661D01*
X153647577Y-96331659D01*
X153647574Y-96331658D01*
X153647571Y-96331657D01*
X153647569Y-96331656D01*
X153434637Y-96258556D01*
X153212569Y-96221500D01*
X152987431Y-96221500D01*
X152765362Y-96258556D01*
X152552430Y-96331656D01*
X152552419Y-96331661D01*
X152354427Y-96438808D01*
X152354422Y-96438812D01*
X152176761Y-96577092D01*
X152176756Y-96577097D01*
X152024284Y-96742723D01*
X152024276Y-96742734D01*
X151933808Y-96881206D01*
X151880662Y-96926562D01*
X151811431Y-96935986D01*
X151748095Y-96906484D01*
X151726192Y-96881206D01*
X151635723Y-96742734D01*
X151635715Y-96742723D01*
X151483243Y-96577097D01*
X151483238Y-96577092D01*
X151305577Y-96438812D01*
X151305572Y-96438808D01*
X151107580Y-96331661D01*
X151107577Y-96331659D01*
X151107574Y-96331658D01*
X151107571Y-96331657D01*
X151107569Y-96331656D01*
X150894637Y-96258556D01*
X150672569Y-96221500D01*
X150447431Y-96221500D01*
X150225362Y-96258556D01*
X150012430Y-96331656D01*
X150012419Y-96331661D01*
X149814427Y-96438808D01*
X149814422Y-96438812D01*
X149636761Y-96577092D01*
X149636756Y-96577097D01*
X149484284Y-96742723D01*
X149484276Y-96742734D01*
X149393808Y-96881206D01*
X149340662Y-96926562D01*
X149271431Y-96935986D01*
X149208095Y-96906484D01*
X149186192Y-96881206D01*
X149095723Y-96742734D01*
X149095715Y-96742723D01*
X148943243Y-96577097D01*
X148943238Y-96577092D01*
X148765577Y-96438812D01*
X148765572Y-96438808D01*
X148567580Y-96331661D01*
X148567577Y-96331659D01*
X148567574Y-96331658D01*
X148567571Y-96331657D01*
X148567569Y-96331656D01*
X148354637Y-96258556D01*
X148132569Y-96221500D01*
X147907431Y-96221500D01*
X147685362Y-96258556D01*
X147472430Y-96331656D01*
X147472419Y-96331661D01*
X147274427Y-96438808D01*
X147274422Y-96438812D01*
X147096761Y-96577092D01*
X147033548Y-96645760D01*
X146973661Y-96681750D01*
X146903823Y-96679649D01*
X146846207Y-96640124D01*
X146826138Y-96605110D01*
X146780889Y-96483796D01*
X146747214Y-96438812D01*
X146693261Y-96366739D01*
X146576204Y-96279111D01*
X146439203Y-96228011D01*
X146378654Y-96221500D01*
X146378638Y-96221500D01*
X144581362Y-96221500D01*
X144581345Y-96221500D01*
X144520797Y-96228011D01*
X144520795Y-96228011D01*
X144383795Y-96279111D01*
X144266739Y-96366739D01*
X144179111Y-96483795D01*
X144128011Y-96620795D01*
X144128011Y-96620797D01*
X144121500Y-96681345D01*
X141142048Y-96681345D01*
X141141989Y-96680799D01*
X141141560Y-96679649D01*
X141113758Y-96605110D01*
X141090889Y-96543796D01*
X141003261Y-96426739D01*
X140886204Y-96339111D01*
X140866217Y-96331656D01*
X140749203Y-96288011D01*
X140688654Y-96281500D01*
X140688638Y-96281500D01*
X138891362Y-96281500D01*
X138891345Y-96281500D01*
X138830797Y-96288011D01*
X138830795Y-96288011D01*
X138693795Y-96339111D01*
X138576739Y-96426739D01*
X138489111Y-96543795D01*
X138443861Y-96665111D01*
X138401989Y-96721044D01*
X138336524Y-96745460D01*
X138268252Y-96730607D01*
X138236454Y-96705762D01*
X138173240Y-96637094D01*
X137995576Y-96498811D01*
X137995575Y-96498810D01*
X137995572Y-96498808D01*
X137797580Y-96391661D01*
X137797577Y-96391659D01*
X137797574Y-96391658D01*
X137797571Y-96391657D01*
X137797569Y-96391656D01*
X137584637Y-96318556D01*
X137362569Y-96281500D01*
X137137431Y-96281500D01*
X136915362Y-96318556D01*
X136702430Y-96391656D01*
X136702419Y-96391661D01*
X136504427Y-96498808D01*
X136504422Y-96498812D01*
X136326761Y-96637092D01*
X136326756Y-96637097D01*
X136174284Y-96802723D01*
X136174276Y-96802734D01*
X136083808Y-96941206D01*
X136030662Y-96986562D01*
X135961431Y-96995986D01*
X135898095Y-96966484D01*
X135876192Y-96941206D01*
X135785723Y-96802734D01*
X135785715Y-96802723D01*
X135633243Y-96637097D01*
X135633238Y-96637092D01*
X135455577Y-96498812D01*
X135455572Y-96498808D01*
X135257580Y-96391661D01*
X135257577Y-96391659D01*
X135257574Y-96391658D01*
X135257571Y-96391657D01*
X135257569Y-96391656D01*
X135044637Y-96318556D01*
X134822569Y-96281500D01*
X134597431Y-96281500D01*
X134375362Y-96318556D01*
X134162430Y-96391656D01*
X134162419Y-96391661D01*
X133964427Y-96498808D01*
X133964422Y-96498812D01*
X133786761Y-96637092D01*
X133786756Y-96637097D01*
X133634284Y-96802723D01*
X133634276Y-96802734D01*
X133543808Y-96941206D01*
X133490662Y-96986562D01*
X133421431Y-96995986D01*
X133358095Y-96966484D01*
X133336192Y-96941206D01*
X133245723Y-96802734D01*
X133245715Y-96802723D01*
X133093243Y-96637097D01*
X133093238Y-96637092D01*
X132915577Y-96498812D01*
X132915572Y-96498808D01*
X132717580Y-96391661D01*
X132717577Y-96391659D01*
X132717574Y-96391658D01*
X132717571Y-96391657D01*
X132717569Y-96391656D01*
X132504637Y-96318556D01*
X132282569Y-96281500D01*
X132057431Y-96281500D01*
X131835362Y-96318556D01*
X131622430Y-96391656D01*
X131622419Y-96391661D01*
X131424427Y-96498808D01*
X131424422Y-96498812D01*
X131246761Y-96637092D01*
X131246756Y-96637097D01*
X131094284Y-96802723D01*
X131094276Y-96802734D01*
X131003808Y-96941206D01*
X130950662Y-96986562D01*
X130881431Y-96995986D01*
X130818095Y-96966484D01*
X130796192Y-96941206D01*
X130705723Y-96802734D01*
X130705715Y-96802723D01*
X130553243Y-96637097D01*
X130553238Y-96637092D01*
X130375577Y-96498812D01*
X130375572Y-96498808D01*
X130177580Y-96391661D01*
X130177577Y-96391659D01*
X130177574Y-96391658D01*
X130177571Y-96391657D01*
X130177569Y-96391656D01*
X129964637Y-96318556D01*
X129742569Y-96281500D01*
X129517431Y-96281500D01*
X129295362Y-96318556D01*
X129082430Y-96391656D01*
X129082419Y-96391661D01*
X128884427Y-96498808D01*
X128884422Y-96498812D01*
X128706761Y-96637092D01*
X128706756Y-96637097D01*
X128554284Y-96802723D01*
X128554276Y-96802734D01*
X128463808Y-96941206D01*
X128410662Y-96986562D01*
X128341431Y-96995986D01*
X128278095Y-96966484D01*
X128256192Y-96941206D01*
X128165723Y-96802734D01*
X128165715Y-96802723D01*
X128013243Y-96637097D01*
X128013238Y-96637092D01*
X127835577Y-96498812D01*
X127835572Y-96498808D01*
X127637580Y-96391661D01*
X127637577Y-96391659D01*
X127637574Y-96391658D01*
X127637571Y-96391657D01*
X127637569Y-96391656D01*
X127424637Y-96318556D01*
X127202569Y-96281500D01*
X126977431Y-96281500D01*
X126755362Y-96318556D01*
X126542430Y-96391656D01*
X126542419Y-96391661D01*
X126344427Y-96498808D01*
X126344422Y-96498812D01*
X126166761Y-96637092D01*
X126166756Y-96637097D01*
X126014284Y-96802723D01*
X126014276Y-96802734D01*
X125891140Y-96991207D01*
X125800703Y-97197385D01*
X125745436Y-97415628D01*
X125745434Y-97415640D01*
X125726844Y-97639994D01*
X100075500Y-97639994D01*
X100075500Y-95262653D01*
X114613843Y-95262653D01*
X114633805Y-95452581D01*
X114633806Y-95452584D01*
X114692817Y-95634202D01*
X114692820Y-95634209D01*
X114788307Y-95799597D01*
X114916094Y-95941519D01*
X115070595Y-96053771D01*
X115245059Y-96131447D01*
X115431860Y-96171153D01*
X115622834Y-96171153D01*
X115809635Y-96131447D01*
X115984099Y-96053771D01*
X116138600Y-95941519D01*
X116201307Y-95871874D01*
X116260793Y-95835227D01*
X116293457Y-95830847D01*
X116805344Y-95830847D01*
X116872383Y-95850532D01*
X116897493Y-95871874D01*
X116901400Y-95876213D01*
X117055901Y-95988465D01*
X117230365Y-96066141D01*
X117417166Y-96105847D01*
X117608140Y-96105847D01*
X117794941Y-96066141D01*
X117969405Y-95988465D01*
X118123906Y-95876213D01*
X118251693Y-95734291D01*
X118347180Y-95568903D01*
X118406195Y-95387275D01*
X118426157Y-95197347D01*
X118406195Y-95007419D01*
X118347180Y-94825791D01*
X118251693Y-94660403D01*
X118123906Y-94518481D01*
X117969405Y-94406229D01*
X117794941Y-94328553D01*
X117794939Y-94328552D01*
X117608140Y-94288847D01*
X117417166Y-94288847D01*
X117230367Y-94328552D01*
X117055899Y-94406230D01*
X116901398Y-94518482D01*
X116897493Y-94522820D01*
X116838007Y-94559468D01*
X116805344Y-94563847D01*
X116151446Y-94563847D01*
X116084407Y-94544162D01*
X116078561Y-94540165D01*
X115984103Y-94471537D01*
X115984099Y-94471535D01*
X115809635Y-94393859D01*
X115809633Y-94393858D01*
X115622834Y-94354153D01*
X115431860Y-94354153D01*
X115245061Y-94393858D01*
X115070593Y-94471536D01*
X114916092Y-94583788D01*
X114788306Y-94725710D01*
X114692820Y-94891096D01*
X114692817Y-94891103D01*
X114655024Y-95007419D01*
X114633805Y-95072725D01*
X114613843Y-95262653D01*
X100075500Y-95262653D01*
X100075500Y-92198054D01*
X140994442Y-92198054D01*
X140994442Y-92198061D01*
X141014839Y-92379099D01*
X141014840Y-92379104D01*
X141025266Y-92408899D01*
X141075015Y-92551073D01*
X141171947Y-92705339D01*
X141300777Y-92834169D01*
X141455043Y-92931101D01*
X141627011Y-92991275D01*
X141627016Y-92991276D01*
X141808054Y-93011674D01*
X141808058Y-93011674D01*
X141808062Y-93011674D01*
X141989099Y-92991276D01*
X141989102Y-92991275D01*
X141989105Y-92991275D01*
X142161073Y-92931101D01*
X142161075Y-92931099D01*
X142161077Y-92931099D01*
X142161080Y-92931097D01*
X142289246Y-92850565D01*
X142355218Y-92831558D01*
X143914292Y-92831558D01*
X143981331Y-92851243D01*
X144001973Y-92867877D01*
X144338093Y-93203998D01*
X144371578Y-93265321D01*
X144373632Y-93277793D01*
X144378725Y-93322989D01*
X144418841Y-93437634D01*
X144438899Y-93494958D01*
X144438900Y-93494959D01*
X144535831Y-93649223D01*
X144664661Y-93778053D01*
X144818927Y-93874985D01*
X144990895Y-93935159D01*
X144990900Y-93935160D01*
X145171938Y-93955558D01*
X145171942Y-93955558D01*
X145171946Y-93955558D01*
X145352983Y-93935160D01*
X145352986Y-93935159D01*
X145352989Y-93935159D01*
X145524957Y-93874985D01*
X145679223Y-93778053D01*
X145808053Y-93649223D01*
X145904985Y-93494957D01*
X145965159Y-93322989D01*
X145965160Y-93322983D01*
X145985558Y-93141945D01*
X145985558Y-93141938D01*
X145965160Y-92960900D01*
X145965159Y-92960895D01*
X145904985Y-92788927D01*
X145808053Y-92634661D01*
X145679223Y-92505831D01*
X145651641Y-92488500D01*
X145524958Y-92408899D01*
X145439793Y-92379099D01*
X145352989Y-92348725D01*
X145328896Y-92346010D01*
X145307793Y-92343632D01*
X145243379Y-92316564D01*
X145233998Y-92308093D01*
X144631894Y-91705989D01*
X144631890Y-91705986D01*
X144528139Y-91636661D01*
X144528130Y-91636656D01*
X144412843Y-91588903D01*
X144412835Y-91588901D01*
X144368087Y-91580000D01*
X154001496Y-91580000D01*
X154021458Y-91769928D01*
X154021459Y-91769931D01*
X154080470Y-91951549D01*
X154080473Y-91951556D01*
X154175960Y-92116944D01*
X154303747Y-92258866D01*
X154458248Y-92371118D01*
X154632712Y-92448794D01*
X154819513Y-92488500D01*
X155010487Y-92488500D01*
X155197288Y-92448794D01*
X155371752Y-92371118D01*
X155526253Y-92258866D01*
X155530160Y-92254527D01*
X155589646Y-92217879D01*
X155622309Y-92213500D01*
X155657691Y-92213500D01*
X155724730Y-92233185D01*
X155749840Y-92254527D01*
X155753747Y-92258866D01*
X155908248Y-92371118D01*
X156082712Y-92448794D01*
X156269513Y-92488500D01*
X156460487Y-92488500D01*
X156647288Y-92448794D01*
X156821752Y-92371118D01*
X156976253Y-92258866D01*
X157104040Y-92116944D01*
X157199527Y-91951556D01*
X157258542Y-91769928D01*
X157278504Y-91580000D01*
X157258542Y-91390072D01*
X157199527Y-91208444D01*
X157104040Y-91043056D01*
X156976253Y-90901134D01*
X156821752Y-90788882D01*
X156647288Y-90711206D01*
X156647286Y-90711205D01*
X156460487Y-90671500D01*
X156269513Y-90671500D01*
X156082714Y-90711205D01*
X155908246Y-90788883D01*
X155753745Y-90901135D01*
X155749840Y-90905473D01*
X155690354Y-90942121D01*
X155657691Y-90946500D01*
X155622309Y-90946500D01*
X155555270Y-90926815D01*
X155530160Y-90905473D01*
X155526254Y-90901135D01*
X155422601Y-90825826D01*
X155371752Y-90788882D01*
X155197288Y-90711206D01*
X155197286Y-90711205D01*
X155010487Y-90671500D01*
X154819513Y-90671500D01*
X154632714Y-90711205D01*
X154458246Y-90788883D01*
X154303745Y-90901135D01*
X154175959Y-91043057D01*
X154080473Y-91208443D01*
X154080470Y-91208450D01*
X154023287Y-91384442D01*
X154021458Y-91390072D01*
X154001496Y-91580000D01*
X144368087Y-91580000D01*
X144290456Y-91564558D01*
X144290452Y-91564558D01*
X142355218Y-91564558D01*
X142289246Y-91545551D01*
X142161080Y-91465018D01*
X142161077Y-91465016D01*
X141989104Y-91404840D01*
X141989099Y-91404839D01*
X141808062Y-91384442D01*
X141808054Y-91384442D01*
X141627016Y-91404839D01*
X141627011Y-91404840D01*
X141455040Y-91465016D01*
X141300776Y-91561947D01*
X141171947Y-91690776D01*
X141075016Y-91845040D01*
X141014840Y-92017011D01*
X141014839Y-92017016D01*
X140994442Y-92198054D01*
X100075500Y-92198054D01*
X100075500Y-88219994D01*
X108146844Y-88219994D01*
X108146844Y-88220005D01*
X108165434Y-88444359D01*
X108165436Y-88444371D01*
X108220703Y-88662614D01*
X108311140Y-88868792D01*
X108434276Y-89057265D01*
X108434284Y-89057276D01*
X108586756Y-89222902D01*
X108586760Y-89222906D01*
X108764424Y-89361189D01*
X108807693Y-89384605D01*
X108807695Y-89384606D01*
X108857286Y-89433825D01*
X108872394Y-89502042D01*
X108848224Y-89567597D01*
X108819802Y-89595236D01*
X108638922Y-89721890D01*
X108638920Y-89721891D01*
X108471891Y-89888920D01*
X108471886Y-89888926D01*
X108336400Y-90082420D01*
X108336399Y-90082422D01*
X108236570Y-90296507D01*
X108236567Y-90296513D01*
X108179364Y-90509999D01*
X108179364Y-90510000D01*
X109076988Y-90510000D01*
X109044075Y-90567007D01*
X109010000Y-90694174D01*
X109010000Y-90825826D01*
X109044075Y-90952993D01*
X109076988Y-91010000D01*
X108179364Y-91010000D01*
X108236567Y-91223486D01*
X108236570Y-91223492D01*
X108336399Y-91437578D01*
X108471894Y-91631082D01*
X108638917Y-91798105D01*
X108832421Y-91933600D01*
X109046507Y-92033429D01*
X109046516Y-92033433D01*
X109260000Y-92090634D01*
X109260000Y-91193012D01*
X109317007Y-91225925D01*
X109444174Y-91260000D01*
X109575826Y-91260000D01*
X109702993Y-91225925D01*
X109760000Y-91193012D01*
X109760000Y-92090633D01*
X109973483Y-92033433D01*
X109973492Y-92033429D01*
X110187578Y-91933600D01*
X110381082Y-91798105D01*
X110548105Y-91631082D01*
X110683600Y-91437578D01*
X110783429Y-91223492D01*
X110783432Y-91223486D01*
X110840636Y-91010000D01*
X109943012Y-91010000D01*
X109975925Y-90952993D01*
X110010000Y-90825826D01*
X110010000Y-90694174D01*
X109975925Y-90567007D01*
X109943012Y-90510000D01*
X110840636Y-90510000D01*
X110840635Y-90509999D01*
X110783432Y-90296513D01*
X110783429Y-90296507D01*
X110683600Y-90082422D01*
X110683599Y-90082420D01*
X110548113Y-89888926D01*
X110548108Y-89888920D01*
X110381082Y-89721894D01*
X110200197Y-89595236D01*
X110156572Y-89540659D01*
X110149380Y-89471160D01*
X110180902Y-89408806D01*
X110212300Y-89384608D01*
X110255576Y-89361189D01*
X110257109Y-89359996D01*
X130731384Y-89359996D01*
X130731384Y-89360003D01*
X130751781Y-89541041D01*
X130751782Y-89541046D01*
X130811958Y-89713017D01*
X130817534Y-89721891D01*
X130908889Y-89867281D01*
X131037719Y-89996111D01*
X131191985Y-90093043D01*
X131363953Y-90153217D01*
X131409147Y-90158309D01*
X131473559Y-90185374D01*
X131482944Y-90193848D01*
X132312929Y-91023833D01*
X132401167Y-91112071D01*
X132401168Y-91112072D01*
X132504918Y-91181396D01*
X132504924Y-91181399D01*
X132504925Y-91181400D01*
X132620215Y-91229155D01*
X132742601Y-91253499D01*
X132742605Y-91253500D01*
X132742606Y-91253500D01*
X134787840Y-91253500D01*
X134853812Y-91272507D01*
X134981977Y-91353039D01*
X134981980Y-91353041D01*
X134981984Y-91353042D01*
X134981985Y-91353043D01*
X135087797Y-91390068D01*
X135153953Y-91413217D01*
X135153958Y-91413218D01*
X135334996Y-91433616D01*
X135335000Y-91433616D01*
X135335004Y-91433616D01*
X135516041Y-91413218D01*
X135516044Y-91413217D01*
X135516047Y-91413217D01*
X135688015Y-91353043D01*
X135842281Y-91256111D01*
X135971111Y-91127281D01*
X136068043Y-90973015D01*
X136128217Y-90801047D01*
X136140259Y-90694174D01*
X136148616Y-90620003D01*
X136148616Y-90619996D01*
X136128218Y-90438958D01*
X136128217Y-90438953D01*
X136068043Y-90266985D01*
X135971111Y-90112719D01*
X135842281Y-89983889D01*
X135688015Y-89886957D01*
X135631784Y-89867281D01*
X135516046Y-89826782D01*
X135516041Y-89826781D01*
X135335004Y-89806384D01*
X135334996Y-89806384D01*
X135153958Y-89826781D01*
X135153953Y-89826782D01*
X134981980Y-89886958D01*
X134981977Y-89886960D01*
X134853812Y-89967493D01*
X134787840Y-89986500D01*
X133118766Y-89986500D01*
X133051727Y-89966815D01*
X133031085Y-89950181D01*
X132378848Y-89297944D01*
X132345363Y-89236621D01*
X132343310Y-89224161D01*
X132338217Y-89178953D01*
X132278043Y-89006985D01*
X132181111Y-88852719D01*
X132052281Y-88723889D01*
X131898015Y-88626957D01*
X131843693Y-88607949D01*
X131726046Y-88566782D01*
X131726041Y-88566781D01*
X131545004Y-88546384D01*
X131544996Y-88546384D01*
X131363958Y-88566781D01*
X131363953Y-88566782D01*
X131191982Y-88626958D01*
X131037718Y-88723889D01*
X130908889Y-88852718D01*
X130811958Y-89006982D01*
X130751782Y-89178953D01*
X130751781Y-89178958D01*
X130731384Y-89359996D01*
X110257109Y-89359996D01*
X110433240Y-89222906D01*
X110585722Y-89057268D01*
X110708860Y-88868791D01*
X110799296Y-88662616D01*
X110854564Y-88444368D01*
X110873156Y-88220000D01*
X110854564Y-87995632D01*
X110799296Y-87777384D01*
X110708860Y-87571209D01*
X110585722Y-87382732D01*
X110585719Y-87382729D01*
X110585715Y-87382723D01*
X110440510Y-87224991D01*
X110409587Y-87162337D01*
X110417447Y-87092911D01*
X110461594Y-87038755D01*
X110488405Y-87024827D01*
X110571934Y-86993671D01*
X110606204Y-86980889D01*
X110723261Y-86893261D01*
X110810889Y-86776204D01*
X110861989Y-86639201D01*
X110865591Y-86605692D01*
X110868499Y-86578654D01*
X110868500Y-86578637D01*
X110868500Y-84781362D01*
X110868499Y-84781345D01*
X110865157Y-84750270D01*
X110861989Y-84720799D01*
X110847716Y-84682533D01*
X110836598Y-84652723D01*
X110810889Y-84583796D01*
X110723261Y-84466739D01*
X110606204Y-84379111D01*
X110469203Y-84328011D01*
X110408654Y-84321500D01*
X110408638Y-84321500D01*
X108611362Y-84321500D01*
X108611345Y-84321500D01*
X108550797Y-84328011D01*
X108550795Y-84328011D01*
X108413795Y-84379111D01*
X108296739Y-84466739D01*
X108209111Y-84583795D01*
X108158011Y-84720795D01*
X108158011Y-84720797D01*
X108151500Y-84781345D01*
X108151500Y-86578654D01*
X108158011Y-86639202D01*
X108158011Y-86639204D01*
X108194989Y-86738342D01*
X108209111Y-86776204D01*
X108296739Y-86893261D01*
X108413796Y-86980889D01*
X108465737Y-87000262D01*
X108531595Y-87024827D01*
X108587528Y-87066699D01*
X108611944Y-87132163D01*
X108597092Y-87200436D01*
X108579490Y-87224991D01*
X108434279Y-87382730D01*
X108434276Y-87382734D01*
X108311140Y-87571207D01*
X108220703Y-87777385D01*
X108165436Y-87995628D01*
X108165434Y-87995640D01*
X108146844Y-88219994D01*
X100075500Y-88219994D01*
X100075500Y-71949998D01*
X104696502Y-71949998D01*
X104696502Y-71950001D01*
X104716456Y-72178081D01*
X104716457Y-72178089D01*
X104775714Y-72399238D01*
X104775718Y-72399249D01*
X104870487Y-72602482D01*
X104872477Y-72606749D01*
X105003802Y-72794300D01*
X105165700Y-72956198D01*
X105342697Y-73080133D01*
X105353251Y-73087523D01*
X105396345Y-73107618D01*
X105448784Y-73153791D01*
X105467936Y-73220984D01*
X105447720Y-73287865D01*
X105396345Y-73332382D01*
X105353251Y-73352476D01*
X105228126Y-73440090D01*
X105165700Y-73483802D01*
X105165698Y-73483803D01*
X105165695Y-73483806D01*
X105003806Y-73645695D01*
X105003803Y-73645698D01*
X105003802Y-73645700D01*
X104931330Y-73749201D01*
X104872476Y-73833252D01*
X104872475Y-73833254D01*
X104775718Y-74040750D01*
X104775714Y-74040761D01*
X104716457Y-74261910D01*
X104716456Y-74261918D01*
X104696502Y-74489998D01*
X104696502Y-74490001D01*
X104716456Y-74718081D01*
X104716457Y-74718089D01*
X104775714Y-74939238D01*
X104775718Y-74939249D01*
X104872475Y-75146745D01*
X104872477Y-75146749D01*
X105003802Y-75334300D01*
X105165700Y-75496198D01*
X105353251Y-75627523D01*
X105396345Y-75647618D01*
X105448784Y-75693791D01*
X105467936Y-75760984D01*
X105447720Y-75827865D01*
X105396345Y-75872382D01*
X105353251Y-75892476D01*
X105229982Y-75978791D01*
X105165700Y-76023802D01*
X105165698Y-76023803D01*
X105165695Y-76023806D01*
X105003806Y-76185695D01*
X105003803Y-76185698D01*
X105003802Y-76185700D01*
X104971274Y-76232155D01*
X104872476Y-76373252D01*
X104872475Y-76373254D01*
X104775718Y-76580750D01*
X104775714Y-76580761D01*
X104716457Y-76801910D01*
X104716456Y-76801918D01*
X104696502Y-77029998D01*
X104696502Y-77030001D01*
X104716456Y-77258081D01*
X104716457Y-77258089D01*
X104775714Y-77479238D01*
X104775718Y-77479249D01*
X104872475Y-77686745D01*
X104872477Y-77686749D01*
X105003802Y-77874300D01*
X105165700Y-78036198D01*
X105296584Y-78127844D01*
X105353251Y-78167523D01*
X105396345Y-78187618D01*
X105448784Y-78233791D01*
X105467936Y-78300984D01*
X105447720Y-78367865D01*
X105396345Y-78412382D01*
X105353251Y-78432476D01*
X105288113Y-78478087D01*
X105165700Y-78563802D01*
X105165698Y-78563803D01*
X105165695Y-78563806D01*
X105003806Y-78725695D01*
X104872476Y-78913252D01*
X104872475Y-78913254D01*
X104775718Y-79120750D01*
X104775714Y-79120761D01*
X104716457Y-79341910D01*
X104716456Y-79341918D01*
X104696502Y-79569998D01*
X104696502Y-79570001D01*
X104716456Y-79798081D01*
X104716457Y-79798089D01*
X104775714Y-80019238D01*
X104775718Y-80019249D01*
X104872475Y-80226745D01*
X104872477Y-80226749D01*
X105003802Y-80414300D01*
X105165700Y-80576198D01*
X105353251Y-80707523D01*
X105408445Y-80733260D01*
X105560750Y-80804281D01*
X105560752Y-80804281D01*
X105560757Y-80804284D01*
X105781913Y-80863543D01*
X105944832Y-80877796D01*
X106009998Y-80883498D01*
X106010000Y-80883498D01*
X106010002Y-80883498D01*
X106067139Y-80878499D01*
X106238087Y-80863543D01*
X106459243Y-80804284D01*
X106666749Y-80707523D01*
X106854300Y-80576198D01*
X107016198Y-80414300D01*
X107147523Y-80226749D01*
X107244284Y-80019243D01*
X107303543Y-79798087D01*
X107323498Y-79570000D01*
X107303543Y-79341913D01*
X107244284Y-79120757D01*
X107147523Y-78913251D01*
X107016198Y-78725700D01*
X106854300Y-78563802D01*
X106666749Y-78432477D01*
X106623655Y-78412382D01*
X106571215Y-78366210D01*
X106552063Y-78299017D01*
X106572278Y-78232136D01*
X106623655Y-78187618D01*
X106626882Y-78186112D01*
X106666749Y-78167523D01*
X106854300Y-78036198D01*
X107016198Y-77874300D01*
X107147523Y-77686749D01*
X107244284Y-77479243D01*
X107303543Y-77258087D01*
X107323498Y-77030000D01*
X107322248Y-77015718D01*
X107309246Y-76867097D01*
X107303543Y-76801913D01*
X107244284Y-76580757D01*
X107147523Y-76373251D01*
X107016198Y-76185700D01*
X106854300Y-76023802D01*
X106666749Y-75892477D01*
X106652243Y-75885713D01*
X106623655Y-75872382D01*
X106571215Y-75826210D01*
X106552063Y-75759017D01*
X106572278Y-75692136D01*
X106623655Y-75647618D01*
X106626882Y-75646112D01*
X106666749Y-75627523D01*
X106854300Y-75496198D01*
X107016198Y-75334300D01*
X107147523Y-75146749D01*
X107244284Y-74939243D01*
X107303543Y-74718087D01*
X107323498Y-74490000D01*
X107323498Y-74489998D01*
X112316502Y-74489998D01*
X112316502Y-74490001D01*
X112336456Y-74718081D01*
X112336457Y-74718089D01*
X112395714Y-74939238D01*
X112395718Y-74939249D01*
X112492475Y-75146745D01*
X112492477Y-75146749D01*
X112623802Y-75334300D01*
X112785700Y-75496198D01*
X112973251Y-75627523D01*
X113016345Y-75647618D01*
X113068784Y-75693791D01*
X113087936Y-75760984D01*
X113067720Y-75827865D01*
X113016345Y-75872382D01*
X112973251Y-75892476D01*
X112849982Y-75978791D01*
X112785700Y-76023802D01*
X112785698Y-76023803D01*
X112785695Y-76023806D01*
X112623806Y-76185695D01*
X112623803Y-76185698D01*
X112623802Y-76185700D01*
X112591274Y-76232155D01*
X112492476Y-76373252D01*
X112492475Y-76373254D01*
X112395718Y-76580750D01*
X112395714Y-76580761D01*
X112336457Y-76801910D01*
X112336456Y-76801918D01*
X112316502Y-77029998D01*
X112316502Y-77030001D01*
X112336456Y-77258081D01*
X112336457Y-77258089D01*
X112395714Y-77479238D01*
X112395718Y-77479249D01*
X112492475Y-77686745D01*
X112492477Y-77686749D01*
X112623802Y-77874300D01*
X112785700Y-78036198D01*
X112793370Y-78041568D01*
X112836993Y-78096144D01*
X112844185Y-78165642D01*
X112812663Y-78227997D01*
X112752433Y-78263410D01*
X112735501Y-78266430D01*
X112720797Y-78268011D01*
X112720795Y-78268011D01*
X112583795Y-78319111D01*
X112466739Y-78406739D01*
X112379111Y-78523795D01*
X112328011Y-78660795D01*
X112328011Y-78660797D01*
X112321500Y-78721345D01*
X112321500Y-80418654D01*
X112328011Y-80479202D01*
X112328011Y-80479204D01*
X112364189Y-80576198D01*
X112379111Y-80616204D01*
X112466739Y-80733261D01*
X112583796Y-80820889D01*
X112720799Y-80871989D01*
X112748050Y-80874918D01*
X112781345Y-80878499D01*
X112781362Y-80878500D01*
X114478638Y-80878500D01*
X114478654Y-80878499D01*
X114505692Y-80875591D01*
X114539201Y-80871989D01*
X114676204Y-80820889D01*
X114793261Y-80733261D01*
X114880889Y-80616204D01*
X114931989Y-80479201D01*
X114935591Y-80445692D01*
X114938499Y-80418654D01*
X114938500Y-80418637D01*
X114938500Y-78721362D01*
X114938499Y-78721345D01*
X114935157Y-78690270D01*
X114931989Y-78660799D01*
X114880889Y-78523796D01*
X114793261Y-78406739D01*
X114676204Y-78319111D01*
X114539203Y-78268011D01*
X114524498Y-78266430D01*
X114459947Y-78239691D01*
X114420100Y-78182298D01*
X114417607Y-78112473D01*
X114453261Y-78052385D01*
X114466624Y-78041572D01*
X114474300Y-78036198D01*
X114636198Y-77874300D01*
X114767523Y-77686749D01*
X114864284Y-77479243D01*
X114923543Y-77258087D01*
X114943498Y-77030000D01*
X114942248Y-77015718D01*
X114929246Y-76867097D01*
X114923543Y-76801913D01*
X114864284Y-76580757D01*
X114767523Y-76373251D01*
X114636198Y-76185700D01*
X114474300Y-76023802D01*
X114286749Y-75892477D01*
X114272243Y-75885713D01*
X114243655Y-75872382D01*
X114191215Y-75826210D01*
X114172063Y-75759017D01*
X114192278Y-75692136D01*
X114243655Y-75647618D01*
X114246882Y-75646112D01*
X114286749Y-75627523D01*
X114474300Y-75496198D01*
X114636198Y-75334300D01*
X114639213Y-75329994D01*
X125286844Y-75329994D01*
X125286844Y-75330005D01*
X125305434Y-75554359D01*
X125305436Y-75554371D01*
X125360703Y-75772614D01*
X125451140Y-75978792D01*
X125574276Y-76167265D01*
X125574284Y-76167276D01*
X125726756Y-76332902D01*
X125726761Y-76332907D01*
X125785981Y-76379000D01*
X125904424Y-76471189D01*
X125904429Y-76471191D01*
X125904431Y-76471193D01*
X125940930Y-76490946D01*
X125990520Y-76540165D01*
X126005628Y-76608382D01*
X125981457Y-76673937D01*
X125940930Y-76709054D01*
X125904431Y-76728806D01*
X125904422Y-76728812D01*
X125726761Y-76867092D01*
X125726756Y-76867097D01*
X125574284Y-77032723D01*
X125574276Y-77032734D01*
X125451140Y-77221207D01*
X125360703Y-77427385D01*
X125305436Y-77645628D01*
X125305434Y-77645640D01*
X125286844Y-77869994D01*
X125286844Y-77870005D01*
X125305434Y-78094359D01*
X125305436Y-78094371D01*
X125360703Y-78312614D01*
X125451140Y-78518792D01*
X125574276Y-78707265D01*
X125574284Y-78707276D01*
X125726756Y-78872902D01*
X125726761Y-78872907D01*
X125785981Y-78919000D01*
X125904424Y-79011189D01*
X125904429Y-79011191D01*
X125904431Y-79011193D01*
X125940930Y-79030946D01*
X125990520Y-79080165D01*
X126005628Y-79148382D01*
X125981457Y-79213937D01*
X125940930Y-79249054D01*
X125904431Y-79268806D01*
X125904422Y-79268812D01*
X125726761Y-79407092D01*
X125726756Y-79407097D01*
X125574284Y-79572723D01*
X125574276Y-79572734D01*
X125451140Y-79761207D01*
X125360703Y-79967385D01*
X125305436Y-80185628D01*
X125305434Y-80185640D01*
X125286844Y-80409994D01*
X125286844Y-80410005D01*
X125305434Y-80634359D01*
X125305436Y-80634371D01*
X125360703Y-80852614D01*
X125451140Y-81058792D01*
X125574276Y-81247265D01*
X125574284Y-81247276D01*
X125726756Y-81412902D01*
X125726760Y-81412906D01*
X125904424Y-81551189D01*
X125947693Y-81574605D01*
X125947695Y-81574606D01*
X125997286Y-81623825D01*
X126012394Y-81692042D01*
X125988224Y-81757597D01*
X125959802Y-81785236D01*
X125778922Y-81911890D01*
X125778920Y-81911891D01*
X125611891Y-82078920D01*
X125611886Y-82078926D01*
X125476400Y-82272420D01*
X125476399Y-82272422D01*
X125376570Y-82486507D01*
X125376567Y-82486513D01*
X125319364Y-82699999D01*
X125319364Y-82700000D01*
X126216988Y-82700000D01*
X126184075Y-82757007D01*
X126150000Y-82884174D01*
X126150000Y-83015826D01*
X126184075Y-83142993D01*
X126216988Y-83200000D01*
X125319364Y-83200000D01*
X125376567Y-83413486D01*
X125376570Y-83413492D01*
X125476399Y-83627578D01*
X125611894Y-83821082D01*
X125778917Y-83988105D01*
X125959802Y-84114763D01*
X126003427Y-84169340D01*
X126010619Y-84238839D01*
X125979097Y-84301193D01*
X125947697Y-84325392D01*
X125904427Y-84348809D01*
X125904422Y-84348812D01*
X125726761Y-84487092D01*
X125726756Y-84487097D01*
X125574284Y-84652723D01*
X125574276Y-84652734D01*
X125451140Y-84841207D01*
X125360703Y-85047385D01*
X125305436Y-85265628D01*
X125305434Y-85265640D01*
X125286844Y-85489994D01*
X125286844Y-85490005D01*
X125305434Y-85714359D01*
X125305436Y-85714371D01*
X125360703Y-85932614D01*
X125451140Y-86138792D01*
X125574276Y-86327265D01*
X125574284Y-86327276D01*
X125726756Y-86492902D01*
X125726760Y-86492906D01*
X125904424Y-86631189D01*
X125904425Y-86631189D01*
X125904427Y-86631191D01*
X125919234Y-86639204D01*
X126102426Y-86738342D01*
X126315365Y-86811444D01*
X126537431Y-86848500D01*
X126762569Y-86848500D01*
X126984635Y-86811444D01*
X127197574Y-86738342D01*
X127395576Y-86631189D01*
X127573240Y-86492906D01*
X127725722Y-86327268D01*
X127848860Y-86138791D01*
X127939296Y-85932616D01*
X127994564Y-85714368D01*
X127994565Y-85714359D01*
X128013156Y-85490005D01*
X128013156Y-85489994D01*
X127994565Y-85265640D01*
X127994563Y-85265628D01*
X127939296Y-85047385D01*
X127930927Y-85028306D01*
X127848860Y-84841209D01*
X127725722Y-84652732D01*
X127725719Y-84652729D01*
X127725715Y-84652723D01*
X127573243Y-84487097D01*
X127573238Y-84487092D01*
X127411884Y-84361504D01*
X148940000Y-84361504D01*
X148940000Y-84810000D01*
X149624314Y-84810000D01*
X149619920Y-84814394D01*
X149567259Y-84905606D01*
X149540000Y-85007339D01*
X149540000Y-85112661D01*
X149567259Y-85214394D01*
X149619920Y-85305606D01*
X149624314Y-85310000D01*
X148940000Y-85310000D01*
X148940000Y-85758495D01*
X148978427Y-85951681D01*
X148978430Y-85951693D01*
X149053807Y-86133671D01*
X149053814Y-86133684D01*
X149163248Y-86297462D01*
X149163251Y-86297466D01*
X149302533Y-86436748D01*
X149302537Y-86436751D01*
X149466315Y-86546185D01*
X149466328Y-86546192D01*
X149648308Y-86621569D01*
X149690000Y-86629862D01*
X149690000Y-85375686D01*
X149694394Y-85380080D01*
X149785606Y-85432741D01*
X149887339Y-85460000D01*
X149992661Y-85460000D01*
X150094394Y-85432741D01*
X150185606Y-85380080D01*
X150190000Y-85375686D01*
X150190000Y-86629862D01*
X150231690Y-86621569D01*
X150231692Y-86621569D01*
X150413673Y-86546191D01*
X150413676Y-86546189D01*
X150498458Y-86489539D01*
X150565135Y-86468660D01*
X150632515Y-86487144D01*
X150636203Y-86489514D01*
X150732296Y-86553721D01*
X150732297Y-86553721D01*
X150732298Y-86553722D01*
X150773874Y-86570943D01*
X150915831Y-86629744D01*
X151110666Y-86668499D01*
X151110670Y-86668500D01*
X151110671Y-86668500D01*
X151309330Y-86668500D01*
X151309331Y-86668499D01*
X151504169Y-86629744D01*
X151687704Y-86553721D01*
X151776112Y-86494647D01*
X151842785Y-86473771D01*
X151910166Y-86492255D01*
X151913826Y-86494607D01*
X152002296Y-86553721D01*
X152002298Y-86553722D01*
X152002300Y-86553723D01*
X152062448Y-86578637D01*
X152185831Y-86629744D01*
X152380666Y-86668499D01*
X152380670Y-86668500D01*
X152380671Y-86668500D01*
X152579330Y-86668500D01*
X152579331Y-86668499D01*
X152774169Y-86629744D01*
X152957704Y-86553721D01*
X153122881Y-86443353D01*
X153263353Y-86302881D01*
X153373721Y-86137704D01*
X153449744Y-85954169D01*
X153488500Y-85759329D01*
X153488500Y-85220666D01*
X160491500Y-85220666D01*
X160491500Y-86619333D01*
X160530254Y-86814161D01*
X160530256Y-86814169D01*
X160606277Y-86997701D01*
X160606282Y-86997710D01*
X160716646Y-87162880D01*
X160716649Y-87162884D01*
X160857115Y-87303350D01*
X160857119Y-87303353D01*
X161022289Y-87413717D01*
X161022298Y-87413722D01*
X161063874Y-87430943D01*
X161205831Y-87489744D01*
X161400666Y-87528499D01*
X161400670Y-87528500D01*
X161400671Y-87528500D01*
X161599330Y-87528500D01*
X161599331Y-87528499D01*
X161794169Y-87489744D01*
X161977704Y-87413721D01*
X162066112Y-87354647D01*
X162132785Y-87333771D01*
X162200166Y-87352255D01*
X162203826Y-87354607D01*
X162292296Y-87413721D01*
X162292298Y-87413722D01*
X162292300Y-87413723D01*
X162360094Y-87441804D01*
X162475831Y-87489744D01*
X162670666Y-87528499D01*
X162670670Y-87528500D01*
X162670671Y-87528500D01*
X162869330Y-87528500D01*
X162869331Y-87528499D01*
X163064169Y-87489744D01*
X163247704Y-87413721D01*
X163343763Y-87349535D01*
X163410434Y-87328660D01*
X163477815Y-87347144D01*
X163481541Y-87349538D01*
X163566328Y-87406192D01*
X163748308Y-87481569D01*
X163790000Y-87489862D01*
X163790000Y-86235686D01*
X163794394Y-86240080D01*
X163885606Y-86292741D01*
X163987339Y-86320000D01*
X164092661Y-86320000D01*
X164194394Y-86292741D01*
X164285606Y-86240080D01*
X164290000Y-86235686D01*
X164290000Y-87489862D01*
X164331690Y-87481569D01*
X164331692Y-87481569D01*
X164513671Y-87406192D01*
X164513684Y-87406185D01*
X164677462Y-87296751D01*
X164677466Y-87296748D01*
X164816748Y-87157466D01*
X164816751Y-87157462D01*
X164926185Y-86993684D01*
X164926192Y-86993671D01*
X165001569Y-86811693D01*
X165001572Y-86811681D01*
X165039999Y-86618495D01*
X165040000Y-86618492D01*
X165040000Y-86170000D01*
X164355686Y-86170000D01*
X164360080Y-86165606D01*
X164412741Y-86074394D01*
X164440000Y-85972661D01*
X164440000Y-85867339D01*
X164412741Y-85765606D01*
X164360080Y-85674394D01*
X164355686Y-85670000D01*
X165040000Y-85670000D01*
X165040000Y-85221508D01*
X165039999Y-85221504D01*
X165001572Y-85028318D01*
X165001569Y-85028306D01*
X164926192Y-84846328D01*
X164926185Y-84846315D01*
X164816751Y-84682537D01*
X164816748Y-84682533D01*
X164677466Y-84543251D01*
X164677462Y-84543248D01*
X164513684Y-84433814D01*
X164513671Y-84433807D01*
X164331691Y-84358429D01*
X164331683Y-84358427D01*
X164290000Y-84350135D01*
X164290000Y-85604314D01*
X164285606Y-85599920D01*
X164194394Y-85547259D01*
X164092661Y-85520000D01*
X163987339Y-85520000D01*
X163885606Y-85547259D01*
X163794394Y-85599920D01*
X163790000Y-85604314D01*
X163790000Y-84350136D01*
X163789999Y-84350135D01*
X163748316Y-84358427D01*
X163748308Y-84358429D01*
X163566328Y-84433807D01*
X163566315Y-84433814D01*
X163481540Y-84490460D01*
X163414862Y-84511338D01*
X163347482Y-84492853D01*
X163343758Y-84490460D01*
X163247710Y-84426282D01*
X163247701Y-84426277D01*
X163064169Y-84350256D01*
X163064161Y-84350254D01*
X162869333Y-84311500D01*
X162869329Y-84311500D01*
X162670671Y-84311500D01*
X162670666Y-84311500D01*
X162475838Y-84350254D01*
X162475830Y-84350256D01*
X162292298Y-84426277D01*
X162292289Y-84426282D01*
X162203891Y-84485349D01*
X162137214Y-84506227D01*
X162069833Y-84487743D01*
X162066109Y-84485349D01*
X161977710Y-84426282D01*
X161977701Y-84426277D01*
X161794169Y-84350256D01*
X161794161Y-84350254D01*
X161599333Y-84311500D01*
X161599329Y-84311500D01*
X161400671Y-84311500D01*
X161400666Y-84311500D01*
X161205838Y-84350254D01*
X161205830Y-84350256D01*
X161022298Y-84426277D01*
X161022289Y-84426282D01*
X160857119Y-84536646D01*
X160857115Y-84536649D01*
X160716649Y-84677115D01*
X160716646Y-84677119D01*
X160606282Y-84842289D01*
X160606277Y-84842298D01*
X160530256Y-85025830D01*
X160530254Y-85025838D01*
X160491500Y-85220666D01*
X153488500Y-85220666D01*
X153488500Y-84360671D01*
X153449744Y-84165831D01*
X153390943Y-84023874D01*
X153373722Y-83982298D01*
X153373717Y-83982289D01*
X153263353Y-83817119D01*
X153263350Y-83817115D01*
X153122884Y-83676649D01*
X153122880Y-83676646D01*
X152957710Y-83566282D01*
X152957701Y-83566277D01*
X152774169Y-83490256D01*
X152774161Y-83490254D01*
X152579333Y-83451500D01*
X152579329Y-83451500D01*
X152380671Y-83451500D01*
X152380666Y-83451500D01*
X152185838Y-83490254D01*
X152185830Y-83490256D01*
X152002298Y-83566277D01*
X152002289Y-83566282D01*
X151913891Y-83625349D01*
X151847214Y-83646227D01*
X151779833Y-83627743D01*
X151776109Y-83625349D01*
X151687710Y-83566282D01*
X151687701Y-83566277D01*
X151504169Y-83490256D01*
X151504161Y-83490254D01*
X151309333Y-83451500D01*
X151309329Y-83451500D01*
X151110671Y-83451500D01*
X151110666Y-83451500D01*
X150915838Y-83490254D01*
X150915830Y-83490256D01*
X150732298Y-83566277D01*
X150732289Y-83566282D01*
X150636241Y-83630460D01*
X150569563Y-83651338D01*
X150502183Y-83632853D01*
X150498459Y-83630460D01*
X150413683Y-83573814D01*
X150413671Y-83573807D01*
X150231691Y-83498429D01*
X150231683Y-83498427D01*
X150190000Y-83490135D01*
X150190000Y-84744314D01*
X150185606Y-84739920D01*
X150094394Y-84687259D01*
X149992661Y-84660000D01*
X149887339Y-84660000D01*
X149785606Y-84687259D01*
X149694394Y-84739920D01*
X149690000Y-84744314D01*
X149690000Y-83490136D01*
X149689999Y-83490135D01*
X149648316Y-83498427D01*
X149648308Y-83498429D01*
X149466328Y-83573807D01*
X149466315Y-83573814D01*
X149302537Y-83683248D01*
X149302533Y-83683251D01*
X149163251Y-83822533D01*
X149163248Y-83822537D01*
X149053814Y-83986315D01*
X149053807Y-83986328D01*
X148978430Y-84168306D01*
X148978427Y-84168318D01*
X148940000Y-84361504D01*
X127411884Y-84361504D01*
X127395577Y-84348811D01*
X127352303Y-84325393D01*
X127302713Y-84276173D01*
X127287605Y-84207957D01*
X127311775Y-84142401D01*
X127340198Y-84114763D01*
X127521079Y-83988108D01*
X127688105Y-83821082D01*
X127823600Y-83627578D01*
X127923429Y-83413492D01*
X127923432Y-83413486D01*
X127980636Y-83200000D01*
X127083012Y-83200000D01*
X127115925Y-83142993D01*
X127150000Y-83015826D01*
X127150000Y-82884174D01*
X127115925Y-82757007D01*
X127083012Y-82700000D01*
X127980636Y-82700000D01*
X127980635Y-82699999D01*
X127923432Y-82486513D01*
X127923429Y-82486507D01*
X127823600Y-82272422D01*
X127823599Y-82272420D01*
X127688113Y-82078926D01*
X127688108Y-82078920D01*
X127521082Y-81911894D01*
X127340197Y-81785236D01*
X127296572Y-81730659D01*
X127289380Y-81661160D01*
X127320902Y-81598806D01*
X127352300Y-81574608D01*
X127395576Y-81551189D01*
X127573240Y-81412906D01*
X127725722Y-81247268D01*
X127848860Y-81058791D01*
X127939296Y-80852616D01*
X127994564Y-80634368D01*
X127999385Y-80576193D01*
X128013156Y-80410005D01*
X128013156Y-80409994D01*
X127994565Y-80185640D01*
X127994563Y-80185628D01*
X127952430Y-80019249D01*
X127939296Y-79967384D01*
X127848860Y-79761209D01*
X127725722Y-79572732D01*
X127725719Y-79572729D01*
X127725715Y-79572723D01*
X127573243Y-79407097D01*
X127573238Y-79407092D01*
X127395577Y-79268812D01*
X127395578Y-79268812D01*
X127395576Y-79268811D01*
X127359070Y-79249055D01*
X127309479Y-79199836D01*
X127294371Y-79131619D01*
X127318541Y-79066064D01*
X127359070Y-79030945D01*
X127359084Y-79030936D01*
X127395576Y-79011189D01*
X127573240Y-78872906D01*
X127708759Y-78725695D01*
X127725715Y-78707276D01*
X127725716Y-78707274D01*
X127725722Y-78707268D01*
X127848860Y-78518791D01*
X127939296Y-78312616D01*
X127955153Y-78249998D01*
X149986502Y-78249998D01*
X149986502Y-78250001D01*
X150006456Y-78478081D01*
X150006457Y-78478089D01*
X150065714Y-78699238D01*
X150065718Y-78699249D01*
X150111807Y-78798087D01*
X150162477Y-78906749D01*
X150293802Y-79094300D01*
X150455700Y-79256198D01*
X150643251Y-79387523D01*
X150768091Y-79445736D01*
X150850750Y-79484281D01*
X150850752Y-79484281D01*
X150850757Y-79484284D01*
X151071913Y-79543543D01*
X151234832Y-79557796D01*
X151299998Y-79563498D01*
X151300000Y-79563498D01*
X151300002Y-79563498D01*
X151357021Y-79558509D01*
X151528087Y-79543543D01*
X151749243Y-79484284D01*
X151956749Y-79387523D01*
X152144300Y-79256198D01*
X152306198Y-79094300D01*
X152437523Y-78906749D01*
X152534284Y-78699243D01*
X152593543Y-78478087D01*
X152613498Y-78250000D01*
X152610857Y-78219818D01*
X152596209Y-78052385D01*
X152593543Y-78021913D01*
X152534284Y-77800757D01*
X152437523Y-77593251D01*
X152306198Y-77405700D01*
X152144300Y-77243802D01*
X152053173Y-77179994D01*
X155926673Y-77179994D01*
X155926673Y-77180005D01*
X155945948Y-77412622D01*
X156003251Y-77638907D01*
X156097015Y-77852668D01*
X156224686Y-78048084D01*
X156376354Y-78212838D01*
X156382780Y-78219818D01*
X156566983Y-78363190D01*
X156566985Y-78363191D01*
X156566988Y-78363193D01*
X156647455Y-78406739D01*
X156772273Y-78474287D01*
X156886914Y-78513643D01*
X156993045Y-78550079D01*
X156993047Y-78550079D01*
X156993049Y-78550080D01*
X157223288Y-78588500D01*
X157223289Y-78588500D01*
X157456711Y-78588500D01*
X157456712Y-78588500D01*
X157686951Y-78550080D01*
X157907727Y-78474287D01*
X158113017Y-78363190D01*
X158297220Y-78219818D01*
X158303646Y-78212837D01*
X158363531Y-78176845D01*
X158433369Y-78178944D01*
X158490986Y-78218466D01*
X158511059Y-78253485D01*
X158536645Y-78322086D01*
X158536649Y-78322093D01*
X158622809Y-78437187D01*
X158622812Y-78437190D01*
X158737906Y-78523350D01*
X158737913Y-78523354D01*
X158872620Y-78573596D01*
X158872627Y-78573598D01*
X158932155Y-78579999D01*
X158932172Y-78580000D01*
X159630000Y-78580000D01*
X159630000Y-77555277D01*
X159706306Y-77599333D01*
X159820756Y-77630000D01*
X159939244Y-77630000D01*
X160053694Y-77599333D01*
X160130000Y-77555277D01*
X160130000Y-78580000D01*
X160827828Y-78580000D01*
X160827844Y-78579999D01*
X160887372Y-78573598D01*
X160887379Y-78573596D01*
X160897026Y-78569998D01*
X162946502Y-78569998D01*
X162946502Y-78570001D01*
X162966456Y-78798081D01*
X162966457Y-78798089D01*
X163025714Y-79019238D01*
X163025718Y-79019249D01*
X163109927Y-79199836D01*
X163122477Y-79226749D01*
X163253802Y-79414300D01*
X163415700Y-79576198D01*
X163603251Y-79707523D01*
X163718382Y-79761209D01*
X163810750Y-79804281D01*
X163810752Y-79804281D01*
X163810757Y-79804284D01*
X164031913Y-79863543D01*
X164194832Y-79877796D01*
X164259998Y-79883498D01*
X164260000Y-79883498D01*
X164260002Y-79883498D01*
X164317021Y-79878509D01*
X164488087Y-79863543D01*
X164709243Y-79804284D01*
X164916749Y-79707523D01*
X165104300Y-79576198D01*
X165266198Y-79414300D01*
X165397523Y-79226749D01*
X165494284Y-79019243D01*
X165553543Y-78798087D01*
X165573498Y-78570000D01*
X165553543Y-78341913D01*
X165494284Y-78120757D01*
X165481974Y-78094359D01*
X165397524Y-77913254D01*
X165397523Y-77913252D01*
X165397523Y-77913251D01*
X165266198Y-77725700D01*
X165104300Y-77563802D01*
X164916749Y-77432477D01*
X164905827Y-77427384D01*
X164709249Y-77335718D01*
X164709238Y-77335714D01*
X164488089Y-77276457D01*
X164488081Y-77276456D01*
X164260002Y-77256502D01*
X164259998Y-77256502D01*
X164031918Y-77276456D01*
X164031910Y-77276457D01*
X163810761Y-77335714D01*
X163810750Y-77335718D01*
X163603254Y-77432475D01*
X163603252Y-77432476D01*
X163603251Y-77432477D01*
X163415700Y-77563802D01*
X163415698Y-77563803D01*
X163415695Y-77563806D01*
X163253806Y-77725695D01*
X163253803Y-77725698D01*
X163253802Y-77725700D01*
X163201244Y-77800761D01*
X163122476Y-77913252D01*
X163122475Y-77913254D01*
X163025718Y-78120750D01*
X163025714Y-78120761D01*
X162966457Y-78341910D01*
X162966456Y-78341918D01*
X162946502Y-78569998D01*
X160897026Y-78569998D01*
X161022086Y-78523354D01*
X161022093Y-78523350D01*
X161137187Y-78437190D01*
X161137190Y-78437187D01*
X161223350Y-78322093D01*
X161223354Y-78322086D01*
X161273596Y-78187379D01*
X161273598Y-78187372D01*
X161279999Y-78127844D01*
X161280000Y-78127827D01*
X161280000Y-77430000D01*
X160255278Y-77430000D01*
X160299333Y-77353694D01*
X160330000Y-77239244D01*
X160330000Y-77120756D01*
X160299333Y-77006306D01*
X160255278Y-76930000D01*
X161280000Y-76930000D01*
X161280000Y-76232172D01*
X161279999Y-76232155D01*
X161273598Y-76172627D01*
X161273596Y-76172620D01*
X161223354Y-76037913D01*
X161223350Y-76037906D01*
X161137190Y-75922812D01*
X161137187Y-75922809D01*
X161022093Y-75836649D01*
X161022086Y-75836645D01*
X160887379Y-75786403D01*
X160887372Y-75786401D01*
X160827844Y-75780000D01*
X160130000Y-75780000D01*
X160130000Y-76804722D01*
X160053694Y-76760667D01*
X159939244Y-76730000D01*
X159820756Y-76730000D01*
X159706306Y-76760667D01*
X159630000Y-76804722D01*
X159630000Y-75780000D01*
X158932155Y-75780000D01*
X158872627Y-75786401D01*
X158872620Y-75786403D01*
X158737913Y-75836645D01*
X158737906Y-75836649D01*
X158622812Y-75922809D01*
X158622809Y-75922812D01*
X158536649Y-76037906D01*
X158536645Y-76037913D01*
X158511059Y-76106514D01*
X158469188Y-76162448D01*
X158403723Y-76186865D01*
X158335450Y-76172013D01*
X158303649Y-76147165D01*
X158297224Y-76140186D01*
X158297222Y-76140184D01*
X158297220Y-76140182D01*
X158113017Y-75996810D01*
X158113015Y-75996809D01*
X158113014Y-75996808D01*
X158113011Y-75996806D01*
X157907733Y-75885716D01*
X157907730Y-75885715D01*
X157907727Y-75885713D01*
X157907721Y-75885711D01*
X157907719Y-75885710D01*
X157686954Y-75809920D01*
X157507650Y-75780000D01*
X157456712Y-75771500D01*
X157223288Y-75771500D01*
X157177240Y-75779184D01*
X156993045Y-75809920D01*
X156772280Y-75885710D01*
X156772266Y-75885716D01*
X156566988Y-75996806D01*
X156566985Y-75996808D01*
X156382781Y-76140181D01*
X156382776Y-76140185D01*
X156224686Y-76311915D01*
X156097015Y-76507331D01*
X156003251Y-76721092D01*
X155945948Y-76947377D01*
X155926673Y-77179994D01*
X152053173Y-77179994D01*
X151956749Y-77112477D01*
X151956745Y-77112475D01*
X151749249Y-77015718D01*
X151749238Y-77015714D01*
X151528089Y-76956457D01*
X151528081Y-76956456D01*
X151300002Y-76936502D01*
X151299998Y-76936502D01*
X151071918Y-76956456D01*
X151071910Y-76956457D01*
X150850761Y-77015714D01*
X150850750Y-77015718D01*
X150643254Y-77112475D01*
X150643252Y-77112476D01*
X150643251Y-77112477D01*
X150455700Y-77243802D01*
X150455698Y-77243803D01*
X150455695Y-77243806D01*
X150293806Y-77405695D01*
X150293803Y-77405698D01*
X150293802Y-77405700D01*
X150242302Y-77479249D01*
X150162476Y-77593252D01*
X150162475Y-77593254D01*
X150065718Y-77800750D01*
X150065714Y-77800761D01*
X150006457Y-78021910D01*
X150006456Y-78021918D01*
X149986502Y-78249998D01*
X127955153Y-78249998D01*
X127994564Y-78094368D01*
X127998043Y-78052385D01*
X128013156Y-77870005D01*
X128013156Y-77869994D01*
X127994565Y-77645640D01*
X127994563Y-77645628D01*
X127952430Y-77479249D01*
X127939296Y-77427384D01*
X127848860Y-77221209D01*
X127725722Y-77032732D01*
X127725719Y-77032729D01*
X127725715Y-77032723D01*
X127573243Y-76867097D01*
X127573238Y-76867092D01*
X127436504Y-76760667D01*
X127395576Y-76728811D01*
X127359070Y-76709055D01*
X127309479Y-76659836D01*
X127294371Y-76591619D01*
X127318541Y-76526064D01*
X127359070Y-76490945D01*
X127359084Y-76490936D01*
X127395576Y-76471189D01*
X127573240Y-76332906D01*
X127725722Y-76167268D01*
X127848860Y-75978791D01*
X127939296Y-75772616D01*
X127994564Y-75554368D01*
X127999385Y-75496193D01*
X128013156Y-75330005D01*
X128013156Y-75329994D01*
X127994565Y-75105640D01*
X127994563Y-75105628D01*
X127952430Y-74939249D01*
X127939296Y-74887384D01*
X127848860Y-74681209D01*
X127725722Y-74492732D01*
X127725719Y-74492729D01*
X127725715Y-74492723D01*
X127580510Y-74334991D01*
X127549587Y-74272337D01*
X127557447Y-74202911D01*
X127601594Y-74148755D01*
X127628405Y-74134827D01*
X127708584Y-74104920D01*
X127746204Y-74090889D01*
X127863261Y-74003261D01*
X127950889Y-73886204D01*
X128001989Y-73749201D01*
X128005591Y-73715692D01*
X128008499Y-73688654D01*
X128008500Y-73688637D01*
X128008500Y-71891362D01*
X128008499Y-71891345D01*
X128005157Y-71860270D01*
X128001989Y-71830799D01*
X127950889Y-71693796D01*
X127863261Y-71576739D01*
X127746204Y-71489111D01*
X127609203Y-71438011D01*
X127548654Y-71431500D01*
X127548638Y-71431500D01*
X125751362Y-71431500D01*
X125751345Y-71431500D01*
X125690797Y-71438011D01*
X125690795Y-71438011D01*
X125553795Y-71489111D01*
X125436739Y-71576739D01*
X125349111Y-71693795D01*
X125298011Y-71830795D01*
X125298011Y-71830797D01*
X125291500Y-71891345D01*
X125291500Y-73688654D01*
X125298011Y-73749202D01*
X125298011Y-73749204D01*
X125329361Y-73833254D01*
X125349111Y-73886204D01*
X125436739Y-74003261D01*
X125553796Y-74090889D01*
X125605737Y-74110262D01*
X125671595Y-74134827D01*
X125727528Y-74176699D01*
X125751944Y-74242163D01*
X125737092Y-74310436D01*
X125719490Y-74334991D01*
X125574279Y-74492730D01*
X125574276Y-74492734D01*
X125451140Y-74681207D01*
X125360703Y-74887385D01*
X125305436Y-75105628D01*
X125305434Y-75105640D01*
X125286844Y-75329994D01*
X114639213Y-75329994D01*
X114767523Y-75146749D01*
X114864284Y-74939243D01*
X114923543Y-74718087D01*
X114943498Y-74490000D01*
X114923543Y-74261913D01*
X114864284Y-74040757D01*
X114846799Y-74003261D01*
X114767524Y-73833254D01*
X114767523Y-73833252D01*
X114767523Y-73833251D01*
X114636198Y-73645700D01*
X114474300Y-73483802D01*
X114286749Y-73352477D01*
X114233596Y-73327691D01*
X114181158Y-73281519D01*
X114162007Y-73214325D01*
X114182223Y-73147444D01*
X114233600Y-73102927D01*
X114282483Y-73080133D01*
X114468820Y-72949657D01*
X114629657Y-72788820D01*
X114760134Y-72602482D01*
X114856265Y-72396326D01*
X114856269Y-72396317D01*
X114908872Y-72200000D01*
X113945686Y-72200000D01*
X113950080Y-72195606D01*
X114002741Y-72104394D01*
X114030000Y-72002661D01*
X114030000Y-71897339D01*
X114002741Y-71795606D01*
X113950080Y-71704394D01*
X113945686Y-71700000D01*
X114908872Y-71700000D01*
X114908872Y-71699999D01*
X114856269Y-71503682D01*
X114856265Y-71503673D01*
X114760134Y-71297517D01*
X114629657Y-71111179D01*
X114468820Y-70950342D01*
X114282482Y-70819865D01*
X114076328Y-70723734D01*
X113880000Y-70671127D01*
X113880000Y-71634314D01*
X113875606Y-71629920D01*
X113784394Y-71577259D01*
X113682661Y-71550000D01*
X113577339Y-71550000D01*
X113475606Y-71577259D01*
X113384394Y-71629920D01*
X113380000Y-71634314D01*
X113380000Y-70671127D01*
X113183671Y-70723734D01*
X112977517Y-70819865D01*
X112791179Y-70950342D01*
X112630342Y-71111179D01*
X112499865Y-71297517D01*
X112403734Y-71503673D01*
X112403730Y-71503682D01*
X112351127Y-71699999D01*
X112351128Y-71700000D01*
X113314314Y-71700000D01*
X113309920Y-71704394D01*
X113257259Y-71795606D01*
X113230000Y-71897339D01*
X113230000Y-72002661D01*
X113257259Y-72104394D01*
X113309920Y-72195606D01*
X113314314Y-72200000D01*
X112351128Y-72200000D01*
X112403730Y-72396317D01*
X112403734Y-72396326D01*
X112499865Y-72602482D01*
X112630342Y-72788820D01*
X112791179Y-72949657D01*
X112977517Y-73080133D01*
X113026399Y-73102927D01*
X113078839Y-73149099D01*
X113097992Y-73216292D01*
X113077777Y-73283174D01*
X113026402Y-73327691D01*
X112973256Y-73352474D01*
X112973252Y-73352476D01*
X112902856Y-73401767D01*
X112785700Y-73483802D01*
X112785698Y-73483803D01*
X112785695Y-73483806D01*
X112623806Y-73645695D01*
X112623803Y-73645698D01*
X112623802Y-73645700D01*
X112551330Y-73749201D01*
X112492476Y-73833252D01*
X112492475Y-73833254D01*
X112395718Y-74040750D01*
X112395714Y-74040761D01*
X112336457Y-74261910D01*
X112336456Y-74261918D01*
X112316502Y-74489998D01*
X107323498Y-74489998D01*
X107303543Y-74261913D01*
X107244284Y-74040757D01*
X107226799Y-74003261D01*
X107147524Y-73833254D01*
X107147523Y-73833252D01*
X107147523Y-73833251D01*
X107016198Y-73645700D01*
X106854300Y-73483802D01*
X106666749Y-73352477D01*
X106623655Y-73332382D01*
X106571215Y-73286210D01*
X106552063Y-73219017D01*
X106572278Y-73152136D01*
X106623655Y-73107618D01*
X106626882Y-73106112D01*
X106666749Y-73087523D01*
X106854300Y-72956198D01*
X107016198Y-72794300D01*
X107147523Y-72606749D01*
X107244284Y-72399243D01*
X107303543Y-72178087D01*
X107323498Y-71950000D01*
X107303543Y-71721913D01*
X107244284Y-71500757D01*
X107238853Y-71489111D01*
X107147524Y-71293254D01*
X107147523Y-71293252D01*
X107147523Y-71293251D01*
X107016198Y-71105700D01*
X106854300Y-70943802D01*
X106666749Y-70812477D01*
X106666745Y-70812475D01*
X106459249Y-70715718D01*
X106459238Y-70715714D01*
X106238089Y-70656457D01*
X106238081Y-70656456D01*
X106010002Y-70636502D01*
X106009998Y-70636502D01*
X105781918Y-70656456D01*
X105781910Y-70656457D01*
X105560761Y-70715714D01*
X105560750Y-70715718D01*
X105353254Y-70812475D01*
X105353252Y-70812476D01*
X105282856Y-70861767D01*
X105165700Y-70943802D01*
X105165698Y-70943803D01*
X105165695Y-70943806D01*
X105003806Y-71105695D01*
X104872476Y-71293252D01*
X104872475Y-71293254D01*
X104775718Y-71500750D01*
X104775714Y-71500761D01*
X104716457Y-71721910D01*
X104716456Y-71721918D01*
X104696502Y-71949998D01*
X100075500Y-71949998D01*
X100075500Y-68089998D01*
X149986502Y-68089998D01*
X149986502Y-68090001D01*
X150006456Y-68318081D01*
X150006457Y-68318089D01*
X150065714Y-68539238D01*
X150065718Y-68539249D01*
X150162475Y-68746745D01*
X150162477Y-68746749D01*
X150293802Y-68934300D01*
X150455700Y-69096198D01*
X150643251Y-69227523D01*
X150768091Y-69285736D01*
X150850750Y-69324281D01*
X150850752Y-69324281D01*
X150850757Y-69324284D01*
X151071913Y-69383543D01*
X151217795Y-69396306D01*
X151299998Y-69403498D01*
X151300000Y-69403498D01*
X151300002Y-69403498D01*
X151357021Y-69398509D01*
X151528087Y-69383543D01*
X151749243Y-69324284D01*
X151956749Y-69227523D01*
X152144300Y-69096198D01*
X152306198Y-68934300D01*
X152437523Y-68746749D01*
X152495622Y-68622155D01*
X153830000Y-68622155D01*
X153830000Y-69320000D01*
X154854722Y-69320000D01*
X154810667Y-69396306D01*
X154780000Y-69510756D01*
X154780000Y-69629244D01*
X154810667Y-69743694D01*
X154854722Y-69820000D01*
X153830000Y-69820000D01*
X153830000Y-70517844D01*
X153836401Y-70577372D01*
X153836403Y-70577379D01*
X153886645Y-70712086D01*
X153886649Y-70712093D01*
X153972809Y-70827187D01*
X153972812Y-70827190D01*
X154087906Y-70913350D01*
X154087913Y-70913354D01*
X154222620Y-70963596D01*
X154222627Y-70963598D01*
X154282155Y-70969999D01*
X154282172Y-70970000D01*
X154980000Y-70970000D01*
X154980000Y-69945277D01*
X155056306Y-69989333D01*
X155170756Y-70020000D01*
X155289244Y-70020000D01*
X155403694Y-69989333D01*
X155480000Y-69945277D01*
X155480000Y-70970000D01*
X156177828Y-70970000D01*
X156177844Y-70969999D01*
X156237372Y-70963598D01*
X156237379Y-70963596D01*
X156372086Y-70913354D01*
X156372093Y-70913350D01*
X156487187Y-70827190D01*
X156487190Y-70827187D01*
X156573350Y-70712093D01*
X156573355Y-70712084D01*
X156598940Y-70643486D01*
X156640810Y-70587552D01*
X156706274Y-70563134D01*
X156774547Y-70577985D01*
X156806349Y-70602832D01*
X156812780Y-70609818D01*
X156996983Y-70753190D01*
X156996985Y-70753191D01*
X156996988Y-70753193D01*
X157106532Y-70812475D01*
X157202273Y-70864287D01*
X157316914Y-70903643D01*
X157423045Y-70940079D01*
X157423047Y-70940079D01*
X157423049Y-70940080D01*
X157653288Y-70978500D01*
X157653289Y-70978500D01*
X157886711Y-70978500D01*
X157886712Y-70978500D01*
X158116951Y-70940080D01*
X158337727Y-70864287D01*
X158543017Y-70753190D01*
X158727220Y-70609818D01*
X158885314Y-70438083D01*
X159012984Y-70242669D01*
X159106749Y-70028907D01*
X159164051Y-69802626D01*
X159183327Y-69570000D01*
X159181464Y-69547523D01*
X159164051Y-69337377D01*
X159164051Y-69337374D01*
X159106749Y-69111093D01*
X159012984Y-68897331D01*
X158885314Y-68701917D01*
X158885313Y-68701915D01*
X158727223Y-68530185D01*
X158727222Y-68530184D01*
X158727220Y-68530182D01*
X158572809Y-68409998D01*
X162946502Y-68409998D01*
X162946502Y-68410001D01*
X162966456Y-68638081D01*
X162966457Y-68638089D01*
X163025714Y-68859238D01*
X163025718Y-68859249D01*
X163060715Y-68934300D01*
X163122477Y-69066749D01*
X163253802Y-69254300D01*
X163415700Y-69416198D01*
X163603251Y-69547523D01*
X163728091Y-69605736D01*
X163810750Y-69644281D01*
X163810752Y-69644281D01*
X163810757Y-69644284D01*
X164031913Y-69703543D01*
X164194832Y-69717796D01*
X164259998Y-69723498D01*
X164260000Y-69723498D01*
X164260002Y-69723498D01*
X164317021Y-69718509D01*
X164488087Y-69703543D01*
X164709243Y-69644284D01*
X164916749Y-69547523D01*
X165104300Y-69416198D01*
X165266198Y-69254300D01*
X165397523Y-69066749D01*
X165494284Y-68859243D01*
X165553543Y-68638087D01*
X165573498Y-68410000D01*
X165553543Y-68181913D01*
X165494284Y-67960757D01*
X165397523Y-67753251D01*
X165266198Y-67565700D01*
X165104300Y-67403802D01*
X164916749Y-67272477D01*
X164916745Y-67272475D01*
X164709249Y-67175718D01*
X164709238Y-67175714D01*
X164488089Y-67116457D01*
X164488081Y-67116456D01*
X164260002Y-67096502D01*
X164259998Y-67096502D01*
X164031918Y-67116456D01*
X164031910Y-67116457D01*
X163810761Y-67175714D01*
X163810750Y-67175718D01*
X163603254Y-67272475D01*
X163603252Y-67272476D01*
X163603251Y-67272477D01*
X163415700Y-67403802D01*
X163415698Y-67403803D01*
X163415695Y-67403806D01*
X163253806Y-67565695D01*
X163253803Y-67565698D01*
X163253802Y-67565700D01*
X163201244Y-67640761D01*
X163122476Y-67753252D01*
X163122475Y-67753254D01*
X163025718Y-67960750D01*
X163025714Y-67960761D01*
X162966457Y-68181910D01*
X162966456Y-68181918D01*
X162946502Y-68409998D01*
X158572809Y-68409998D01*
X158543017Y-68386810D01*
X158543015Y-68386809D01*
X158543014Y-68386808D01*
X158543011Y-68386806D01*
X158337733Y-68275716D01*
X158337730Y-68275715D01*
X158337727Y-68275713D01*
X158337721Y-68275711D01*
X158337719Y-68275710D01*
X158116954Y-68199920D01*
X157937650Y-68170000D01*
X157886712Y-68161500D01*
X157653288Y-68161500D01*
X157607240Y-68169184D01*
X157423045Y-68199920D01*
X157202280Y-68275710D01*
X157202266Y-68275716D01*
X156996988Y-68386806D01*
X156996985Y-68386808D01*
X156812781Y-68530181D01*
X156812776Y-68530185D01*
X156806346Y-68537170D01*
X156746457Y-68573157D01*
X156676619Y-68571052D01*
X156619005Y-68531524D01*
X156598940Y-68496513D01*
X156573355Y-68427915D01*
X156573350Y-68427906D01*
X156487190Y-68312812D01*
X156487187Y-68312809D01*
X156372093Y-68226649D01*
X156372086Y-68226645D01*
X156237379Y-68176403D01*
X156237372Y-68176401D01*
X156177844Y-68170000D01*
X155480000Y-68170000D01*
X155480000Y-69194722D01*
X155403694Y-69150667D01*
X155289244Y-69120000D01*
X155170756Y-69120000D01*
X155056306Y-69150667D01*
X154980000Y-69194722D01*
X154980000Y-68170000D01*
X154282155Y-68170000D01*
X154222627Y-68176401D01*
X154222620Y-68176403D01*
X154087913Y-68226645D01*
X154087906Y-68226649D01*
X153972812Y-68312809D01*
X153972809Y-68312812D01*
X153886649Y-68427906D01*
X153886645Y-68427913D01*
X153836403Y-68562620D01*
X153836401Y-68562627D01*
X153830000Y-68622155D01*
X152495622Y-68622155D01*
X152534284Y-68539243D01*
X152593543Y-68318087D01*
X152613498Y-68090000D01*
X152593543Y-67861913D01*
X152534284Y-67640757D01*
X152437523Y-67433251D01*
X152306198Y-67245700D01*
X152144300Y-67083802D01*
X151956749Y-66952477D01*
X151956745Y-66952475D01*
X151749249Y-66855718D01*
X151749238Y-66855714D01*
X151528089Y-66796457D01*
X151528081Y-66796456D01*
X151300002Y-66776502D01*
X151299998Y-66776502D01*
X151071918Y-66796456D01*
X151071910Y-66796457D01*
X150850761Y-66855714D01*
X150850750Y-66855718D01*
X150643254Y-66952475D01*
X150643252Y-66952476D01*
X150643251Y-66952477D01*
X150455700Y-67083802D01*
X150455698Y-67083803D01*
X150455695Y-67083806D01*
X150293806Y-67245695D01*
X150293803Y-67245698D01*
X150293802Y-67245700D01*
X150211767Y-67362856D01*
X150162476Y-67433252D01*
X150162475Y-67433254D01*
X150065718Y-67640750D01*
X150065714Y-67640761D01*
X150006457Y-67861910D01*
X150006456Y-67861918D01*
X149986502Y-68089998D01*
X100075500Y-68089998D01*
X100075500Y-56229999D01*
X101821430Y-56229999D01*
X101821430Y-56230000D01*
X101841667Y-56448396D01*
X101901691Y-56659363D01*
X101999453Y-56855695D01*
X101999458Y-56855703D01*
X102131637Y-57030736D01*
X102249699Y-57138363D01*
X102285981Y-57198074D01*
X102284220Y-57267922D01*
X102249699Y-57321637D01*
X102131637Y-57429263D01*
X101999458Y-57604296D01*
X101999453Y-57604304D01*
X101901691Y-57800636D01*
X101841667Y-58011603D01*
X101821430Y-58229999D01*
X101821430Y-58230000D01*
X101841667Y-58448396D01*
X101901691Y-58659363D01*
X101999453Y-58855695D01*
X101999458Y-58855703D01*
X102131637Y-59030736D01*
X102249699Y-59138363D01*
X102285981Y-59198074D01*
X102284220Y-59267922D01*
X102249699Y-59321637D01*
X102131637Y-59429263D01*
X101999458Y-59604296D01*
X101999453Y-59604304D01*
X101901691Y-59800636D01*
X101841667Y-60011603D01*
X101821430Y-60229999D01*
X101821430Y-60230000D01*
X101841667Y-60448396D01*
X101901691Y-60659363D01*
X101999453Y-60855695D01*
X101999458Y-60855703D01*
X102088783Y-60973987D01*
X102131634Y-61030732D01*
X102131637Y-61030735D01*
X102256007Y-61144113D01*
X102292289Y-61203824D01*
X102290528Y-61273671D01*
X102256007Y-61327387D01*
X102137945Y-61435013D01*
X102006715Y-61608791D01*
X101909651Y-61803719D01*
X101859494Y-61979999D01*
X101859495Y-61980000D01*
X102694314Y-61980000D01*
X102689920Y-61984394D01*
X102637259Y-62075606D01*
X102610000Y-62177339D01*
X102610000Y-62282661D01*
X102637259Y-62384394D01*
X102689920Y-62475606D01*
X102694314Y-62480000D01*
X101859495Y-62480000D01*
X101909651Y-62656280D01*
X102006715Y-62851208D01*
X102137943Y-63024982D01*
X102256007Y-63132611D01*
X102292288Y-63192323D01*
X102290528Y-63262170D01*
X102256007Y-63315886D01*
X102131637Y-63429263D01*
X101999458Y-63604296D01*
X101999453Y-63604304D01*
X101901691Y-63800636D01*
X101841667Y-64011603D01*
X101821430Y-64229999D01*
X101821430Y-64230000D01*
X101841667Y-64448396D01*
X101901691Y-64659363D01*
X101999453Y-64855695D01*
X101999458Y-64855703D01*
X102080853Y-64963486D01*
X102131636Y-65030734D01*
X102293727Y-65178499D01*
X102480209Y-65293964D01*
X102684732Y-65373197D01*
X102900333Y-65413500D01*
X102900335Y-65413500D01*
X103119665Y-65413500D01*
X103119667Y-65413500D01*
X103335268Y-65373197D01*
X103539791Y-65293964D01*
X103726273Y-65178499D01*
X103888364Y-65030734D01*
X104020543Y-64855701D01*
X104118309Y-64659361D01*
X104178332Y-64448399D01*
X104184670Y-64379998D01*
X134336502Y-64379998D01*
X134336502Y-64380001D01*
X134356456Y-64608081D01*
X134356457Y-64608089D01*
X134415714Y-64829238D01*
X134415718Y-64829249D01*
X134510306Y-65032093D01*
X134512477Y-65036749D01*
X134643802Y-65224300D01*
X134805700Y-65386198D01*
X134993251Y-65517523D01*
X135039843Y-65539249D01*
X135200750Y-65614281D01*
X135200752Y-65614281D01*
X135200757Y-65614284D01*
X135421913Y-65673543D01*
X135584832Y-65687796D01*
X135649998Y-65693498D01*
X135650000Y-65693498D01*
X135650002Y-65693498D01*
X135707021Y-65688509D01*
X135878087Y-65673543D01*
X136099243Y-65614284D01*
X136306749Y-65517523D01*
X136494300Y-65386198D01*
X136656198Y-65224300D01*
X136787523Y-65036749D01*
X136884284Y-64829243D01*
X136943543Y-64608087D01*
X136963498Y-64380000D01*
X136959998Y-64340000D01*
X136951748Y-64245695D01*
X136943543Y-64151913D01*
X136884284Y-63930757D01*
X136883578Y-63929244D01*
X136793335Y-63735716D01*
X136787523Y-63723251D01*
X136656198Y-63535700D01*
X136494300Y-63373802D01*
X136306749Y-63242477D01*
X136306745Y-63242475D01*
X136099249Y-63145718D01*
X136099238Y-63145714D01*
X135878089Y-63086457D01*
X135878081Y-63086456D01*
X135650002Y-63066502D01*
X135649998Y-63066502D01*
X135421918Y-63086456D01*
X135421910Y-63086457D01*
X135200761Y-63145714D01*
X135200750Y-63145718D01*
X134993254Y-63242475D01*
X134993252Y-63242476D01*
X134937519Y-63281501D01*
X134805700Y-63373802D01*
X134805698Y-63373803D01*
X134805695Y-63373806D01*
X134643806Y-63535695D01*
X134643803Y-63535698D01*
X134643802Y-63535700D01*
X134595765Y-63604304D01*
X134512476Y-63723252D01*
X134512475Y-63723254D01*
X134415718Y-63930750D01*
X134415714Y-63930761D01*
X134356457Y-64151910D01*
X134356456Y-64151918D01*
X134336502Y-64379998D01*
X104184670Y-64379998D01*
X104198570Y-64230000D01*
X104178332Y-64011601D01*
X104118309Y-63800639D01*
X104116227Y-63796457D01*
X104020546Y-63604304D01*
X104020541Y-63604296D01*
X103964367Y-63529910D01*
X103888364Y-63429266D01*
X103763992Y-63315886D01*
X103727710Y-63256175D01*
X103729471Y-63186328D01*
X103763993Y-63132611D01*
X103882054Y-63024985D01*
X103944604Y-62942155D01*
X139430000Y-62942155D01*
X139430000Y-63640000D01*
X140454722Y-63640000D01*
X140410667Y-63716306D01*
X140380000Y-63830756D01*
X140380000Y-63949244D01*
X140410667Y-64063694D01*
X140454722Y-64140000D01*
X139430000Y-64140000D01*
X139430000Y-64837844D01*
X139436401Y-64897372D01*
X139436403Y-64897379D01*
X139486645Y-65032086D01*
X139486649Y-65032093D01*
X139572809Y-65147187D01*
X139572812Y-65147190D01*
X139687906Y-65233350D01*
X139687913Y-65233354D01*
X139822620Y-65283596D01*
X139822627Y-65283598D01*
X139882155Y-65289999D01*
X139882172Y-65290000D01*
X140580000Y-65290000D01*
X140580000Y-64265277D01*
X140656306Y-64309333D01*
X140770756Y-64340000D01*
X140889244Y-64340000D01*
X141003694Y-64309333D01*
X141080000Y-64265277D01*
X141080000Y-65290000D01*
X141777828Y-65290000D01*
X141777844Y-65289999D01*
X141837372Y-65283598D01*
X141837379Y-65283596D01*
X141972086Y-65233354D01*
X141972093Y-65233350D01*
X142087187Y-65147190D01*
X142087190Y-65147187D01*
X142173350Y-65032093D01*
X142173355Y-65032084D01*
X142198940Y-64963486D01*
X142240810Y-64907552D01*
X142306274Y-64883134D01*
X142374547Y-64897985D01*
X142406349Y-64922832D01*
X142412780Y-64929818D01*
X142596983Y-65073190D01*
X142596985Y-65073191D01*
X142596988Y-65073193D01*
X142628045Y-65090000D01*
X142802273Y-65184287D01*
X142842477Y-65198089D01*
X143023045Y-65260079D01*
X143023047Y-65260079D01*
X143023049Y-65260080D01*
X143253288Y-65298500D01*
X143253289Y-65298500D01*
X143486711Y-65298500D01*
X143486712Y-65298500D01*
X143716951Y-65260080D01*
X143937727Y-65184287D01*
X144111958Y-65089998D01*
X145986502Y-65089998D01*
X145986502Y-65090001D01*
X146006456Y-65318081D01*
X146006457Y-65318089D01*
X146065714Y-65539238D01*
X146065718Y-65539249D01*
X146137646Y-65693498D01*
X146162477Y-65746749D01*
X146293802Y-65934300D01*
X146455700Y-66096198D01*
X146643251Y-66227523D01*
X146720495Y-66263542D01*
X146850750Y-66324281D01*
X146850752Y-66324281D01*
X146850757Y-66324284D01*
X147071913Y-66383543D01*
X147234832Y-66397796D01*
X147299998Y-66403498D01*
X147300000Y-66403498D01*
X147300002Y-66403498D01*
X147357021Y-66398509D01*
X147528087Y-66383543D01*
X147749243Y-66324284D01*
X147956749Y-66227523D01*
X148144300Y-66096198D01*
X148306198Y-65934300D01*
X148437523Y-65746749D01*
X148534284Y-65539243D01*
X148593543Y-65318087D01*
X148613498Y-65090000D01*
X148612027Y-65073191D01*
X148602999Y-64969998D01*
X149986502Y-64969998D01*
X149986502Y-64970001D01*
X150006456Y-65198081D01*
X150006457Y-65198089D01*
X150065714Y-65419238D01*
X150065718Y-65419249D01*
X150156665Y-65614285D01*
X150162477Y-65626749D01*
X150293802Y-65814300D01*
X150455700Y-65976198D01*
X150643251Y-66107523D01*
X150768091Y-66165736D01*
X150850750Y-66204281D01*
X150850752Y-66204281D01*
X150850757Y-66204284D01*
X151071913Y-66263543D01*
X151234832Y-66277796D01*
X151299998Y-66283498D01*
X151300000Y-66283498D01*
X151300002Y-66283498D01*
X151357021Y-66278509D01*
X151528087Y-66263543D01*
X151749243Y-66204284D01*
X151956749Y-66107523D01*
X152144300Y-65976198D01*
X152306198Y-65814300D01*
X152437523Y-65626749D01*
X152443336Y-65614284D01*
X152534281Y-65419249D01*
X152534284Y-65419243D01*
X152593543Y-65198087D01*
X152613498Y-64970000D01*
X152593543Y-64741913D01*
X152534284Y-64520757D01*
X152437523Y-64313251D01*
X152306198Y-64125700D01*
X152144300Y-63963802D01*
X152010329Y-63869994D01*
X155446673Y-63869994D01*
X155446673Y-63870005D01*
X155465948Y-64102622D01*
X155465948Y-64102625D01*
X155465949Y-64102626D01*
X155471791Y-64125695D01*
X155523251Y-64328907D01*
X155617015Y-64542668D01*
X155744686Y-64738084D01*
X155896354Y-64902838D01*
X155902780Y-64909818D01*
X156086983Y-65053190D01*
X156086985Y-65053191D01*
X156086988Y-65053193D01*
X156123945Y-65073193D01*
X156292273Y-65164287D01*
X156390734Y-65198089D01*
X156513045Y-65240079D01*
X156513047Y-65240079D01*
X156513049Y-65240080D01*
X156743288Y-65278500D01*
X156743289Y-65278500D01*
X156976711Y-65278500D01*
X156976712Y-65278500D01*
X157206951Y-65240080D01*
X157427727Y-65164287D01*
X157633017Y-65053190D01*
X157817220Y-64909818D01*
X157823646Y-64902837D01*
X157883531Y-64866845D01*
X157953369Y-64868944D01*
X158010986Y-64908466D01*
X158031059Y-64943485D01*
X158056645Y-65012086D01*
X158056649Y-65012093D01*
X158142809Y-65127187D01*
X158142812Y-65127190D01*
X158257906Y-65213350D01*
X158257913Y-65213354D01*
X158392620Y-65263596D01*
X158392627Y-65263598D01*
X158452155Y-65269999D01*
X158452172Y-65270000D01*
X159150000Y-65270000D01*
X159150000Y-64245277D01*
X159226306Y-64289333D01*
X159340756Y-64320000D01*
X159459244Y-64320000D01*
X159573694Y-64289333D01*
X159650000Y-64245277D01*
X159650000Y-65270000D01*
X160347828Y-65270000D01*
X160347844Y-65269999D01*
X160407372Y-65263598D01*
X160407379Y-65263596D01*
X160542086Y-65213354D01*
X160542093Y-65213350D01*
X160653436Y-65129998D01*
X162886502Y-65129998D01*
X162886502Y-65130001D01*
X162906456Y-65358081D01*
X162906457Y-65358089D01*
X162965714Y-65579238D01*
X162965718Y-65579249D01*
X163043823Y-65746745D01*
X163062477Y-65786749D01*
X163193802Y-65974300D01*
X163355700Y-66136198D01*
X163543251Y-66267523D01*
X163577510Y-66283498D01*
X163750750Y-66364281D01*
X163750752Y-66364281D01*
X163750757Y-66364284D01*
X163971913Y-66423543D01*
X164134832Y-66437796D01*
X164199998Y-66443498D01*
X164200000Y-66443498D01*
X164200002Y-66443498D01*
X164257021Y-66438509D01*
X164428087Y-66423543D01*
X164649243Y-66364284D01*
X164856749Y-66267523D01*
X165044300Y-66136198D01*
X165206198Y-65974300D01*
X165337523Y-65786749D01*
X165434284Y-65579243D01*
X165493543Y-65358087D01*
X165513498Y-65130000D01*
X165509998Y-65090000D01*
X165499500Y-64970000D01*
X165493543Y-64901913D01*
X165434284Y-64680757D01*
X165337523Y-64473251D01*
X165206198Y-64285700D01*
X165044300Y-64123802D01*
X164856749Y-63992477D01*
X164856745Y-63992475D01*
X164649249Y-63895718D01*
X164649238Y-63895714D01*
X164428089Y-63836457D01*
X164428081Y-63836456D01*
X164200002Y-63816502D01*
X164199998Y-63816502D01*
X163971918Y-63836456D01*
X163971910Y-63836457D01*
X163750761Y-63895714D01*
X163750750Y-63895718D01*
X163543254Y-63992475D01*
X163543252Y-63992476D01*
X163543251Y-63992477D01*
X163355700Y-64123802D01*
X163355698Y-64123803D01*
X163355695Y-64123806D01*
X163193806Y-64285695D01*
X163193803Y-64285698D01*
X163193802Y-64285700D01*
X163169785Y-64320000D01*
X163062476Y-64473252D01*
X163062475Y-64473254D01*
X162965718Y-64680750D01*
X162965714Y-64680761D01*
X162906457Y-64901910D01*
X162906456Y-64901918D01*
X162886502Y-65129998D01*
X160653436Y-65129998D01*
X160657187Y-65127190D01*
X160657190Y-65127187D01*
X160743350Y-65012093D01*
X160743354Y-65012086D01*
X160793596Y-64877379D01*
X160793598Y-64877372D01*
X160799999Y-64817844D01*
X160800000Y-64817827D01*
X160800000Y-64120000D01*
X159775278Y-64120000D01*
X159819333Y-64043694D01*
X159850000Y-63929244D01*
X159850000Y-63810756D01*
X159819333Y-63696306D01*
X159775278Y-63620000D01*
X160800000Y-63620000D01*
X160800000Y-62922172D01*
X160799999Y-62922155D01*
X160793598Y-62862627D01*
X160793596Y-62862620D01*
X160743354Y-62727913D01*
X160743350Y-62727906D01*
X160657190Y-62612812D01*
X160657187Y-62612809D01*
X160542093Y-62526649D01*
X160542086Y-62526645D01*
X160407379Y-62476403D01*
X160407372Y-62476401D01*
X160347844Y-62470000D01*
X159650000Y-62470000D01*
X159650000Y-63494722D01*
X159573694Y-63450667D01*
X159459244Y-63420000D01*
X159340756Y-63420000D01*
X159226306Y-63450667D01*
X159150000Y-63494722D01*
X159150000Y-62470000D01*
X158452155Y-62470000D01*
X158392627Y-62476401D01*
X158392620Y-62476403D01*
X158257913Y-62526645D01*
X158257906Y-62526649D01*
X158142812Y-62612809D01*
X158142809Y-62612812D01*
X158056649Y-62727906D01*
X158056645Y-62727913D01*
X158031059Y-62796514D01*
X157989188Y-62852448D01*
X157923723Y-62876865D01*
X157855450Y-62862013D01*
X157823649Y-62837165D01*
X157817224Y-62830186D01*
X157817222Y-62830184D01*
X157817220Y-62830182D01*
X157633017Y-62686810D01*
X157633015Y-62686809D01*
X157633014Y-62686808D01*
X157633011Y-62686806D01*
X157427733Y-62575716D01*
X157427730Y-62575715D01*
X157427727Y-62575713D01*
X157427721Y-62575711D01*
X157427719Y-62575710D01*
X157206954Y-62499920D01*
X157027650Y-62470000D01*
X156976712Y-62461500D01*
X156743288Y-62461500D01*
X156697240Y-62469184D01*
X156513045Y-62499920D01*
X156292280Y-62575710D01*
X156292266Y-62575716D01*
X156086988Y-62686806D01*
X156086985Y-62686808D01*
X155902781Y-62830181D01*
X155902776Y-62830185D01*
X155744686Y-63001915D01*
X155617015Y-63197331D01*
X155523251Y-63411092D01*
X155465948Y-63637377D01*
X155446673Y-63869994D01*
X152010329Y-63869994D01*
X151956749Y-63832477D01*
X151956745Y-63832475D01*
X151749249Y-63735718D01*
X151749238Y-63735714D01*
X151528089Y-63676457D01*
X151528081Y-63676456D01*
X151300002Y-63656502D01*
X151299998Y-63656502D01*
X151071918Y-63676456D01*
X151071910Y-63676457D01*
X150850761Y-63735714D01*
X150850750Y-63735718D01*
X150643254Y-63832475D01*
X150643252Y-63832476D01*
X150589671Y-63869994D01*
X150455700Y-63963802D01*
X150455698Y-63963803D01*
X150455695Y-63963806D01*
X150293806Y-64125695D01*
X150293803Y-64125698D01*
X150293802Y-64125700D01*
X150220771Y-64229999D01*
X150162476Y-64313252D01*
X150162475Y-64313254D01*
X150065718Y-64520750D01*
X150065714Y-64520761D01*
X150006457Y-64741910D01*
X150006456Y-64741918D01*
X149986502Y-64969998D01*
X148602999Y-64969998D01*
X148602429Y-64963486D01*
X148593543Y-64861913D01*
X148534284Y-64640757D01*
X148437523Y-64433251D01*
X148306198Y-64245700D01*
X148144300Y-64083802D01*
X147956749Y-63952477D01*
X147910179Y-63930761D01*
X147749249Y-63855718D01*
X147749238Y-63855714D01*
X147528089Y-63796457D01*
X147528081Y-63796456D01*
X147300002Y-63776502D01*
X147299998Y-63776502D01*
X147071918Y-63796456D01*
X147071910Y-63796457D01*
X146850761Y-63855714D01*
X146850750Y-63855718D01*
X146643254Y-63952475D01*
X146643252Y-63952476D01*
X146586128Y-63992475D01*
X146455700Y-64083802D01*
X146455698Y-64083803D01*
X146455695Y-64083806D01*
X146293806Y-64245695D01*
X146293803Y-64245698D01*
X146293802Y-64245700D01*
X146211767Y-64362856D01*
X146162476Y-64433252D01*
X146162475Y-64433254D01*
X146065718Y-64640750D01*
X146065714Y-64640761D01*
X146006457Y-64861910D01*
X146006456Y-64861918D01*
X145986502Y-65089998D01*
X144111958Y-65089998D01*
X144143017Y-65073190D01*
X144327220Y-64929818D01*
X144485314Y-64758083D01*
X144612984Y-64562669D01*
X144706749Y-64348907D01*
X144764051Y-64122626D01*
X144773251Y-64011601D01*
X144783327Y-63890005D01*
X144783327Y-63889994D01*
X144764051Y-63657377D01*
X144764051Y-63657374D01*
X144706749Y-63431093D01*
X144612984Y-63217331D01*
X144566196Y-63145716D01*
X144485313Y-63021915D01*
X144327223Y-62850185D01*
X144327222Y-62850184D01*
X144327220Y-62850182D01*
X144143017Y-62706810D01*
X144143015Y-62706809D01*
X144143014Y-62706808D01*
X144143011Y-62706806D01*
X143937733Y-62595716D01*
X143937730Y-62595715D01*
X143937727Y-62595713D01*
X143937721Y-62595711D01*
X143937719Y-62595710D01*
X143716954Y-62519920D01*
X143537650Y-62490000D01*
X143486712Y-62481500D01*
X143253288Y-62481500D01*
X143207240Y-62489184D01*
X143023045Y-62519920D01*
X142802280Y-62595710D01*
X142802266Y-62595716D01*
X142596988Y-62706806D01*
X142596985Y-62706808D01*
X142412781Y-62850181D01*
X142412776Y-62850185D01*
X142406346Y-62857170D01*
X142346457Y-62893157D01*
X142276619Y-62891052D01*
X142219005Y-62851524D01*
X142198940Y-62816513D01*
X142173355Y-62747915D01*
X142173350Y-62747906D01*
X142087190Y-62632812D01*
X142087187Y-62632809D01*
X141972093Y-62546649D01*
X141972086Y-62546645D01*
X141837379Y-62496403D01*
X141837372Y-62496401D01*
X141777844Y-62490000D01*
X141080000Y-62490000D01*
X141080000Y-63514722D01*
X141003694Y-63470667D01*
X140889244Y-63440000D01*
X140770756Y-63440000D01*
X140656306Y-63470667D01*
X140580000Y-63514722D01*
X140580000Y-62490000D01*
X139882155Y-62490000D01*
X139822627Y-62496401D01*
X139822620Y-62496403D01*
X139687913Y-62546645D01*
X139687906Y-62546649D01*
X139572812Y-62632809D01*
X139572809Y-62632812D01*
X139486649Y-62747906D01*
X139486645Y-62747913D01*
X139436403Y-62882620D01*
X139436401Y-62882627D01*
X139430000Y-62942155D01*
X103944604Y-62942155D01*
X104013284Y-62851208D01*
X104110348Y-62656280D01*
X104160505Y-62480000D01*
X103325686Y-62480000D01*
X103330080Y-62475606D01*
X103382741Y-62384394D01*
X103410000Y-62282661D01*
X103410000Y-62177339D01*
X103382741Y-62075606D01*
X103330080Y-61984394D01*
X103325686Y-61980000D01*
X104160505Y-61980000D01*
X104160505Y-61979999D01*
X104110348Y-61803719D01*
X104013284Y-61608791D01*
X103882056Y-61435017D01*
X103763992Y-61327388D01*
X103727711Y-61267676D01*
X103729471Y-61197829D01*
X103763989Y-61144116D01*
X103888364Y-61030734D01*
X104020543Y-60855701D01*
X104118309Y-60659361D01*
X104178332Y-60448399D01*
X104198570Y-60230000D01*
X104178332Y-60011601D01*
X104118309Y-59800639D01*
X104118308Y-59800636D01*
X104020546Y-59604304D01*
X104020541Y-59604296D01*
X103986158Y-59558766D01*
X103888364Y-59429266D01*
X103770298Y-59321635D01*
X103734019Y-59261926D01*
X103735779Y-59192079D01*
X103770298Y-59138364D01*
X103888364Y-59030734D01*
X104020543Y-58855701D01*
X104118309Y-58659361D01*
X104178332Y-58448399D01*
X104198570Y-58230000D01*
X104178332Y-58011601D01*
X104118309Y-57800639D01*
X104118308Y-57800636D01*
X104020546Y-57604304D01*
X104020541Y-57604296D01*
X103958898Y-57522668D01*
X103888364Y-57429266D01*
X103770298Y-57321635D01*
X103734019Y-57261926D01*
X103735779Y-57192079D01*
X103770298Y-57138364D01*
X103888364Y-57030734D01*
X104020543Y-56855701D01*
X104023385Y-56849994D01*
X138546673Y-56849994D01*
X138546673Y-56850005D01*
X138565948Y-57082622D01*
X138565948Y-57082625D01*
X138565949Y-57082626D01*
X138590227Y-57178499D01*
X138623251Y-57308907D01*
X138717015Y-57522668D01*
X138844686Y-57718084D01*
X138996354Y-57882838D01*
X139002780Y-57889818D01*
X139186983Y-58033190D01*
X139186985Y-58033191D01*
X139186988Y-58033193D01*
X139306331Y-58097777D01*
X139392273Y-58144287D01*
X139506914Y-58183643D01*
X139613045Y-58220079D01*
X139613047Y-58220079D01*
X139613049Y-58220080D01*
X139843288Y-58258500D01*
X139843289Y-58258500D01*
X140076711Y-58258500D01*
X140076712Y-58258500D01*
X140306951Y-58220080D01*
X140527727Y-58144287D01*
X140733017Y-58033190D01*
X140917220Y-57889818D01*
X140923646Y-57882837D01*
X140983531Y-57846845D01*
X141053369Y-57848944D01*
X141110986Y-57888466D01*
X141131059Y-57923485D01*
X141156645Y-57992086D01*
X141156649Y-57992093D01*
X141242809Y-58107187D01*
X141242812Y-58107190D01*
X141357906Y-58193350D01*
X141357913Y-58193354D01*
X141492620Y-58243596D01*
X141492627Y-58243598D01*
X141552155Y-58249999D01*
X141552172Y-58250000D01*
X142250000Y-58250000D01*
X142250000Y-57225277D01*
X142326306Y-57269333D01*
X142440756Y-57300000D01*
X142559244Y-57300000D01*
X142673694Y-57269333D01*
X142750000Y-57225277D01*
X142750000Y-58250000D01*
X143447828Y-58250000D01*
X143447844Y-58249999D01*
X143507372Y-58243598D01*
X143507379Y-58243596D01*
X143642086Y-58193354D01*
X143642093Y-58193350D01*
X143757187Y-58107190D01*
X143757190Y-58107187D01*
X143843350Y-57992093D01*
X143843354Y-57992086D01*
X143893596Y-57857379D01*
X143893598Y-57857372D01*
X143899999Y-57797844D01*
X143900000Y-57797827D01*
X143900000Y-57100000D01*
X142875278Y-57100000D01*
X142919333Y-57023694D01*
X142950000Y-56909244D01*
X142950000Y-56790756D01*
X142919333Y-56676306D01*
X142875278Y-56600000D01*
X143900000Y-56600000D01*
X143900000Y-55902172D01*
X143899999Y-55902155D01*
X143893598Y-55842627D01*
X143893596Y-55842620D01*
X143843354Y-55707913D01*
X143843350Y-55707906D01*
X143757190Y-55592812D01*
X143757187Y-55592809D01*
X143642093Y-55506649D01*
X143642086Y-55506645D01*
X143507379Y-55456403D01*
X143507372Y-55456401D01*
X143447844Y-55450000D01*
X142750000Y-55450000D01*
X142750000Y-56474722D01*
X142673694Y-56430667D01*
X142559244Y-56400000D01*
X142440756Y-56400000D01*
X142326306Y-56430667D01*
X142250000Y-56474722D01*
X142250000Y-55450000D01*
X141552155Y-55450000D01*
X141492627Y-55456401D01*
X141492620Y-55456403D01*
X141357913Y-55506645D01*
X141357906Y-55506649D01*
X141242812Y-55592809D01*
X141242809Y-55592812D01*
X141156649Y-55707906D01*
X141156645Y-55707913D01*
X141131059Y-55776514D01*
X141089188Y-55832448D01*
X141023723Y-55856865D01*
X140955450Y-55842013D01*
X140923649Y-55817165D01*
X140917224Y-55810186D01*
X140917222Y-55810184D01*
X140917220Y-55810182D01*
X140733017Y-55666810D01*
X140733015Y-55666809D01*
X140733014Y-55666808D01*
X140733011Y-55666806D01*
X140527733Y-55555716D01*
X140527730Y-55555715D01*
X140527727Y-55555713D01*
X140527721Y-55555711D01*
X140527719Y-55555710D01*
X140306954Y-55479920D01*
X140127650Y-55450000D01*
X140076712Y-55441500D01*
X139843288Y-55441500D01*
X139797240Y-55449184D01*
X139613045Y-55479920D01*
X139392280Y-55555710D01*
X139392266Y-55555716D01*
X139186988Y-55666806D01*
X139186985Y-55666808D01*
X139002781Y-55810181D01*
X139002776Y-55810185D01*
X138844686Y-55981915D01*
X138717015Y-56177331D01*
X138623251Y-56391092D01*
X138565948Y-56617377D01*
X138546673Y-56849994D01*
X104023385Y-56849994D01*
X104118309Y-56659361D01*
X104178332Y-56448399D01*
X104198570Y-56230000D01*
X104178332Y-56011601D01*
X104118309Y-55800639D01*
X104118308Y-55800636D01*
X104020546Y-55604304D01*
X104020541Y-55604296D01*
X103943477Y-55502247D01*
X103918785Y-55436885D01*
X103933350Y-55368551D01*
X103968121Y-55328253D01*
X104045931Y-55270005D01*
X104048261Y-55268261D01*
X104135889Y-55151204D01*
X104186989Y-55014201D01*
X104191741Y-54969998D01*
X104193499Y-54953654D01*
X104193500Y-54953637D01*
X104193500Y-54219998D01*
X134336502Y-54219998D01*
X134336502Y-54220001D01*
X134356456Y-54448081D01*
X134356457Y-54448089D01*
X134415714Y-54669238D01*
X134415718Y-54669249D01*
X134500315Y-54850667D01*
X134512477Y-54876749D01*
X134643802Y-55064300D01*
X134805700Y-55226198D01*
X134993251Y-55357523D01*
X135059753Y-55388533D01*
X135200750Y-55454281D01*
X135200752Y-55454281D01*
X135200757Y-55454284D01*
X135421913Y-55513543D01*
X135584832Y-55527796D01*
X135649998Y-55533498D01*
X135650000Y-55533498D01*
X135650002Y-55533498D01*
X135707021Y-55528509D01*
X135878087Y-55513543D01*
X136099243Y-55454284D01*
X136306749Y-55357523D01*
X136494300Y-55226198D01*
X136656198Y-55064300D01*
X136750238Y-54929998D01*
X145986502Y-54929998D01*
X145986502Y-54930001D01*
X146006456Y-55158081D01*
X146006457Y-55158089D01*
X146065714Y-55379238D01*
X146065718Y-55379249D01*
X146137646Y-55533498D01*
X146162477Y-55586749D01*
X146293802Y-55774300D01*
X146455700Y-55936198D01*
X146643251Y-56067523D01*
X146720495Y-56103542D01*
X146850750Y-56164281D01*
X146850752Y-56164281D01*
X146850757Y-56164284D01*
X147071913Y-56223543D01*
X147234832Y-56237796D01*
X147299998Y-56243498D01*
X147300000Y-56243498D01*
X147300002Y-56243498D01*
X147357021Y-56238509D01*
X147528087Y-56223543D01*
X147749243Y-56164284D01*
X147956749Y-56067523D01*
X148144300Y-55936198D01*
X148306198Y-55774300D01*
X148437523Y-55586749D01*
X148534284Y-55379243D01*
X148593543Y-55158087D01*
X148613498Y-54930000D01*
X148602999Y-54809998D01*
X149986502Y-54809998D01*
X149986502Y-54810001D01*
X150006456Y-55038081D01*
X150006457Y-55038089D01*
X150065714Y-55259238D01*
X150065718Y-55259249D01*
X150162473Y-55466741D01*
X150162477Y-55466749D01*
X150293802Y-55654300D01*
X150455700Y-55816198D01*
X150643251Y-55947523D01*
X150717010Y-55981917D01*
X150850750Y-56044281D01*
X150850752Y-56044281D01*
X150850757Y-56044284D01*
X151071913Y-56103543D01*
X151234832Y-56117796D01*
X151299998Y-56123498D01*
X151300000Y-56123498D01*
X151300002Y-56123498D01*
X151357021Y-56118509D01*
X151528087Y-56103543D01*
X151749243Y-56044284D01*
X151956749Y-55947523D01*
X152144300Y-55816198D01*
X152306198Y-55654300D01*
X152437523Y-55466749D01*
X152442348Y-55456403D01*
X152502104Y-55328253D01*
X152534284Y-55259243D01*
X152593543Y-55038087D01*
X152613402Y-54811093D01*
X152613498Y-54810001D01*
X152613498Y-54809998D01*
X152593543Y-54581918D01*
X152593543Y-54581913D01*
X152534284Y-54360757D01*
X152516284Y-54322155D01*
X155850000Y-54322155D01*
X155850000Y-55020000D01*
X156874722Y-55020000D01*
X156830667Y-55096306D01*
X156800000Y-55210756D01*
X156800000Y-55329244D01*
X156830667Y-55443694D01*
X156874722Y-55520000D01*
X155850000Y-55520000D01*
X155850000Y-56217844D01*
X155856401Y-56277372D01*
X155856403Y-56277379D01*
X155906645Y-56412086D01*
X155906649Y-56412093D01*
X155992809Y-56527187D01*
X155992812Y-56527190D01*
X156107906Y-56613350D01*
X156107913Y-56613354D01*
X156242620Y-56663596D01*
X156242627Y-56663598D01*
X156302155Y-56669999D01*
X156302172Y-56670000D01*
X157000000Y-56670000D01*
X157000000Y-55645277D01*
X157076306Y-55689333D01*
X157190756Y-55720000D01*
X157309244Y-55720000D01*
X157423694Y-55689333D01*
X157500000Y-55645277D01*
X157500000Y-56670000D01*
X158197828Y-56670000D01*
X158197844Y-56669999D01*
X158257372Y-56663598D01*
X158257379Y-56663596D01*
X158392086Y-56613354D01*
X158392093Y-56613350D01*
X158507187Y-56527190D01*
X158507190Y-56527187D01*
X158593350Y-56412093D01*
X158593355Y-56412084D01*
X158618940Y-56343486D01*
X158660810Y-56287552D01*
X158726274Y-56263134D01*
X158794547Y-56277985D01*
X158826349Y-56302832D01*
X158832780Y-56309818D01*
X159016983Y-56453190D01*
X159016985Y-56453191D01*
X159016988Y-56453193D01*
X159084836Y-56489910D01*
X159222273Y-56564287D01*
X159326301Y-56600000D01*
X159443045Y-56640079D01*
X159443047Y-56640079D01*
X159443049Y-56640080D01*
X159673288Y-56678500D01*
X159673289Y-56678500D01*
X159906711Y-56678500D01*
X159906712Y-56678500D01*
X160136951Y-56640080D01*
X160357727Y-56564287D01*
X160563017Y-56453190D01*
X160747220Y-56309818D01*
X160905314Y-56138083D01*
X161032984Y-55942669D01*
X161126749Y-55728907D01*
X161184051Y-55502626D01*
X161203327Y-55270000D01*
X161202436Y-55259249D01*
X161184110Y-55038087D01*
X161184051Y-55037374D01*
X161166989Y-54969998D01*
X162886502Y-54969998D01*
X162886502Y-54970001D01*
X162906456Y-55198081D01*
X162906457Y-55198089D01*
X162965714Y-55419238D01*
X162965718Y-55419249D01*
X163046652Y-55592812D01*
X163062477Y-55626749D01*
X163193802Y-55814300D01*
X163355700Y-55976198D01*
X163543251Y-56107523D01*
X163577510Y-56123498D01*
X163750750Y-56204281D01*
X163750752Y-56204281D01*
X163750757Y-56204284D01*
X163971913Y-56263543D01*
X164134832Y-56277796D01*
X164199998Y-56283498D01*
X164200000Y-56283498D01*
X164200002Y-56283498D01*
X164263014Y-56277985D01*
X164428087Y-56263543D01*
X164649243Y-56204284D01*
X164856749Y-56107523D01*
X165044300Y-55976198D01*
X165206198Y-55814300D01*
X165337523Y-55626749D01*
X165434284Y-55419243D01*
X165493543Y-55198087D01*
X165513498Y-54970000D01*
X165512066Y-54953637D01*
X165503058Y-54850667D01*
X165493543Y-54741913D01*
X165434284Y-54520757D01*
X165337523Y-54313251D01*
X165206198Y-54125700D01*
X165044300Y-53963802D01*
X164856749Y-53832477D01*
X164856745Y-53832475D01*
X164649249Y-53735718D01*
X164649238Y-53735714D01*
X164428089Y-53676457D01*
X164428081Y-53676456D01*
X164200002Y-53656502D01*
X164199998Y-53656502D01*
X163971918Y-53676456D01*
X163971910Y-53676457D01*
X163750761Y-53735714D01*
X163750750Y-53735718D01*
X163543254Y-53832475D01*
X163543252Y-53832476D01*
X163543251Y-53832477D01*
X163355700Y-53963802D01*
X163355698Y-53963803D01*
X163355695Y-53963806D01*
X163193806Y-54125695D01*
X163193803Y-54125698D01*
X163193802Y-54125700D01*
X163144218Y-54196513D01*
X163062476Y-54313252D01*
X163062475Y-54313254D01*
X162965718Y-54520750D01*
X162965714Y-54520761D01*
X162906457Y-54741910D01*
X162906456Y-54741918D01*
X162886502Y-54969998D01*
X161166989Y-54969998D01*
X161126749Y-54811093D01*
X161032984Y-54597331D01*
X161022909Y-54581910D01*
X160905313Y-54401915D01*
X160747223Y-54230185D01*
X160747222Y-54230184D01*
X160747220Y-54230182D01*
X160563017Y-54086810D01*
X160563015Y-54086809D01*
X160563014Y-54086808D01*
X160563011Y-54086806D01*
X160357733Y-53975716D01*
X160357730Y-53975715D01*
X160357727Y-53975713D01*
X160357721Y-53975711D01*
X160357719Y-53975710D01*
X160136954Y-53899920D01*
X159957650Y-53870000D01*
X159906712Y-53861500D01*
X159673288Y-53861500D01*
X159627240Y-53869184D01*
X159443045Y-53899920D01*
X159222280Y-53975710D01*
X159222266Y-53975716D01*
X159016988Y-54086806D01*
X159016985Y-54086808D01*
X158832781Y-54230181D01*
X158832776Y-54230185D01*
X158826346Y-54237170D01*
X158766457Y-54273157D01*
X158696619Y-54271052D01*
X158639005Y-54231524D01*
X158618940Y-54196513D01*
X158593355Y-54127915D01*
X158593350Y-54127906D01*
X158507190Y-54012812D01*
X158507187Y-54012809D01*
X158392093Y-53926649D01*
X158392086Y-53926645D01*
X158257379Y-53876403D01*
X158257372Y-53876401D01*
X158197844Y-53870000D01*
X157500000Y-53870000D01*
X157500000Y-54894722D01*
X157423694Y-54850667D01*
X157309244Y-54820000D01*
X157190756Y-54820000D01*
X157076306Y-54850667D01*
X157000000Y-54894722D01*
X157000000Y-53870000D01*
X156302155Y-53870000D01*
X156242627Y-53876401D01*
X156242620Y-53876403D01*
X156107913Y-53926645D01*
X156107906Y-53926649D01*
X155992812Y-54012809D01*
X155992809Y-54012812D01*
X155906649Y-54127906D01*
X155906645Y-54127913D01*
X155856403Y-54262620D01*
X155856401Y-54262627D01*
X155850000Y-54322155D01*
X152516284Y-54322155D01*
X152437523Y-54153251D01*
X152306198Y-53965700D01*
X152144300Y-53803802D01*
X151956749Y-53672477D01*
X151956745Y-53672475D01*
X151749249Y-53575718D01*
X151749238Y-53575714D01*
X151528089Y-53516457D01*
X151528081Y-53516456D01*
X151300002Y-53496502D01*
X151299998Y-53496502D01*
X151071918Y-53516456D01*
X151071910Y-53516457D01*
X150850761Y-53575714D01*
X150850750Y-53575718D01*
X150643254Y-53672475D01*
X150643252Y-53672476D01*
X150572856Y-53721767D01*
X150455700Y-53803802D01*
X150455698Y-53803803D01*
X150455695Y-53803806D01*
X150293806Y-53965695D01*
X150293803Y-53965698D01*
X150293802Y-53965700D01*
X150275444Y-53991918D01*
X150162476Y-54153252D01*
X150162475Y-54153254D01*
X150065718Y-54360750D01*
X150065714Y-54360761D01*
X150006457Y-54581910D01*
X150006456Y-54581918D01*
X149986502Y-54809998D01*
X148602999Y-54809998D01*
X148593543Y-54701913D01*
X148534284Y-54480757D01*
X148437523Y-54273251D01*
X148306198Y-54085700D01*
X148144300Y-53923802D01*
X147956749Y-53792477D01*
X147910179Y-53770761D01*
X147749249Y-53695718D01*
X147749238Y-53695714D01*
X147528089Y-53636457D01*
X147528081Y-53636456D01*
X147300002Y-53616502D01*
X147299998Y-53616502D01*
X147071918Y-53636456D01*
X147071910Y-53636457D01*
X146850761Y-53695714D01*
X146850750Y-53695718D01*
X146643254Y-53792475D01*
X146643252Y-53792476D01*
X146586128Y-53832475D01*
X146455700Y-53923802D01*
X146455698Y-53923803D01*
X146455695Y-53923806D01*
X146293806Y-54085695D01*
X146293803Y-54085698D01*
X146293802Y-54085700D01*
X146246500Y-54153254D01*
X146162476Y-54273252D01*
X146162475Y-54273254D01*
X146065718Y-54480750D01*
X146065714Y-54480761D01*
X146006457Y-54701910D01*
X146006456Y-54701918D01*
X145986502Y-54929998D01*
X136750238Y-54929998D01*
X136787523Y-54876749D01*
X136884284Y-54669243D01*
X136943543Y-54448087D01*
X136963498Y-54220000D01*
X136943543Y-53991913D01*
X136884284Y-53770757D01*
X136787523Y-53563251D01*
X136656198Y-53375700D01*
X136494300Y-53213802D01*
X136306749Y-53082477D01*
X136229596Y-53046500D01*
X136099249Y-52985718D01*
X136099238Y-52985714D01*
X135878089Y-52926457D01*
X135878081Y-52926456D01*
X135650002Y-52906502D01*
X135649998Y-52906502D01*
X135421918Y-52926456D01*
X135421910Y-52926457D01*
X135200761Y-52985714D01*
X135200750Y-52985718D01*
X134993254Y-53082475D01*
X134993252Y-53082476D01*
X134922856Y-53131767D01*
X134805700Y-53213802D01*
X134805698Y-53213803D01*
X134805695Y-53213806D01*
X134643806Y-53375695D01*
X134643803Y-53375698D01*
X134643802Y-53375700D01*
X134594718Y-53445799D01*
X134512476Y-53563252D01*
X134512475Y-53563254D01*
X134415718Y-53770750D01*
X134415714Y-53770761D01*
X134356457Y-53991910D01*
X134356456Y-53991918D01*
X134336502Y-54219998D01*
X104193500Y-54219998D01*
X104193500Y-53506362D01*
X104193499Y-53506345D01*
X104190157Y-53475270D01*
X104186989Y-53445799D01*
X104135889Y-53308796D01*
X104048261Y-53191739D01*
X103931204Y-53104111D01*
X103873202Y-53082477D01*
X103794203Y-53053011D01*
X103733654Y-53046500D01*
X103733638Y-53046500D01*
X102286362Y-53046500D01*
X102286345Y-53046500D01*
X102225797Y-53053011D01*
X102225795Y-53053011D01*
X102088795Y-53104111D01*
X101971739Y-53191739D01*
X101884111Y-53308795D01*
X101833011Y-53445795D01*
X101833011Y-53445797D01*
X101826500Y-53506345D01*
X101826500Y-54953654D01*
X101833011Y-55014202D01*
X101833011Y-55014204D01*
X101884111Y-55151204D01*
X101964984Y-55259238D01*
X101971740Y-55268262D01*
X102051879Y-55328253D01*
X102093751Y-55384186D01*
X102098735Y-55453878D01*
X102076523Y-55502247D01*
X101999458Y-55604296D01*
X101999453Y-55604304D01*
X101901691Y-55800636D01*
X101841667Y-56011603D01*
X101821430Y-56229999D01*
X100075500Y-56229999D01*
X100075500Y-48061345D01*
X115781500Y-48061345D01*
X115781500Y-49858654D01*
X115788011Y-49919202D01*
X115788011Y-49919204D01*
X115839111Y-50056204D01*
X115926739Y-50173261D01*
X116043796Y-50260889D01*
X116180799Y-50311989D01*
X116208050Y-50314918D01*
X116241345Y-50318499D01*
X116241362Y-50318500D01*
X118038638Y-50318500D01*
X118038654Y-50318499D01*
X118065692Y-50315591D01*
X118099201Y-50311989D01*
X118236204Y-50260889D01*
X118353261Y-50173261D01*
X118440889Y-50056204D01*
X118486138Y-49934887D01*
X118528009Y-49878956D01*
X118593474Y-49854539D01*
X118661746Y-49869391D01*
X118693545Y-49894236D01*
X118756760Y-49962906D01*
X118934424Y-50101189D01*
X118934425Y-50101189D01*
X118934427Y-50101191D01*
X118994314Y-50133600D01*
X119132426Y-50208342D01*
X119345365Y-50281444D01*
X119567431Y-50318500D01*
X119792569Y-50318500D01*
X120014635Y-50281444D01*
X120227574Y-50208342D01*
X120425576Y-50101189D01*
X120603240Y-49962906D01*
X120703000Y-49854539D01*
X120755715Y-49797276D01*
X120755715Y-49797275D01*
X120755722Y-49797268D01*
X120846193Y-49658790D01*
X120899338Y-49613437D01*
X120968569Y-49604013D01*
X121031905Y-49633515D01*
X121053804Y-49658787D01*
X121144278Y-49797268D01*
X121144283Y-49797273D01*
X121144284Y-49797276D01*
X121270968Y-49934889D01*
X121296760Y-49962906D01*
X121474424Y-50101189D01*
X121474425Y-50101189D01*
X121474427Y-50101191D01*
X121534314Y-50133600D01*
X121672426Y-50208342D01*
X121885365Y-50281444D01*
X122107431Y-50318500D01*
X122332569Y-50318500D01*
X122554635Y-50281444D01*
X122767574Y-50208342D01*
X122965576Y-50101189D01*
X123143240Y-49962906D01*
X123243000Y-49854539D01*
X123295715Y-49797276D01*
X123295715Y-49797275D01*
X123295722Y-49797268D01*
X123389749Y-49653347D01*
X123442894Y-49607994D01*
X123512125Y-49598570D01*
X123575461Y-49628072D01*
X123595130Y-49650048D01*
X123721890Y-49831078D01*
X123888917Y-49998105D01*
X124082421Y-50133600D01*
X124296507Y-50233429D01*
X124296516Y-50233433D01*
X124510000Y-50290634D01*
X124510000Y-49393012D01*
X124567007Y-49425925D01*
X124694174Y-49460000D01*
X124825826Y-49460000D01*
X124952993Y-49425925D01*
X125010000Y-49393012D01*
X125010000Y-50290633D01*
X125223483Y-50233433D01*
X125223492Y-50233429D01*
X125437578Y-50133600D01*
X125631082Y-49998105D01*
X125798105Y-49831082D01*
X125924868Y-49650048D01*
X125979445Y-49606423D01*
X126048944Y-49599231D01*
X126111298Y-49630753D01*
X126130251Y-49653350D01*
X126224276Y-49797265D01*
X126224284Y-49797276D01*
X126350968Y-49934889D01*
X126376760Y-49962906D01*
X126554424Y-50101189D01*
X126554425Y-50101189D01*
X126554427Y-50101191D01*
X126614314Y-50133600D01*
X126752426Y-50208342D01*
X126965365Y-50281444D01*
X127187431Y-50318500D01*
X127412569Y-50318500D01*
X127634635Y-50281444D01*
X127847574Y-50208342D01*
X128045576Y-50101189D01*
X128223240Y-49962906D01*
X128323000Y-49854539D01*
X128375715Y-49797276D01*
X128375715Y-49797275D01*
X128375722Y-49797268D01*
X128466193Y-49658790D01*
X128519338Y-49613437D01*
X128588569Y-49604013D01*
X128651905Y-49633515D01*
X128673804Y-49658787D01*
X128764278Y-49797268D01*
X128764283Y-49797273D01*
X128764284Y-49797276D01*
X128890968Y-49934889D01*
X128916760Y-49962906D01*
X129094424Y-50101189D01*
X129094425Y-50101189D01*
X129094427Y-50101191D01*
X129154314Y-50133600D01*
X129292426Y-50208342D01*
X129505365Y-50281444D01*
X129727431Y-50318500D01*
X129952569Y-50318500D01*
X130174635Y-50281444D01*
X130387574Y-50208342D01*
X130585576Y-50101189D01*
X130763240Y-49962906D01*
X130863000Y-49854539D01*
X130915715Y-49797276D01*
X130915715Y-49797275D01*
X130915722Y-49797268D01*
X131006193Y-49658790D01*
X131059338Y-49613437D01*
X131128569Y-49604013D01*
X131191905Y-49633515D01*
X131213804Y-49658787D01*
X131304278Y-49797268D01*
X131304283Y-49797273D01*
X131304284Y-49797276D01*
X131430968Y-49934889D01*
X131456760Y-49962906D01*
X131634424Y-50101189D01*
X131634425Y-50101189D01*
X131634427Y-50101191D01*
X131694314Y-50133600D01*
X131832426Y-50208342D01*
X132045365Y-50281444D01*
X132267431Y-50318500D01*
X132492569Y-50318500D01*
X132714635Y-50281444D01*
X132927574Y-50208342D01*
X133125576Y-50101189D01*
X133303240Y-49962906D01*
X133403000Y-49854539D01*
X133455715Y-49797276D01*
X133455715Y-49797275D01*
X133455722Y-49797268D01*
X133546193Y-49658790D01*
X133599338Y-49613437D01*
X133668569Y-49604013D01*
X133731905Y-49633515D01*
X133753804Y-49658787D01*
X133844278Y-49797268D01*
X133844283Y-49797273D01*
X133844284Y-49797276D01*
X133970968Y-49934889D01*
X133996760Y-49962906D01*
X134174424Y-50101189D01*
X134174425Y-50101189D01*
X134174427Y-50101191D01*
X134234314Y-50133600D01*
X134372426Y-50208342D01*
X134585365Y-50281444D01*
X134807431Y-50318500D01*
X135032569Y-50318500D01*
X135254635Y-50281444D01*
X135467574Y-50208342D01*
X135665576Y-50101189D01*
X135843240Y-49962906D01*
X135943000Y-49854539D01*
X135995715Y-49797276D01*
X135995715Y-49797275D01*
X135995722Y-49797268D01*
X136086193Y-49658790D01*
X136139338Y-49613437D01*
X136208569Y-49604013D01*
X136271905Y-49633515D01*
X136293804Y-49658787D01*
X136384278Y-49797268D01*
X136384283Y-49797273D01*
X136384284Y-49797276D01*
X136510968Y-49934889D01*
X136536760Y-49962906D01*
X136714424Y-50101189D01*
X136714425Y-50101189D01*
X136714427Y-50101191D01*
X136774314Y-50133600D01*
X136912426Y-50208342D01*
X137125365Y-50281444D01*
X137347431Y-50318500D01*
X137572569Y-50318500D01*
X137794635Y-50281444D01*
X138007574Y-50208342D01*
X138205576Y-50101189D01*
X138383240Y-49962906D01*
X138483000Y-49854539D01*
X138535715Y-49797276D01*
X138535715Y-49797275D01*
X138535722Y-49797268D01*
X138626193Y-49658790D01*
X138679338Y-49613437D01*
X138748569Y-49604013D01*
X138811905Y-49633515D01*
X138833804Y-49658787D01*
X138924278Y-49797268D01*
X138924283Y-49797273D01*
X138924284Y-49797276D01*
X139050968Y-49934889D01*
X139076760Y-49962906D01*
X139254424Y-50101189D01*
X139254425Y-50101189D01*
X139254427Y-50101191D01*
X139314314Y-50133600D01*
X139452426Y-50208342D01*
X139665365Y-50281444D01*
X139887431Y-50318500D01*
X140112569Y-50318500D01*
X140334635Y-50281444D01*
X140547574Y-50208342D01*
X140745576Y-50101189D01*
X140923240Y-49962906D01*
X141023000Y-49854539D01*
X141075715Y-49797276D01*
X141075717Y-49797273D01*
X141075722Y-49797268D01*
X141198860Y-49608791D01*
X141289296Y-49402616D01*
X141344564Y-49184368D01*
X141357139Y-49032614D01*
X141363156Y-48960005D01*
X141363156Y-48959994D01*
X141344565Y-48735640D01*
X141344563Y-48735628D01*
X141289296Y-48517385D01*
X141279071Y-48494075D01*
X141198860Y-48311209D01*
X141182706Y-48286484D01*
X141137291Y-48216970D01*
X141075722Y-48122732D01*
X141075719Y-48122729D01*
X141075715Y-48122723D01*
X140923243Y-47957097D01*
X140923238Y-47957092D01*
X140745577Y-47818812D01*
X140745572Y-47818808D01*
X140547580Y-47711661D01*
X140547577Y-47711659D01*
X140547574Y-47711658D01*
X140547571Y-47711657D01*
X140547569Y-47711656D01*
X140488405Y-47691345D01*
X142711500Y-47691345D01*
X142711500Y-49488654D01*
X142718011Y-49549202D01*
X142718011Y-49549204D01*
X142755625Y-49650048D01*
X142769111Y-49686204D01*
X142856739Y-49803261D01*
X142973796Y-49890889D01*
X143110799Y-49941989D01*
X143138050Y-49944918D01*
X143171345Y-49948499D01*
X143171362Y-49948500D01*
X144968638Y-49948500D01*
X144968654Y-49948499D01*
X144995692Y-49945591D01*
X145029201Y-49941989D01*
X145166204Y-49890889D01*
X145283261Y-49803261D01*
X145370889Y-49686204D01*
X145416138Y-49564887D01*
X145458009Y-49508956D01*
X145523474Y-49484539D01*
X145591746Y-49499391D01*
X145623545Y-49524236D01*
X145686760Y-49592906D01*
X145864424Y-49731189D01*
X145864425Y-49731189D01*
X145864427Y-49731191D01*
X145986522Y-49797265D01*
X146062426Y-49838342D01*
X146275365Y-49911444D01*
X146497431Y-49948500D01*
X146722569Y-49948500D01*
X146944635Y-49911444D01*
X147157574Y-49838342D01*
X147355576Y-49731189D01*
X147533240Y-49592906D01*
X147685722Y-49427268D01*
X147776193Y-49288790D01*
X147829338Y-49243437D01*
X147898569Y-49234013D01*
X147961905Y-49263515D01*
X147983804Y-49288787D01*
X148074278Y-49427268D01*
X148074283Y-49427273D01*
X148074284Y-49427276D01*
X148200968Y-49564889D01*
X148226760Y-49592906D01*
X148404424Y-49731189D01*
X148404425Y-49731189D01*
X148404427Y-49731191D01*
X148526522Y-49797265D01*
X148602426Y-49838342D01*
X148815365Y-49911444D01*
X149037431Y-49948500D01*
X149262569Y-49948500D01*
X149484635Y-49911444D01*
X149697574Y-49838342D01*
X149895576Y-49731189D01*
X150073240Y-49592906D01*
X150225722Y-49427268D01*
X150316193Y-49288790D01*
X150369338Y-49243437D01*
X150438569Y-49234013D01*
X150501905Y-49263515D01*
X150523804Y-49288787D01*
X150614278Y-49427268D01*
X150614283Y-49427273D01*
X150614284Y-49427276D01*
X150740968Y-49564889D01*
X150766760Y-49592906D01*
X150944424Y-49731189D01*
X150944425Y-49731189D01*
X150944427Y-49731191D01*
X151066522Y-49797265D01*
X151142426Y-49838342D01*
X151355365Y-49911444D01*
X151577431Y-49948500D01*
X151802569Y-49948500D01*
X152024635Y-49911444D01*
X152237574Y-49838342D01*
X152435576Y-49731189D01*
X152613240Y-49592906D01*
X152765722Y-49427268D01*
X152856193Y-49288790D01*
X152909338Y-49243437D01*
X152978569Y-49234013D01*
X153041905Y-49263515D01*
X153063804Y-49288787D01*
X153154278Y-49427268D01*
X153154283Y-49427273D01*
X153154284Y-49427276D01*
X153280968Y-49564889D01*
X153306760Y-49592906D01*
X153484424Y-49731189D01*
X153484425Y-49731189D01*
X153484427Y-49731191D01*
X153606522Y-49797265D01*
X153682426Y-49838342D01*
X153895365Y-49911444D01*
X154117431Y-49948500D01*
X154342569Y-49948500D01*
X154564635Y-49911444D01*
X154777574Y-49838342D01*
X154975576Y-49731189D01*
X155153240Y-49592906D01*
X155305722Y-49427268D01*
X155396193Y-49288790D01*
X155449338Y-49243437D01*
X155518569Y-49234013D01*
X155581905Y-49263515D01*
X155603804Y-49288787D01*
X155694278Y-49427268D01*
X155694283Y-49427273D01*
X155694284Y-49427276D01*
X155820968Y-49564889D01*
X155846760Y-49592906D01*
X156024424Y-49731189D01*
X156024425Y-49731189D01*
X156024427Y-49731191D01*
X156146522Y-49797265D01*
X156222426Y-49838342D01*
X156435365Y-49911444D01*
X156657431Y-49948500D01*
X156882569Y-49948500D01*
X157104635Y-49911444D01*
X157317574Y-49838342D01*
X157515576Y-49731189D01*
X157693240Y-49592906D01*
X157845722Y-49427268D01*
X157936193Y-49288790D01*
X157989338Y-49243437D01*
X158058569Y-49234013D01*
X158121905Y-49263515D01*
X158143804Y-49288787D01*
X158234278Y-49427268D01*
X158234283Y-49427273D01*
X158234284Y-49427276D01*
X158360968Y-49564889D01*
X158386760Y-49592906D01*
X158564424Y-49731189D01*
X158564425Y-49731189D01*
X158564427Y-49731191D01*
X158686522Y-49797265D01*
X158762426Y-49838342D01*
X158975365Y-49911444D01*
X159197431Y-49948500D01*
X159422569Y-49948500D01*
X159644635Y-49911444D01*
X159857574Y-49838342D01*
X160055576Y-49731189D01*
X160233240Y-49592906D01*
X160385722Y-49427268D01*
X160476193Y-49288790D01*
X160529338Y-49243437D01*
X160598569Y-49234013D01*
X160661905Y-49263515D01*
X160683804Y-49288787D01*
X160774278Y-49427268D01*
X160774283Y-49427273D01*
X160774284Y-49427276D01*
X160900968Y-49564889D01*
X160926760Y-49592906D01*
X161104424Y-49731189D01*
X161104425Y-49731189D01*
X161104427Y-49731191D01*
X161226522Y-49797265D01*
X161302426Y-49838342D01*
X161515365Y-49911444D01*
X161737431Y-49948500D01*
X161962569Y-49948500D01*
X162184635Y-49911444D01*
X162397574Y-49838342D01*
X162595576Y-49731189D01*
X162773240Y-49592906D01*
X162925722Y-49427268D01*
X163048860Y-49238791D01*
X163139296Y-49032616D01*
X163194564Y-48814368D01*
X163201088Y-48735640D01*
X163213156Y-48590005D01*
X163213156Y-48589994D01*
X163194565Y-48365640D01*
X163194563Y-48365628D01*
X163191876Y-48355018D01*
X163139296Y-48147384D01*
X163048860Y-47941209D01*
X163032706Y-47916484D01*
X162968894Y-47818812D01*
X162925722Y-47752732D01*
X162925719Y-47752729D01*
X162925715Y-47752723D01*
X162773243Y-47587097D01*
X162773238Y-47587092D01*
X162595577Y-47448812D01*
X162595572Y-47448808D01*
X162397580Y-47341661D01*
X162397577Y-47341659D01*
X162397574Y-47341658D01*
X162397571Y-47341657D01*
X162397569Y-47341656D01*
X162184637Y-47268556D01*
X161962569Y-47231500D01*
X161737431Y-47231500D01*
X161515362Y-47268556D01*
X161302430Y-47341656D01*
X161302419Y-47341661D01*
X161104427Y-47448808D01*
X161104422Y-47448812D01*
X160926761Y-47587092D01*
X160926756Y-47587097D01*
X160774284Y-47752723D01*
X160774276Y-47752734D01*
X160683808Y-47891206D01*
X160630662Y-47936562D01*
X160561431Y-47945986D01*
X160498095Y-47916484D01*
X160476192Y-47891206D01*
X160385723Y-47752734D01*
X160385715Y-47752723D01*
X160233243Y-47587097D01*
X160233238Y-47587092D01*
X160055577Y-47448812D01*
X160055572Y-47448808D01*
X159857580Y-47341661D01*
X159857577Y-47341659D01*
X159857574Y-47341658D01*
X159857571Y-47341657D01*
X159857569Y-47341656D01*
X159644637Y-47268556D01*
X159422569Y-47231500D01*
X159197431Y-47231500D01*
X158975362Y-47268556D01*
X158762430Y-47341656D01*
X158762419Y-47341661D01*
X158564427Y-47448808D01*
X158564422Y-47448812D01*
X158386761Y-47587092D01*
X158386756Y-47587097D01*
X158234284Y-47752723D01*
X158234276Y-47752734D01*
X158143808Y-47891206D01*
X158090662Y-47936562D01*
X158021431Y-47945986D01*
X157958095Y-47916484D01*
X157936192Y-47891206D01*
X157845723Y-47752734D01*
X157845715Y-47752723D01*
X157693243Y-47587097D01*
X157693238Y-47587092D01*
X157515577Y-47448812D01*
X157515572Y-47448808D01*
X157317580Y-47341661D01*
X157317577Y-47341659D01*
X157317574Y-47341658D01*
X157317571Y-47341657D01*
X157317569Y-47341656D01*
X157104637Y-47268556D01*
X156882569Y-47231500D01*
X156657431Y-47231500D01*
X156435362Y-47268556D01*
X156222430Y-47341656D01*
X156222419Y-47341661D01*
X156024427Y-47448808D01*
X156024422Y-47448812D01*
X155846761Y-47587092D01*
X155846756Y-47587097D01*
X155694284Y-47752723D01*
X155694276Y-47752734D01*
X155603808Y-47891206D01*
X155550662Y-47936562D01*
X155481431Y-47945986D01*
X155418095Y-47916484D01*
X155396192Y-47891206D01*
X155305723Y-47752734D01*
X155305715Y-47752723D01*
X155153243Y-47587097D01*
X155153238Y-47587092D01*
X154975577Y-47448812D01*
X154975572Y-47448808D01*
X154777580Y-47341661D01*
X154777577Y-47341659D01*
X154777574Y-47341658D01*
X154777571Y-47341657D01*
X154777569Y-47341656D01*
X154564637Y-47268556D01*
X154342569Y-47231500D01*
X154117431Y-47231500D01*
X153895362Y-47268556D01*
X153682430Y-47341656D01*
X153682419Y-47341661D01*
X153484427Y-47448808D01*
X153484422Y-47448812D01*
X153306761Y-47587092D01*
X153306756Y-47587097D01*
X153154284Y-47752723D01*
X153154276Y-47752734D01*
X153063808Y-47891206D01*
X153010662Y-47936562D01*
X152941431Y-47945986D01*
X152878095Y-47916484D01*
X152856192Y-47891206D01*
X152765723Y-47752734D01*
X152765715Y-47752723D01*
X152613243Y-47587097D01*
X152613238Y-47587092D01*
X152435577Y-47448812D01*
X152435572Y-47448808D01*
X152237580Y-47341661D01*
X152237577Y-47341659D01*
X152237574Y-47341658D01*
X152237571Y-47341657D01*
X152237569Y-47341656D01*
X152024637Y-47268556D01*
X151802569Y-47231500D01*
X151577431Y-47231500D01*
X151355362Y-47268556D01*
X151142430Y-47341656D01*
X151142419Y-47341661D01*
X150944427Y-47448808D01*
X150944422Y-47448812D01*
X150766761Y-47587092D01*
X150766756Y-47587097D01*
X150614284Y-47752723D01*
X150614276Y-47752734D01*
X150523808Y-47891206D01*
X150470662Y-47936562D01*
X150401431Y-47945986D01*
X150338095Y-47916484D01*
X150316192Y-47891206D01*
X150225723Y-47752734D01*
X150225715Y-47752723D01*
X150073243Y-47587097D01*
X150073238Y-47587092D01*
X149895577Y-47448812D01*
X149895572Y-47448808D01*
X149697580Y-47341661D01*
X149697577Y-47341659D01*
X149697574Y-47341658D01*
X149697571Y-47341657D01*
X149697569Y-47341656D01*
X149484637Y-47268556D01*
X149262569Y-47231500D01*
X149037431Y-47231500D01*
X148815362Y-47268556D01*
X148602430Y-47341656D01*
X148602419Y-47341661D01*
X148404427Y-47448808D01*
X148404422Y-47448812D01*
X148226761Y-47587092D01*
X148226756Y-47587097D01*
X148074284Y-47752723D01*
X148074276Y-47752734D01*
X147983808Y-47891206D01*
X147930662Y-47936562D01*
X147861431Y-47945986D01*
X147798095Y-47916484D01*
X147776192Y-47891206D01*
X147685723Y-47752734D01*
X147685715Y-47752723D01*
X147533243Y-47587097D01*
X147533238Y-47587092D01*
X147355577Y-47448812D01*
X147355572Y-47448808D01*
X147157580Y-47341661D01*
X147157577Y-47341659D01*
X147157574Y-47341658D01*
X147157571Y-47341657D01*
X147157569Y-47341656D01*
X146944637Y-47268556D01*
X146722569Y-47231500D01*
X146497431Y-47231500D01*
X146275362Y-47268556D01*
X146062430Y-47341656D01*
X146062419Y-47341661D01*
X145864427Y-47448808D01*
X145864422Y-47448812D01*
X145686761Y-47587092D01*
X145623548Y-47655760D01*
X145563661Y-47691750D01*
X145493823Y-47689649D01*
X145436207Y-47650124D01*
X145416138Y-47615110D01*
X145370889Y-47493796D01*
X145337214Y-47448812D01*
X145283261Y-47376739D01*
X145166204Y-47289111D01*
X145132074Y-47276381D01*
X145029203Y-47238011D01*
X144968654Y-47231500D01*
X144968638Y-47231500D01*
X143171362Y-47231500D01*
X143171345Y-47231500D01*
X143110797Y-47238011D01*
X143110795Y-47238011D01*
X142973795Y-47289111D01*
X142856739Y-47376739D01*
X142769111Y-47493795D01*
X142718011Y-47630795D01*
X142718011Y-47630797D01*
X142711500Y-47691345D01*
X140488405Y-47691345D01*
X140334637Y-47638556D01*
X140112569Y-47601500D01*
X139887431Y-47601500D01*
X139665362Y-47638556D01*
X139452430Y-47711656D01*
X139452419Y-47711661D01*
X139254427Y-47818808D01*
X139254422Y-47818812D01*
X139076761Y-47957092D01*
X139076756Y-47957097D01*
X138924284Y-48122723D01*
X138924276Y-48122734D01*
X138833808Y-48261206D01*
X138780662Y-48306562D01*
X138711431Y-48315986D01*
X138648095Y-48286484D01*
X138626192Y-48261206D01*
X138568286Y-48172576D01*
X138535722Y-48122732D01*
X138535719Y-48122729D01*
X138535715Y-48122723D01*
X138383243Y-47957097D01*
X138383238Y-47957092D01*
X138205577Y-47818812D01*
X138205572Y-47818808D01*
X138007580Y-47711661D01*
X138007577Y-47711659D01*
X138007574Y-47711658D01*
X138007571Y-47711657D01*
X138007569Y-47711656D01*
X137794637Y-47638556D01*
X137572569Y-47601500D01*
X137347431Y-47601500D01*
X137125362Y-47638556D01*
X136912430Y-47711656D01*
X136912419Y-47711661D01*
X136714427Y-47818808D01*
X136714422Y-47818812D01*
X136536761Y-47957092D01*
X136536756Y-47957097D01*
X136384284Y-48122723D01*
X136384276Y-48122734D01*
X136293808Y-48261206D01*
X136240662Y-48306562D01*
X136171431Y-48315986D01*
X136108095Y-48286484D01*
X136086192Y-48261206D01*
X136028286Y-48172576D01*
X135995722Y-48122732D01*
X135995719Y-48122729D01*
X135995715Y-48122723D01*
X135843243Y-47957097D01*
X135843238Y-47957092D01*
X135665577Y-47818812D01*
X135665572Y-47818808D01*
X135467580Y-47711661D01*
X135467577Y-47711659D01*
X135467574Y-47711658D01*
X135467571Y-47711657D01*
X135467569Y-47711656D01*
X135254637Y-47638556D01*
X135032569Y-47601500D01*
X134807431Y-47601500D01*
X134585362Y-47638556D01*
X134372430Y-47711656D01*
X134372419Y-47711661D01*
X134174427Y-47818808D01*
X134174422Y-47818812D01*
X133996761Y-47957092D01*
X133996756Y-47957097D01*
X133844284Y-48122723D01*
X133844276Y-48122734D01*
X133753808Y-48261206D01*
X133700662Y-48306562D01*
X133631431Y-48315986D01*
X133568095Y-48286484D01*
X133546192Y-48261206D01*
X133488286Y-48172576D01*
X133455722Y-48122732D01*
X133455719Y-48122729D01*
X133455715Y-48122723D01*
X133303243Y-47957097D01*
X133303238Y-47957092D01*
X133125577Y-47818812D01*
X133125572Y-47818808D01*
X132927580Y-47711661D01*
X132927577Y-47711659D01*
X132927574Y-47711658D01*
X132927571Y-47711657D01*
X132927569Y-47711656D01*
X132714637Y-47638556D01*
X132492569Y-47601500D01*
X132267431Y-47601500D01*
X132045362Y-47638556D01*
X131832430Y-47711656D01*
X131832419Y-47711661D01*
X131634427Y-47818808D01*
X131634422Y-47818812D01*
X131456761Y-47957092D01*
X131456756Y-47957097D01*
X131304284Y-48122723D01*
X131304276Y-48122734D01*
X131213808Y-48261206D01*
X131160662Y-48306562D01*
X131091431Y-48315986D01*
X131028095Y-48286484D01*
X131006192Y-48261206D01*
X130948286Y-48172576D01*
X130915722Y-48122732D01*
X130915719Y-48122729D01*
X130915715Y-48122723D01*
X130763243Y-47957097D01*
X130763238Y-47957092D01*
X130585577Y-47818812D01*
X130585572Y-47818808D01*
X130387580Y-47711661D01*
X130387577Y-47711659D01*
X130387574Y-47711658D01*
X130387571Y-47711657D01*
X130387569Y-47711656D01*
X130174637Y-47638556D01*
X129952569Y-47601500D01*
X129727431Y-47601500D01*
X129505362Y-47638556D01*
X129292430Y-47711656D01*
X129292419Y-47711661D01*
X129094427Y-47818808D01*
X129094422Y-47818812D01*
X128916761Y-47957092D01*
X128916756Y-47957097D01*
X128764284Y-48122723D01*
X128764276Y-48122734D01*
X128673808Y-48261206D01*
X128620662Y-48306562D01*
X128551431Y-48315986D01*
X128488095Y-48286484D01*
X128466192Y-48261206D01*
X128408286Y-48172576D01*
X128375722Y-48122732D01*
X128375719Y-48122729D01*
X128375715Y-48122723D01*
X128223243Y-47957097D01*
X128223238Y-47957092D01*
X128045577Y-47818812D01*
X128045572Y-47818808D01*
X127847580Y-47711661D01*
X127847577Y-47711659D01*
X127847574Y-47711658D01*
X127847571Y-47711657D01*
X127847569Y-47711656D01*
X127634637Y-47638556D01*
X127412569Y-47601500D01*
X127187431Y-47601500D01*
X126965362Y-47638556D01*
X126752430Y-47711656D01*
X126752419Y-47711661D01*
X126554427Y-47818808D01*
X126554422Y-47818812D01*
X126376761Y-47957092D01*
X126376756Y-47957097D01*
X126224284Y-48122723D01*
X126224276Y-48122734D01*
X126130251Y-48266650D01*
X126077105Y-48312007D01*
X126007873Y-48321430D01*
X125944538Y-48291928D01*
X125924868Y-48269951D01*
X125798113Y-48088926D01*
X125798108Y-48088920D01*
X125631082Y-47921894D01*
X125437578Y-47786399D01*
X125223492Y-47686570D01*
X125223486Y-47686567D01*
X125010000Y-47629364D01*
X125010000Y-48526988D01*
X124952993Y-48494075D01*
X124825826Y-48460000D01*
X124694174Y-48460000D01*
X124567007Y-48494075D01*
X124510000Y-48526988D01*
X124510000Y-47629364D01*
X124509999Y-47629364D01*
X124296513Y-47686567D01*
X124296507Y-47686570D01*
X124082422Y-47786399D01*
X124082420Y-47786400D01*
X123888926Y-47921886D01*
X123888920Y-47921891D01*
X123721891Y-48088920D01*
X123721890Y-48088922D01*
X123595131Y-48269952D01*
X123540554Y-48313577D01*
X123471055Y-48320769D01*
X123408701Y-48289247D01*
X123389752Y-48266656D01*
X123295722Y-48122732D01*
X123295715Y-48122725D01*
X123295715Y-48122723D01*
X123143243Y-47957097D01*
X123143238Y-47957092D01*
X122965577Y-47818812D01*
X122965572Y-47818808D01*
X122767580Y-47711661D01*
X122767577Y-47711659D01*
X122767574Y-47711658D01*
X122767571Y-47711657D01*
X122767569Y-47711656D01*
X122554637Y-47638556D01*
X122332569Y-47601500D01*
X122107431Y-47601500D01*
X121885362Y-47638556D01*
X121672430Y-47711656D01*
X121672419Y-47711661D01*
X121474427Y-47818808D01*
X121474422Y-47818812D01*
X121296761Y-47957092D01*
X121296756Y-47957097D01*
X121144284Y-48122723D01*
X121144276Y-48122734D01*
X121053808Y-48261206D01*
X121000662Y-48306562D01*
X120931431Y-48315986D01*
X120868095Y-48286484D01*
X120846192Y-48261206D01*
X120788286Y-48172576D01*
X120755722Y-48122732D01*
X120755719Y-48122729D01*
X120755715Y-48122723D01*
X120603243Y-47957097D01*
X120603238Y-47957092D01*
X120425577Y-47818812D01*
X120425572Y-47818808D01*
X120227580Y-47711661D01*
X120227577Y-47711659D01*
X120227574Y-47711658D01*
X120227571Y-47711657D01*
X120227569Y-47711656D01*
X120014637Y-47638556D01*
X119792569Y-47601500D01*
X119567431Y-47601500D01*
X119345362Y-47638556D01*
X119132430Y-47711656D01*
X119132419Y-47711661D01*
X118934427Y-47818808D01*
X118934422Y-47818812D01*
X118756761Y-47957092D01*
X118693548Y-48025760D01*
X118633661Y-48061750D01*
X118563823Y-48059649D01*
X118506207Y-48020124D01*
X118486138Y-47985110D01*
X118440889Y-47863796D01*
X118407214Y-47818812D01*
X118353261Y-47746739D01*
X118236204Y-47659111D01*
X118227220Y-47655760D01*
X118099203Y-47608011D01*
X118038654Y-47601500D01*
X118038638Y-47601500D01*
X116241362Y-47601500D01*
X116241345Y-47601500D01*
X116180797Y-47608011D01*
X116180795Y-47608011D01*
X116043795Y-47659111D01*
X115926739Y-47746739D01*
X115839111Y-47863795D01*
X115788011Y-48000795D01*
X115788011Y-48000797D01*
X115781500Y-48061345D01*
X100075500Y-48061345D01*
X100075500Y-47428092D01*
X100076097Y-47415938D01*
X100087494Y-47300222D01*
X100092234Y-47276389D01*
X100124216Y-47170959D01*
X100133508Y-47148526D01*
X100185442Y-47051365D01*
X100198938Y-47031166D01*
X100268827Y-46946006D01*
X100286006Y-46928827D01*
X100371166Y-46858938D01*
X100391365Y-46845442D01*
X100488526Y-46793508D01*
X100510959Y-46784216D01*
X100616389Y-46752234D01*
X100640220Y-46747494D01*
X100755939Y-46736097D01*
X100768093Y-46735500D01*
X100786531Y-46735500D01*
X163417365Y-46735500D01*
X163484404Y-46755185D01*
G37*
%TD.AperFunction*%
%TD*%
M02*
