%TF.GenerationSoftware,KiCad,Pcbnew,8.0.8*%
%TF.CreationDate,2025-03-13T16:31:01-06:00*%
%TF.ProjectId,micro_final_phaseD,6d696372-6f5f-4666-996e-616c5f706861,rev?*%
%TF.SameCoordinates,Original*%
%TF.FileFunction,Copper,L1,Top*%
%TF.FilePolarity,Positive*%
%FSLAX46Y46*%
G04 Gerber Fmt 4.6, Leading zero omitted, Abs format (unit mm)*
G04 Created by KiCad (PCBNEW 8.0.8) date 2025-03-13 16:31:01*
%MOMM*%
%LPD*%
G01*
G04 APERTURE LIST*
%TA.AperFunction,ComponentPad*%
%ADD10R,1.350000X1.350000*%
%TD*%
%TA.AperFunction,ComponentPad*%
%ADD11O,1.350000X1.350000*%
%TD*%
%TA.AperFunction,ComponentPad*%
%ADD12R,1.700000X1.700000*%
%TD*%
%TA.AperFunction,ComponentPad*%
%ADD13O,1.700000X1.700000*%
%TD*%
%TA.AperFunction,ComponentPad*%
%ADD14C,1.600000*%
%TD*%
%TA.AperFunction,ComponentPad*%
%ADD15O,1.600000X1.600000*%
%TD*%
%TA.AperFunction,ComponentPad*%
%ADD16O,1.000000X2.200000*%
%TD*%
%TA.AperFunction,ComponentPad*%
%ADD17R,1.800000X1.800000*%
%TD*%
%TA.AperFunction,ComponentPad*%
%ADD18C,1.800000*%
%TD*%
%TA.AperFunction,ComponentPad*%
%ADD19R,1.600000X1.600000*%
%TD*%
%TA.AperFunction,ViaPad*%
%ADD20C,0.600000*%
%TD*%
%TA.AperFunction,ViaPad*%
%ADD21C,0.800000*%
%TD*%
%TA.AperFunction,Conductor*%
%ADD22C,0.250000*%
%TD*%
G04 APERTURE END LIST*
D10*
%TO.P,J1,1,Pin_1*%
%TO.N,unconnected-(J1-Pin_1-Pad1)*%
X103010000Y-54230000D03*
D11*
%TO.P,J1,2,Pin_2*%
%TO.N,/RXI*%
X103010000Y-56230000D03*
%TO.P,J1,3,Pin_3*%
%TO.N,/TXO*%
X103010000Y-58230000D03*
%TO.P,J1,4,Pin_4*%
%TO.N,+5V*%
X103010000Y-60230000D03*
%TO.P,J1,5,Pin_5*%
%TO.N,GND*%
X103010000Y-62230000D03*
%TO.P,J1,6,Pin_6*%
%TO.N,unconnected-(J1-Pin_6-Pad6)*%
X103010000Y-64230000D03*
%TD*%
D12*
%TO.P,J3,1,Pin_1*%
%TO.N,/INTERNAL_TEMP*%
X139790000Y-97640000D03*
D13*
%TO.P,J3,2,Pin_2*%
%TO.N,/EXTERNAL_TEMP*%
X137250000Y-97640000D03*
%TO.P,J3,3,Pin_3*%
%TO.N,/ACCELZ*%
X134710000Y-97640000D03*
%TO.P,J3,4,Pin_4*%
%TO.N,/ACCELX*%
X132170000Y-97640000D03*
%TO.P,J3,5,Pin_5*%
%TO.N,/PRESSURE_OUTPUT*%
X129630000Y-97640000D03*
%TO.P,J3,6,Pin_6*%
%TO.N,/HUMIDITY_OUTPUT*%
X127090000Y-97640000D03*
%TD*%
D12*
%TO.P,J2,1,Pin_1*%
%TO.N,unconnected-(J2-Pin_1-Pad1)*%
X145480000Y-97580000D03*
D13*
%TO.P,J2,2,Pin_2*%
%TO.N,/IOREF*%
X148020000Y-97580000D03*
%TO.P,J2,3,Pin_3*%
%TO.N,/~{RESET}*%
X150560000Y-97580000D03*
%TO.P,J2,4,Pin_4*%
%TO.N,+3V3*%
X153100000Y-97580000D03*
%TO.P,J2,5,Pin_5*%
%TO.N,+5V*%
X155640000Y-97580000D03*
%TO.P,J2,6,Pin_6*%
%TO.N,GND*%
X158180000Y-97580000D03*
%TO.P,J2,7,Pin_7*%
X160720000Y-97580000D03*
%TO.P,J2,8,Pin_8*%
%TO.N,VCC*%
X163260000Y-97580000D03*
%TD*%
D12*
%TO.P,J4,1,Pin_1*%
%TO.N,/SCL{slash}A5*%
X117140000Y-48960000D03*
D13*
%TO.P,J4,2,Pin_2*%
%TO.N,/SDA{slash}A4*%
X119680000Y-48960000D03*
%TO.P,J4,3,Pin_3*%
%TO.N,/AREF*%
X122220000Y-48960000D03*
%TO.P,J4,4,Pin_4*%
%TO.N,GND*%
X124760000Y-48960000D03*
%TO.P,J4,5,Pin_5*%
%TO.N,/13*%
X127300000Y-48960000D03*
%TO.P,J4,6,Pin_6*%
%TO.N,/12*%
X129840000Y-48960000D03*
%TO.P,J4,7,Pin_7*%
%TO.N,/\u002A11*%
X132380000Y-48960000D03*
%TO.P,J4,8,Pin_8*%
%TO.N,/\u002A10*%
X134920000Y-48960000D03*
%TO.P,J4,9,Pin_9*%
%TO.N,/ACCELS_LED*%
X137460000Y-48960000D03*
%TO.P,J4,10,Pin_10*%
%TO.N,/8*%
X140000000Y-48960000D03*
%TD*%
D14*
%TO.P,R6,1*%
%TO.N,/ACCELS_LED*%
X135650000Y-64380000D03*
D15*
%TO.P,R6,2*%
%TO.N,Net-(D6-A)*%
X135650000Y-54220000D03*
%TD*%
D16*
%TO.P,J8,1,Pin_1*%
%TO.N,+5V*%
X152480000Y-85060000D03*
%TO.P,J8,2,Pin_2*%
%TO.N,/EXTERNAL_TEMP*%
X151210000Y-85060000D03*
%TO.P,J8,3,Pin_3*%
%TO.N,GND*%
X149940000Y-85060000D03*
%TD*%
D14*
%TO.P,R4,1*%
%TO.N,/HUMIDITY_LED*%
X151300000Y-68090000D03*
D15*
%TO.P,R4,2*%
%TO.N,Net-(D4-A)*%
X151300000Y-78250000D03*
%TD*%
D17*
%TO.P,D5,1,K*%
%TO.N,GND*%
X140830000Y-63890000D03*
D18*
%TO.P,D5,2,A*%
%TO.N,Net-(D5-A)*%
X143370000Y-63890000D03*
%TD*%
D19*
%TO.P,J6,1,Pin_1*%
%TO.N,unconnected-(J6-Pin_1-Pad1)*%
X113630000Y-79570000D03*
D15*
%TO.P,J6,2,Pin_2*%
%TO.N,+5V*%
X113630000Y-77030000D03*
%TO.P,J6,3,Pin_3*%
%TO.N,/PRESSURE_OUTPUT*%
X113630000Y-74490000D03*
%TO.P,J6,4,Pin_4*%
%TO.N,GND*%
X113630000Y-71950000D03*
%TO.P,J6,5,Pin_5*%
%TO.N,unconnected-(J6-Pin_5-Pad5)*%
X106010000Y-71950000D03*
%TO.P,J6,6,Pin_6*%
%TO.N,unconnected-(J6-Pin_6-Pad6)*%
X106010000Y-74490000D03*
%TO.P,J6,7,Pin_7*%
%TO.N,unconnected-(J6-Pin_7-Pad7)*%
X106010000Y-77030000D03*
%TO.P,J6,8,Pin_8*%
%TO.N,unconnected-(J6-Pin_8-Pad8)*%
X106010000Y-79570000D03*
%TD*%
D14*
%TO.P,R5,1*%
%TO.N,/PRESSURE_LED*%
X147300000Y-54930000D03*
D15*
%TO.P,R5,2*%
%TO.N,Net-(D5-A)*%
X147300000Y-65090000D03*
%TD*%
D17*
%TO.P,D4,1,K*%
%TO.N,GND*%
X159880000Y-77180000D03*
D18*
%TO.P,D4,2,A*%
%TO.N,Net-(D4-A)*%
X157340000Y-77180000D03*
%TD*%
D12*
%TO.P,J5,1,Pin_1*%
%TO.N,/RX1*%
X144070000Y-48590000D03*
D13*
%TO.P,J5,2,Pin_2*%
%TO.N,/2*%
X146610000Y-48590000D03*
%TO.P,J5,3,Pin_3*%
%TO.N,/PRESSURE_LED*%
X149150000Y-48590000D03*
%TO.P,J5,4,Pin_4*%
%TO.N,/INTERNAL_TEMP_LED*%
X151690000Y-48590000D03*
%TO.P,J5,5,Pin_5*%
%TO.N,/HUMIDITY_LED*%
X154230000Y-48590000D03*
%TO.P,J5,6,Pin_6*%
%TO.N,/EXTERNAL_TEMP_LED*%
X156770000Y-48590000D03*
%TO.P,J5,7,Pin_7*%
%TO.N,/ON_LED*%
X159310000Y-48590000D03*
%TO.P,J5,8,Pin_8*%
%TO.N,unconnected-(J5-Pin_8-Pad8)*%
X161850000Y-48590000D03*
%TD*%
D12*
%TO.P,J9,1,Pin_1*%
%TO.N,/SELF_TEST*%
X126650000Y-72790000D03*
D13*
%TO.P,J9,2,Pin_2*%
%TO.N,/ACCELZ*%
X126650000Y-75330000D03*
%TO.P,J9,3,Pin_3*%
%TO.N,/ACCELY*%
X126650000Y-77870000D03*
%TO.P,J9,4,Pin_4*%
%TO.N,/ACCELX*%
X126650000Y-80410000D03*
%TO.P,J9,5,Pin_5*%
%TO.N,GND*%
X126650000Y-82950000D03*
%TO.P,J9,6,Pin_6*%
%TO.N,+3V3*%
X126650000Y-85490000D03*
%TD*%
D14*
%TO.P,R2,1*%
%TO.N,/INTERNAL_TEMP_LED*%
X151300000Y-54810000D03*
D15*
%TO.P,R2,2*%
%TO.N,Net-(D2-A)*%
X151300000Y-64970000D03*
%TD*%
D17*
%TO.P,D6,1,K*%
%TO.N,GND*%
X142500000Y-56850000D03*
D18*
%TO.P,D6,2,A*%
%TO.N,Net-(D6-A)*%
X139960000Y-56850000D03*
%TD*%
D17*
%TO.P,D1,1,K*%
%TO.N,GND*%
X157250000Y-55270000D03*
D18*
%TO.P,D1,2,A*%
%TO.N,Net-(D1-A)*%
X159790000Y-55270000D03*
%TD*%
D16*
%TO.P,J7,1,Pin_1*%
%TO.N,+5V*%
X161500000Y-85920000D03*
%TO.P,J7,2,Pin_2*%
%TO.N,/INTERNAL_TEMP*%
X162770000Y-85920000D03*
%TO.P,J7,3,Pin_3*%
%TO.N,GND*%
X164040000Y-85920000D03*
%TD*%
D17*
%TO.P,D3,1,K*%
%TO.N,GND*%
X155230000Y-69570000D03*
D18*
%TO.P,D3,2,A*%
%TO.N,Net-(D3-A)*%
X157770000Y-69570000D03*
%TD*%
D14*
%TO.P,R3,1*%
%TO.N,/EXTERNAL_TEMP_LED*%
X164260000Y-78570000D03*
D15*
%TO.P,R3,2*%
%TO.N,Net-(D3-A)*%
X164260000Y-68410000D03*
%TD*%
D17*
%TO.P,D2,1,K*%
%TO.N,GND*%
X159400000Y-63870000D03*
D18*
%TO.P,D2,2,A*%
%TO.N,Net-(D2-A)*%
X156860000Y-63870000D03*
%TD*%
D12*
%TO.P,J10,1,Pin_1*%
%TO.N,+5V*%
X109510000Y-85680000D03*
D13*
%TO.P,J10,2,Pin_2*%
%TO.N,/HUMIDITY_OUTPUT*%
X109510000Y-88220000D03*
%TO.P,J10,3,Pin_3*%
%TO.N,GND*%
X109510000Y-90760000D03*
%TD*%
D14*
%TO.P,R1,1*%
%TO.N,/ON_LED*%
X164200000Y-54970000D03*
D15*
%TO.P,R1,2*%
%TO.N,Net-(D1-A)*%
X164200000Y-65130000D03*
%TD*%
D20*
%TO.N,+3V3*%
X145171942Y-93141942D03*
X135335000Y-90620000D03*
X131545000Y-89360000D03*
X141808058Y-92198058D03*
D21*
%TO.N,/PRESSURE_OUTPUT*%
X117512653Y-95197347D03*
X115527347Y-95262653D03*
%TO.N,/INTERNAL_TEMP*%
X154915000Y-91580000D03*
X156365000Y-91580000D03*
%TD*%
D22*
%TO.N,+5V*%
X161500000Y-85920000D02*
X160100000Y-85920000D01*
X122500000Y-68160000D02*
X110940000Y-68160000D01*
X122500000Y-68160000D02*
X113630000Y-77030000D01*
X113630000Y-77030000D02*
X109510000Y-81150000D01*
X155640000Y-90380000D02*
X155640000Y-88220000D01*
X155640000Y-97580000D02*
X155640000Y-90380000D01*
X136076726Y-68160000D02*
X122500000Y-68160000D01*
X109510000Y-81150000D02*
X109510000Y-85680000D01*
X152480000Y-84563274D02*
X136076726Y-68160000D01*
X155640000Y-88220000D02*
X152480000Y-85060000D01*
X160100000Y-85920000D02*
X155640000Y-90380000D01*
X110940000Y-68160000D02*
X103010000Y-60230000D01*
X152480000Y-85060000D02*
X152480000Y-84050000D01*
X152480000Y-85060000D02*
X152480000Y-84563274D01*
%TO.N,+3V3*%
X148661942Y-93141942D02*
X145171942Y-93141942D01*
X135335000Y-90970000D02*
X135335000Y-90620000D01*
X136563058Y-92198058D02*
X135335000Y-90970000D01*
X130520000Y-89360000D02*
X126650000Y-85490000D01*
X131545000Y-89360000D02*
X130520000Y-89360000D01*
X153100000Y-97580000D02*
X148661942Y-93141942D01*
X141808058Y-92198058D02*
X136563058Y-92198058D01*
%TO.N,VCC*%
X163250000Y-97590000D02*
X163230000Y-97590000D01*
%TO.N,Net-(D1-A)*%
X159790000Y-58080000D02*
X159790000Y-55270000D01*
X164200000Y-62490000D02*
X159790000Y-58080000D01*
X164200000Y-65130000D02*
X164200000Y-62490000D01*
%TO.N,Net-(D2-A)*%
X152400000Y-63870000D02*
X151300000Y-64970000D01*
X156860000Y-63870000D02*
X152400000Y-63870000D01*
%TO.N,Net-(D3-A)*%
X158930000Y-68410000D02*
X157770000Y-69570000D01*
X164260000Y-68410000D02*
X158930000Y-68410000D01*
%TO.N,Net-(D4-A)*%
X152370000Y-77180000D02*
X151300000Y-78250000D01*
X157340000Y-77180000D02*
X152370000Y-77180000D01*
%TO.N,Net-(D5-A)*%
X147300000Y-65090000D02*
X144570000Y-65090000D01*
X144570000Y-65090000D02*
X143370000Y-63890000D01*
%TO.N,Net-(D6-A)*%
X139960000Y-56850000D02*
X137330000Y-54220000D01*
X137330000Y-54220000D02*
X135650000Y-54220000D01*
%TO.N,/HUMIDITY_OUTPUT*%
X118930000Y-97640000D02*
X109510000Y-88220000D01*
X127090000Y-97640000D02*
X118930000Y-97640000D01*
%TO.N,/ACCELZ*%
X134710000Y-83390000D02*
X126650000Y-75330000D01*
X134710000Y-97640000D02*
X134710000Y-83390000D01*
%TO.N,/PRESSURE_OUTPUT*%
X129630000Y-97640000D02*
X127187347Y-95197347D01*
X107952653Y-95262653D02*
X104640000Y-91950000D01*
X127187347Y-95197347D02*
X117512653Y-95197347D01*
X104640000Y-83480000D02*
X113630000Y-74490000D01*
X115527347Y-95262653D02*
X107952653Y-95262653D01*
X104640000Y-91950000D02*
X104640000Y-83480000D01*
%TO.N,/EXTERNAL_TEMP*%
X146127437Y-90660000D02*
X144230000Y-90660000D01*
X144230000Y-90660000D02*
X137250000Y-97640000D01*
X151210000Y-85577437D02*
X146127437Y-90660000D01*
X151210000Y-85060000D02*
X151210000Y-85577437D01*
%TO.N,/ACCELX*%
X132170000Y-97640000D02*
X132170000Y-85930000D01*
X132170000Y-85930000D02*
X126650000Y-80410000D01*
%TO.N,/INTERNAL_TEMP*%
X162770000Y-86470000D02*
X157660000Y-91580000D01*
X157660000Y-91580000D02*
X156365000Y-91580000D01*
X162770000Y-85920000D02*
X162770000Y-86470000D01*
X145850000Y-91580000D02*
X139790000Y-97640000D01*
X154915000Y-91580000D02*
X145850000Y-91580000D01*
%TO.N,/ACCELS_LED*%
X132080000Y-54340000D02*
X137460000Y-48960000D01*
X132080000Y-60810000D02*
X132080000Y-54340000D01*
X135650000Y-64380000D02*
X132080000Y-60810000D01*
%TO.N,/HUMIDITY_LED*%
X151300000Y-68090000D02*
X149420000Y-66210000D01*
X154230000Y-48590000D02*
X154230000Y-55350000D01*
X149420000Y-66210000D02*
X149420000Y-60160000D01*
X154230000Y-55350000D02*
X149420000Y-60160000D01*
%TO.N,/INTERNAL_TEMP_LED*%
X151300000Y-54810000D02*
X151300000Y-48980000D01*
X151300000Y-48980000D02*
X151690000Y-48590000D01*
%TO.N,/ON_LED*%
X159310000Y-48590000D02*
X159310000Y-50080000D01*
X159310000Y-50080000D02*
X164200000Y-54970000D01*
X164760000Y-54410000D02*
X164200000Y-54970000D01*
%TO.N,/PRESSURE_LED*%
X147300000Y-54930000D02*
X147300000Y-50440000D01*
X147300000Y-50440000D02*
X149150000Y-48590000D01*
%TO.N,/EXTERNAL_TEMP_LED*%
X161015000Y-56655000D02*
X166620000Y-62260000D01*
X156770000Y-48590000D02*
X161015000Y-52835000D01*
X164260000Y-78570000D02*
X166620000Y-76210000D01*
X166620000Y-76210000D02*
X166620000Y-62260000D01*
X161015000Y-52835000D02*
X161015000Y-56655000D01*
%TD*%
M02*
