M48
; DRILL file {KiCad 8.0.8} date 2025-03-13T16:31:17-0600
; FORMAT={-:-/ absolute / inch / decimal}
; #@! TF.CreationDate,2025-03-13T16:31:17-06:00
; #@! TF.GenerationSoftware,Kicad,Pcbnew,8.0.8
; #@! TF.FileFunction,Plated,1,2,PTH
FMAT,2
INCH
; #@! TA.AperFunction,Plated,PTH,ViaDrill
T1C0.0157
; #@! TA.AperFunction,Plated,PTH,ComponentDrill
T2C0.0315
; #@! TA.AperFunction,Plated,PTH,ComponentDrill
T3C0.0354
; #@! TA.AperFunction,Plated,PTH,ComponentDrill
T4C0.0394
%
G90
G05
T1
X4.5483Y-3.7505
X4.6265Y-3.7479
X5.1789Y-3.5181
X5.3281Y-3.5677
X5.583Y-3.6298
X5.7154Y-3.667
X6.099Y-3.6055
X6.1561Y-3.6055
T2
X4.0555Y-2.135
X4.0555Y-2.2138
X4.0555Y-2.2925
X4.0555Y-2.3713
X4.0555Y-2.45
X4.0555Y-2.5287
X4.1736Y-2.8327
X4.1736Y-2.9327
X4.1736Y-3.0327
X4.1736Y-3.1327
X4.4736Y-2.8327
X4.4736Y-2.9327
X4.4736Y-3.0327
X4.4736Y-3.1327
X5.3406Y-2.1346
X5.3406Y-2.5346
X5.7992Y-2.1626
X5.7992Y-2.5626
X5.9031Y-3.3488
X5.9531Y-3.3488
X5.9567Y-2.1579
X5.9567Y-2.5579
X5.9567Y-2.6807
X5.9567Y-3.0807
X6.0031Y-3.3488
X6.3583Y-3.3827
X6.4083Y-3.3827
X6.4583Y-3.3827
X6.4646Y-2.1642
X6.4646Y-2.5642
X6.4669Y-2.6933
X6.4669Y-3.0933
T3
X5.5102Y-2.2382
X5.5445Y-2.5154
X5.6102Y-2.2382
X5.6445Y-2.5154
X6.1114Y-2.739
X6.1756Y-2.5146
X6.1909Y-2.176
X6.1945Y-3.0386
X6.2114Y-2.739
X6.2756Y-2.5146
X6.2909Y-2.176
X6.2945Y-3.0386
T4
X4.3114Y-3.3732
X4.3114Y-3.4732
X4.3114Y-3.5732
X4.6118Y-1.9276
X4.7118Y-1.9276
X4.8118Y-1.9276
X4.9118Y-1.9276
X4.9862Y-2.8657
X4.9862Y-2.9657
X4.9862Y-3.0657
X4.9862Y-3.1657
X4.9862Y-3.2657
X4.9862Y-3.3657
X5.0035Y-3.8441
X5.0118Y-1.9276
X5.1035Y-3.8441
X5.1118Y-1.9276
X5.2035Y-3.8441
X5.2118Y-1.9276
X5.3035Y-3.8441
X5.3118Y-1.9276
X5.4035Y-3.8441
X5.4118Y-1.9276
X5.5035Y-3.8441
X5.5118Y-1.9276
X5.672Y-1.913
X5.7276Y-3.8417
X5.772Y-1.913
X5.8276Y-3.8417
X5.872Y-1.913
X5.9276Y-3.8417
X5.972Y-1.913
X6.0276Y-3.8417
X6.072Y-1.913
X6.1276Y-3.8417
X6.172Y-1.913
X6.2276Y-3.8417
X6.272Y-1.913
X6.3276Y-3.8417
X6.372Y-1.913
X6.4276Y-3.8417
M30
