%TF.GenerationSoftware,KiCad,Pcbnew,8.0.8*%
%TF.CreationDate,2025-02-03T16:01:42-07:00*%
%TF.ProjectId,MicroProcess_PhaseB_thermo_uno,4d696372-6f50-4726-9f63-6573735f5068,rev?*%
%TF.SameCoordinates,Original*%
%TF.FileFunction,Copper,L2,Bot*%
%TF.FilePolarity,Positive*%
%FSLAX46Y46*%
G04 Gerber Fmt 4.6, Leading zero omitted, Abs format (unit mm)*
G04 Created by KiCad (PCBNEW 8.0.8) date 2025-02-03 16:01:42*
%MOMM*%
%LPD*%
G01*
G04 APERTURE LIST*
G04 Aperture macros list*
%AMRoundRect*
0 Rectangle with rounded corners*
0 $1 Rounding radius*
0 $2 $3 $4 $5 $6 $7 $8 $9 X,Y pos of 4 corners*
0 Add a 4 corners polygon primitive as box body*
4,1,4,$2,$3,$4,$5,$6,$7,$8,$9,$2,$3,0*
0 Add four circle primitives for the rounded corners*
1,1,$1+$1,$2,$3*
1,1,$1+$1,$4,$5*
1,1,$1+$1,$6,$7*
1,1,$1+$1,$8,$9*
0 Add four rect primitives between the rounded corners*
20,1,$1+$1,$2,$3,$4,$5,0*
20,1,$1+$1,$4,$5,$6,$7,0*
20,1,$1+$1,$6,$7,$8,$9,0*
20,1,$1+$1,$8,$9,$2,$3,0*%
G04 Aperture macros list end*
%TA.AperFunction,ComponentPad*%
%ADD10R,1.700000X1.700000*%
%TD*%
%TA.AperFunction,ComponentPad*%
%ADD11O,1.700000X1.700000*%
%TD*%
%TA.AperFunction,ComponentPad*%
%ADD12R,1.800000X1.800000*%
%TD*%
%TA.AperFunction,ComponentPad*%
%ADD13C,1.800000*%
%TD*%
%TA.AperFunction,ComponentPad*%
%ADD14RoundRect,0.250000X0.725000X-0.600000X0.725000X0.600000X-0.725000X0.600000X-0.725000X-0.600000X0*%
%TD*%
%TA.AperFunction,ComponentPad*%
%ADD15O,1.950000X1.700000*%
%TD*%
%TA.AperFunction,ComponentPad*%
%ADD16C,2.000000*%
%TD*%
%TA.AperFunction,ComponentPad*%
%ADD17C,1.600000*%
%TD*%
%TA.AperFunction,ComponentPad*%
%ADD18O,1.600000X1.600000*%
%TD*%
%TA.AperFunction,ComponentPad*%
%ADD19C,1.440000*%
%TD*%
G04 APERTURE END LIST*
D10*
%TO.P,J1,1,Pin_1*%
%TO.N,unconnected-(J1-Pin_1-Pad1)*%
X128000000Y-97500000D03*
D11*
%TO.P,J1,2,Pin_2*%
%TO.N,/IOREF*%
X130540000Y-97500000D03*
%TO.P,J1,3,Pin_3*%
%TO.N,/~{RESET}*%
X133080000Y-97500000D03*
%TO.P,J1,4,Pin_4*%
%TO.N,+3V3*%
X135620000Y-97500000D03*
%TO.P,J1,5,Pin_5*%
%TO.N,+5V*%
X138160000Y-97500000D03*
%TO.P,J1,6,Pin_6*%
%TO.N,GND*%
X140700000Y-97500000D03*
%TO.P,J1,7,Pin_7*%
X143240000Y-97500000D03*
%TO.P,J1,8,Pin_8*%
%TO.N,VCC*%
X145780000Y-97500000D03*
%TD*%
D10*
%TO.P,J3,1,Pin_1*%
%TO.N,/A0*%
X150800000Y-97460000D03*
D11*
%TO.P,J3,2,Pin_2*%
%TO.N,/SCL*%
X153340000Y-97460000D03*
%TO.P,J3,3,Pin_3*%
%TO.N,/SDA*%
X155880000Y-97460000D03*
%TO.P,J3,4,Pin_4*%
%TO.N,/A3*%
X158420000Y-97460000D03*
%TO.P,J3,5,Pin_5*%
%TO.N,unconnected-(J3-Pin_5-Pad5)*%
X160960000Y-97460000D03*
%TO.P,J3,6,Pin_6*%
%TO.N,unconnected-(J3-Pin_6-Pad6)*%
X163500000Y-97460000D03*
%TD*%
D10*
%TO.P,J2,1,Pin_1*%
%TO.N,/I2C_SCL*%
X117500000Y-49200000D03*
D11*
%TO.P,J2,2,Pin_2*%
%TO.N,/I2C_SDA*%
X120040000Y-49200000D03*
%TO.P,J2,3,Pin_3*%
%TO.N,/AREF*%
X122580000Y-49200000D03*
%TO.P,J2,4,Pin_4*%
%TO.N,GND*%
X125120000Y-49200000D03*
%TO.P,J2,5,Pin_5*%
%TO.N,/13*%
X127660000Y-49200000D03*
%TO.P,J2,6,Pin_6*%
%TO.N,/12*%
X130200000Y-49200000D03*
%TO.P,J2,7,Pin_7*%
%TO.N,/\u002A11*%
X132740000Y-49200000D03*
%TO.P,J2,8,Pin_8*%
%TO.N,/\u002A10*%
X135280000Y-49200000D03*
%TO.P,J2,9,Pin_9*%
%TO.N,/\u002A9*%
X137820000Y-49200000D03*
%TO.P,J2,10,Pin_10*%
%TO.N,/8*%
X140360000Y-49200000D03*
%TD*%
D10*
%TO.P,J4,1,Pin_1*%
%TO.N,/7*%
X144960000Y-50000000D03*
D11*
%TO.P,J4,2,Pin_2*%
%TO.N,/\u002A6*%
X147500000Y-50000000D03*
%TO.P,J4,3,Pin_3*%
%TO.N,/\u002A5*%
X150040000Y-50000000D03*
%TO.P,J4,4,Pin_4*%
%TO.N,/4*%
X152580000Y-50000000D03*
%TO.P,J4,5,Pin_5*%
%TO.N,/\u002A3*%
X155120000Y-50000000D03*
%TO.P,J4,6,Pin_6*%
%TO.N,/2*%
X157660000Y-50000000D03*
%TO.P,J4,7,Pin_7*%
%TO.N,/TX{slash}1*%
X160200000Y-50000000D03*
%TO.P,J4,8,Pin_8*%
%TO.N,/RX{slash}0*%
X162740000Y-50000000D03*
%TD*%
D10*
%TO.P,J7,1,Pin_1*%
%TO.N,GND*%
X109500000Y-71500000D03*
D11*
%TO.P,J7,2,Pin_2*%
%TO.N,+5V*%
X112040000Y-71500000D03*
%TO.P,J7,3,Pin_3*%
%TO.N,/I2C_SCL*%
X114580000Y-71500000D03*
%TO.P,J7,4,Pin_4*%
%TO.N,/I2C_SDA*%
X117120000Y-71500000D03*
%TD*%
D12*
%TO.P,D1,1,K*%
%TO.N,GND*%
X129960000Y-57000000D03*
D13*
%TO.P,D1,2,A*%
%TO.N,Net-(D1-A)*%
X132500000Y-57000000D03*
%TD*%
D14*
%TO.P,J6,1,Pin_1*%
%TO.N,+5V*%
X132975000Y-82000000D03*
D15*
%TO.P,J6,2,Pin_2*%
%TO.N,/\u002A9*%
X132975000Y-79500000D03*
%TO.P,J6,3,Pin_3*%
%TO.N,GND*%
X132975000Y-77000000D03*
%TD*%
D16*
%TO.P,SW3,1,A*%
%TO.N,/\u002A5*%
X140500000Y-67500000D03*
X147000000Y-67500000D03*
%TO.P,SW3,2,B*%
%TO.N,+5V*%
X140500000Y-72000000D03*
X147000000Y-72000000D03*
%TD*%
D17*
%TO.P,R1,1*%
%TO.N,/2*%
X164000000Y-54420000D03*
D18*
%TO.P,R1,2*%
%TO.N,GND*%
X164000000Y-64580000D03*
%TD*%
D16*
%TO.P,SW5,1,A*%
%TO.N,/\u002A6*%
X143500000Y-82000000D03*
X150000000Y-82000000D03*
%TO.P,SW5,2,B*%
%TO.N,+5V*%
X143500000Y-86500000D03*
X150000000Y-86500000D03*
%TD*%
%TO.P,SW1,1,A*%
%TO.N,/2*%
X154000000Y-57500000D03*
X160500000Y-57500000D03*
%TO.P,SW1,2,B*%
%TO.N,+5V*%
X154000000Y-62000000D03*
X160500000Y-62000000D03*
%TD*%
%TO.P,SW2,1,A*%
%TO.N,/4*%
X141000000Y-58000000D03*
X147500000Y-58000000D03*
%TO.P,SW2,2,B*%
%TO.N,+5V*%
X141000000Y-62500000D03*
X147500000Y-62500000D03*
%TD*%
D17*
%TO.P,R3,1*%
%TO.N,/\u002A5*%
X137210000Y-61890000D03*
D18*
%TO.P,R3,2*%
%TO.N,GND*%
X137210000Y-72050000D03*
%TD*%
D17*
%TO.P,R4,1*%
%TO.N,/\u002A3*%
X151000000Y-68420000D03*
D18*
%TO.P,R4,2*%
%TO.N,GND*%
X151000000Y-78580000D03*
%TD*%
D10*
%TO.P,J5,1,Pin_1*%
%TO.N,+5V*%
X105300000Y-66500000D03*
D11*
%TO.P,J5,2,Pin_2*%
%TO.N,GND*%
X107840000Y-66500000D03*
%TO.P,J5,3,Pin_3*%
%TO.N,/I2C_SCL*%
X110380000Y-66500000D03*
%TO.P,J5,4,Pin_4*%
%TO.N,/I2C_SDA*%
X112920000Y-66500000D03*
%TO.P,J5,5,Pin_5*%
%TO.N,unconnected-(J5-Pin_5-Pad5)*%
X115460000Y-66500000D03*
%TO.P,J5,6,Pin_6*%
%TO.N,unconnected-(J5-Pin_6-Pad6)*%
X118000000Y-66500000D03*
%TO.P,J5,7,Pin_7*%
%TO.N,unconnected-(J5-Pin_7-Pad7)*%
X120540000Y-66500000D03*
%TO.P,J5,8,Pin_8*%
%TO.N,unconnected-(J5-Pin_8-Pad8)*%
X123080000Y-66500000D03*
%TD*%
D17*
%TO.P,R6,1*%
%TO.N,/8*%
X131000000Y-72080000D03*
D18*
%TO.P,R6,2*%
%TO.N,Net-(D1-A)*%
X131000000Y-61920000D03*
%TD*%
D19*
%TO.P,RV1,1,1*%
%TO.N,+5V*%
X158920000Y-88500000D03*
%TO.P,RV1,2,2*%
%TO.N,/A0*%
X161460000Y-91040000D03*
%TO.P,RV1,3,3*%
%TO.N,GND*%
X164000000Y-88500000D03*
%TD*%
D17*
%TO.P,R2,1*%
%TO.N,/4*%
X151000000Y-54920000D03*
D18*
%TO.P,R2,2*%
%TO.N,GND*%
X151000000Y-65080000D03*
%TD*%
D16*
%TO.P,SW4,1,A*%
%TO.N,/\u002A3*%
X154000000Y-68500000D03*
X160500000Y-68500000D03*
%TO.P,SW4,2,B*%
%TO.N,+5V*%
X154000000Y-73000000D03*
X160500000Y-73000000D03*
%TD*%
D17*
%TO.P,R5,1*%
%TO.N,/\u002A6*%
X139500000Y-76000000D03*
D18*
%TO.P,R5,2*%
%TO.N,GND*%
X139500000Y-86160000D03*
%TD*%
%TA.AperFunction,Conductor*%
%TO.N,GND*%
G36*
X142774075Y-97307007D02*
G01*
X142740000Y-97434174D01*
X142740000Y-97565826D01*
X142774075Y-97692993D01*
X142806988Y-97750000D01*
X141133012Y-97750000D01*
X141165925Y-97692993D01*
X141200000Y-97565826D01*
X141200000Y-97434174D01*
X141165925Y-97307007D01*
X141133012Y-97250000D01*
X142806988Y-97250000D01*
X142774075Y-97307007D01*
G37*
%TD.AperFunction*%
%TA.AperFunction,Conductor*%
G36*
X163484404Y-46755185D02*
G01*
X163505046Y-46771819D01*
X165928181Y-49194954D01*
X165961666Y-49256277D01*
X165964500Y-49282635D01*
X165964500Y-59344982D01*
X165964500Y-59375018D01*
X165975994Y-59402767D01*
X165975995Y-59402768D01*
X168468181Y-61894954D01*
X168501666Y-61956277D01*
X168504500Y-61982635D01*
X168504500Y-96107364D01*
X168484815Y-96174403D01*
X168468181Y-96195045D01*
X165997233Y-98665994D01*
X165975995Y-98687231D01*
X165964500Y-98714982D01*
X165964500Y-99231907D01*
X165963903Y-99244062D01*
X165952505Y-99359778D01*
X165947763Y-99383618D01*
X165917832Y-99482290D01*
X165915789Y-99489024D01*
X165906486Y-99511482D01*
X165854561Y-99608627D01*
X165841056Y-99628839D01*
X165771176Y-99713988D01*
X165753988Y-99731176D01*
X165668839Y-99801056D01*
X165648627Y-99814561D01*
X165551482Y-99866486D01*
X165529028Y-99875787D01*
X165487028Y-99888528D01*
X165423618Y-99907763D01*
X165399778Y-99912505D01*
X165291162Y-99923203D01*
X165284060Y-99923903D01*
X165271907Y-99924500D01*
X100768093Y-99924500D01*
X100755939Y-99923903D01*
X100747995Y-99923120D01*
X100640221Y-99912505D01*
X100616381Y-99907763D01*
X100599445Y-99902625D01*
X100510968Y-99875786D01*
X100488517Y-99866486D01*
X100391372Y-99814561D01*
X100371160Y-99801056D01*
X100286011Y-99731176D01*
X100268823Y-99713988D01*
X100198943Y-99628839D01*
X100185438Y-99608627D01*
X100133510Y-99511476D01*
X100124215Y-99489037D01*
X100092234Y-99383612D01*
X100087494Y-99359777D01*
X100076097Y-99244061D01*
X100075500Y-99231907D01*
X100075500Y-96601345D01*
X126641500Y-96601345D01*
X126641500Y-98398654D01*
X126648011Y-98459202D01*
X126648011Y-98459204D01*
X126684192Y-98556206D01*
X126699111Y-98596204D01*
X126786739Y-98713261D01*
X126903796Y-98800889D01*
X127040799Y-98851989D01*
X127068050Y-98854918D01*
X127101345Y-98858499D01*
X127101362Y-98858500D01*
X128898638Y-98858500D01*
X128898654Y-98858499D01*
X128925692Y-98855591D01*
X128959201Y-98851989D01*
X129096204Y-98800889D01*
X129213261Y-98713261D01*
X129300889Y-98596204D01*
X129346138Y-98474887D01*
X129388009Y-98418956D01*
X129453474Y-98394539D01*
X129521746Y-98409391D01*
X129553545Y-98434236D01*
X129616760Y-98502906D01*
X129794424Y-98641189D01*
X129794425Y-98641189D01*
X129794427Y-98641191D01*
X129853686Y-98673260D01*
X129992426Y-98748342D01*
X130177821Y-98811988D01*
X130196786Y-98818499D01*
X130205365Y-98821444D01*
X130427431Y-98858500D01*
X130652569Y-98858500D01*
X130874635Y-98821444D01*
X131087574Y-98748342D01*
X131285576Y-98641189D01*
X131463240Y-98502906D01*
X131584594Y-98371082D01*
X131615715Y-98337276D01*
X131615715Y-98337275D01*
X131615722Y-98337268D01*
X131706193Y-98198790D01*
X131759338Y-98153437D01*
X131828569Y-98144013D01*
X131891905Y-98173515D01*
X131913804Y-98198787D01*
X132004278Y-98337268D01*
X132004283Y-98337273D01*
X132004284Y-98337276D01*
X132130968Y-98474889D01*
X132156760Y-98502906D01*
X132334424Y-98641189D01*
X132334425Y-98641189D01*
X132334427Y-98641191D01*
X132393686Y-98673260D01*
X132532426Y-98748342D01*
X132717821Y-98811988D01*
X132736786Y-98818499D01*
X132745365Y-98821444D01*
X132967431Y-98858500D01*
X133192569Y-98858500D01*
X133414635Y-98821444D01*
X133627574Y-98748342D01*
X133825576Y-98641189D01*
X134003240Y-98502906D01*
X134124594Y-98371082D01*
X134155715Y-98337276D01*
X134155715Y-98337275D01*
X134155722Y-98337268D01*
X134246193Y-98198790D01*
X134299338Y-98153437D01*
X134368569Y-98144013D01*
X134431905Y-98173515D01*
X134453804Y-98198787D01*
X134544278Y-98337268D01*
X134544283Y-98337273D01*
X134544284Y-98337276D01*
X134670968Y-98474889D01*
X134696760Y-98502906D01*
X134874424Y-98641189D01*
X134874425Y-98641189D01*
X134874427Y-98641191D01*
X134933686Y-98673260D01*
X135072426Y-98748342D01*
X135257821Y-98811988D01*
X135276786Y-98818499D01*
X135285365Y-98821444D01*
X135507431Y-98858500D01*
X135732569Y-98858500D01*
X135954635Y-98821444D01*
X136167574Y-98748342D01*
X136365576Y-98641189D01*
X136543240Y-98502906D01*
X136664594Y-98371082D01*
X136695715Y-98337276D01*
X136695715Y-98337275D01*
X136695722Y-98337268D01*
X136786193Y-98198790D01*
X136839338Y-98153437D01*
X136908569Y-98144013D01*
X136971905Y-98173515D01*
X136993804Y-98198787D01*
X137084278Y-98337268D01*
X137084283Y-98337273D01*
X137084284Y-98337276D01*
X137210968Y-98474889D01*
X137236760Y-98502906D01*
X137414424Y-98641189D01*
X137414425Y-98641189D01*
X137414427Y-98641191D01*
X137473686Y-98673260D01*
X137612426Y-98748342D01*
X137797821Y-98811988D01*
X137816786Y-98818499D01*
X137825365Y-98821444D01*
X138047431Y-98858500D01*
X138272569Y-98858500D01*
X138494635Y-98821444D01*
X138707574Y-98748342D01*
X138905576Y-98641189D01*
X139083240Y-98502906D01*
X139204594Y-98371082D01*
X139235715Y-98337276D01*
X139235715Y-98337275D01*
X139235722Y-98337268D01*
X139329749Y-98193347D01*
X139382894Y-98147994D01*
X139452125Y-98138570D01*
X139515461Y-98168072D01*
X139535130Y-98190048D01*
X139661890Y-98371078D01*
X139828917Y-98538105D01*
X140022421Y-98673600D01*
X140236507Y-98773429D01*
X140236516Y-98773433D01*
X140450000Y-98830634D01*
X140450000Y-97933012D01*
X140507007Y-97965925D01*
X140634174Y-98000000D01*
X140765826Y-98000000D01*
X140892993Y-97965925D01*
X140950000Y-97933012D01*
X140950000Y-98830633D01*
X141163483Y-98773433D01*
X141163492Y-98773429D01*
X141377578Y-98673600D01*
X141571082Y-98538105D01*
X141738105Y-98371082D01*
X141868425Y-98184968D01*
X141923002Y-98141344D01*
X141992501Y-98134151D01*
X142054855Y-98165673D01*
X142071575Y-98184968D01*
X142201894Y-98371082D01*
X142368917Y-98538105D01*
X142562421Y-98673600D01*
X142776507Y-98773429D01*
X142776516Y-98773433D01*
X142990000Y-98830634D01*
X142990000Y-97933012D01*
X143047007Y-97965925D01*
X143174174Y-98000000D01*
X143305826Y-98000000D01*
X143432993Y-97965925D01*
X143490000Y-97933012D01*
X143490000Y-98830633D01*
X143703483Y-98773433D01*
X143703492Y-98773429D01*
X143917578Y-98673600D01*
X144111082Y-98538105D01*
X144278105Y-98371082D01*
X144404868Y-98190048D01*
X144459445Y-98146423D01*
X144528944Y-98139231D01*
X144591298Y-98170753D01*
X144610251Y-98193350D01*
X144704276Y-98337265D01*
X144704284Y-98337276D01*
X144830968Y-98474889D01*
X144856760Y-98502906D01*
X145034424Y-98641189D01*
X145034425Y-98641189D01*
X145034427Y-98641191D01*
X145093686Y-98673260D01*
X145232426Y-98748342D01*
X145417821Y-98811988D01*
X145436786Y-98818499D01*
X145445365Y-98821444D01*
X145667431Y-98858500D01*
X145892569Y-98858500D01*
X146114635Y-98821444D01*
X146327574Y-98748342D01*
X146525576Y-98641189D01*
X146703240Y-98502906D01*
X146824594Y-98371082D01*
X146855715Y-98337276D01*
X146855717Y-98337273D01*
X146855722Y-98337268D01*
X146978860Y-98148791D01*
X147069296Y-97942616D01*
X147124564Y-97724368D01*
X147127164Y-97692993D01*
X147143156Y-97500005D01*
X147143156Y-97499994D01*
X147124565Y-97275640D01*
X147124563Y-97275628D01*
X147069296Y-97057385D01*
X147059071Y-97034075D01*
X146978860Y-96851209D01*
X146962706Y-96826484D01*
X146855723Y-96662734D01*
X146855715Y-96662723D01*
X146762388Y-96561345D01*
X149441500Y-96561345D01*
X149441500Y-98358654D01*
X149448011Y-98419202D01*
X149448011Y-98419204D01*
X149479232Y-98502907D01*
X149499111Y-98556204D01*
X149586739Y-98673261D01*
X149703796Y-98760889D01*
X149840799Y-98811989D01*
X149868050Y-98814918D01*
X149901345Y-98818499D01*
X149901362Y-98818500D01*
X151698638Y-98818500D01*
X151698654Y-98818499D01*
X151725692Y-98815591D01*
X151759201Y-98811989D01*
X151896204Y-98760889D01*
X152013261Y-98673261D01*
X152100889Y-98556204D01*
X152146138Y-98434887D01*
X152188009Y-98378956D01*
X152253474Y-98354539D01*
X152321746Y-98369391D01*
X152353545Y-98394236D01*
X152416760Y-98462906D01*
X152594424Y-98601189D01*
X152594425Y-98601189D01*
X152594427Y-98601191D01*
X152721135Y-98669761D01*
X152792426Y-98708342D01*
X153005365Y-98781444D01*
X153227431Y-98818500D01*
X153452569Y-98818500D01*
X153674635Y-98781444D01*
X153887574Y-98708342D01*
X154085576Y-98601189D01*
X154263240Y-98462906D01*
X154378892Y-98337276D01*
X154415715Y-98297276D01*
X154415715Y-98297275D01*
X154415722Y-98297268D01*
X154506193Y-98158790D01*
X154559338Y-98113437D01*
X154628569Y-98104013D01*
X154691905Y-98133515D01*
X154713804Y-98158787D01*
X154804278Y-98297268D01*
X154804283Y-98297273D01*
X154804284Y-98297276D01*
X154956756Y-98462902D01*
X154956761Y-98462907D01*
X155008146Y-98502902D01*
X155134424Y-98601189D01*
X155134425Y-98601189D01*
X155134427Y-98601191D01*
X155261135Y-98669761D01*
X155332426Y-98708342D01*
X155545365Y-98781444D01*
X155767431Y-98818500D01*
X155992569Y-98818500D01*
X156214635Y-98781444D01*
X156427574Y-98708342D01*
X156625576Y-98601189D01*
X156803240Y-98462906D01*
X156918892Y-98337276D01*
X156955715Y-98297276D01*
X156955715Y-98297275D01*
X156955722Y-98297268D01*
X157046193Y-98158790D01*
X157099338Y-98113437D01*
X157168569Y-98104013D01*
X157231905Y-98133515D01*
X157253804Y-98158787D01*
X157344278Y-98297268D01*
X157344283Y-98297273D01*
X157344284Y-98297276D01*
X157496756Y-98462902D01*
X157496761Y-98462907D01*
X157548146Y-98502902D01*
X157674424Y-98601189D01*
X157674425Y-98601189D01*
X157674427Y-98601191D01*
X157801135Y-98669761D01*
X157872426Y-98708342D01*
X158085365Y-98781444D01*
X158307431Y-98818500D01*
X158532569Y-98818500D01*
X158754635Y-98781444D01*
X158967574Y-98708342D01*
X159165576Y-98601189D01*
X159343240Y-98462906D01*
X159458892Y-98337276D01*
X159495715Y-98297276D01*
X159495715Y-98297275D01*
X159495722Y-98297268D01*
X159586193Y-98158790D01*
X159639338Y-98113437D01*
X159708569Y-98104013D01*
X159771905Y-98133515D01*
X159793804Y-98158787D01*
X159884278Y-98297268D01*
X159884283Y-98297273D01*
X159884284Y-98297276D01*
X160036756Y-98462902D01*
X160036761Y-98462907D01*
X160088146Y-98502902D01*
X160214424Y-98601189D01*
X160214425Y-98601189D01*
X160214427Y-98601191D01*
X160341135Y-98669761D01*
X160412426Y-98708342D01*
X160625365Y-98781444D01*
X160847431Y-98818500D01*
X161072569Y-98818500D01*
X161294635Y-98781444D01*
X161507574Y-98708342D01*
X161705576Y-98601189D01*
X161883240Y-98462906D01*
X161998892Y-98337276D01*
X162035715Y-98297276D01*
X162035715Y-98297275D01*
X162035722Y-98297268D01*
X162126193Y-98158790D01*
X162179338Y-98113437D01*
X162248569Y-98104013D01*
X162311905Y-98133515D01*
X162333804Y-98158787D01*
X162424278Y-98297268D01*
X162424283Y-98297273D01*
X162424284Y-98297276D01*
X162576756Y-98462902D01*
X162576761Y-98462907D01*
X162628146Y-98502902D01*
X162754424Y-98601189D01*
X162754425Y-98601189D01*
X162754427Y-98601191D01*
X162881135Y-98669761D01*
X162952426Y-98708342D01*
X163165365Y-98781444D01*
X163387431Y-98818500D01*
X163612569Y-98818500D01*
X163834635Y-98781444D01*
X164047574Y-98708342D01*
X164245576Y-98601189D01*
X164423240Y-98462906D01*
X164538892Y-98337276D01*
X164575715Y-98297276D01*
X164575717Y-98297273D01*
X164575722Y-98297268D01*
X164698860Y-98108791D01*
X164789296Y-97902616D01*
X164844564Y-97684368D01*
X164859841Y-97500005D01*
X164863156Y-97460005D01*
X164863156Y-97459994D01*
X164844565Y-97235640D01*
X164844563Y-97235628D01*
X164810192Y-97099901D01*
X164789296Y-97017384D01*
X164698860Y-96811209D01*
X164695881Y-96806650D01*
X164637291Y-96716970D01*
X164575722Y-96622732D01*
X164575719Y-96622729D01*
X164575715Y-96622723D01*
X164423243Y-96457097D01*
X164423238Y-96457092D01*
X164245577Y-96318812D01*
X164245572Y-96318808D01*
X164047580Y-96211661D01*
X164047577Y-96211659D01*
X164047574Y-96211658D01*
X164047571Y-96211657D01*
X164047569Y-96211656D01*
X163834637Y-96138556D01*
X163612569Y-96101500D01*
X163387431Y-96101500D01*
X163165362Y-96138556D01*
X162952430Y-96211656D01*
X162952419Y-96211661D01*
X162754427Y-96318808D01*
X162754422Y-96318812D01*
X162576761Y-96457092D01*
X162576756Y-96457097D01*
X162424284Y-96622723D01*
X162424276Y-96622734D01*
X162333808Y-96761206D01*
X162280662Y-96806562D01*
X162211431Y-96815986D01*
X162148095Y-96786484D01*
X162126192Y-96761206D01*
X162061849Y-96662723D01*
X162035722Y-96622732D01*
X162035719Y-96622729D01*
X162035715Y-96622723D01*
X161883243Y-96457097D01*
X161883238Y-96457092D01*
X161705577Y-96318812D01*
X161705572Y-96318808D01*
X161507580Y-96211661D01*
X161507577Y-96211659D01*
X161507574Y-96211658D01*
X161507571Y-96211657D01*
X161507569Y-96211656D01*
X161294637Y-96138556D01*
X161072569Y-96101500D01*
X160847431Y-96101500D01*
X160625362Y-96138556D01*
X160412430Y-96211656D01*
X160412419Y-96211661D01*
X160214427Y-96318808D01*
X160214422Y-96318812D01*
X160036761Y-96457092D01*
X160036756Y-96457097D01*
X159884284Y-96622723D01*
X159884276Y-96622734D01*
X159793808Y-96761206D01*
X159740662Y-96806562D01*
X159671431Y-96815986D01*
X159608095Y-96786484D01*
X159586192Y-96761206D01*
X159521849Y-96662723D01*
X159495722Y-96622732D01*
X159495719Y-96622729D01*
X159495715Y-96622723D01*
X159343243Y-96457097D01*
X159343238Y-96457092D01*
X159165577Y-96318812D01*
X159165572Y-96318808D01*
X158967580Y-96211661D01*
X158967577Y-96211659D01*
X158967574Y-96211658D01*
X158967571Y-96211657D01*
X158967569Y-96211656D01*
X158754637Y-96138556D01*
X158532569Y-96101500D01*
X158307431Y-96101500D01*
X158085362Y-96138556D01*
X157872430Y-96211656D01*
X157872419Y-96211661D01*
X157674427Y-96318808D01*
X157674422Y-96318812D01*
X157496761Y-96457092D01*
X157496756Y-96457097D01*
X157344284Y-96622723D01*
X157344276Y-96622734D01*
X157253808Y-96761206D01*
X157200662Y-96806562D01*
X157131431Y-96815986D01*
X157068095Y-96786484D01*
X157046192Y-96761206D01*
X156981849Y-96662723D01*
X156955722Y-96622732D01*
X156955719Y-96622729D01*
X156955715Y-96622723D01*
X156803243Y-96457097D01*
X156803238Y-96457092D01*
X156625577Y-96318812D01*
X156625572Y-96318808D01*
X156427580Y-96211661D01*
X156427577Y-96211659D01*
X156427574Y-96211658D01*
X156427571Y-96211657D01*
X156427569Y-96211656D01*
X156214637Y-96138556D01*
X155992569Y-96101500D01*
X155767431Y-96101500D01*
X155545362Y-96138556D01*
X155332430Y-96211656D01*
X155332419Y-96211661D01*
X155134427Y-96318808D01*
X155134422Y-96318812D01*
X154956761Y-96457092D01*
X154956756Y-96457097D01*
X154804284Y-96622723D01*
X154804276Y-96622734D01*
X154713808Y-96761206D01*
X154660662Y-96806562D01*
X154591431Y-96815986D01*
X154528095Y-96786484D01*
X154506192Y-96761206D01*
X154441849Y-96662723D01*
X154415722Y-96622732D01*
X154415719Y-96622729D01*
X154415715Y-96622723D01*
X154263243Y-96457097D01*
X154263238Y-96457092D01*
X154085577Y-96318812D01*
X154085572Y-96318808D01*
X153887580Y-96211661D01*
X153887577Y-96211659D01*
X153887574Y-96211658D01*
X153887571Y-96211657D01*
X153887569Y-96211656D01*
X153674637Y-96138556D01*
X153452569Y-96101500D01*
X153227431Y-96101500D01*
X153005362Y-96138556D01*
X152792430Y-96211656D01*
X152792419Y-96211661D01*
X152594427Y-96318808D01*
X152594422Y-96318812D01*
X152416761Y-96457092D01*
X152353548Y-96525760D01*
X152293661Y-96561750D01*
X152223823Y-96559649D01*
X152166207Y-96520124D01*
X152146138Y-96485110D01*
X152100889Y-96363796D01*
X152097155Y-96358808D01*
X152013261Y-96246739D01*
X151896204Y-96159111D01*
X151848988Y-96141500D01*
X151759203Y-96108011D01*
X151698654Y-96101500D01*
X151698638Y-96101500D01*
X149901362Y-96101500D01*
X149901345Y-96101500D01*
X149840797Y-96108011D01*
X149840795Y-96108011D01*
X149703795Y-96159111D01*
X149586739Y-96246739D01*
X149499111Y-96363795D01*
X149448011Y-96500795D01*
X149448011Y-96500797D01*
X149441500Y-96561345D01*
X146762388Y-96561345D01*
X146703243Y-96497097D01*
X146703238Y-96497092D01*
X146583371Y-96403795D01*
X146525576Y-96358811D01*
X146525575Y-96358810D01*
X146525572Y-96358808D01*
X146327580Y-96251661D01*
X146327577Y-96251659D01*
X146327574Y-96251658D01*
X146327571Y-96251657D01*
X146327569Y-96251656D01*
X146114637Y-96178556D01*
X145892569Y-96141500D01*
X145667431Y-96141500D01*
X145445362Y-96178556D01*
X145232430Y-96251656D01*
X145232419Y-96251661D01*
X145034427Y-96358808D01*
X145034422Y-96358812D01*
X144856761Y-96497092D01*
X144856756Y-96497097D01*
X144704284Y-96662723D01*
X144704276Y-96662734D01*
X144610251Y-96806650D01*
X144557105Y-96852007D01*
X144487873Y-96861430D01*
X144424538Y-96831928D01*
X144404868Y-96809951D01*
X144278113Y-96628926D01*
X144278108Y-96628920D01*
X144111082Y-96461894D01*
X143917578Y-96326399D01*
X143703492Y-96226570D01*
X143703486Y-96226567D01*
X143490000Y-96169364D01*
X143490000Y-97066988D01*
X143432993Y-97034075D01*
X143305826Y-97000000D01*
X143174174Y-97000000D01*
X143047007Y-97034075D01*
X142990000Y-97066988D01*
X142990000Y-96169364D01*
X142989999Y-96169364D01*
X142776513Y-96226567D01*
X142776507Y-96226570D01*
X142562422Y-96326399D01*
X142562420Y-96326400D01*
X142368926Y-96461886D01*
X142368920Y-96461891D01*
X142201891Y-96628920D01*
X142201890Y-96628922D01*
X142071575Y-96815031D01*
X142016998Y-96858655D01*
X141947499Y-96865848D01*
X141885145Y-96834326D01*
X141868425Y-96815031D01*
X141738109Y-96628922D01*
X141738108Y-96628920D01*
X141571082Y-96461894D01*
X141377578Y-96326399D01*
X141163492Y-96226570D01*
X141163486Y-96226567D01*
X140950000Y-96169364D01*
X140950000Y-97066988D01*
X140892993Y-97034075D01*
X140765826Y-97000000D01*
X140634174Y-97000000D01*
X140507007Y-97034075D01*
X140450000Y-97066988D01*
X140450000Y-96169364D01*
X140449999Y-96169364D01*
X140236513Y-96226567D01*
X140236507Y-96226570D01*
X140022422Y-96326399D01*
X140022420Y-96326400D01*
X139828926Y-96461886D01*
X139828920Y-96461891D01*
X139661891Y-96628920D01*
X139661890Y-96628922D01*
X139535131Y-96809952D01*
X139480554Y-96853577D01*
X139411055Y-96860769D01*
X139348701Y-96829247D01*
X139329752Y-96806656D01*
X139235722Y-96662732D01*
X139235715Y-96662725D01*
X139235715Y-96662723D01*
X139083243Y-96497097D01*
X139083238Y-96497092D01*
X138963371Y-96403795D01*
X138905576Y-96358811D01*
X138905575Y-96358810D01*
X138905572Y-96358808D01*
X138707580Y-96251661D01*
X138707577Y-96251659D01*
X138707574Y-96251658D01*
X138707571Y-96251657D01*
X138707569Y-96251656D01*
X138494637Y-96178556D01*
X138272569Y-96141500D01*
X138047431Y-96141500D01*
X137825362Y-96178556D01*
X137612430Y-96251656D01*
X137612419Y-96251661D01*
X137414427Y-96358808D01*
X137414422Y-96358812D01*
X137236761Y-96497092D01*
X137236756Y-96497097D01*
X137084284Y-96662723D01*
X137084276Y-96662734D01*
X136993808Y-96801206D01*
X136940662Y-96846562D01*
X136871431Y-96855986D01*
X136808095Y-96826484D01*
X136786192Y-96801206D01*
X136695723Y-96662734D01*
X136695715Y-96662723D01*
X136543243Y-96497097D01*
X136543238Y-96497092D01*
X136423371Y-96403795D01*
X136365576Y-96358811D01*
X136365575Y-96358810D01*
X136365572Y-96358808D01*
X136167580Y-96251661D01*
X136167577Y-96251659D01*
X136167574Y-96251658D01*
X136167571Y-96251657D01*
X136167569Y-96251656D01*
X135954637Y-96178556D01*
X135732569Y-96141500D01*
X135507431Y-96141500D01*
X135285362Y-96178556D01*
X135072430Y-96251656D01*
X135072419Y-96251661D01*
X134874427Y-96358808D01*
X134874422Y-96358812D01*
X134696761Y-96497092D01*
X134696756Y-96497097D01*
X134544284Y-96662723D01*
X134544276Y-96662734D01*
X134453808Y-96801206D01*
X134400662Y-96846562D01*
X134331431Y-96855986D01*
X134268095Y-96826484D01*
X134246192Y-96801206D01*
X134155723Y-96662734D01*
X134155715Y-96662723D01*
X134003243Y-96497097D01*
X134003238Y-96497092D01*
X133883371Y-96403795D01*
X133825576Y-96358811D01*
X133825575Y-96358810D01*
X133825572Y-96358808D01*
X133627580Y-96251661D01*
X133627577Y-96251659D01*
X133627574Y-96251658D01*
X133627571Y-96251657D01*
X133627569Y-96251656D01*
X133414637Y-96178556D01*
X133192569Y-96141500D01*
X132967431Y-96141500D01*
X132745362Y-96178556D01*
X132532430Y-96251656D01*
X132532419Y-96251661D01*
X132334427Y-96358808D01*
X132334422Y-96358812D01*
X132156761Y-96497092D01*
X132156756Y-96497097D01*
X132004284Y-96662723D01*
X132004276Y-96662734D01*
X131913808Y-96801206D01*
X131860662Y-96846562D01*
X131791431Y-96855986D01*
X131728095Y-96826484D01*
X131706192Y-96801206D01*
X131615723Y-96662734D01*
X131615715Y-96662723D01*
X131463243Y-96497097D01*
X131463238Y-96497092D01*
X131343371Y-96403795D01*
X131285576Y-96358811D01*
X131285575Y-96358810D01*
X131285572Y-96358808D01*
X131087580Y-96251661D01*
X131087577Y-96251659D01*
X131087574Y-96251658D01*
X131087571Y-96251657D01*
X131087569Y-96251656D01*
X130874637Y-96178556D01*
X130652569Y-96141500D01*
X130427431Y-96141500D01*
X130205362Y-96178556D01*
X129992430Y-96251656D01*
X129992419Y-96251661D01*
X129794427Y-96358808D01*
X129794422Y-96358812D01*
X129616761Y-96497092D01*
X129553548Y-96565760D01*
X129493661Y-96601750D01*
X129423823Y-96599649D01*
X129366207Y-96560124D01*
X129346138Y-96525110D01*
X129300889Y-96403796D01*
X129270945Y-96363796D01*
X129213261Y-96286739D01*
X129096204Y-96199111D01*
X129085303Y-96195045D01*
X128959203Y-96148011D01*
X128898654Y-96141500D01*
X128898638Y-96141500D01*
X127101362Y-96141500D01*
X127101345Y-96141500D01*
X127040797Y-96148011D01*
X127040795Y-96148011D01*
X126903795Y-96199111D01*
X126786739Y-96286739D01*
X126699111Y-96403795D01*
X126648011Y-96540795D01*
X126648011Y-96540797D01*
X126641500Y-96601345D01*
X100075500Y-96601345D01*
X100075500Y-91039998D01*
X160226807Y-91039998D01*
X160226807Y-91040001D01*
X160245541Y-91254136D01*
X160245542Y-91254144D01*
X160301176Y-91461772D01*
X160301177Y-91461774D01*
X160301178Y-91461777D01*
X160392024Y-91656597D01*
X160392026Y-91656601D01*
X160515319Y-91832682D01*
X160667317Y-91984680D01*
X160843398Y-92107973D01*
X160843400Y-92107974D01*
X160843403Y-92107976D01*
X161038223Y-92198822D01*
X161245858Y-92254458D01*
X161398816Y-92267840D01*
X161459998Y-92273193D01*
X161460000Y-92273193D01*
X161460002Y-92273193D01*
X161513535Y-92268509D01*
X161674142Y-92254458D01*
X161881777Y-92198822D01*
X162076597Y-92107976D01*
X162252681Y-91984681D01*
X162404681Y-91832681D01*
X162527976Y-91656597D01*
X162618822Y-91461777D01*
X162674458Y-91254142D01*
X162693193Y-91040000D01*
X162674458Y-90825858D01*
X162618822Y-90618223D01*
X162527976Y-90423404D01*
X162404681Y-90247319D01*
X162404679Y-90247316D01*
X162252682Y-90095319D01*
X162076601Y-89972026D01*
X162076597Y-89972024D01*
X162076595Y-89972023D01*
X161881777Y-89881178D01*
X161881774Y-89881177D01*
X161881772Y-89881176D01*
X161674144Y-89825542D01*
X161674136Y-89825541D01*
X161460002Y-89806807D01*
X161459998Y-89806807D01*
X161245863Y-89825541D01*
X161245855Y-89825542D01*
X161038227Y-89881176D01*
X161038221Y-89881179D01*
X160843405Y-89972023D01*
X160843403Y-89972024D01*
X160667316Y-90095320D01*
X160515320Y-90247316D01*
X160392024Y-90423403D01*
X160392023Y-90423405D01*
X160301179Y-90618221D01*
X160301176Y-90618227D01*
X160245542Y-90825855D01*
X160245541Y-90825863D01*
X160226807Y-91039998D01*
X100075500Y-91039998D01*
X100075500Y-88499998D01*
X157686807Y-88499998D01*
X157686807Y-88500001D01*
X157705541Y-88714136D01*
X157705542Y-88714144D01*
X157761176Y-88921772D01*
X157761177Y-88921774D01*
X157761178Y-88921777D01*
X157850032Y-89112325D01*
X157852024Y-89116597D01*
X157852026Y-89116601D01*
X157975319Y-89292682D01*
X158127317Y-89444680D01*
X158303398Y-89567973D01*
X158303400Y-89567974D01*
X158303403Y-89567976D01*
X158498223Y-89658822D01*
X158705858Y-89714458D01*
X158858816Y-89727840D01*
X158919998Y-89733193D01*
X158920000Y-89733193D01*
X158920002Y-89733193D01*
X158973535Y-89728509D01*
X159134142Y-89714458D01*
X159341777Y-89658822D01*
X159536597Y-89567976D01*
X159712681Y-89444681D01*
X159864681Y-89292681D01*
X159987976Y-89116597D01*
X160078822Y-88921777D01*
X160134458Y-88714142D01*
X160153193Y-88500000D01*
X160153193Y-88499997D01*
X162775340Y-88499997D01*
X162775340Y-88500002D01*
X162793944Y-88712654D01*
X162793945Y-88712662D01*
X162849194Y-88918853D01*
X162849197Y-88918859D01*
X162939413Y-89112329D01*
X162978415Y-89168030D01*
X163600000Y-88546445D01*
X163600000Y-88552661D01*
X163627259Y-88654394D01*
X163679920Y-88745606D01*
X163754394Y-88820080D01*
X163845606Y-88872741D01*
X163947339Y-88900000D01*
X163953554Y-88900000D01*
X163331968Y-89521584D01*
X163387663Y-89560582D01*
X163387669Y-89560586D01*
X163581140Y-89650802D01*
X163581146Y-89650805D01*
X163787337Y-89706054D01*
X163787345Y-89706055D01*
X163999998Y-89724660D01*
X164000002Y-89724660D01*
X164212654Y-89706055D01*
X164212662Y-89706054D01*
X164418853Y-89650805D01*
X164418864Y-89650801D01*
X164612325Y-89560589D01*
X164668030Y-89521583D01*
X164046447Y-88900000D01*
X164052661Y-88900000D01*
X164154394Y-88872741D01*
X164245606Y-88820080D01*
X164320080Y-88745606D01*
X164372741Y-88654394D01*
X164400000Y-88552661D01*
X164400000Y-88546446D01*
X165021583Y-89168029D01*
X165060589Y-89112325D01*
X165150801Y-88918864D01*
X165150805Y-88918853D01*
X165206054Y-88712662D01*
X165206055Y-88712654D01*
X165224660Y-88500002D01*
X165224660Y-88499997D01*
X165206055Y-88287345D01*
X165206054Y-88287337D01*
X165150805Y-88081146D01*
X165150802Y-88081140D01*
X165060586Y-87887669D01*
X165060582Y-87887663D01*
X165021584Y-87831968D01*
X164400000Y-88453552D01*
X164400000Y-88447339D01*
X164372741Y-88345606D01*
X164320080Y-88254394D01*
X164245606Y-88179920D01*
X164154394Y-88127259D01*
X164052661Y-88100000D01*
X164046447Y-88100000D01*
X164668030Y-87478415D01*
X164612329Y-87439413D01*
X164418859Y-87349197D01*
X164418853Y-87349194D01*
X164212662Y-87293945D01*
X164212654Y-87293944D01*
X164000002Y-87275340D01*
X163999998Y-87275340D01*
X163787345Y-87293944D01*
X163787337Y-87293945D01*
X163581146Y-87349194D01*
X163581140Y-87349197D01*
X163387671Y-87439412D01*
X163387669Y-87439413D01*
X163331969Y-87478415D01*
X163331968Y-87478415D01*
X163953554Y-88100000D01*
X163947339Y-88100000D01*
X163845606Y-88127259D01*
X163754394Y-88179920D01*
X163679920Y-88254394D01*
X163627259Y-88345606D01*
X163600000Y-88447339D01*
X163600000Y-88453553D01*
X162978415Y-87831968D01*
X162978415Y-87831969D01*
X162939413Y-87887669D01*
X162939412Y-87887671D01*
X162849197Y-88081140D01*
X162849194Y-88081146D01*
X162793945Y-88287337D01*
X162793944Y-88287345D01*
X162775340Y-88499997D01*
X160153193Y-88499997D01*
X160134458Y-88285858D01*
X160078822Y-88078223D01*
X159987976Y-87883404D01*
X159864681Y-87707319D01*
X159864679Y-87707316D01*
X159712682Y-87555319D01*
X159536601Y-87432026D01*
X159536597Y-87432024D01*
X159536595Y-87432023D01*
X159341777Y-87341178D01*
X159341774Y-87341177D01*
X159341772Y-87341176D01*
X159134144Y-87285542D01*
X159134136Y-87285541D01*
X158920002Y-87266807D01*
X158919998Y-87266807D01*
X158705863Y-87285541D01*
X158705855Y-87285542D01*
X158498227Y-87341176D01*
X158498221Y-87341179D01*
X158303405Y-87432023D01*
X158303403Y-87432024D01*
X158127316Y-87555320D01*
X157975320Y-87707316D01*
X157852024Y-87883403D01*
X157852023Y-87883405D01*
X157761179Y-88078221D01*
X157761176Y-88078227D01*
X157705542Y-88285855D01*
X157705541Y-88285863D01*
X157686807Y-88499998D01*
X100075500Y-88499998D01*
X100075500Y-85909999D01*
X138221127Y-85909999D01*
X138221128Y-85910000D01*
X139184314Y-85910000D01*
X139179920Y-85914394D01*
X139127259Y-86005606D01*
X139100000Y-86107339D01*
X139100000Y-86212661D01*
X139127259Y-86314394D01*
X139179920Y-86405606D01*
X139184314Y-86410000D01*
X138221128Y-86410000D01*
X138273730Y-86606317D01*
X138273734Y-86606326D01*
X138369865Y-86812482D01*
X138500342Y-86998820D01*
X138661179Y-87159657D01*
X138847517Y-87290134D01*
X139053673Y-87386265D01*
X139053682Y-87386269D01*
X139249999Y-87438872D01*
X139250000Y-87438871D01*
X139250000Y-86475686D01*
X139254394Y-86480080D01*
X139345606Y-86532741D01*
X139447339Y-86560000D01*
X139552661Y-86560000D01*
X139654394Y-86532741D01*
X139745606Y-86480080D01*
X139750000Y-86475686D01*
X139750000Y-87438872D01*
X139946317Y-87386269D01*
X139946326Y-87386265D01*
X140152482Y-87290134D01*
X140338820Y-87159657D01*
X140499657Y-86998820D01*
X140630134Y-86812482D01*
X140726265Y-86606326D01*
X140726269Y-86606317D01*
X140754757Y-86500000D01*
X141986835Y-86500000D01*
X142005465Y-86736714D01*
X142060895Y-86967595D01*
X142060895Y-86967597D01*
X142151757Y-87186959D01*
X142151759Y-87186962D01*
X142275820Y-87389410D01*
X142275821Y-87389413D01*
X142328076Y-87450596D01*
X142430031Y-87569969D01*
X142569797Y-87689340D01*
X142610586Y-87724178D01*
X142610589Y-87724179D01*
X142813037Y-87848240D01*
X142813040Y-87848242D01*
X143032403Y-87939104D01*
X143032404Y-87939104D01*
X143032406Y-87939105D01*
X143263289Y-87994535D01*
X143500000Y-88013165D01*
X143736711Y-87994535D01*
X143967594Y-87939105D01*
X143967596Y-87939104D01*
X143967597Y-87939104D01*
X144186959Y-87848242D01*
X144186960Y-87848241D01*
X144186963Y-87848240D01*
X144389416Y-87724176D01*
X144569969Y-87569969D01*
X144724176Y-87389416D01*
X144848240Y-87186963D01*
X144859551Y-87159657D01*
X144939104Y-86967597D01*
X144939104Y-86967596D01*
X144939105Y-86967594D01*
X144994535Y-86736711D01*
X145013165Y-86500000D01*
X148486835Y-86500000D01*
X148505465Y-86736714D01*
X148560895Y-86967595D01*
X148560895Y-86967597D01*
X148651757Y-87186959D01*
X148651759Y-87186962D01*
X148775820Y-87389410D01*
X148775821Y-87389413D01*
X148828076Y-87450596D01*
X148930031Y-87569969D01*
X149069797Y-87689340D01*
X149110586Y-87724178D01*
X149110589Y-87724179D01*
X149313037Y-87848240D01*
X149313040Y-87848242D01*
X149532403Y-87939104D01*
X149532404Y-87939104D01*
X149532406Y-87939105D01*
X149763289Y-87994535D01*
X150000000Y-88013165D01*
X150236711Y-87994535D01*
X150467594Y-87939105D01*
X150467596Y-87939104D01*
X150467597Y-87939104D01*
X150686959Y-87848242D01*
X150686960Y-87848241D01*
X150686963Y-87848240D01*
X150889416Y-87724176D01*
X151069969Y-87569969D01*
X151224176Y-87389416D01*
X151348240Y-87186963D01*
X151359551Y-87159657D01*
X151439104Y-86967597D01*
X151439104Y-86967596D01*
X151439105Y-86967594D01*
X151494535Y-86736711D01*
X151513165Y-86500000D01*
X151494535Y-86263289D01*
X151439105Y-86032406D01*
X151439104Y-86032403D01*
X151439104Y-86032402D01*
X151348242Y-85813040D01*
X151348240Y-85813037D01*
X151224179Y-85610589D01*
X151224178Y-85610586D01*
X151136148Y-85507517D01*
X151069969Y-85430031D01*
X150942520Y-85321179D01*
X150889413Y-85275821D01*
X150889410Y-85275820D01*
X150686962Y-85151759D01*
X150686959Y-85151757D01*
X150467596Y-85060895D01*
X150236714Y-85005465D01*
X150000000Y-84986835D01*
X149763285Y-85005465D01*
X149532404Y-85060895D01*
X149532402Y-85060895D01*
X149313040Y-85151757D01*
X149313037Y-85151759D01*
X149110589Y-85275820D01*
X149110586Y-85275821D01*
X148930031Y-85430031D01*
X148775821Y-85610586D01*
X148775820Y-85610589D01*
X148651759Y-85813037D01*
X148651757Y-85813040D01*
X148560895Y-86032402D01*
X148560895Y-86032404D01*
X148505465Y-86263285D01*
X148486835Y-86500000D01*
X145013165Y-86500000D01*
X144994535Y-86263289D01*
X144939105Y-86032406D01*
X144939104Y-86032403D01*
X144939104Y-86032402D01*
X144848242Y-85813040D01*
X144848240Y-85813037D01*
X144724179Y-85610589D01*
X144724178Y-85610586D01*
X144636148Y-85507517D01*
X144569969Y-85430031D01*
X144442520Y-85321179D01*
X144389413Y-85275821D01*
X144389410Y-85275820D01*
X144186962Y-85151759D01*
X144186959Y-85151757D01*
X143967596Y-85060895D01*
X143736714Y-85005465D01*
X143500000Y-84986835D01*
X143263285Y-85005465D01*
X143032404Y-85060895D01*
X143032402Y-85060895D01*
X142813040Y-85151757D01*
X142813037Y-85151759D01*
X142610589Y-85275820D01*
X142610586Y-85275821D01*
X142430031Y-85430031D01*
X142275821Y-85610586D01*
X142275820Y-85610589D01*
X142151759Y-85813037D01*
X142151757Y-85813040D01*
X142060895Y-86032402D01*
X142060895Y-86032404D01*
X142005465Y-86263285D01*
X141986835Y-86500000D01*
X140754757Y-86500000D01*
X140778872Y-86410000D01*
X139815686Y-86410000D01*
X139820080Y-86405606D01*
X139872741Y-86314394D01*
X139900000Y-86212661D01*
X139900000Y-86107339D01*
X139872741Y-86005606D01*
X139820080Y-85914394D01*
X139815686Y-85910000D01*
X140778872Y-85910000D01*
X140778872Y-85909999D01*
X140726269Y-85713682D01*
X140726265Y-85713673D01*
X140630134Y-85507517D01*
X140499657Y-85321179D01*
X140338820Y-85160342D01*
X140152482Y-85029865D01*
X139946328Y-84933734D01*
X139750000Y-84881127D01*
X139750000Y-85844314D01*
X139745606Y-85839920D01*
X139654394Y-85787259D01*
X139552661Y-85760000D01*
X139447339Y-85760000D01*
X139345606Y-85787259D01*
X139254394Y-85839920D01*
X139250000Y-85844314D01*
X139250000Y-84881127D01*
X139053671Y-84933734D01*
X138847517Y-85029865D01*
X138661179Y-85160342D01*
X138500342Y-85321179D01*
X138369865Y-85507517D01*
X138273734Y-85713673D01*
X138273730Y-85713682D01*
X138221127Y-85909999D01*
X100075500Y-85909999D01*
X100075500Y-79393084D01*
X131491500Y-79393084D01*
X131491500Y-79606915D01*
X131524951Y-79818117D01*
X131591026Y-80021480D01*
X131591027Y-80021483D01*
X131688106Y-80212009D01*
X131813794Y-80385004D01*
X131813796Y-80385006D01*
X131945893Y-80517103D01*
X131979378Y-80578426D01*
X131974394Y-80648118D01*
X131932522Y-80704051D01*
X131923309Y-80710322D01*
X131776351Y-80800967D01*
X131776347Y-80800970D01*
X131650971Y-80926346D01*
X131557886Y-81077259D01*
X131557884Y-81077264D01*
X131502113Y-81245572D01*
X131491500Y-81349447D01*
X131491500Y-82650537D01*
X131491501Y-82650553D01*
X131495221Y-82686962D01*
X131502113Y-82754426D01*
X131557885Y-82922738D01*
X131650970Y-83073652D01*
X131776348Y-83199030D01*
X131927262Y-83292115D01*
X132095574Y-83347887D01*
X132199455Y-83358500D01*
X133750544Y-83358499D01*
X133854426Y-83347887D01*
X134022738Y-83292115D01*
X134173652Y-83199030D01*
X134299030Y-83073652D01*
X134392115Y-82922738D01*
X134447887Y-82754426D01*
X134458500Y-82650545D01*
X134458499Y-82000000D01*
X141986835Y-82000000D01*
X142005465Y-82236714D01*
X142060895Y-82467595D01*
X142060895Y-82467597D01*
X142151757Y-82686959D01*
X142151759Y-82686962D01*
X142275820Y-82889410D01*
X142275821Y-82889413D01*
X142275824Y-82889416D01*
X142430031Y-83069969D01*
X142569797Y-83189340D01*
X142610586Y-83224178D01*
X142610589Y-83224179D01*
X142813037Y-83348240D01*
X142813040Y-83348242D01*
X143032403Y-83439104D01*
X143032404Y-83439104D01*
X143032406Y-83439105D01*
X143263289Y-83494535D01*
X143500000Y-83513165D01*
X143736711Y-83494535D01*
X143967594Y-83439105D01*
X143967596Y-83439104D01*
X143967597Y-83439104D01*
X144186959Y-83348242D01*
X144186960Y-83348241D01*
X144186963Y-83348240D01*
X144389416Y-83224176D01*
X144569969Y-83069969D01*
X144724176Y-82889416D01*
X144848240Y-82686963D01*
X144863322Y-82650553D01*
X144939104Y-82467597D01*
X144939104Y-82467596D01*
X144939105Y-82467594D01*
X144994535Y-82236711D01*
X145013165Y-82000000D01*
X148486835Y-82000000D01*
X148505465Y-82236714D01*
X148560895Y-82467595D01*
X148560895Y-82467597D01*
X148651757Y-82686959D01*
X148651759Y-82686962D01*
X148775820Y-82889410D01*
X148775821Y-82889413D01*
X148775824Y-82889416D01*
X148930031Y-83069969D01*
X149069797Y-83189340D01*
X149110586Y-83224178D01*
X149110589Y-83224179D01*
X149313037Y-83348240D01*
X149313040Y-83348242D01*
X149532403Y-83439104D01*
X149532404Y-83439104D01*
X149532406Y-83439105D01*
X149763289Y-83494535D01*
X150000000Y-83513165D01*
X150236711Y-83494535D01*
X150467594Y-83439105D01*
X150467596Y-83439104D01*
X150467597Y-83439104D01*
X150686959Y-83348242D01*
X150686960Y-83348241D01*
X150686963Y-83348240D01*
X150889416Y-83224176D01*
X151069969Y-83069969D01*
X151224176Y-82889416D01*
X151348240Y-82686963D01*
X151363322Y-82650553D01*
X151439104Y-82467597D01*
X151439104Y-82467596D01*
X151439105Y-82467594D01*
X151494535Y-82236711D01*
X151513165Y-82000000D01*
X151494535Y-81763289D01*
X151439105Y-81532406D01*
X151439104Y-81532403D01*
X151439104Y-81532402D01*
X151348242Y-81313040D01*
X151348240Y-81313037D01*
X151224179Y-81110589D01*
X151224178Y-81110586D01*
X151189340Y-81069797D01*
X151069969Y-80930031D01*
X150918855Y-80800967D01*
X150889413Y-80775821D01*
X150889410Y-80775820D01*
X150686962Y-80651759D01*
X150686959Y-80651757D01*
X150467596Y-80560895D01*
X150236714Y-80505465D01*
X150000000Y-80486835D01*
X149763285Y-80505465D01*
X149532404Y-80560895D01*
X149532402Y-80560895D01*
X149313040Y-80651757D01*
X149313037Y-80651759D01*
X149110589Y-80775820D01*
X149110586Y-80775821D01*
X148930031Y-80930031D01*
X148775821Y-81110586D01*
X148775820Y-81110589D01*
X148651759Y-81313037D01*
X148651757Y-81313040D01*
X148560895Y-81532402D01*
X148560895Y-81532404D01*
X148505465Y-81763285D01*
X148486835Y-82000000D01*
X145013165Y-82000000D01*
X144994535Y-81763289D01*
X144939105Y-81532406D01*
X144939104Y-81532403D01*
X144939104Y-81532402D01*
X144848242Y-81313040D01*
X144848240Y-81313037D01*
X144724179Y-81110589D01*
X144724178Y-81110586D01*
X144689340Y-81069797D01*
X144569969Y-80930031D01*
X144418855Y-80800967D01*
X144389413Y-80775821D01*
X144389410Y-80775820D01*
X144186962Y-80651759D01*
X144186959Y-80651757D01*
X143967596Y-80560895D01*
X143736714Y-80505465D01*
X143500000Y-80486835D01*
X143263285Y-80505465D01*
X143032404Y-80560895D01*
X143032402Y-80560895D01*
X142813040Y-80651757D01*
X142813037Y-80651759D01*
X142610589Y-80775820D01*
X142610586Y-80775821D01*
X142430031Y-80930031D01*
X142275821Y-81110586D01*
X142275820Y-81110589D01*
X142151759Y-81313037D01*
X142151757Y-81313040D01*
X142060895Y-81532402D01*
X142060895Y-81532404D01*
X142005465Y-81763285D01*
X141986835Y-82000000D01*
X134458499Y-82000000D01*
X134458499Y-81349456D01*
X134447887Y-81245574D01*
X134392115Y-81077262D01*
X134299030Y-80926348D01*
X134173652Y-80800970D01*
X134173648Y-80800967D01*
X134026690Y-80710322D01*
X133979965Y-80658374D01*
X133968744Y-80589412D01*
X133996587Y-80525330D01*
X134004084Y-80517125D01*
X134136206Y-80385004D01*
X134261894Y-80212009D01*
X134358972Y-80021483D01*
X134425049Y-79818116D01*
X134458500Y-79606916D01*
X134458500Y-79393084D01*
X134425049Y-79181884D01*
X134358972Y-78978517D01*
X134358972Y-78978516D01*
X134309507Y-78881438D01*
X134261894Y-78787991D01*
X134136206Y-78614996D01*
X133985004Y-78463794D01*
X133821586Y-78345064D01*
X133809969Y-78329999D01*
X149721127Y-78329999D01*
X149721128Y-78330000D01*
X150684314Y-78330000D01*
X150679920Y-78334394D01*
X150627259Y-78425606D01*
X150600000Y-78527339D01*
X150600000Y-78632661D01*
X150627259Y-78734394D01*
X150679920Y-78825606D01*
X150684314Y-78830000D01*
X149721128Y-78830000D01*
X149773730Y-79026317D01*
X149773734Y-79026326D01*
X149869865Y-79232482D01*
X150000342Y-79418820D01*
X150161179Y-79579657D01*
X150347517Y-79710134D01*
X150553673Y-79806265D01*
X150553682Y-79806269D01*
X150749999Y-79858872D01*
X150750000Y-79858871D01*
X150750000Y-78895686D01*
X150754394Y-78900080D01*
X150845606Y-78952741D01*
X150947339Y-78980000D01*
X151052661Y-78980000D01*
X151154394Y-78952741D01*
X151245606Y-78900080D01*
X151250000Y-78895686D01*
X151250000Y-79858872D01*
X151446317Y-79806269D01*
X151446326Y-79806265D01*
X151652482Y-79710134D01*
X151838820Y-79579657D01*
X151999657Y-79418820D01*
X152130134Y-79232482D01*
X152226265Y-79026326D01*
X152226269Y-79026317D01*
X152278872Y-78830000D01*
X151315686Y-78830000D01*
X151320080Y-78825606D01*
X151372741Y-78734394D01*
X151400000Y-78632661D01*
X151400000Y-78527339D01*
X151372741Y-78425606D01*
X151320080Y-78334394D01*
X151315686Y-78330000D01*
X152278872Y-78330000D01*
X152278872Y-78329999D01*
X152226269Y-78133682D01*
X152226265Y-78133673D01*
X152130134Y-77927517D01*
X151999657Y-77741179D01*
X151838820Y-77580342D01*
X151652482Y-77449865D01*
X151446328Y-77353734D01*
X151250000Y-77301127D01*
X151250000Y-78264314D01*
X151245606Y-78259920D01*
X151154394Y-78207259D01*
X151052661Y-78180000D01*
X150947339Y-78180000D01*
X150845606Y-78207259D01*
X150754394Y-78259920D01*
X150750000Y-78264314D01*
X150750000Y-77301127D01*
X150553671Y-77353734D01*
X150347517Y-77449865D01*
X150161179Y-77580342D01*
X150000342Y-77741179D01*
X149869865Y-77927517D01*
X149773734Y-78133673D01*
X149773730Y-78133682D01*
X149721127Y-78329999D01*
X133809969Y-78329999D01*
X133778921Y-78289734D01*
X133772942Y-78220121D01*
X133805548Y-78158326D01*
X133821587Y-78144428D01*
X133979459Y-78029727D01*
X133979464Y-78029723D01*
X134129723Y-77879464D01*
X134129727Y-77879459D01*
X134254620Y-77707557D01*
X134351095Y-77518217D01*
X134416757Y-77316129D01*
X134416757Y-77316126D01*
X134427231Y-77250000D01*
X133379146Y-77250000D01*
X133417630Y-77183343D01*
X133450000Y-77062535D01*
X133450000Y-76937465D01*
X133417630Y-76816657D01*
X133379146Y-76750000D01*
X134427231Y-76750000D01*
X134416757Y-76683873D01*
X134416757Y-76683870D01*
X134351095Y-76481782D01*
X134254620Y-76292442D01*
X134129727Y-76120540D01*
X134129723Y-76120535D01*
X134009186Y-75999998D01*
X138186502Y-75999998D01*
X138186502Y-76000001D01*
X138206456Y-76228081D01*
X138206457Y-76228089D01*
X138265714Y-76449238D01*
X138265718Y-76449249D01*
X138316136Y-76557370D01*
X138362477Y-76656749D01*
X138493802Y-76844300D01*
X138655700Y-77006198D01*
X138843251Y-77137523D01*
X138941513Y-77183343D01*
X139050750Y-77234281D01*
X139050752Y-77234281D01*
X139050757Y-77234284D01*
X139271913Y-77293543D01*
X139434832Y-77307796D01*
X139499998Y-77313498D01*
X139500000Y-77313498D01*
X139500002Y-77313498D01*
X139557021Y-77308509D01*
X139728087Y-77293543D01*
X139949243Y-77234284D01*
X140156749Y-77137523D01*
X140344300Y-77006198D01*
X140506198Y-76844300D01*
X140637523Y-76656749D01*
X140734284Y-76449243D01*
X140793543Y-76228087D01*
X140813498Y-76000000D01*
X140810897Y-75970276D01*
X140793543Y-75771918D01*
X140793543Y-75771913D01*
X140734284Y-75550757D01*
X140637523Y-75343251D01*
X140506198Y-75155700D01*
X140344300Y-74993802D01*
X140156749Y-74862477D01*
X140156745Y-74862475D01*
X139949249Y-74765718D01*
X139949238Y-74765714D01*
X139728089Y-74706457D01*
X139728081Y-74706456D01*
X139500002Y-74686502D01*
X139499998Y-74686502D01*
X139271918Y-74706456D01*
X139271910Y-74706457D01*
X139050761Y-74765714D01*
X139050750Y-74765718D01*
X138843254Y-74862475D01*
X138843252Y-74862476D01*
X138843251Y-74862477D01*
X138655700Y-74993802D01*
X138655698Y-74993803D01*
X138655695Y-74993806D01*
X138493806Y-75155695D01*
X138362476Y-75343252D01*
X138362475Y-75343254D01*
X138265718Y-75550750D01*
X138265714Y-75550761D01*
X138206457Y-75771910D01*
X138206456Y-75771918D01*
X138186502Y-75999998D01*
X134009186Y-75999998D01*
X133979464Y-75970276D01*
X133979459Y-75970272D01*
X133807557Y-75845379D01*
X133618217Y-75748904D01*
X133416128Y-75683242D01*
X133225000Y-75652969D01*
X133225000Y-76595854D01*
X133158343Y-76557370D01*
X133037535Y-76525000D01*
X132912465Y-76525000D01*
X132791657Y-76557370D01*
X132725000Y-76595854D01*
X132725000Y-75652969D01*
X132533872Y-75683242D01*
X132533869Y-75683242D01*
X132331782Y-75748904D01*
X132142442Y-75845379D01*
X131970540Y-75970272D01*
X131970535Y-75970276D01*
X131820276Y-76120535D01*
X131820272Y-76120540D01*
X131695379Y-76292442D01*
X131598904Y-76481782D01*
X131533242Y-76683870D01*
X131533242Y-76683873D01*
X131522769Y-76750000D01*
X132570854Y-76750000D01*
X132532370Y-76816657D01*
X132500000Y-76937465D01*
X132500000Y-77062535D01*
X132532370Y-77183343D01*
X132570854Y-77250000D01*
X131522769Y-77250000D01*
X131533242Y-77316126D01*
X131533242Y-77316129D01*
X131598904Y-77518217D01*
X131695379Y-77707557D01*
X131820272Y-77879459D01*
X131820276Y-77879464D01*
X131970535Y-78029723D01*
X131970540Y-78029727D01*
X132128412Y-78144428D01*
X132171078Y-78199758D01*
X132177057Y-78269371D01*
X132144451Y-78331166D01*
X132128413Y-78345064D01*
X132030769Y-78416006D01*
X131964996Y-78463794D01*
X131964994Y-78463796D01*
X131964993Y-78463796D01*
X131813796Y-78614993D01*
X131688106Y-78787990D01*
X131591027Y-78978516D01*
X131591026Y-78978519D01*
X131524951Y-79181882D01*
X131491500Y-79393084D01*
X100075500Y-79393084D01*
X100075500Y-70602155D01*
X108150000Y-70602155D01*
X108150000Y-71250000D01*
X109066988Y-71250000D01*
X109034075Y-71307007D01*
X109000000Y-71434174D01*
X109000000Y-71565826D01*
X109034075Y-71692993D01*
X109066988Y-71750000D01*
X108150000Y-71750000D01*
X108150000Y-72397844D01*
X108156401Y-72457372D01*
X108156403Y-72457379D01*
X108206645Y-72592086D01*
X108206649Y-72592093D01*
X108292809Y-72707187D01*
X108292812Y-72707190D01*
X108407906Y-72793350D01*
X108407913Y-72793354D01*
X108542620Y-72843596D01*
X108542627Y-72843598D01*
X108602155Y-72849999D01*
X108602172Y-72850000D01*
X109250000Y-72850000D01*
X109250000Y-71933012D01*
X109307007Y-71965925D01*
X109434174Y-72000000D01*
X109565826Y-72000000D01*
X109692993Y-71965925D01*
X109750000Y-71933012D01*
X109750000Y-72850000D01*
X110397828Y-72850000D01*
X110397844Y-72849999D01*
X110457372Y-72843598D01*
X110457379Y-72843596D01*
X110592086Y-72793354D01*
X110592093Y-72793350D01*
X110707187Y-72707190D01*
X110707190Y-72707187D01*
X110793350Y-72592093D01*
X110793354Y-72592086D01*
X110839681Y-72467877D01*
X110881552Y-72411943D01*
X110947016Y-72387526D01*
X111015289Y-72402377D01*
X111047089Y-72427223D01*
X111116760Y-72502906D01*
X111294424Y-72641189D01*
X111294425Y-72641189D01*
X111294427Y-72641191D01*
X111379000Y-72686959D01*
X111492426Y-72748342D01*
X111705365Y-72821444D01*
X111927431Y-72858500D01*
X112152569Y-72858500D01*
X112374635Y-72821444D01*
X112587574Y-72748342D01*
X112785576Y-72641189D01*
X112963240Y-72502906D01*
X113115722Y-72337268D01*
X113206193Y-72198790D01*
X113259338Y-72153437D01*
X113328569Y-72144013D01*
X113391905Y-72173515D01*
X113413804Y-72198787D01*
X113504278Y-72337268D01*
X113504283Y-72337273D01*
X113504284Y-72337276D01*
X113656756Y-72502902D01*
X113656760Y-72502906D01*
X113834424Y-72641189D01*
X113834425Y-72641189D01*
X113834427Y-72641191D01*
X113919000Y-72686959D01*
X114032426Y-72748342D01*
X114245365Y-72821444D01*
X114467431Y-72858500D01*
X114692569Y-72858500D01*
X114914635Y-72821444D01*
X115127574Y-72748342D01*
X115325576Y-72641189D01*
X115503240Y-72502906D01*
X115655722Y-72337268D01*
X115746193Y-72198790D01*
X115799338Y-72153437D01*
X115868569Y-72144013D01*
X115931905Y-72173515D01*
X115953804Y-72198787D01*
X116044278Y-72337268D01*
X116044283Y-72337273D01*
X116044284Y-72337276D01*
X116196756Y-72502902D01*
X116196760Y-72502906D01*
X116374424Y-72641189D01*
X116374425Y-72641189D01*
X116374427Y-72641191D01*
X116459000Y-72686959D01*
X116572426Y-72748342D01*
X116785365Y-72821444D01*
X117007431Y-72858500D01*
X117232569Y-72858500D01*
X117454635Y-72821444D01*
X117667574Y-72748342D01*
X117865576Y-72641189D01*
X118043240Y-72502906D01*
X118195722Y-72337268D01*
X118318860Y-72148791D01*
X118349035Y-72079998D01*
X129686502Y-72079998D01*
X129686502Y-72080001D01*
X129706456Y-72308081D01*
X129706457Y-72308089D01*
X129765714Y-72529238D01*
X129765718Y-72529249D01*
X129862475Y-72736745D01*
X129862477Y-72736749D01*
X129993802Y-72924300D01*
X130155700Y-73086198D01*
X130343251Y-73217523D01*
X130384407Y-73236714D01*
X130550750Y-73314281D01*
X130550752Y-73314281D01*
X130550757Y-73314284D01*
X130771913Y-73373543D01*
X130934832Y-73387796D01*
X130999998Y-73393498D01*
X131000000Y-73393498D01*
X131000002Y-73393498D01*
X131057021Y-73388509D01*
X131228087Y-73373543D01*
X131449243Y-73314284D01*
X131656749Y-73217523D01*
X131844300Y-73086198D01*
X132006198Y-72924300D01*
X132137523Y-72736749D01*
X132234284Y-72529243D01*
X132293543Y-72308087D01*
X132313498Y-72080000D01*
X132293543Y-71851913D01*
X132279633Y-71799999D01*
X135931127Y-71799999D01*
X135931128Y-71800000D01*
X136894314Y-71800000D01*
X136889920Y-71804394D01*
X136837259Y-71895606D01*
X136810000Y-71997339D01*
X136810000Y-72102661D01*
X136837259Y-72204394D01*
X136889920Y-72295606D01*
X136894314Y-72300000D01*
X135931128Y-72300000D01*
X135983730Y-72496317D01*
X135983734Y-72496326D01*
X136079865Y-72702482D01*
X136210342Y-72888820D01*
X136371179Y-73049657D01*
X136557517Y-73180134D01*
X136763673Y-73276265D01*
X136763682Y-73276269D01*
X136959999Y-73328872D01*
X136960000Y-73328871D01*
X136960000Y-72365686D01*
X136964394Y-72370080D01*
X137055606Y-72422741D01*
X137157339Y-72450000D01*
X137262661Y-72450000D01*
X137364394Y-72422741D01*
X137455606Y-72370080D01*
X137460000Y-72365686D01*
X137460000Y-73328872D01*
X137656317Y-73276269D01*
X137656326Y-73276265D01*
X137862482Y-73180134D01*
X138048820Y-73049657D01*
X138209657Y-72888820D01*
X138340134Y-72702482D01*
X138436265Y-72496326D01*
X138436269Y-72496317D01*
X138488872Y-72300000D01*
X137525686Y-72300000D01*
X137530080Y-72295606D01*
X137582741Y-72204394D01*
X137610000Y-72102661D01*
X137610000Y-72000000D01*
X138986835Y-72000000D01*
X139005465Y-72236714D01*
X139060895Y-72467595D01*
X139060895Y-72467597D01*
X139151757Y-72686959D01*
X139151759Y-72686962D01*
X139275820Y-72889410D01*
X139275821Y-72889413D01*
X139275824Y-72889416D01*
X139430031Y-73069969D01*
X139559018Y-73180134D01*
X139610586Y-73224178D01*
X139610589Y-73224179D01*
X139813037Y-73348240D01*
X139813040Y-73348242D01*
X140032403Y-73439104D01*
X140032404Y-73439104D01*
X140032406Y-73439105D01*
X140263289Y-73494535D01*
X140500000Y-73513165D01*
X140736711Y-73494535D01*
X140967594Y-73439105D01*
X140967596Y-73439104D01*
X140967597Y-73439104D01*
X141186959Y-73348242D01*
X141186960Y-73348241D01*
X141186963Y-73348240D01*
X141389416Y-73224176D01*
X141569969Y-73069969D01*
X141724176Y-72889416D01*
X141848240Y-72686963D01*
X141867200Y-72641191D01*
X141939104Y-72467597D01*
X141939104Y-72467596D01*
X141939105Y-72467594D01*
X141994535Y-72236711D01*
X142013165Y-72000000D01*
X145486835Y-72000000D01*
X145505465Y-72236714D01*
X145560895Y-72467595D01*
X145560895Y-72467597D01*
X145651757Y-72686959D01*
X145651759Y-72686962D01*
X145775820Y-72889410D01*
X145775821Y-72889413D01*
X145775824Y-72889416D01*
X145930031Y-73069969D01*
X146059018Y-73180134D01*
X146110586Y-73224178D01*
X146110589Y-73224179D01*
X146313037Y-73348240D01*
X146313040Y-73348242D01*
X146532403Y-73439104D01*
X146532404Y-73439104D01*
X146532406Y-73439105D01*
X146763289Y-73494535D01*
X147000000Y-73513165D01*
X147236711Y-73494535D01*
X147467594Y-73439105D01*
X147467596Y-73439104D01*
X147467597Y-73439104D01*
X147686959Y-73348242D01*
X147686960Y-73348241D01*
X147686963Y-73348240D01*
X147889416Y-73224176D01*
X148069969Y-73069969D01*
X148129728Y-73000000D01*
X152486835Y-73000000D01*
X152505465Y-73236714D01*
X152560895Y-73467595D01*
X152560895Y-73467597D01*
X152651757Y-73686959D01*
X152651759Y-73686962D01*
X152775820Y-73889410D01*
X152775821Y-73889413D01*
X152775824Y-73889416D01*
X152930031Y-74069969D01*
X153069797Y-74189340D01*
X153110586Y-74224178D01*
X153110589Y-74224179D01*
X153313037Y-74348240D01*
X153313040Y-74348242D01*
X153532403Y-74439104D01*
X153532404Y-74439104D01*
X153532406Y-74439105D01*
X153763289Y-74494535D01*
X154000000Y-74513165D01*
X154236711Y-74494535D01*
X154467594Y-74439105D01*
X154467596Y-74439104D01*
X154467597Y-74439104D01*
X154686959Y-74348242D01*
X154686960Y-74348241D01*
X154686963Y-74348240D01*
X154889416Y-74224176D01*
X155069969Y-74069969D01*
X155224176Y-73889416D01*
X155348240Y-73686963D01*
X155420230Y-73513164D01*
X155439104Y-73467597D01*
X155439104Y-73467596D01*
X155439105Y-73467594D01*
X155494535Y-73236711D01*
X155513165Y-73000000D01*
X158986835Y-73000000D01*
X159005465Y-73236714D01*
X159060895Y-73467595D01*
X159060895Y-73467597D01*
X159151757Y-73686959D01*
X159151759Y-73686962D01*
X159275820Y-73889410D01*
X159275821Y-73889413D01*
X159275824Y-73889416D01*
X159430031Y-74069969D01*
X159569797Y-74189340D01*
X159610586Y-74224178D01*
X159610589Y-74224179D01*
X159813037Y-74348240D01*
X159813040Y-74348242D01*
X160032403Y-74439104D01*
X160032404Y-74439104D01*
X160032406Y-74439105D01*
X160263289Y-74494535D01*
X160500000Y-74513165D01*
X160736711Y-74494535D01*
X160967594Y-74439105D01*
X160967596Y-74439104D01*
X160967597Y-74439104D01*
X161186959Y-74348242D01*
X161186960Y-74348241D01*
X161186963Y-74348240D01*
X161389416Y-74224176D01*
X161569969Y-74069969D01*
X161724176Y-73889416D01*
X161848240Y-73686963D01*
X161920230Y-73513164D01*
X161939104Y-73467597D01*
X161939104Y-73467596D01*
X161939105Y-73467594D01*
X161994535Y-73236711D01*
X162013165Y-73000000D01*
X161994535Y-72763289D01*
X161939105Y-72532406D01*
X161939104Y-72532403D01*
X161939104Y-72532402D01*
X161848242Y-72313040D01*
X161848240Y-72313037D01*
X161724179Y-72110589D01*
X161724178Y-72110586D01*
X161629728Y-72000000D01*
X161569969Y-71930031D01*
X161422867Y-71804394D01*
X161389413Y-71775821D01*
X161389410Y-71775820D01*
X161186962Y-71651759D01*
X161186959Y-71651757D01*
X160967596Y-71560895D01*
X160736714Y-71505465D01*
X160500000Y-71486835D01*
X160263285Y-71505465D01*
X160032404Y-71560895D01*
X160032402Y-71560895D01*
X159813040Y-71651757D01*
X159813037Y-71651759D01*
X159610589Y-71775820D01*
X159610586Y-71775821D01*
X159430031Y-71930031D01*
X159275821Y-72110586D01*
X159275820Y-72110589D01*
X159151759Y-72313037D01*
X159151757Y-72313040D01*
X159060895Y-72532402D01*
X159060895Y-72532404D01*
X159005465Y-72763285D01*
X158986835Y-73000000D01*
X155513165Y-73000000D01*
X155494535Y-72763289D01*
X155439105Y-72532406D01*
X155439104Y-72532403D01*
X155439104Y-72532402D01*
X155348242Y-72313040D01*
X155348240Y-72313037D01*
X155224179Y-72110589D01*
X155224178Y-72110586D01*
X155129728Y-72000000D01*
X155069969Y-71930031D01*
X154922867Y-71804394D01*
X154889413Y-71775821D01*
X154889410Y-71775820D01*
X154686962Y-71651759D01*
X154686959Y-71651757D01*
X154467596Y-71560895D01*
X154236714Y-71505465D01*
X154000000Y-71486835D01*
X153763285Y-71505465D01*
X153532404Y-71560895D01*
X153532402Y-71560895D01*
X153313040Y-71651757D01*
X153313037Y-71651759D01*
X153110589Y-71775820D01*
X153110586Y-71775821D01*
X152930031Y-71930031D01*
X152775821Y-72110586D01*
X152775820Y-72110589D01*
X152651759Y-72313037D01*
X152651757Y-72313040D01*
X152560895Y-72532402D01*
X152560895Y-72532404D01*
X152505465Y-72763285D01*
X152486835Y-73000000D01*
X148129728Y-73000000D01*
X148224176Y-72889416D01*
X148348240Y-72686963D01*
X148367200Y-72641191D01*
X148439104Y-72467597D01*
X148439104Y-72467596D01*
X148439105Y-72467594D01*
X148494535Y-72236711D01*
X148513165Y-72000000D01*
X148494535Y-71763289D01*
X148439105Y-71532406D01*
X148439104Y-71532403D01*
X148439104Y-71532402D01*
X148348242Y-71313040D01*
X148348240Y-71313037D01*
X148300848Y-71235700D01*
X148224178Y-71110588D01*
X148224178Y-71110586D01*
X148129728Y-71000000D01*
X148069969Y-70930031D01*
X147945511Y-70823734D01*
X147889413Y-70775821D01*
X147889410Y-70775820D01*
X147686962Y-70651759D01*
X147686959Y-70651757D01*
X147467596Y-70560895D01*
X147236714Y-70505465D01*
X147000000Y-70486835D01*
X146763285Y-70505465D01*
X146532404Y-70560895D01*
X146532402Y-70560895D01*
X146313040Y-70651757D01*
X146313037Y-70651759D01*
X146110589Y-70775820D01*
X146110586Y-70775821D01*
X145930031Y-70930031D01*
X145775821Y-71110586D01*
X145775820Y-71110589D01*
X145651759Y-71313037D01*
X145651757Y-71313040D01*
X145560895Y-71532402D01*
X145560895Y-71532404D01*
X145505465Y-71763285D01*
X145486835Y-72000000D01*
X142013165Y-72000000D01*
X141994535Y-71763289D01*
X141939105Y-71532406D01*
X141939104Y-71532403D01*
X141939104Y-71532402D01*
X141848242Y-71313040D01*
X141848240Y-71313037D01*
X141800848Y-71235700D01*
X141724178Y-71110588D01*
X141724178Y-71110586D01*
X141629728Y-71000000D01*
X141569969Y-70930031D01*
X141445511Y-70823734D01*
X141389413Y-70775821D01*
X141389410Y-70775820D01*
X141186962Y-70651759D01*
X141186959Y-70651757D01*
X140967596Y-70560895D01*
X140736714Y-70505465D01*
X140500000Y-70486835D01*
X140263285Y-70505465D01*
X140032404Y-70560895D01*
X140032402Y-70560895D01*
X139813040Y-70651757D01*
X139813037Y-70651759D01*
X139610589Y-70775820D01*
X139610586Y-70775821D01*
X139430031Y-70930031D01*
X139275821Y-71110586D01*
X139275820Y-71110589D01*
X139151759Y-71313037D01*
X139151757Y-71313040D01*
X139060895Y-71532402D01*
X139060895Y-71532404D01*
X139005465Y-71763285D01*
X138986835Y-72000000D01*
X137610000Y-72000000D01*
X137610000Y-71997339D01*
X137582741Y-71895606D01*
X137530080Y-71804394D01*
X137525686Y-71800000D01*
X138488872Y-71800000D01*
X138488872Y-71799999D01*
X138436269Y-71603682D01*
X138436265Y-71603673D01*
X138340134Y-71397517D01*
X138209657Y-71211179D01*
X138048820Y-71050342D01*
X137862482Y-70919865D01*
X137656328Y-70823734D01*
X137460000Y-70771127D01*
X137460000Y-71734314D01*
X137455606Y-71729920D01*
X137364394Y-71677259D01*
X137262661Y-71650000D01*
X137157339Y-71650000D01*
X137055606Y-71677259D01*
X136964394Y-71729920D01*
X136960000Y-71734314D01*
X136960000Y-70771127D01*
X136763671Y-70823734D01*
X136557517Y-70919865D01*
X136371179Y-71050342D01*
X136210342Y-71211179D01*
X136079865Y-71397517D01*
X135983734Y-71603673D01*
X135983730Y-71603682D01*
X135931127Y-71799999D01*
X132279633Y-71799999D01*
X132234284Y-71630757D01*
X132137523Y-71423251D01*
X132006198Y-71235700D01*
X131844300Y-71073802D01*
X131656749Y-70942477D01*
X131656745Y-70942475D01*
X131449249Y-70845718D01*
X131449238Y-70845714D01*
X131228089Y-70786457D01*
X131228081Y-70786456D01*
X131000002Y-70766502D01*
X130999998Y-70766502D01*
X130771918Y-70786456D01*
X130771910Y-70786457D01*
X130550761Y-70845714D01*
X130550750Y-70845718D01*
X130343254Y-70942475D01*
X130343252Y-70942476D01*
X130343251Y-70942477D01*
X130155700Y-71073802D01*
X130155698Y-71073803D01*
X130155695Y-71073806D01*
X129993806Y-71235695D01*
X129993803Y-71235698D01*
X129993802Y-71235700D01*
X129965836Y-71275640D01*
X129862476Y-71423252D01*
X129862475Y-71423254D01*
X129765718Y-71630750D01*
X129765714Y-71630761D01*
X129706457Y-71851910D01*
X129706456Y-71851918D01*
X129686502Y-72079998D01*
X118349035Y-72079998D01*
X118409296Y-71942616D01*
X118464564Y-71724368D01*
X118470581Y-71651757D01*
X118483156Y-71500005D01*
X118483156Y-71499994D01*
X118464565Y-71275640D01*
X118464563Y-71275628D01*
X118422769Y-71110589D01*
X118409296Y-71057384D01*
X118318860Y-70851209D01*
X118315271Y-70845716D01*
X118195723Y-70662734D01*
X118195715Y-70662723D01*
X118043243Y-70497097D01*
X118043238Y-70497092D01*
X117865577Y-70358812D01*
X117865572Y-70358808D01*
X117667580Y-70251661D01*
X117667577Y-70251659D01*
X117667574Y-70251658D01*
X117667571Y-70251657D01*
X117667569Y-70251656D01*
X117454637Y-70178556D01*
X117232569Y-70141500D01*
X117007431Y-70141500D01*
X116785362Y-70178556D01*
X116572430Y-70251656D01*
X116572419Y-70251661D01*
X116374427Y-70358808D01*
X116374422Y-70358812D01*
X116196761Y-70497092D01*
X116196756Y-70497097D01*
X116044284Y-70662723D01*
X116044276Y-70662734D01*
X115953808Y-70801206D01*
X115900662Y-70846562D01*
X115831431Y-70855986D01*
X115768095Y-70826484D01*
X115746192Y-70801206D01*
X115655723Y-70662734D01*
X115655715Y-70662723D01*
X115503243Y-70497097D01*
X115503238Y-70497092D01*
X115325577Y-70358812D01*
X115325572Y-70358808D01*
X115127580Y-70251661D01*
X115127577Y-70251659D01*
X115127574Y-70251658D01*
X115127571Y-70251657D01*
X115127569Y-70251656D01*
X114914637Y-70178556D01*
X114692569Y-70141500D01*
X114467431Y-70141500D01*
X114245362Y-70178556D01*
X114032430Y-70251656D01*
X114032419Y-70251661D01*
X113834427Y-70358808D01*
X113834422Y-70358812D01*
X113656761Y-70497092D01*
X113656756Y-70497097D01*
X113504284Y-70662723D01*
X113504276Y-70662734D01*
X113413808Y-70801206D01*
X113360662Y-70846562D01*
X113291431Y-70855986D01*
X113228095Y-70826484D01*
X113206192Y-70801206D01*
X113115723Y-70662734D01*
X113115715Y-70662723D01*
X112963243Y-70497097D01*
X112963238Y-70497092D01*
X112785577Y-70358812D01*
X112785572Y-70358808D01*
X112587580Y-70251661D01*
X112587577Y-70251659D01*
X112587574Y-70251658D01*
X112587571Y-70251657D01*
X112587569Y-70251656D01*
X112374637Y-70178556D01*
X112152569Y-70141500D01*
X111927431Y-70141500D01*
X111705362Y-70178556D01*
X111492430Y-70251656D01*
X111492419Y-70251661D01*
X111294427Y-70358808D01*
X111294422Y-70358812D01*
X111116761Y-70497092D01*
X111047092Y-70572773D01*
X110987205Y-70608763D01*
X110917367Y-70606662D01*
X110859751Y-70567137D01*
X110839681Y-70532122D01*
X110793354Y-70407913D01*
X110793350Y-70407906D01*
X110707190Y-70292812D01*
X110707187Y-70292809D01*
X110592093Y-70206649D01*
X110592086Y-70206645D01*
X110457379Y-70156403D01*
X110457372Y-70156401D01*
X110397844Y-70150000D01*
X109750000Y-70150000D01*
X109750000Y-71066988D01*
X109692993Y-71034075D01*
X109565826Y-71000000D01*
X109434174Y-71000000D01*
X109307007Y-71034075D01*
X109250000Y-71066988D01*
X109250000Y-70150000D01*
X108602155Y-70150000D01*
X108542627Y-70156401D01*
X108542620Y-70156403D01*
X108407913Y-70206645D01*
X108407906Y-70206649D01*
X108292812Y-70292809D01*
X108292809Y-70292812D01*
X108206649Y-70407906D01*
X108206645Y-70407913D01*
X108156403Y-70542620D01*
X108156401Y-70542627D01*
X108150000Y-70602155D01*
X100075500Y-70602155D01*
X100075500Y-65601345D01*
X103941500Y-65601345D01*
X103941500Y-67398654D01*
X103948011Y-67459202D01*
X103948011Y-67459204D01*
X103991461Y-67575695D01*
X103999111Y-67596204D01*
X104086739Y-67713261D01*
X104203796Y-67800889D01*
X104340799Y-67851989D01*
X104368050Y-67854918D01*
X104401345Y-67858499D01*
X104401362Y-67858500D01*
X106198638Y-67858500D01*
X106198654Y-67858499D01*
X106225692Y-67855591D01*
X106259201Y-67851989D01*
X106396204Y-67800889D01*
X106513261Y-67713261D01*
X106600889Y-67596204D01*
X106649223Y-67466615D01*
X106691093Y-67410686D01*
X106756557Y-67386269D01*
X106824830Y-67401121D01*
X106853084Y-67422272D01*
X106968917Y-67538105D01*
X107162421Y-67673600D01*
X107376507Y-67773429D01*
X107376516Y-67773433D01*
X107590000Y-67830634D01*
X107590000Y-66933012D01*
X107647007Y-66965925D01*
X107774174Y-67000000D01*
X107905826Y-67000000D01*
X108032993Y-66965925D01*
X108090000Y-66933012D01*
X108090000Y-67830633D01*
X108303483Y-67773433D01*
X108303492Y-67773429D01*
X108517578Y-67673600D01*
X108711082Y-67538105D01*
X108878105Y-67371082D01*
X109004868Y-67190048D01*
X109059445Y-67146423D01*
X109128944Y-67139231D01*
X109191298Y-67170753D01*
X109210251Y-67193350D01*
X109304276Y-67337265D01*
X109304284Y-67337276D01*
X109456756Y-67502902D01*
X109456760Y-67502906D01*
X109634424Y-67641189D01*
X109634425Y-67641189D01*
X109634427Y-67641191D01*
X109694314Y-67673600D01*
X109832426Y-67748342D01*
X110045365Y-67821444D01*
X110267431Y-67858500D01*
X110492569Y-67858500D01*
X110714635Y-67821444D01*
X110927574Y-67748342D01*
X111125576Y-67641189D01*
X111303240Y-67502906D01*
X111455722Y-67337268D01*
X111546193Y-67198790D01*
X111599338Y-67153437D01*
X111668569Y-67144013D01*
X111731905Y-67173515D01*
X111753804Y-67198787D01*
X111844278Y-67337268D01*
X111844283Y-67337273D01*
X111844284Y-67337276D01*
X111996756Y-67502902D01*
X111996760Y-67502906D01*
X112174424Y-67641189D01*
X112174425Y-67641189D01*
X112174427Y-67641191D01*
X112234314Y-67673600D01*
X112372426Y-67748342D01*
X112585365Y-67821444D01*
X112807431Y-67858500D01*
X113032569Y-67858500D01*
X113254635Y-67821444D01*
X113467574Y-67748342D01*
X113665576Y-67641189D01*
X113843240Y-67502906D01*
X113995722Y-67337268D01*
X114086193Y-67198790D01*
X114139338Y-67153437D01*
X114208569Y-67144013D01*
X114271905Y-67173515D01*
X114293804Y-67198787D01*
X114384278Y-67337268D01*
X114384283Y-67337273D01*
X114384284Y-67337276D01*
X114536756Y-67502902D01*
X114536760Y-67502906D01*
X114714424Y-67641189D01*
X114714425Y-67641189D01*
X114714427Y-67641191D01*
X114774314Y-67673600D01*
X114912426Y-67748342D01*
X115125365Y-67821444D01*
X115347431Y-67858500D01*
X115572569Y-67858500D01*
X115794635Y-67821444D01*
X116007574Y-67748342D01*
X116205576Y-67641189D01*
X116383240Y-67502906D01*
X116535722Y-67337268D01*
X116626193Y-67198790D01*
X116679338Y-67153437D01*
X116748569Y-67144013D01*
X116811905Y-67173515D01*
X116833804Y-67198787D01*
X116924278Y-67337268D01*
X116924283Y-67337273D01*
X116924284Y-67337276D01*
X117076756Y-67502902D01*
X117076760Y-67502906D01*
X117254424Y-67641189D01*
X117254425Y-67641189D01*
X117254427Y-67641191D01*
X117314314Y-67673600D01*
X117452426Y-67748342D01*
X117665365Y-67821444D01*
X117887431Y-67858500D01*
X118112569Y-67858500D01*
X118334635Y-67821444D01*
X118547574Y-67748342D01*
X118745576Y-67641189D01*
X118923240Y-67502906D01*
X119075722Y-67337268D01*
X119166193Y-67198790D01*
X119219338Y-67153437D01*
X119288569Y-67144013D01*
X119351905Y-67173515D01*
X119373804Y-67198787D01*
X119464278Y-67337268D01*
X119464283Y-67337273D01*
X119464284Y-67337276D01*
X119616756Y-67502902D01*
X119616760Y-67502906D01*
X119794424Y-67641189D01*
X119794425Y-67641189D01*
X119794427Y-67641191D01*
X119854314Y-67673600D01*
X119992426Y-67748342D01*
X120205365Y-67821444D01*
X120427431Y-67858500D01*
X120652569Y-67858500D01*
X120874635Y-67821444D01*
X121087574Y-67748342D01*
X121285576Y-67641189D01*
X121463240Y-67502906D01*
X121615722Y-67337268D01*
X121706193Y-67198790D01*
X121759338Y-67153437D01*
X121828569Y-67144013D01*
X121891905Y-67173515D01*
X121913804Y-67198787D01*
X122004278Y-67337268D01*
X122004283Y-67337273D01*
X122004284Y-67337276D01*
X122156756Y-67502902D01*
X122156760Y-67502906D01*
X122334424Y-67641189D01*
X122334425Y-67641189D01*
X122334427Y-67641191D01*
X122394314Y-67673600D01*
X122532426Y-67748342D01*
X122745365Y-67821444D01*
X122967431Y-67858500D01*
X123192569Y-67858500D01*
X123414635Y-67821444D01*
X123627574Y-67748342D01*
X123825576Y-67641189D01*
X124003240Y-67502906D01*
X124005915Y-67500000D01*
X138986835Y-67500000D01*
X139005465Y-67736714D01*
X139060895Y-67967595D01*
X139060895Y-67967597D01*
X139151757Y-68186959D01*
X139151759Y-68186962D01*
X139275820Y-68389410D01*
X139275821Y-68389413D01*
X139301945Y-68420000D01*
X139430031Y-68569969D01*
X139521498Y-68648089D01*
X139610586Y-68724178D01*
X139610589Y-68724179D01*
X139813037Y-68848240D01*
X139813040Y-68848242D01*
X140032403Y-68939104D01*
X140032404Y-68939104D01*
X140032406Y-68939105D01*
X140263289Y-68994535D01*
X140500000Y-69013165D01*
X140736711Y-68994535D01*
X140967594Y-68939105D01*
X140967596Y-68939104D01*
X140967597Y-68939104D01*
X141186959Y-68848242D01*
X141186960Y-68848241D01*
X141186963Y-68848240D01*
X141389416Y-68724176D01*
X141569969Y-68569969D01*
X141724176Y-68389416D01*
X141848240Y-68186963D01*
X141939105Y-67967594D01*
X141994535Y-67736711D01*
X142013165Y-67500000D01*
X145486835Y-67500000D01*
X145505465Y-67736714D01*
X145560895Y-67967595D01*
X145560895Y-67967597D01*
X145651757Y-68186959D01*
X145651759Y-68186962D01*
X145775820Y-68389410D01*
X145775821Y-68389413D01*
X145801945Y-68420000D01*
X145930031Y-68569969D01*
X146021498Y-68648089D01*
X146110586Y-68724178D01*
X146110589Y-68724179D01*
X146313037Y-68848240D01*
X146313040Y-68848242D01*
X146532403Y-68939104D01*
X146532404Y-68939104D01*
X146532406Y-68939105D01*
X146763289Y-68994535D01*
X147000000Y-69013165D01*
X147236711Y-68994535D01*
X147467594Y-68939105D01*
X147467596Y-68939104D01*
X147467597Y-68939104D01*
X147686959Y-68848242D01*
X147686960Y-68848241D01*
X147686963Y-68848240D01*
X147889416Y-68724176D01*
X148069969Y-68569969D01*
X148198056Y-68419998D01*
X149686502Y-68419998D01*
X149686502Y-68420001D01*
X149706456Y-68648081D01*
X149706457Y-68648089D01*
X149765714Y-68869238D01*
X149765718Y-68869249D01*
X149824140Y-68994535D01*
X149862477Y-69076749D01*
X149993802Y-69264300D01*
X150155700Y-69426198D01*
X150343251Y-69557523D01*
X150369940Y-69569968D01*
X150550750Y-69654281D01*
X150550752Y-69654281D01*
X150550757Y-69654284D01*
X150771913Y-69713543D01*
X150934832Y-69727796D01*
X150999998Y-69733498D01*
X151000000Y-69733498D01*
X151000002Y-69733498D01*
X151057021Y-69728509D01*
X151228087Y-69713543D01*
X151449243Y-69654284D01*
X151656749Y-69557523D01*
X151844300Y-69426198D01*
X152006198Y-69264300D01*
X152137523Y-69076749D01*
X152234284Y-68869243D01*
X152267726Y-68744435D01*
X152304091Y-68684775D01*
X152366938Y-68654246D01*
X152436313Y-68662541D01*
X152490191Y-68707026D01*
X152508075Y-68747582D01*
X152560895Y-68967595D01*
X152560895Y-68967597D01*
X152651757Y-69186959D01*
X152651759Y-69186962D01*
X152775820Y-69389410D01*
X152775821Y-69389413D01*
X152807239Y-69426198D01*
X152930031Y-69569969D01*
X153069797Y-69689340D01*
X153110586Y-69724178D01*
X153110589Y-69724179D01*
X153313037Y-69848240D01*
X153313040Y-69848242D01*
X153532403Y-69939104D01*
X153532404Y-69939104D01*
X153532406Y-69939105D01*
X153763289Y-69994535D01*
X154000000Y-70013165D01*
X154236711Y-69994535D01*
X154467594Y-69939105D01*
X154467596Y-69939104D01*
X154467597Y-69939104D01*
X154686959Y-69848242D01*
X154686960Y-69848241D01*
X154686963Y-69848240D01*
X154889416Y-69724176D01*
X155069969Y-69569969D01*
X155224176Y-69389416D01*
X155348240Y-69186963D01*
X155393894Y-69076745D01*
X155439104Y-68967597D01*
X155439104Y-68967596D01*
X155439105Y-68967594D01*
X155494535Y-68736711D01*
X155513165Y-68500000D01*
X158986835Y-68500000D01*
X159005465Y-68736714D01*
X159060895Y-68967595D01*
X159060895Y-68967597D01*
X159151757Y-69186959D01*
X159151759Y-69186962D01*
X159275820Y-69389410D01*
X159275821Y-69389413D01*
X159307239Y-69426198D01*
X159430031Y-69569969D01*
X159569797Y-69689340D01*
X159610586Y-69724178D01*
X159610589Y-69724179D01*
X159813037Y-69848240D01*
X159813040Y-69848242D01*
X160032403Y-69939104D01*
X160032404Y-69939104D01*
X160032406Y-69939105D01*
X160263289Y-69994535D01*
X160500000Y-70013165D01*
X160736711Y-69994535D01*
X160967594Y-69939105D01*
X160967596Y-69939104D01*
X160967597Y-69939104D01*
X161186959Y-69848242D01*
X161186960Y-69848241D01*
X161186963Y-69848240D01*
X161389416Y-69724176D01*
X161569969Y-69569969D01*
X161724176Y-69389416D01*
X161848240Y-69186963D01*
X161893894Y-69076745D01*
X161939104Y-68967597D01*
X161939104Y-68967596D01*
X161939105Y-68967594D01*
X161994535Y-68736711D01*
X162013165Y-68500000D01*
X161994535Y-68263289D01*
X161939105Y-68032406D01*
X161939104Y-68032403D01*
X161939104Y-68032402D01*
X161848242Y-67813040D01*
X161848240Y-67813037D01*
X161840795Y-67800888D01*
X161724178Y-67610588D01*
X161724178Y-67610586D01*
X161632210Y-67502906D01*
X161569969Y-67430031D01*
X161397206Y-67282477D01*
X161389413Y-67275821D01*
X161389410Y-67275820D01*
X161186962Y-67151759D01*
X161186959Y-67151757D01*
X160967596Y-67060895D01*
X160736714Y-67005465D01*
X160500000Y-66986835D01*
X160263285Y-67005465D01*
X160032404Y-67060895D01*
X160032402Y-67060895D01*
X159813040Y-67151757D01*
X159813037Y-67151759D01*
X159610589Y-67275820D01*
X159610586Y-67275821D01*
X159430031Y-67430031D01*
X159275821Y-67610586D01*
X159275820Y-67610589D01*
X159151759Y-67813037D01*
X159151757Y-67813040D01*
X159060895Y-68032402D01*
X159060895Y-68032404D01*
X159005465Y-68263285D01*
X158986835Y-68500000D01*
X155513165Y-68500000D01*
X155494535Y-68263289D01*
X155439105Y-68032406D01*
X155439104Y-68032403D01*
X155439104Y-68032402D01*
X155348242Y-67813040D01*
X155348240Y-67813037D01*
X155340795Y-67800888D01*
X155224178Y-67610588D01*
X155224178Y-67610586D01*
X155132210Y-67502906D01*
X155069969Y-67430031D01*
X154897206Y-67282477D01*
X154889413Y-67275821D01*
X154889410Y-67275820D01*
X154686962Y-67151759D01*
X154686959Y-67151757D01*
X154467596Y-67060895D01*
X154236714Y-67005465D01*
X154000000Y-66986835D01*
X153763285Y-67005465D01*
X153532404Y-67060895D01*
X153532402Y-67060895D01*
X153313040Y-67151757D01*
X153313037Y-67151759D01*
X153110589Y-67275820D01*
X153110586Y-67275821D01*
X152930031Y-67430031D01*
X152775821Y-67610586D01*
X152775820Y-67610589D01*
X152651759Y-67813037D01*
X152651757Y-67813040D01*
X152560895Y-68032402D01*
X152560895Y-68032404D01*
X152528335Y-68168028D01*
X152493544Y-68228620D01*
X152431518Y-68260784D01*
X152361949Y-68254308D01*
X152306925Y-68211248D01*
X152287986Y-68171175D01*
X152234285Y-67970761D01*
X152234281Y-67970750D01*
X152181938Y-67858500D01*
X152137523Y-67763251D01*
X152006198Y-67575700D01*
X151844300Y-67413802D01*
X151656749Y-67282477D01*
X151642473Y-67275820D01*
X151449249Y-67185718D01*
X151449238Y-67185714D01*
X151228089Y-67126457D01*
X151228081Y-67126456D01*
X151000002Y-67106502D01*
X150999998Y-67106502D01*
X150771918Y-67126456D01*
X150771910Y-67126457D01*
X150550761Y-67185714D01*
X150550750Y-67185718D01*
X150343254Y-67282475D01*
X150343252Y-67282476D01*
X150343251Y-67282477D01*
X150155700Y-67413802D01*
X150155698Y-67413803D01*
X150155695Y-67413806D01*
X149993806Y-67575695D01*
X149993803Y-67575698D01*
X149993802Y-67575700D01*
X149911767Y-67692856D01*
X149862476Y-67763252D01*
X149862475Y-67763254D01*
X149765718Y-67970750D01*
X149765714Y-67970761D01*
X149706457Y-68191910D01*
X149706456Y-68191918D01*
X149686502Y-68419998D01*
X148198056Y-68419998D01*
X148224176Y-68389416D01*
X148348240Y-68186963D01*
X148439105Y-67967594D01*
X148494535Y-67736711D01*
X148513165Y-67500000D01*
X148494535Y-67263289D01*
X148439105Y-67032406D01*
X148439104Y-67032403D01*
X148439104Y-67032402D01*
X148348242Y-66813040D01*
X148348240Y-66813037D01*
X148224179Y-66610589D01*
X148224178Y-66610586D01*
X148185949Y-66565826D01*
X148069969Y-66430031D01*
X147925927Y-66307007D01*
X147889413Y-66275821D01*
X147889410Y-66275820D01*
X147686962Y-66151759D01*
X147686959Y-66151757D01*
X147467596Y-66060895D01*
X147236714Y-66005465D01*
X147000000Y-65986835D01*
X146763285Y-66005465D01*
X146532404Y-66060895D01*
X146532402Y-66060895D01*
X146313040Y-66151757D01*
X146313037Y-66151759D01*
X146110589Y-66275820D01*
X146110586Y-66275821D01*
X145930031Y-66430031D01*
X145775821Y-66610586D01*
X145775820Y-66610589D01*
X145651759Y-66813037D01*
X145651757Y-66813040D01*
X145560895Y-67032402D01*
X145560895Y-67032404D01*
X145505465Y-67263285D01*
X145486835Y-67500000D01*
X142013165Y-67500000D01*
X141994535Y-67263289D01*
X141939105Y-67032406D01*
X141939104Y-67032403D01*
X141939104Y-67032402D01*
X141848242Y-66813040D01*
X141848240Y-66813037D01*
X141724179Y-66610589D01*
X141724178Y-66610586D01*
X141685949Y-66565826D01*
X141569969Y-66430031D01*
X141425927Y-66307007D01*
X141389413Y-66275821D01*
X141389410Y-66275820D01*
X141186962Y-66151759D01*
X141186959Y-66151757D01*
X140967596Y-66060895D01*
X140736714Y-66005465D01*
X140500000Y-65986835D01*
X140263285Y-66005465D01*
X140032404Y-66060895D01*
X140032402Y-66060895D01*
X139813040Y-66151757D01*
X139813037Y-66151759D01*
X139610589Y-66275820D01*
X139610586Y-66275821D01*
X139430031Y-66430031D01*
X139275821Y-66610586D01*
X139275820Y-66610589D01*
X139151759Y-66813037D01*
X139151757Y-66813040D01*
X139060895Y-67032402D01*
X139060895Y-67032404D01*
X139005465Y-67263285D01*
X138986835Y-67500000D01*
X124005915Y-67500000D01*
X124155722Y-67337268D01*
X124278860Y-67148791D01*
X124369296Y-66942616D01*
X124424564Y-66724368D01*
X124427164Y-66692993D01*
X124443156Y-66500005D01*
X124443156Y-66499994D01*
X124424565Y-66275640D01*
X124424563Y-66275628D01*
X124393195Y-66151759D01*
X124369296Y-66057384D01*
X124278860Y-65851209D01*
X124262706Y-65826484D01*
X124155723Y-65662734D01*
X124155715Y-65662723D01*
X124003243Y-65497097D01*
X124003238Y-65497092D01*
X123825577Y-65358812D01*
X123825572Y-65358808D01*
X123627580Y-65251661D01*
X123627577Y-65251659D01*
X123627574Y-65251658D01*
X123627571Y-65251657D01*
X123627569Y-65251656D01*
X123414637Y-65178556D01*
X123192569Y-65141500D01*
X122967431Y-65141500D01*
X122745362Y-65178556D01*
X122532430Y-65251656D01*
X122532419Y-65251661D01*
X122334427Y-65358808D01*
X122334422Y-65358812D01*
X122156761Y-65497092D01*
X122156756Y-65497097D01*
X122004284Y-65662723D01*
X122004276Y-65662734D01*
X121913808Y-65801206D01*
X121860662Y-65846562D01*
X121791431Y-65855986D01*
X121728095Y-65826484D01*
X121706192Y-65801206D01*
X121615723Y-65662734D01*
X121615715Y-65662723D01*
X121463243Y-65497097D01*
X121463238Y-65497092D01*
X121285577Y-65358812D01*
X121285572Y-65358808D01*
X121087580Y-65251661D01*
X121087577Y-65251659D01*
X121087574Y-65251658D01*
X121087571Y-65251657D01*
X121087569Y-65251656D01*
X120874637Y-65178556D01*
X120652569Y-65141500D01*
X120427431Y-65141500D01*
X120205362Y-65178556D01*
X119992430Y-65251656D01*
X119992419Y-65251661D01*
X119794427Y-65358808D01*
X119794422Y-65358812D01*
X119616761Y-65497092D01*
X119616756Y-65497097D01*
X119464284Y-65662723D01*
X119464276Y-65662734D01*
X119373808Y-65801206D01*
X119320662Y-65846562D01*
X119251431Y-65855986D01*
X119188095Y-65826484D01*
X119166192Y-65801206D01*
X119075723Y-65662734D01*
X119075715Y-65662723D01*
X118923243Y-65497097D01*
X118923238Y-65497092D01*
X118745577Y-65358812D01*
X118745572Y-65358808D01*
X118547580Y-65251661D01*
X118547577Y-65251659D01*
X118547574Y-65251658D01*
X118547571Y-65251657D01*
X118547569Y-65251656D01*
X118334637Y-65178556D01*
X118112569Y-65141500D01*
X117887431Y-65141500D01*
X117665362Y-65178556D01*
X117452430Y-65251656D01*
X117452419Y-65251661D01*
X117254427Y-65358808D01*
X117254422Y-65358812D01*
X117076761Y-65497092D01*
X117076756Y-65497097D01*
X116924284Y-65662723D01*
X116924276Y-65662734D01*
X116833808Y-65801206D01*
X116780662Y-65846562D01*
X116711431Y-65855986D01*
X116648095Y-65826484D01*
X116626192Y-65801206D01*
X116535723Y-65662734D01*
X116535715Y-65662723D01*
X116383243Y-65497097D01*
X116383238Y-65497092D01*
X116205577Y-65358812D01*
X116205572Y-65358808D01*
X116007580Y-65251661D01*
X116007577Y-65251659D01*
X116007574Y-65251658D01*
X116007571Y-65251657D01*
X116007569Y-65251656D01*
X115794637Y-65178556D01*
X115572569Y-65141500D01*
X115347431Y-65141500D01*
X115125362Y-65178556D01*
X114912430Y-65251656D01*
X114912419Y-65251661D01*
X114714427Y-65358808D01*
X114714422Y-65358812D01*
X114536761Y-65497092D01*
X114536756Y-65497097D01*
X114384284Y-65662723D01*
X114384276Y-65662734D01*
X114293808Y-65801206D01*
X114240662Y-65846562D01*
X114171431Y-65855986D01*
X114108095Y-65826484D01*
X114086192Y-65801206D01*
X113995723Y-65662734D01*
X113995715Y-65662723D01*
X113843243Y-65497097D01*
X113843238Y-65497092D01*
X113665577Y-65358812D01*
X113665572Y-65358808D01*
X113467580Y-65251661D01*
X113467577Y-65251659D01*
X113467574Y-65251658D01*
X113467571Y-65251657D01*
X113467569Y-65251656D01*
X113254637Y-65178556D01*
X113032569Y-65141500D01*
X112807431Y-65141500D01*
X112585362Y-65178556D01*
X112372430Y-65251656D01*
X112372419Y-65251661D01*
X112174427Y-65358808D01*
X112174422Y-65358812D01*
X111996761Y-65497092D01*
X111996756Y-65497097D01*
X111844284Y-65662723D01*
X111844276Y-65662734D01*
X111753808Y-65801206D01*
X111700662Y-65846562D01*
X111631431Y-65855986D01*
X111568095Y-65826484D01*
X111546192Y-65801206D01*
X111455723Y-65662734D01*
X111455715Y-65662723D01*
X111303243Y-65497097D01*
X111303238Y-65497092D01*
X111125577Y-65358812D01*
X111125572Y-65358808D01*
X110927580Y-65251661D01*
X110927577Y-65251659D01*
X110927574Y-65251658D01*
X110927571Y-65251657D01*
X110927569Y-65251656D01*
X110714637Y-65178556D01*
X110492569Y-65141500D01*
X110267431Y-65141500D01*
X110045362Y-65178556D01*
X109832430Y-65251656D01*
X109832419Y-65251661D01*
X109634427Y-65358808D01*
X109634422Y-65358812D01*
X109456761Y-65497092D01*
X109456756Y-65497097D01*
X109304284Y-65662723D01*
X109304276Y-65662734D01*
X109210251Y-65806650D01*
X109157105Y-65852007D01*
X109087873Y-65861430D01*
X109024538Y-65831928D01*
X109004868Y-65809951D01*
X108878113Y-65628926D01*
X108878108Y-65628920D01*
X108711082Y-65461894D01*
X108517578Y-65326399D01*
X108303492Y-65226570D01*
X108303486Y-65226567D01*
X108090000Y-65169364D01*
X108090000Y-66066988D01*
X108032993Y-66034075D01*
X107905826Y-66000000D01*
X107774174Y-66000000D01*
X107647007Y-66034075D01*
X107590000Y-66066988D01*
X107590000Y-65169364D01*
X107589999Y-65169364D01*
X107376513Y-65226567D01*
X107376507Y-65226570D01*
X107162422Y-65326399D01*
X107162420Y-65326400D01*
X106968926Y-65461886D01*
X106853084Y-65577728D01*
X106791761Y-65611212D01*
X106722069Y-65606228D01*
X106666136Y-65564356D01*
X106649223Y-65533384D01*
X106600889Y-65403796D01*
X106513261Y-65286739D01*
X106396204Y-65199111D01*
X106259203Y-65148011D01*
X106198654Y-65141500D01*
X106198638Y-65141500D01*
X104401362Y-65141500D01*
X104401345Y-65141500D01*
X104340797Y-65148011D01*
X104340795Y-65148011D01*
X104203795Y-65199111D01*
X104086739Y-65286739D01*
X103999111Y-65403795D01*
X103948011Y-65540795D01*
X103948011Y-65540797D01*
X103941500Y-65601345D01*
X100075500Y-65601345D01*
X100075500Y-64829999D01*
X149721127Y-64829999D01*
X149721128Y-64830000D01*
X150684314Y-64830000D01*
X150679920Y-64834394D01*
X150627259Y-64925606D01*
X150600000Y-65027339D01*
X150600000Y-65132661D01*
X150627259Y-65234394D01*
X150679920Y-65325606D01*
X150684314Y-65330000D01*
X149721128Y-65330000D01*
X149773730Y-65526317D01*
X149773734Y-65526326D01*
X149869865Y-65732482D01*
X150000342Y-65918820D01*
X150161179Y-66079657D01*
X150347517Y-66210134D01*
X150553673Y-66306265D01*
X150553682Y-66306269D01*
X150749999Y-66358872D01*
X150750000Y-66358871D01*
X150750000Y-65395686D01*
X150754394Y-65400080D01*
X150845606Y-65452741D01*
X150947339Y-65480000D01*
X151052661Y-65480000D01*
X151154394Y-65452741D01*
X151245606Y-65400080D01*
X151250000Y-65395686D01*
X151250000Y-66358872D01*
X151446317Y-66306269D01*
X151446326Y-66306265D01*
X151652482Y-66210134D01*
X151838820Y-66079657D01*
X151999657Y-65918820D01*
X152130134Y-65732482D01*
X152226265Y-65526326D01*
X152226269Y-65526317D01*
X152278872Y-65330000D01*
X151315686Y-65330000D01*
X151320080Y-65325606D01*
X151372741Y-65234394D01*
X151400000Y-65132661D01*
X151400000Y-65027339D01*
X151372741Y-64925606D01*
X151320080Y-64834394D01*
X151315686Y-64830000D01*
X152278872Y-64830000D01*
X152278872Y-64829999D01*
X152226269Y-64633682D01*
X152226265Y-64633673D01*
X152130134Y-64427517D01*
X152061850Y-64329999D01*
X162721127Y-64329999D01*
X162721128Y-64330000D01*
X163684314Y-64330000D01*
X163679920Y-64334394D01*
X163627259Y-64425606D01*
X163600000Y-64527339D01*
X163600000Y-64632661D01*
X163627259Y-64734394D01*
X163679920Y-64825606D01*
X163684314Y-64830000D01*
X162721128Y-64830000D01*
X162773730Y-65026317D01*
X162773734Y-65026326D01*
X162869865Y-65232482D01*
X163000342Y-65418820D01*
X163161179Y-65579657D01*
X163347517Y-65710134D01*
X163553673Y-65806265D01*
X163553682Y-65806269D01*
X163749999Y-65858872D01*
X163750000Y-65858871D01*
X163750000Y-64895686D01*
X163754394Y-64900080D01*
X163845606Y-64952741D01*
X163947339Y-64980000D01*
X164052661Y-64980000D01*
X164154394Y-64952741D01*
X164245606Y-64900080D01*
X164250000Y-64895686D01*
X164250000Y-65858872D01*
X164446317Y-65806269D01*
X164446326Y-65806265D01*
X164652482Y-65710134D01*
X164838820Y-65579657D01*
X164999657Y-65418820D01*
X165130134Y-65232482D01*
X165226265Y-65026326D01*
X165226269Y-65026317D01*
X165278872Y-64830000D01*
X164315686Y-64830000D01*
X164320080Y-64825606D01*
X164372741Y-64734394D01*
X164400000Y-64632661D01*
X164400000Y-64527339D01*
X164372741Y-64425606D01*
X164320080Y-64334394D01*
X164315686Y-64330000D01*
X165278872Y-64330000D01*
X165278872Y-64329999D01*
X165226269Y-64133682D01*
X165226265Y-64133673D01*
X165130134Y-63927517D01*
X164999657Y-63741179D01*
X164838820Y-63580342D01*
X164652482Y-63449865D01*
X164446328Y-63353734D01*
X164250000Y-63301127D01*
X164250000Y-64264314D01*
X164245606Y-64259920D01*
X164154394Y-64207259D01*
X164052661Y-64180000D01*
X163947339Y-64180000D01*
X163845606Y-64207259D01*
X163754394Y-64259920D01*
X163750000Y-64264314D01*
X163750000Y-63301127D01*
X163553671Y-63353734D01*
X163347517Y-63449865D01*
X163161179Y-63580342D01*
X163000342Y-63741179D01*
X162869865Y-63927517D01*
X162773734Y-64133673D01*
X162773730Y-64133682D01*
X162721127Y-64329999D01*
X152061850Y-64329999D01*
X151999657Y-64241179D01*
X151838820Y-64080342D01*
X151652482Y-63949865D01*
X151446328Y-63853734D01*
X151250000Y-63801127D01*
X151250000Y-64764314D01*
X151245606Y-64759920D01*
X151154394Y-64707259D01*
X151052661Y-64680000D01*
X150947339Y-64680000D01*
X150845606Y-64707259D01*
X150754394Y-64759920D01*
X150750000Y-64764314D01*
X150750000Y-63801127D01*
X150553671Y-63853734D01*
X150347517Y-63949865D01*
X150161179Y-64080342D01*
X150000342Y-64241179D01*
X149869865Y-64427517D01*
X149773734Y-64633673D01*
X149773730Y-64633682D01*
X149721127Y-64829999D01*
X100075500Y-64829999D01*
X100075500Y-61919998D01*
X129686502Y-61919998D01*
X129686502Y-61920001D01*
X129706456Y-62148081D01*
X129706457Y-62148089D01*
X129765714Y-62369238D01*
X129765718Y-62369249D01*
X129848486Y-62546745D01*
X129862477Y-62576749D01*
X129993802Y-62764300D01*
X130155700Y-62926198D01*
X130343251Y-63057523D01*
X130369940Y-63069968D01*
X130550750Y-63154281D01*
X130550752Y-63154281D01*
X130550757Y-63154284D01*
X130771913Y-63213543D01*
X130934832Y-63227796D01*
X130999998Y-63233498D01*
X131000000Y-63233498D01*
X131000002Y-63233498D01*
X131057021Y-63228509D01*
X131228087Y-63213543D01*
X131449243Y-63154284D01*
X131656749Y-63057523D01*
X131844300Y-62926198D01*
X132006198Y-62764300D01*
X132137523Y-62576749D01*
X132234284Y-62369243D01*
X132293543Y-62148087D01*
X132313498Y-61920000D01*
X132310873Y-61890001D01*
X132310873Y-61889998D01*
X135896502Y-61889998D01*
X135896502Y-61890001D01*
X135916456Y-62118081D01*
X135916457Y-62118089D01*
X135975714Y-62339238D01*
X135975718Y-62339249D01*
X136072475Y-62546745D01*
X136072477Y-62546749D01*
X136203802Y-62734300D01*
X136365700Y-62896198D01*
X136553251Y-63027523D01*
X136678091Y-63085736D01*
X136760750Y-63124281D01*
X136760752Y-63124281D01*
X136760757Y-63124284D01*
X136981913Y-63183543D01*
X137144832Y-63197796D01*
X137209998Y-63203498D01*
X137210000Y-63203498D01*
X137210002Y-63203498D01*
X137267021Y-63198509D01*
X137438087Y-63183543D01*
X137659243Y-63124284D01*
X137866749Y-63027523D01*
X138054300Y-62896198D01*
X138216198Y-62734300D01*
X138347523Y-62546749D01*
X138369322Y-62500000D01*
X139486835Y-62500000D01*
X139505465Y-62736714D01*
X139560895Y-62967595D01*
X139560895Y-62967597D01*
X139651757Y-63186959D01*
X139651759Y-63186962D01*
X139775820Y-63389410D01*
X139775821Y-63389413D01*
X139775824Y-63389416D01*
X139930031Y-63569969D01*
X140069797Y-63689340D01*
X140110586Y-63724178D01*
X140110589Y-63724179D01*
X140313037Y-63848240D01*
X140313040Y-63848242D01*
X140532403Y-63939104D01*
X140532404Y-63939104D01*
X140532406Y-63939105D01*
X140763289Y-63994535D01*
X141000000Y-64013165D01*
X141236711Y-63994535D01*
X141467594Y-63939105D01*
X141467596Y-63939104D01*
X141467597Y-63939104D01*
X141686959Y-63848242D01*
X141686960Y-63848241D01*
X141686963Y-63848240D01*
X141889416Y-63724176D01*
X142069969Y-63569969D01*
X142224176Y-63389416D01*
X142348240Y-63186963D01*
X142361778Y-63154281D01*
X142439104Y-62967597D01*
X142439104Y-62967596D01*
X142439105Y-62967594D01*
X142494535Y-62736711D01*
X142513165Y-62500000D01*
X145986835Y-62500000D01*
X146005465Y-62736714D01*
X146060895Y-62967595D01*
X146060895Y-62967597D01*
X146151757Y-63186959D01*
X146151759Y-63186962D01*
X146275820Y-63389410D01*
X146275821Y-63389413D01*
X146275824Y-63389416D01*
X146430031Y-63569969D01*
X146569797Y-63689340D01*
X146610586Y-63724178D01*
X146610589Y-63724179D01*
X146813037Y-63848240D01*
X146813040Y-63848242D01*
X147032403Y-63939104D01*
X147032404Y-63939104D01*
X147032406Y-63939105D01*
X147263289Y-63994535D01*
X147500000Y-64013165D01*
X147736711Y-63994535D01*
X147967594Y-63939105D01*
X147967596Y-63939104D01*
X147967597Y-63939104D01*
X148186959Y-63848242D01*
X148186960Y-63848241D01*
X148186963Y-63848240D01*
X148389416Y-63724176D01*
X148569969Y-63569969D01*
X148724176Y-63389416D01*
X148848240Y-63186963D01*
X148861778Y-63154281D01*
X148939104Y-62967597D01*
X148939104Y-62967596D01*
X148939105Y-62967594D01*
X148994535Y-62736711D01*
X149013165Y-62500000D01*
X148994535Y-62263289D01*
X148939105Y-62032406D01*
X148939104Y-62032403D01*
X148939104Y-62032402D01*
X148925683Y-62000000D01*
X152486835Y-62000000D01*
X152505465Y-62236714D01*
X152560895Y-62467595D01*
X152560895Y-62467597D01*
X152651757Y-62686959D01*
X152651759Y-62686962D01*
X152775820Y-62889410D01*
X152775821Y-62889413D01*
X152807239Y-62926198D01*
X152930031Y-63069969D01*
X153063008Y-63183542D01*
X153110586Y-63224178D01*
X153110589Y-63224179D01*
X153313037Y-63348240D01*
X153313040Y-63348242D01*
X153532403Y-63439104D01*
X153532404Y-63439104D01*
X153532406Y-63439105D01*
X153763289Y-63494535D01*
X154000000Y-63513165D01*
X154236711Y-63494535D01*
X154467594Y-63439105D01*
X154467596Y-63439104D01*
X154467597Y-63439104D01*
X154686959Y-63348242D01*
X154686960Y-63348241D01*
X154686963Y-63348240D01*
X154889416Y-63224176D01*
X155069969Y-63069969D01*
X155224176Y-62889416D01*
X155348240Y-62686963D01*
X155393894Y-62576745D01*
X155439104Y-62467597D01*
X155439104Y-62467596D01*
X155439105Y-62467594D01*
X155494535Y-62236711D01*
X155513165Y-62000000D01*
X158986835Y-62000000D01*
X159005465Y-62236714D01*
X159060895Y-62467595D01*
X159060895Y-62467597D01*
X159151757Y-62686959D01*
X159151759Y-62686962D01*
X159275820Y-62889410D01*
X159275821Y-62889413D01*
X159307239Y-62926198D01*
X159430031Y-63069969D01*
X159563008Y-63183542D01*
X159610586Y-63224178D01*
X159610589Y-63224179D01*
X159813037Y-63348240D01*
X159813040Y-63348242D01*
X160032403Y-63439104D01*
X160032404Y-63439104D01*
X160032406Y-63439105D01*
X160263289Y-63494535D01*
X160500000Y-63513165D01*
X160736711Y-63494535D01*
X160967594Y-63439105D01*
X160967596Y-63439104D01*
X160967597Y-63439104D01*
X161186959Y-63348242D01*
X161186960Y-63348241D01*
X161186963Y-63348240D01*
X161389416Y-63224176D01*
X161569969Y-63069969D01*
X161724176Y-62889416D01*
X161848240Y-62686963D01*
X161893894Y-62576745D01*
X161939104Y-62467597D01*
X161939104Y-62467596D01*
X161939105Y-62467594D01*
X161994535Y-62236711D01*
X162013165Y-62000000D01*
X161994535Y-61763289D01*
X161939105Y-61532406D01*
X161939104Y-61532403D01*
X161939104Y-61532402D01*
X161848242Y-61313040D01*
X161848240Y-61313037D01*
X161724179Y-61110589D01*
X161724178Y-61110586D01*
X161689340Y-61069797D01*
X161569969Y-60930031D01*
X161397206Y-60782477D01*
X161389413Y-60775821D01*
X161389410Y-60775820D01*
X161186962Y-60651759D01*
X161186959Y-60651757D01*
X160967596Y-60560895D01*
X160736714Y-60505465D01*
X160500000Y-60486835D01*
X160263285Y-60505465D01*
X160032404Y-60560895D01*
X160032402Y-60560895D01*
X159813040Y-60651757D01*
X159813037Y-60651759D01*
X159610589Y-60775820D01*
X159610586Y-60775821D01*
X159430031Y-60930031D01*
X159275821Y-61110586D01*
X159275820Y-61110589D01*
X159151759Y-61313037D01*
X159151757Y-61313040D01*
X159060895Y-61532402D01*
X159060895Y-61532404D01*
X159005465Y-61763285D01*
X158986835Y-62000000D01*
X155513165Y-62000000D01*
X155494535Y-61763289D01*
X155439105Y-61532406D01*
X155439104Y-61532403D01*
X155439104Y-61532402D01*
X155348242Y-61313040D01*
X155348240Y-61313037D01*
X155224179Y-61110589D01*
X155224178Y-61110586D01*
X155189340Y-61069797D01*
X155069969Y-60930031D01*
X154897206Y-60782477D01*
X154889413Y-60775821D01*
X154889410Y-60775820D01*
X154686962Y-60651759D01*
X154686959Y-60651757D01*
X154467596Y-60560895D01*
X154236714Y-60505465D01*
X154000000Y-60486835D01*
X153763285Y-60505465D01*
X153532404Y-60560895D01*
X153532402Y-60560895D01*
X153313040Y-60651757D01*
X153313037Y-60651759D01*
X153110589Y-60775820D01*
X153110586Y-60775821D01*
X152930031Y-60930031D01*
X152775821Y-61110586D01*
X152775820Y-61110589D01*
X152651759Y-61313037D01*
X152651757Y-61313040D01*
X152560895Y-61532402D01*
X152560895Y-61532404D01*
X152505465Y-61763285D01*
X152486835Y-62000000D01*
X148925683Y-62000000D01*
X148848242Y-61813040D01*
X148848240Y-61813037D01*
X148724179Y-61610589D01*
X148724178Y-61610586D01*
X148689340Y-61569797D01*
X148569969Y-61430031D01*
X148432987Y-61313037D01*
X148389413Y-61275821D01*
X148389410Y-61275820D01*
X148186962Y-61151759D01*
X148186959Y-61151757D01*
X147967596Y-61060895D01*
X147736714Y-61005465D01*
X147500000Y-60986835D01*
X147263285Y-61005465D01*
X147032404Y-61060895D01*
X147032402Y-61060895D01*
X146813040Y-61151757D01*
X146813037Y-61151759D01*
X146610589Y-61275820D01*
X146610586Y-61275821D01*
X146430031Y-61430031D01*
X146275821Y-61610586D01*
X146275820Y-61610589D01*
X146151759Y-61813037D01*
X146151757Y-61813040D01*
X146060895Y-62032402D01*
X146060895Y-62032404D01*
X146005465Y-62263285D01*
X145986835Y-62500000D01*
X142513165Y-62500000D01*
X142494535Y-62263289D01*
X142439105Y-62032406D01*
X142439104Y-62032403D01*
X142439104Y-62032402D01*
X142348242Y-61813040D01*
X142348240Y-61813037D01*
X142224179Y-61610589D01*
X142224178Y-61610586D01*
X142189340Y-61569797D01*
X142069969Y-61430031D01*
X141932987Y-61313037D01*
X141889413Y-61275821D01*
X141889410Y-61275820D01*
X141686962Y-61151759D01*
X141686959Y-61151757D01*
X141467596Y-61060895D01*
X141236714Y-61005465D01*
X141000000Y-60986835D01*
X140763285Y-61005465D01*
X140532404Y-61060895D01*
X140532402Y-61060895D01*
X140313040Y-61151757D01*
X140313037Y-61151759D01*
X140110589Y-61275820D01*
X140110586Y-61275821D01*
X139930031Y-61430031D01*
X139775821Y-61610586D01*
X139775820Y-61610589D01*
X139651759Y-61813037D01*
X139651757Y-61813040D01*
X139560895Y-62032402D01*
X139560895Y-62032404D01*
X139505465Y-62263285D01*
X139486835Y-62500000D01*
X138369322Y-62500000D01*
X138444284Y-62339243D01*
X138503543Y-62118087D01*
X138523498Y-61890000D01*
X138503543Y-61661913D01*
X138444284Y-61440757D01*
X138439282Y-61430031D01*
X138384729Y-61313040D01*
X138347523Y-61233251D01*
X138216198Y-61045700D01*
X138054300Y-60883802D01*
X137866749Y-60752477D01*
X137866745Y-60752475D01*
X137659249Y-60655718D01*
X137659238Y-60655714D01*
X137438089Y-60596457D01*
X137438081Y-60596456D01*
X137210002Y-60576502D01*
X137209998Y-60576502D01*
X136981918Y-60596456D01*
X136981910Y-60596457D01*
X136760761Y-60655714D01*
X136760750Y-60655718D01*
X136553254Y-60752475D01*
X136553252Y-60752476D01*
X136510408Y-60782476D01*
X136365700Y-60883802D01*
X136365698Y-60883803D01*
X136365695Y-60883806D01*
X136203806Y-61045695D01*
X136203803Y-61045698D01*
X136203802Y-61045700D01*
X136129538Y-61151760D01*
X136072476Y-61233252D01*
X136072475Y-61233254D01*
X135975718Y-61440750D01*
X135975714Y-61440761D01*
X135916457Y-61661910D01*
X135916456Y-61661918D01*
X135896502Y-61889998D01*
X132310873Y-61889998D01*
X132304140Y-61813037D01*
X132293543Y-61691913D01*
X132234284Y-61470757D01*
X132137523Y-61263251D01*
X132006198Y-61075700D01*
X131844300Y-60913802D01*
X131656749Y-60782477D01*
X131642473Y-60775820D01*
X131449249Y-60685718D01*
X131449238Y-60685714D01*
X131228089Y-60626457D01*
X131228081Y-60626456D01*
X131000002Y-60606502D01*
X130999998Y-60606502D01*
X130771918Y-60626456D01*
X130771910Y-60626457D01*
X130550761Y-60685714D01*
X130550750Y-60685718D01*
X130343254Y-60782475D01*
X130343252Y-60782476D01*
X130343251Y-60782477D01*
X130155700Y-60913802D01*
X130155698Y-60913803D01*
X130155695Y-60913806D01*
X129993806Y-61075695D01*
X129993803Y-61075698D01*
X129993802Y-61075700D01*
X129940546Y-61151757D01*
X129862476Y-61263252D01*
X129862475Y-61263254D01*
X129765718Y-61470750D01*
X129765714Y-61470761D01*
X129706457Y-61691910D01*
X129706456Y-61691918D01*
X129686502Y-61919998D01*
X100075500Y-61919998D01*
X100075500Y-56052155D01*
X128560000Y-56052155D01*
X128560000Y-56750000D01*
X129584722Y-56750000D01*
X129540667Y-56826306D01*
X129510000Y-56940756D01*
X129510000Y-57059244D01*
X129540667Y-57173694D01*
X129584722Y-57250000D01*
X128560000Y-57250000D01*
X128560000Y-57947844D01*
X128566401Y-58007372D01*
X128566403Y-58007379D01*
X128616645Y-58142086D01*
X128616649Y-58142093D01*
X128702809Y-58257187D01*
X128702812Y-58257190D01*
X128817906Y-58343350D01*
X128817913Y-58343354D01*
X128952620Y-58393596D01*
X128952627Y-58393598D01*
X129012155Y-58399999D01*
X129012172Y-58400000D01*
X129710000Y-58400000D01*
X129710000Y-57375277D01*
X129786306Y-57419333D01*
X129900756Y-57450000D01*
X130019244Y-57450000D01*
X130133694Y-57419333D01*
X130210000Y-57375277D01*
X130210000Y-58400000D01*
X130907828Y-58400000D01*
X130907844Y-58399999D01*
X130967372Y-58393598D01*
X130967379Y-58393596D01*
X131102086Y-58343354D01*
X131102093Y-58343350D01*
X131217187Y-58257190D01*
X131217190Y-58257187D01*
X131303350Y-58142093D01*
X131303355Y-58142084D01*
X131328940Y-58073486D01*
X131370810Y-58017552D01*
X131436274Y-57993134D01*
X131504547Y-58007985D01*
X131536349Y-58032832D01*
X131542780Y-58039818D01*
X131726983Y-58183190D01*
X131726985Y-58183191D01*
X131726988Y-58183193D01*
X131825881Y-58236711D01*
X131932273Y-58294287D01*
X132046914Y-58333643D01*
X132153045Y-58370079D01*
X132153047Y-58370079D01*
X132153049Y-58370080D01*
X132383288Y-58408500D01*
X132383289Y-58408500D01*
X132616711Y-58408500D01*
X132616712Y-58408500D01*
X132846951Y-58370080D01*
X133067727Y-58294287D01*
X133273017Y-58183190D01*
X133457220Y-58039818D01*
X133493875Y-58000000D01*
X139486835Y-58000000D01*
X139505465Y-58236714D01*
X139560895Y-58467595D01*
X139560895Y-58467597D01*
X139651757Y-58686959D01*
X139651759Y-58686962D01*
X139775820Y-58889410D01*
X139775821Y-58889413D01*
X139775824Y-58889416D01*
X139930031Y-59069969D01*
X140069797Y-59189340D01*
X140110586Y-59224178D01*
X140110589Y-59224179D01*
X140313037Y-59348240D01*
X140313040Y-59348242D01*
X140532403Y-59439104D01*
X140532404Y-59439104D01*
X140532406Y-59439105D01*
X140763289Y-59494535D01*
X141000000Y-59513165D01*
X141236711Y-59494535D01*
X141467594Y-59439105D01*
X141467596Y-59439104D01*
X141467597Y-59439104D01*
X141686959Y-59348242D01*
X141686960Y-59348241D01*
X141686963Y-59348240D01*
X141889416Y-59224176D01*
X142069969Y-59069969D01*
X142224176Y-58889416D01*
X142348240Y-58686963D01*
X142439105Y-58467594D01*
X142494535Y-58236711D01*
X142513165Y-58000000D01*
X145986835Y-58000000D01*
X146005465Y-58236714D01*
X146060895Y-58467595D01*
X146060895Y-58467597D01*
X146151757Y-58686959D01*
X146151759Y-58686962D01*
X146275820Y-58889410D01*
X146275821Y-58889413D01*
X146275824Y-58889416D01*
X146430031Y-59069969D01*
X146569797Y-59189340D01*
X146610586Y-59224178D01*
X146610589Y-59224179D01*
X146813037Y-59348240D01*
X146813040Y-59348242D01*
X147032403Y-59439104D01*
X147032404Y-59439104D01*
X147032406Y-59439105D01*
X147263289Y-59494535D01*
X147500000Y-59513165D01*
X147736711Y-59494535D01*
X147967594Y-59439105D01*
X147967596Y-59439104D01*
X147967597Y-59439104D01*
X148186959Y-59348242D01*
X148186960Y-59348241D01*
X148186963Y-59348240D01*
X148389416Y-59224176D01*
X148569969Y-59069969D01*
X148724176Y-58889416D01*
X148848240Y-58686963D01*
X148939105Y-58467594D01*
X148994535Y-58236711D01*
X149013165Y-58000000D01*
X148994535Y-57763289D01*
X148939105Y-57532406D01*
X148939104Y-57532403D01*
X148939104Y-57532402D01*
X148925683Y-57500000D01*
X152486835Y-57500000D01*
X152505465Y-57736714D01*
X152560895Y-57967595D01*
X152560895Y-57967597D01*
X152651757Y-58186959D01*
X152651759Y-58186962D01*
X152775820Y-58389410D01*
X152775821Y-58389413D01*
X152792123Y-58408500D01*
X152930031Y-58569969D01*
X153067009Y-58686959D01*
X153110586Y-58724178D01*
X153110589Y-58724179D01*
X153313037Y-58848240D01*
X153313040Y-58848242D01*
X153532403Y-58939104D01*
X153532404Y-58939104D01*
X153532406Y-58939105D01*
X153763289Y-58994535D01*
X154000000Y-59013165D01*
X154236711Y-58994535D01*
X154467594Y-58939105D01*
X154467596Y-58939104D01*
X154467597Y-58939104D01*
X154686959Y-58848242D01*
X154686960Y-58848241D01*
X154686963Y-58848240D01*
X154889416Y-58724176D01*
X155069969Y-58569969D01*
X155224176Y-58389416D01*
X155348240Y-58186963D01*
X155349803Y-58183191D01*
X155439104Y-57967597D01*
X155439104Y-57967596D01*
X155439105Y-57967594D01*
X155494535Y-57736711D01*
X155513165Y-57500000D01*
X158986835Y-57500000D01*
X159005465Y-57736714D01*
X159060895Y-57967595D01*
X159060895Y-57967597D01*
X159151757Y-58186959D01*
X159151759Y-58186962D01*
X159275820Y-58389410D01*
X159275821Y-58389413D01*
X159292123Y-58408500D01*
X159430031Y-58569969D01*
X159567009Y-58686959D01*
X159610586Y-58724178D01*
X159610589Y-58724179D01*
X159813037Y-58848240D01*
X159813040Y-58848242D01*
X160032403Y-58939104D01*
X160032404Y-58939104D01*
X160032406Y-58939105D01*
X160263289Y-58994535D01*
X160500000Y-59013165D01*
X160736711Y-58994535D01*
X160967594Y-58939105D01*
X160967596Y-58939104D01*
X160967597Y-58939104D01*
X161186959Y-58848242D01*
X161186960Y-58848241D01*
X161186963Y-58848240D01*
X161389416Y-58724176D01*
X161569969Y-58569969D01*
X161724176Y-58389416D01*
X161848240Y-58186963D01*
X161849803Y-58183191D01*
X161939104Y-57967597D01*
X161939104Y-57967596D01*
X161939105Y-57967594D01*
X161994535Y-57736711D01*
X162013165Y-57500000D01*
X161994535Y-57263289D01*
X161939105Y-57032406D01*
X161939104Y-57032403D01*
X161939104Y-57032402D01*
X161848242Y-56813040D01*
X161848240Y-56813037D01*
X161724179Y-56610589D01*
X161724178Y-56610586D01*
X161689340Y-56569797D01*
X161569969Y-56430031D01*
X161449723Y-56327331D01*
X161389413Y-56275821D01*
X161389410Y-56275820D01*
X161186962Y-56151759D01*
X161186959Y-56151757D01*
X160967596Y-56060895D01*
X160736714Y-56005465D01*
X160500000Y-55986835D01*
X160263285Y-56005465D01*
X160032404Y-56060895D01*
X160032402Y-56060895D01*
X159813040Y-56151757D01*
X159813037Y-56151759D01*
X159610589Y-56275820D01*
X159610586Y-56275821D01*
X159430031Y-56430031D01*
X159275821Y-56610586D01*
X159275820Y-56610589D01*
X159151759Y-56813037D01*
X159151757Y-56813040D01*
X159060895Y-57032402D01*
X159060895Y-57032404D01*
X159005465Y-57263285D01*
X158986835Y-57500000D01*
X155513165Y-57500000D01*
X155494535Y-57263289D01*
X155439105Y-57032406D01*
X155439104Y-57032403D01*
X155439104Y-57032402D01*
X155348242Y-56813040D01*
X155348240Y-56813037D01*
X155224179Y-56610589D01*
X155224178Y-56610586D01*
X155189340Y-56569797D01*
X155069969Y-56430031D01*
X154949723Y-56327331D01*
X154889413Y-56275821D01*
X154889410Y-56275820D01*
X154686962Y-56151759D01*
X154686959Y-56151757D01*
X154467596Y-56060895D01*
X154236714Y-56005465D01*
X154000000Y-55986835D01*
X153763285Y-56005465D01*
X153532404Y-56060895D01*
X153532402Y-56060895D01*
X153313040Y-56151757D01*
X153313037Y-56151759D01*
X153110589Y-56275820D01*
X153110586Y-56275821D01*
X152930031Y-56430031D01*
X152775821Y-56610586D01*
X152775820Y-56610589D01*
X152651759Y-56813037D01*
X152651757Y-56813040D01*
X152560895Y-57032402D01*
X152560895Y-57032404D01*
X152505465Y-57263285D01*
X152486835Y-57500000D01*
X148925683Y-57500000D01*
X148848242Y-57313040D01*
X148848240Y-57313037D01*
X148724179Y-57110589D01*
X148724178Y-57110586D01*
X148680327Y-57059244D01*
X148569969Y-56930031D01*
X148432987Y-56813037D01*
X148389413Y-56775821D01*
X148389410Y-56775820D01*
X148186962Y-56651759D01*
X148186959Y-56651757D01*
X147967596Y-56560895D01*
X147736714Y-56505465D01*
X147500000Y-56486835D01*
X147263285Y-56505465D01*
X147032404Y-56560895D01*
X147032402Y-56560895D01*
X146813040Y-56651757D01*
X146813037Y-56651759D01*
X146610589Y-56775820D01*
X146610586Y-56775821D01*
X146430031Y-56930031D01*
X146275821Y-57110586D01*
X146275820Y-57110589D01*
X146151759Y-57313037D01*
X146151757Y-57313040D01*
X146060895Y-57532402D01*
X146060895Y-57532404D01*
X146005465Y-57763285D01*
X145986835Y-58000000D01*
X142513165Y-58000000D01*
X142494535Y-57763289D01*
X142439105Y-57532406D01*
X142439104Y-57532403D01*
X142439104Y-57532402D01*
X142348242Y-57313040D01*
X142348240Y-57313037D01*
X142224179Y-57110589D01*
X142224178Y-57110586D01*
X142180327Y-57059244D01*
X142069969Y-56930031D01*
X141932987Y-56813037D01*
X141889413Y-56775821D01*
X141889410Y-56775820D01*
X141686962Y-56651759D01*
X141686959Y-56651757D01*
X141467596Y-56560895D01*
X141236714Y-56505465D01*
X141000000Y-56486835D01*
X140763285Y-56505465D01*
X140532404Y-56560895D01*
X140532402Y-56560895D01*
X140313040Y-56651757D01*
X140313037Y-56651759D01*
X140110589Y-56775820D01*
X140110586Y-56775821D01*
X139930031Y-56930031D01*
X139775821Y-57110586D01*
X139775820Y-57110589D01*
X139651759Y-57313037D01*
X139651757Y-57313040D01*
X139560895Y-57532402D01*
X139560895Y-57532404D01*
X139505465Y-57763285D01*
X139486835Y-58000000D01*
X133493875Y-58000000D01*
X133615314Y-57868083D01*
X133742984Y-57672669D01*
X133836749Y-57458907D01*
X133894051Y-57232626D01*
X133913327Y-57000000D01*
X133894051Y-56767374D01*
X133836749Y-56541093D01*
X133742984Y-56327331D01*
X133628278Y-56151760D01*
X133615313Y-56131915D01*
X133457223Y-55960185D01*
X133457222Y-55960184D01*
X133457220Y-55960182D01*
X133273017Y-55816810D01*
X133273015Y-55816809D01*
X133273014Y-55816808D01*
X133273011Y-55816806D01*
X133067733Y-55705716D01*
X133067730Y-55705715D01*
X133067727Y-55705713D01*
X133067721Y-55705711D01*
X133067719Y-55705710D01*
X132846954Y-55629920D01*
X132667650Y-55600000D01*
X132616712Y-55591500D01*
X132383288Y-55591500D01*
X132337240Y-55599184D01*
X132153045Y-55629920D01*
X131932280Y-55705710D01*
X131932266Y-55705716D01*
X131726988Y-55816806D01*
X131726985Y-55816808D01*
X131542781Y-55960181D01*
X131542776Y-55960185D01*
X131536346Y-55967170D01*
X131476457Y-56003157D01*
X131406619Y-56001052D01*
X131349005Y-55961524D01*
X131328940Y-55926513D01*
X131303355Y-55857915D01*
X131303350Y-55857906D01*
X131217190Y-55742812D01*
X131217187Y-55742809D01*
X131102093Y-55656649D01*
X131102086Y-55656645D01*
X130967379Y-55606403D01*
X130967372Y-55606401D01*
X130907844Y-55600000D01*
X130210000Y-55600000D01*
X130210000Y-56624722D01*
X130133694Y-56580667D01*
X130019244Y-56550000D01*
X129900756Y-56550000D01*
X129786306Y-56580667D01*
X129710000Y-56624722D01*
X129710000Y-55600000D01*
X129012155Y-55600000D01*
X128952627Y-55606401D01*
X128952620Y-55606403D01*
X128817913Y-55656645D01*
X128817906Y-55656649D01*
X128702812Y-55742809D01*
X128702809Y-55742812D01*
X128616649Y-55857906D01*
X128616645Y-55857913D01*
X128566403Y-55992620D01*
X128566401Y-55992627D01*
X128560000Y-56052155D01*
X100075500Y-56052155D01*
X100075500Y-54919998D01*
X149686502Y-54919998D01*
X149686502Y-54920001D01*
X149706456Y-55148081D01*
X149706457Y-55148089D01*
X149765714Y-55369238D01*
X149765718Y-55369249D01*
X149792274Y-55426198D01*
X149862477Y-55576749D01*
X149993802Y-55764300D01*
X150155700Y-55926198D01*
X150343251Y-56057523D01*
X150468091Y-56115736D01*
X150550750Y-56154281D01*
X150550752Y-56154281D01*
X150550757Y-56154284D01*
X150771913Y-56213543D01*
X150934832Y-56227796D01*
X150999998Y-56233498D01*
X151000000Y-56233498D01*
X151000002Y-56233498D01*
X151057021Y-56228509D01*
X151228087Y-56213543D01*
X151449243Y-56154284D01*
X151656749Y-56057523D01*
X151844300Y-55926198D01*
X152006198Y-55764300D01*
X152137523Y-55576749D01*
X152234284Y-55369243D01*
X152293543Y-55148087D01*
X152313498Y-54920000D01*
X152293543Y-54691913D01*
X152234284Y-54470757D01*
X152210615Y-54419998D01*
X162686502Y-54419998D01*
X162686502Y-54420001D01*
X162706456Y-54648081D01*
X162706457Y-54648089D01*
X162765714Y-54869238D01*
X162765718Y-54869249D01*
X162862475Y-55076745D01*
X162862477Y-55076749D01*
X162993802Y-55264300D01*
X163155700Y-55426198D01*
X163343251Y-55557523D01*
X163434344Y-55600000D01*
X163550750Y-55654281D01*
X163550752Y-55654281D01*
X163550757Y-55654284D01*
X163771913Y-55713543D01*
X163934832Y-55727796D01*
X163999998Y-55733498D01*
X164000000Y-55733498D01*
X164000002Y-55733498D01*
X164057021Y-55728509D01*
X164228087Y-55713543D01*
X164449243Y-55654284D01*
X164656749Y-55557523D01*
X164844300Y-55426198D01*
X165006198Y-55264300D01*
X165137523Y-55076749D01*
X165234284Y-54869243D01*
X165293543Y-54648087D01*
X165313498Y-54420000D01*
X165293543Y-54191913D01*
X165234284Y-53970757D01*
X165207727Y-53913806D01*
X165146488Y-53782477D01*
X165137523Y-53763251D01*
X165006198Y-53575700D01*
X164844300Y-53413802D01*
X164656749Y-53282477D01*
X164656745Y-53282475D01*
X164449249Y-53185718D01*
X164449238Y-53185714D01*
X164228089Y-53126457D01*
X164228081Y-53126456D01*
X164000002Y-53106502D01*
X163999998Y-53106502D01*
X163771918Y-53126456D01*
X163771910Y-53126457D01*
X163550761Y-53185714D01*
X163550750Y-53185718D01*
X163343254Y-53282475D01*
X163343252Y-53282476D01*
X163343251Y-53282477D01*
X163155700Y-53413802D01*
X163155698Y-53413803D01*
X163155695Y-53413806D01*
X162993806Y-53575695D01*
X162993803Y-53575698D01*
X162993802Y-53575700D01*
X162916769Y-53685714D01*
X162862476Y-53763252D01*
X162862475Y-53763254D01*
X162765718Y-53970750D01*
X162765714Y-53970761D01*
X162706457Y-54191910D01*
X162706456Y-54191918D01*
X162686502Y-54419998D01*
X152210615Y-54419998D01*
X152137523Y-54263251D01*
X152006198Y-54075700D01*
X151844300Y-53913802D01*
X151656749Y-53782477D01*
X151615521Y-53763252D01*
X151449249Y-53685718D01*
X151449238Y-53685714D01*
X151228089Y-53626457D01*
X151228081Y-53626456D01*
X151000002Y-53606502D01*
X150999998Y-53606502D01*
X150771918Y-53626456D01*
X150771910Y-53626457D01*
X150550761Y-53685714D01*
X150550750Y-53685718D01*
X150343254Y-53782475D01*
X150343252Y-53782476D01*
X150343251Y-53782477D01*
X150155700Y-53913802D01*
X150155698Y-53913803D01*
X150155695Y-53913806D01*
X149993806Y-54075695D01*
X149862476Y-54263252D01*
X149862475Y-54263254D01*
X149765718Y-54470750D01*
X149765714Y-54470761D01*
X149706457Y-54691910D01*
X149706456Y-54691918D01*
X149686502Y-54919998D01*
X100075500Y-54919998D01*
X100075500Y-48301345D01*
X116141500Y-48301345D01*
X116141500Y-50098654D01*
X116148011Y-50159202D01*
X116148011Y-50159204D01*
X116199111Y-50296204D01*
X116286739Y-50413261D01*
X116403796Y-50500889D01*
X116540799Y-50551989D01*
X116568050Y-50554918D01*
X116601345Y-50558499D01*
X116601362Y-50558500D01*
X118398638Y-50558500D01*
X118398654Y-50558499D01*
X118425692Y-50555591D01*
X118459201Y-50551989D01*
X118596204Y-50500889D01*
X118713261Y-50413261D01*
X118800889Y-50296204D01*
X118846138Y-50174887D01*
X118888009Y-50118956D01*
X118953474Y-50094539D01*
X119021746Y-50109391D01*
X119053545Y-50134236D01*
X119116760Y-50202906D01*
X119294424Y-50341189D01*
X119294425Y-50341189D01*
X119294427Y-50341191D01*
X119354314Y-50373600D01*
X119492426Y-50448342D01*
X119705365Y-50521444D01*
X119927431Y-50558500D01*
X120152569Y-50558500D01*
X120374635Y-50521444D01*
X120587574Y-50448342D01*
X120785576Y-50341189D01*
X120963240Y-50202906D01*
X121084594Y-50071082D01*
X121115715Y-50037276D01*
X121115715Y-50037275D01*
X121115722Y-50037268D01*
X121206193Y-49898790D01*
X121259338Y-49853437D01*
X121328569Y-49844013D01*
X121391905Y-49873515D01*
X121413804Y-49898787D01*
X121504278Y-50037268D01*
X121504283Y-50037273D01*
X121504284Y-50037276D01*
X121656756Y-50202902D01*
X121656761Y-50202907D01*
X121684334Y-50224368D01*
X121834424Y-50341189D01*
X121834425Y-50341189D01*
X121834427Y-50341191D01*
X121894314Y-50373600D01*
X122032426Y-50448342D01*
X122245365Y-50521444D01*
X122467431Y-50558500D01*
X122692569Y-50558500D01*
X122914635Y-50521444D01*
X123127574Y-50448342D01*
X123325576Y-50341189D01*
X123503240Y-50202906D01*
X123624594Y-50071082D01*
X123655715Y-50037276D01*
X123655715Y-50037275D01*
X123655722Y-50037268D01*
X123749749Y-49893347D01*
X123802894Y-49847994D01*
X123872125Y-49838570D01*
X123935461Y-49868072D01*
X123955130Y-49890048D01*
X124081890Y-50071078D01*
X124248917Y-50238105D01*
X124442421Y-50373600D01*
X124656507Y-50473429D01*
X124656516Y-50473433D01*
X124870000Y-50530634D01*
X124870000Y-49633012D01*
X124927007Y-49665925D01*
X125054174Y-49700000D01*
X125185826Y-49700000D01*
X125312993Y-49665925D01*
X125370000Y-49633012D01*
X125370000Y-50530633D01*
X125583483Y-50473433D01*
X125583492Y-50473429D01*
X125797578Y-50373600D01*
X125991082Y-50238105D01*
X126158105Y-50071082D01*
X126284868Y-49890048D01*
X126339445Y-49846423D01*
X126408944Y-49839231D01*
X126471298Y-49870753D01*
X126490251Y-49893350D01*
X126584276Y-50037265D01*
X126584284Y-50037276D01*
X126736756Y-50202902D01*
X126736761Y-50202907D01*
X126764334Y-50224368D01*
X126914424Y-50341189D01*
X126914425Y-50341189D01*
X126914427Y-50341191D01*
X126974314Y-50373600D01*
X127112426Y-50448342D01*
X127325365Y-50521444D01*
X127547431Y-50558500D01*
X127772569Y-50558500D01*
X127994635Y-50521444D01*
X128207574Y-50448342D01*
X128405576Y-50341189D01*
X128583240Y-50202906D01*
X128704594Y-50071082D01*
X128735715Y-50037276D01*
X128735715Y-50037275D01*
X128735722Y-50037268D01*
X128826193Y-49898790D01*
X128879338Y-49853437D01*
X128948569Y-49844013D01*
X129011905Y-49873515D01*
X129033804Y-49898787D01*
X129124278Y-50037268D01*
X129124283Y-50037273D01*
X129124284Y-50037276D01*
X129276756Y-50202902D01*
X129276761Y-50202907D01*
X129304334Y-50224368D01*
X129454424Y-50341189D01*
X129454425Y-50341189D01*
X129454427Y-50341191D01*
X129514314Y-50373600D01*
X129652426Y-50448342D01*
X129865365Y-50521444D01*
X130087431Y-50558500D01*
X130312569Y-50558500D01*
X130534635Y-50521444D01*
X130747574Y-50448342D01*
X130945576Y-50341189D01*
X131123240Y-50202906D01*
X131244594Y-50071082D01*
X131275715Y-50037276D01*
X131275715Y-50037275D01*
X131275722Y-50037268D01*
X131366193Y-49898790D01*
X131419338Y-49853437D01*
X131488569Y-49844013D01*
X131551905Y-49873515D01*
X131573804Y-49898787D01*
X131664278Y-50037268D01*
X131664283Y-50037273D01*
X131664284Y-50037276D01*
X131816756Y-50202902D01*
X131816761Y-50202907D01*
X131844334Y-50224368D01*
X131994424Y-50341189D01*
X131994425Y-50341189D01*
X131994427Y-50341191D01*
X132054314Y-50373600D01*
X132192426Y-50448342D01*
X132405365Y-50521444D01*
X132627431Y-50558500D01*
X132852569Y-50558500D01*
X133074635Y-50521444D01*
X133287574Y-50448342D01*
X133485576Y-50341189D01*
X133663240Y-50202906D01*
X133784594Y-50071082D01*
X133815715Y-50037276D01*
X133815715Y-50037275D01*
X133815722Y-50037268D01*
X133906193Y-49898790D01*
X133959338Y-49853437D01*
X134028569Y-49844013D01*
X134091905Y-49873515D01*
X134113804Y-49898787D01*
X134204278Y-50037268D01*
X134204283Y-50037273D01*
X134204284Y-50037276D01*
X134356756Y-50202902D01*
X134356761Y-50202907D01*
X134384334Y-50224368D01*
X134534424Y-50341189D01*
X134534425Y-50341189D01*
X134534427Y-50341191D01*
X134594314Y-50373600D01*
X134732426Y-50448342D01*
X134945365Y-50521444D01*
X135167431Y-50558500D01*
X135392569Y-50558500D01*
X135614635Y-50521444D01*
X135827574Y-50448342D01*
X136025576Y-50341189D01*
X136203240Y-50202906D01*
X136324594Y-50071082D01*
X136355715Y-50037276D01*
X136355715Y-50037275D01*
X136355722Y-50037268D01*
X136446193Y-49898790D01*
X136499338Y-49853437D01*
X136568569Y-49844013D01*
X136631905Y-49873515D01*
X136653804Y-49898787D01*
X136744278Y-50037268D01*
X136744283Y-50037273D01*
X136744284Y-50037276D01*
X136896756Y-50202902D01*
X136896761Y-50202907D01*
X136924334Y-50224368D01*
X137074424Y-50341189D01*
X137074425Y-50341189D01*
X137074427Y-50341191D01*
X137134314Y-50373600D01*
X137272426Y-50448342D01*
X137485365Y-50521444D01*
X137707431Y-50558500D01*
X137932569Y-50558500D01*
X138154635Y-50521444D01*
X138367574Y-50448342D01*
X138565576Y-50341189D01*
X138743240Y-50202906D01*
X138864594Y-50071082D01*
X138895715Y-50037276D01*
X138895715Y-50037275D01*
X138895722Y-50037268D01*
X138986193Y-49898790D01*
X139039338Y-49853437D01*
X139108569Y-49844013D01*
X139171905Y-49873515D01*
X139193804Y-49898787D01*
X139284278Y-50037268D01*
X139284283Y-50037273D01*
X139284284Y-50037276D01*
X139436756Y-50202902D01*
X139436761Y-50202907D01*
X139464334Y-50224368D01*
X139614424Y-50341189D01*
X139614425Y-50341189D01*
X139614427Y-50341191D01*
X139674314Y-50373600D01*
X139812426Y-50448342D01*
X140025365Y-50521444D01*
X140247431Y-50558500D01*
X140472569Y-50558500D01*
X140694635Y-50521444D01*
X140907574Y-50448342D01*
X141105576Y-50341189D01*
X141283240Y-50202906D01*
X141404594Y-50071082D01*
X141435715Y-50037276D01*
X141435717Y-50037273D01*
X141435722Y-50037268D01*
X141558860Y-49848791D01*
X141649296Y-49642616D01*
X141704564Y-49424368D01*
X141707164Y-49392993D01*
X141723156Y-49200005D01*
X141723156Y-49199994D01*
X141714981Y-49101345D01*
X143601500Y-49101345D01*
X143601500Y-50898654D01*
X143608011Y-50959202D01*
X143608011Y-50959204D01*
X143659111Y-51096204D01*
X143746739Y-51213261D01*
X143863796Y-51300889D01*
X144000799Y-51351989D01*
X144028050Y-51354918D01*
X144061345Y-51358499D01*
X144061362Y-51358500D01*
X145858638Y-51358500D01*
X145858654Y-51358499D01*
X145885692Y-51355591D01*
X145919201Y-51351989D01*
X146056204Y-51300889D01*
X146173261Y-51213261D01*
X146260889Y-51096204D01*
X146306138Y-50974887D01*
X146348009Y-50918956D01*
X146413474Y-50894539D01*
X146481746Y-50909391D01*
X146513545Y-50934236D01*
X146576760Y-51002906D01*
X146754424Y-51141189D01*
X146754425Y-51141189D01*
X146754427Y-51141191D01*
X146881135Y-51209761D01*
X146952426Y-51248342D01*
X147165365Y-51321444D01*
X147387431Y-51358500D01*
X147612569Y-51358500D01*
X147834635Y-51321444D01*
X148047574Y-51248342D01*
X148245576Y-51141189D01*
X148423240Y-51002906D01*
X148575722Y-50837268D01*
X148666193Y-50698790D01*
X148719338Y-50653437D01*
X148788569Y-50644013D01*
X148851905Y-50673515D01*
X148873804Y-50698787D01*
X148964278Y-50837268D01*
X148964283Y-50837273D01*
X148964284Y-50837276D01*
X149090968Y-50974889D01*
X149116760Y-51002906D01*
X149294424Y-51141189D01*
X149294425Y-51141189D01*
X149294427Y-51141191D01*
X149421135Y-51209761D01*
X149492426Y-51248342D01*
X149705365Y-51321444D01*
X149927431Y-51358500D01*
X150152569Y-51358500D01*
X150374635Y-51321444D01*
X150587574Y-51248342D01*
X150785576Y-51141189D01*
X150963240Y-51002906D01*
X151115722Y-50837268D01*
X151206193Y-50698790D01*
X151259338Y-50653437D01*
X151328569Y-50644013D01*
X151391905Y-50673515D01*
X151413804Y-50698787D01*
X151504278Y-50837268D01*
X151504283Y-50837273D01*
X151504284Y-50837276D01*
X151630968Y-50974889D01*
X151656760Y-51002906D01*
X151834424Y-51141189D01*
X151834425Y-51141189D01*
X151834427Y-51141191D01*
X151961135Y-51209761D01*
X152032426Y-51248342D01*
X152245365Y-51321444D01*
X152467431Y-51358500D01*
X152692569Y-51358500D01*
X152914635Y-51321444D01*
X153127574Y-51248342D01*
X153325576Y-51141189D01*
X153503240Y-51002906D01*
X153655722Y-50837268D01*
X153746193Y-50698790D01*
X153799338Y-50653437D01*
X153868569Y-50644013D01*
X153931905Y-50673515D01*
X153953804Y-50698787D01*
X154044278Y-50837268D01*
X154044283Y-50837273D01*
X154044284Y-50837276D01*
X154170968Y-50974889D01*
X154196760Y-51002906D01*
X154374424Y-51141189D01*
X154374425Y-51141189D01*
X154374427Y-51141191D01*
X154501135Y-51209761D01*
X154572426Y-51248342D01*
X154785365Y-51321444D01*
X155007431Y-51358500D01*
X155232569Y-51358500D01*
X155454635Y-51321444D01*
X155667574Y-51248342D01*
X155865576Y-51141189D01*
X156043240Y-51002906D01*
X156195722Y-50837268D01*
X156286193Y-50698790D01*
X156339338Y-50653437D01*
X156408569Y-50644013D01*
X156471905Y-50673515D01*
X156493804Y-50698787D01*
X156584278Y-50837268D01*
X156584283Y-50837273D01*
X156584284Y-50837276D01*
X156710968Y-50974889D01*
X156736760Y-51002906D01*
X156914424Y-51141189D01*
X156914425Y-51141189D01*
X156914427Y-51141191D01*
X157041135Y-51209761D01*
X157112426Y-51248342D01*
X157325365Y-51321444D01*
X157547431Y-51358500D01*
X157772569Y-51358500D01*
X157994635Y-51321444D01*
X158207574Y-51248342D01*
X158405576Y-51141189D01*
X158583240Y-51002906D01*
X158735722Y-50837268D01*
X158826193Y-50698790D01*
X158879338Y-50653437D01*
X158948569Y-50644013D01*
X159011905Y-50673515D01*
X159033804Y-50698787D01*
X159124278Y-50837268D01*
X159124283Y-50837273D01*
X159124284Y-50837276D01*
X159250968Y-50974889D01*
X159276760Y-51002906D01*
X159454424Y-51141189D01*
X159454425Y-51141189D01*
X159454427Y-51141191D01*
X159581135Y-51209761D01*
X159652426Y-51248342D01*
X159865365Y-51321444D01*
X160087431Y-51358500D01*
X160312569Y-51358500D01*
X160534635Y-51321444D01*
X160747574Y-51248342D01*
X160945576Y-51141189D01*
X161123240Y-51002906D01*
X161275722Y-50837268D01*
X161366193Y-50698790D01*
X161419338Y-50653437D01*
X161488569Y-50644013D01*
X161551905Y-50673515D01*
X161573804Y-50698787D01*
X161664278Y-50837268D01*
X161664283Y-50837273D01*
X161664284Y-50837276D01*
X161790968Y-50974889D01*
X161816760Y-51002906D01*
X161994424Y-51141189D01*
X161994425Y-51141189D01*
X161994427Y-51141191D01*
X162121135Y-51209761D01*
X162192426Y-51248342D01*
X162405365Y-51321444D01*
X162627431Y-51358500D01*
X162852569Y-51358500D01*
X163074635Y-51321444D01*
X163287574Y-51248342D01*
X163485576Y-51141189D01*
X163663240Y-51002906D01*
X163815722Y-50837268D01*
X163938860Y-50648791D01*
X164029296Y-50442616D01*
X164084564Y-50224368D01*
X164084565Y-50224359D01*
X164103156Y-50000005D01*
X164103156Y-49999994D01*
X164084565Y-49775640D01*
X164084563Y-49775628D01*
X164065411Y-49700000D01*
X164029296Y-49557384D01*
X163938860Y-49351209D01*
X163922706Y-49326484D01*
X163860502Y-49231273D01*
X163815722Y-49162732D01*
X163815719Y-49162729D01*
X163815715Y-49162723D01*
X163663243Y-48997097D01*
X163663238Y-48997092D01*
X163543371Y-48903795D01*
X163485576Y-48858811D01*
X163485575Y-48858810D01*
X163485572Y-48858808D01*
X163287580Y-48751661D01*
X163287577Y-48751659D01*
X163287574Y-48751658D01*
X163287571Y-48751657D01*
X163287569Y-48751656D01*
X163074637Y-48678556D01*
X162852569Y-48641500D01*
X162627431Y-48641500D01*
X162405362Y-48678556D01*
X162192430Y-48751656D01*
X162192419Y-48751661D01*
X161994427Y-48858808D01*
X161994422Y-48858812D01*
X161816761Y-48997092D01*
X161816756Y-48997097D01*
X161664284Y-49162723D01*
X161664276Y-49162734D01*
X161573808Y-49301206D01*
X161520662Y-49346562D01*
X161451431Y-49355986D01*
X161388095Y-49326484D01*
X161366192Y-49301206D01*
X161296774Y-49194954D01*
X161275722Y-49162732D01*
X161275719Y-49162729D01*
X161275715Y-49162723D01*
X161123243Y-48997097D01*
X161123238Y-48997092D01*
X161003371Y-48903795D01*
X160945576Y-48858811D01*
X160945575Y-48858810D01*
X160945572Y-48858808D01*
X160747580Y-48751661D01*
X160747577Y-48751659D01*
X160747574Y-48751658D01*
X160747571Y-48751657D01*
X160747569Y-48751656D01*
X160534637Y-48678556D01*
X160312569Y-48641500D01*
X160087431Y-48641500D01*
X159865362Y-48678556D01*
X159652430Y-48751656D01*
X159652419Y-48751661D01*
X159454427Y-48858808D01*
X159454422Y-48858812D01*
X159276761Y-48997092D01*
X159276756Y-48997097D01*
X159124284Y-49162723D01*
X159124276Y-49162734D01*
X159033808Y-49301206D01*
X158980662Y-49346562D01*
X158911431Y-49355986D01*
X158848095Y-49326484D01*
X158826192Y-49301206D01*
X158756774Y-49194954D01*
X158735722Y-49162732D01*
X158735719Y-49162729D01*
X158735715Y-49162723D01*
X158583243Y-48997097D01*
X158583238Y-48997092D01*
X158463371Y-48903795D01*
X158405576Y-48858811D01*
X158405575Y-48858810D01*
X158405572Y-48858808D01*
X158207580Y-48751661D01*
X158207577Y-48751659D01*
X158207574Y-48751658D01*
X158207571Y-48751657D01*
X158207569Y-48751656D01*
X157994637Y-48678556D01*
X157772569Y-48641500D01*
X157547431Y-48641500D01*
X157325362Y-48678556D01*
X157112430Y-48751656D01*
X157112419Y-48751661D01*
X156914427Y-48858808D01*
X156914422Y-48858812D01*
X156736761Y-48997092D01*
X156736756Y-48997097D01*
X156584284Y-49162723D01*
X156584276Y-49162734D01*
X156493808Y-49301206D01*
X156440662Y-49346562D01*
X156371431Y-49355986D01*
X156308095Y-49326484D01*
X156286192Y-49301206D01*
X156216774Y-49194954D01*
X156195722Y-49162732D01*
X156195719Y-49162729D01*
X156195715Y-49162723D01*
X156043243Y-48997097D01*
X156043238Y-48997092D01*
X155923371Y-48903795D01*
X155865576Y-48858811D01*
X155865575Y-48858810D01*
X155865572Y-48858808D01*
X155667580Y-48751661D01*
X155667577Y-48751659D01*
X155667574Y-48751658D01*
X155667571Y-48751657D01*
X155667569Y-48751656D01*
X155454637Y-48678556D01*
X155232569Y-48641500D01*
X155007431Y-48641500D01*
X154785362Y-48678556D01*
X154572430Y-48751656D01*
X154572419Y-48751661D01*
X154374427Y-48858808D01*
X154374422Y-48858812D01*
X154196761Y-48997092D01*
X154196756Y-48997097D01*
X154044284Y-49162723D01*
X154044276Y-49162734D01*
X153953808Y-49301206D01*
X153900662Y-49346562D01*
X153831431Y-49355986D01*
X153768095Y-49326484D01*
X153746192Y-49301206D01*
X153676774Y-49194954D01*
X153655722Y-49162732D01*
X153655719Y-49162729D01*
X153655715Y-49162723D01*
X153503243Y-48997097D01*
X153503238Y-48997092D01*
X153383371Y-48903795D01*
X153325576Y-48858811D01*
X153325575Y-48858810D01*
X153325572Y-48858808D01*
X153127580Y-48751661D01*
X153127577Y-48751659D01*
X153127574Y-48751658D01*
X153127571Y-48751657D01*
X153127569Y-48751656D01*
X152914637Y-48678556D01*
X152692569Y-48641500D01*
X152467431Y-48641500D01*
X152245362Y-48678556D01*
X152032430Y-48751656D01*
X152032419Y-48751661D01*
X151834427Y-48858808D01*
X151834422Y-48858812D01*
X151656761Y-48997092D01*
X151656756Y-48997097D01*
X151504284Y-49162723D01*
X151504276Y-49162734D01*
X151413808Y-49301206D01*
X151360662Y-49346562D01*
X151291431Y-49355986D01*
X151228095Y-49326484D01*
X151206192Y-49301206D01*
X151136774Y-49194954D01*
X151115722Y-49162732D01*
X151115719Y-49162729D01*
X151115715Y-49162723D01*
X150963243Y-48997097D01*
X150963238Y-48997092D01*
X150843371Y-48903795D01*
X150785576Y-48858811D01*
X150785575Y-48858810D01*
X150785572Y-48858808D01*
X150587580Y-48751661D01*
X150587577Y-48751659D01*
X150587574Y-48751658D01*
X150587571Y-48751657D01*
X150587569Y-48751656D01*
X150374637Y-48678556D01*
X150152569Y-48641500D01*
X149927431Y-48641500D01*
X149705362Y-48678556D01*
X149492430Y-48751656D01*
X149492419Y-48751661D01*
X149294427Y-48858808D01*
X149294422Y-48858812D01*
X149116761Y-48997092D01*
X149116756Y-48997097D01*
X148964284Y-49162723D01*
X148964276Y-49162734D01*
X148873808Y-49301206D01*
X148820662Y-49346562D01*
X148751431Y-49355986D01*
X148688095Y-49326484D01*
X148666192Y-49301206D01*
X148596774Y-49194954D01*
X148575722Y-49162732D01*
X148575719Y-49162729D01*
X148575715Y-49162723D01*
X148423243Y-48997097D01*
X148423238Y-48997092D01*
X148303371Y-48903795D01*
X148245576Y-48858811D01*
X148245575Y-48858810D01*
X148245572Y-48858808D01*
X148047580Y-48751661D01*
X148047577Y-48751659D01*
X148047574Y-48751658D01*
X148047571Y-48751657D01*
X148047569Y-48751656D01*
X147834637Y-48678556D01*
X147612569Y-48641500D01*
X147387431Y-48641500D01*
X147165362Y-48678556D01*
X146952430Y-48751656D01*
X146952419Y-48751661D01*
X146754427Y-48858808D01*
X146754422Y-48858812D01*
X146576761Y-48997092D01*
X146513548Y-49065760D01*
X146453661Y-49101750D01*
X146383823Y-49099649D01*
X146326207Y-49060124D01*
X146306138Y-49025110D01*
X146260889Y-48903796D01*
X146227214Y-48858812D01*
X146173261Y-48786739D01*
X146056204Y-48699111D01*
X145919203Y-48648011D01*
X145858654Y-48641500D01*
X145858638Y-48641500D01*
X144061362Y-48641500D01*
X144061345Y-48641500D01*
X144000797Y-48648011D01*
X144000795Y-48648011D01*
X143863795Y-48699111D01*
X143746739Y-48786739D01*
X143659111Y-48903795D01*
X143608011Y-49040795D01*
X143608011Y-49040797D01*
X143601500Y-49101345D01*
X141714981Y-49101345D01*
X141704565Y-48975640D01*
X141704563Y-48975628D01*
X141660063Y-48799901D01*
X141649296Y-48757384D01*
X141558860Y-48551209D01*
X141542706Y-48526484D01*
X141435723Y-48362734D01*
X141435715Y-48362723D01*
X141283243Y-48197097D01*
X141283238Y-48197092D01*
X141105577Y-48058812D01*
X141105572Y-48058808D01*
X140907580Y-47951661D01*
X140907577Y-47951659D01*
X140907574Y-47951658D01*
X140907571Y-47951657D01*
X140907569Y-47951656D01*
X140694637Y-47878556D01*
X140472569Y-47841500D01*
X140247431Y-47841500D01*
X140025362Y-47878556D01*
X139812430Y-47951656D01*
X139812419Y-47951661D01*
X139614427Y-48058808D01*
X139614422Y-48058812D01*
X139436761Y-48197092D01*
X139436756Y-48197097D01*
X139284284Y-48362723D01*
X139284276Y-48362734D01*
X139193808Y-48501206D01*
X139140662Y-48546562D01*
X139071431Y-48555986D01*
X139008095Y-48526484D01*
X138986192Y-48501206D01*
X138895723Y-48362734D01*
X138895715Y-48362723D01*
X138743243Y-48197097D01*
X138743238Y-48197092D01*
X138565577Y-48058812D01*
X138565572Y-48058808D01*
X138367580Y-47951661D01*
X138367577Y-47951659D01*
X138367574Y-47951658D01*
X138367571Y-47951657D01*
X138367569Y-47951656D01*
X138154637Y-47878556D01*
X137932569Y-47841500D01*
X137707431Y-47841500D01*
X137485362Y-47878556D01*
X137272430Y-47951656D01*
X137272419Y-47951661D01*
X137074427Y-48058808D01*
X137074422Y-48058812D01*
X136896761Y-48197092D01*
X136896756Y-48197097D01*
X136744284Y-48362723D01*
X136744276Y-48362734D01*
X136653808Y-48501206D01*
X136600662Y-48546562D01*
X136531431Y-48555986D01*
X136468095Y-48526484D01*
X136446192Y-48501206D01*
X136355723Y-48362734D01*
X136355715Y-48362723D01*
X136203243Y-48197097D01*
X136203238Y-48197092D01*
X136025577Y-48058812D01*
X136025572Y-48058808D01*
X135827580Y-47951661D01*
X135827577Y-47951659D01*
X135827574Y-47951658D01*
X135827571Y-47951657D01*
X135827569Y-47951656D01*
X135614637Y-47878556D01*
X135392569Y-47841500D01*
X135167431Y-47841500D01*
X134945362Y-47878556D01*
X134732430Y-47951656D01*
X134732419Y-47951661D01*
X134534427Y-48058808D01*
X134534422Y-48058812D01*
X134356761Y-48197092D01*
X134356756Y-48197097D01*
X134204284Y-48362723D01*
X134204276Y-48362734D01*
X134113808Y-48501206D01*
X134060662Y-48546562D01*
X133991431Y-48555986D01*
X133928095Y-48526484D01*
X133906192Y-48501206D01*
X133815723Y-48362734D01*
X133815715Y-48362723D01*
X133663243Y-48197097D01*
X133663238Y-48197092D01*
X133485577Y-48058812D01*
X133485572Y-48058808D01*
X133287580Y-47951661D01*
X133287577Y-47951659D01*
X133287574Y-47951658D01*
X133287571Y-47951657D01*
X133287569Y-47951656D01*
X133074637Y-47878556D01*
X132852569Y-47841500D01*
X132627431Y-47841500D01*
X132405362Y-47878556D01*
X132192430Y-47951656D01*
X132192419Y-47951661D01*
X131994427Y-48058808D01*
X131994422Y-48058812D01*
X131816761Y-48197092D01*
X131816756Y-48197097D01*
X131664284Y-48362723D01*
X131664276Y-48362734D01*
X131573808Y-48501206D01*
X131520662Y-48546562D01*
X131451431Y-48555986D01*
X131388095Y-48526484D01*
X131366192Y-48501206D01*
X131275723Y-48362734D01*
X131275715Y-48362723D01*
X131123243Y-48197097D01*
X131123238Y-48197092D01*
X130945577Y-48058812D01*
X130945572Y-48058808D01*
X130747580Y-47951661D01*
X130747577Y-47951659D01*
X130747574Y-47951658D01*
X130747571Y-47951657D01*
X130747569Y-47951656D01*
X130534637Y-47878556D01*
X130312569Y-47841500D01*
X130087431Y-47841500D01*
X129865362Y-47878556D01*
X129652430Y-47951656D01*
X129652419Y-47951661D01*
X129454427Y-48058808D01*
X129454422Y-48058812D01*
X129276761Y-48197092D01*
X129276756Y-48197097D01*
X129124284Y-48362723D01*
X129124276Y-48362734D01*
X129033808Y-48501206D01*
X128980662Y-48546562D01*
X128911431Y-48555986D01*
X128848095Y-48526484D01*
X128826192Y-48501206D01*
X128735723Y-48362734D01*
X128735715Y-48362723D01*
X128583243Y-48197097D01*
X128583238Y-48197092D01*
X128405577Y-48058812D01*
X128405572Y-48058808D01*
X128207580Y-47951661D01*
X128207577Y-47951659D01*
X128207574Y-47951658D01*
X128207571Y-47951657D01*
X128207569Y-47951656D01*
X127994637Y-47878556D01*
X127772569Y-47841500D01*
X127547431Y-47841500D01*
X127325362Y-47878556D01*
X127112430Y-47951656D01*
X127112419Y-47951661D01*
X126914427Y-48058808D01*
X126914422Y-48058812D01*
X126736761Y-48197092D01*
X126736756Y-48197097D01*
X126584284Y-48362723D01*
X126584276Y-48362734D01*
X126490251Y-48506650D01*
X126437105Y-48552007D01*
X126367873Y-48561430D01*
X126304538Y-48531928D01*
X126284868Y-48509951D01*
X126158113Y-48328926D01*
X126158108Y-48328920D01*
X125991082Y-48161894D01*
X125797578Y-48026399D01*
X125583492Y-47926570D01*
X125583486Y-47926567D01*
X125370000Y-47869364D01*
X125370000Y-48766988D01*
X125312993Y-48734075D01*
X125185826Y-48700000D01*
X125054174Y-48700000D01*
X124927007Y-48734075D01*
X124870000Y-48766988D01*
X124870000Y-47869364D01*
X124869999Y-47869364D01*
X124656513Y-47926567D01*
X124656507Y-47926570D01*
X124442422Y-48026399D01*
X124442420Y-48026400D01*
X124248926Y-48161886D01*
X124248920Y-48161891D01*
X124081891Y-48328920D01*
X124081890Y-48328922D01*
X123955131Y-48509952D01*
X123900554Y-48553577D01*
X123831055Y-48560769D01*
X123768701Y-48529247D01*
X123749752Y-48506656D01*
X123655722Y-48362732D01*
X123655715Y-48362725D01*
X123655715Y-48362723D01*
X123503243Y-48197097D01*
X123503238Y-48197092D01*
X123325577Y-48058812D01*
X123325572Y-48058808D01*
X123127580Y-47951661D01*
X123127577Y-47951659D01*
X123127574Y-47951658D01*
X123127571Y-47951657D01*
X123127569Y-47951656D01*
X122914637Y-47878556D01*
X122692569Y-47841500D01*
X122467431Y-47841500D01*
X122245362Y-47878556D01*
X122032430Y-47951656D01*
X122032419Y-47951661D01*
X121834427Y-48058808D01*
X121834422Y-48058812D01*
X121656761Y-48197092D01*
X121656756Y-48197097D01*
X121504284Y-48362723D01*
X121504276Y-48362734D01*
X121413808Y-48501206D01*
X121360662Y-48546562D01*
X121291431Y-48555986D01*
X121228095Y-48526484D01*
X121206192Y-48501206D01*
X121115723Y-48362734D01*
X121115715Y-48362723D01*
X120963243Y-48197097D01*
X120963238Y-48197092D01*
X120785577Y-48058812D01*
X120785572Y-48058808D01*
X120587580Y-47951661D01*
X120587577Y-47951659D01*
X120587574Y-47951658D01*
X120587571Y-47951657D01*
X120587569Y-47951656D01*
X120374637Y-47878556D01*
X120152569Y-47841500D01*
X119927431Y-47841500D01*
X119705362Y-47878556D01*
X119492430Y-47951656D01*
X119492419Y-47951661D01*
X119294427Y-48058808D01*
X119294422Y-48058812D01*
X119116761Y-48197092D01*
X119053548Y-48265760D01*
X118993661Y-48301750D01*
X118923823Y-48299649D01*
X118866207Y-48260124D01*
X118846138Y-48225110D01*
X118800889Y-48103796D01*
X118767214Y-48058812D01*
X118713261Y-47986739D01*
X118596204Y-47899111D01*
X118459203Y-47848011D01*
X118398654Y-47841500D01*
X118398638Y-47841500D01*
X116601362Y-47841500D01*
X116601345Y-47841500D01*
X116540797Y-47848011D01*
X116540795Y-47848011D01*
X116403795Y-47899111D01*
X116286739Y-47986739D01*
X116199111Y-48103795D01*
X116148011Y-48240795D01*
X116148011Y-48240797D01*
X116141500Y-48301345D01*
X100075500Y-48301345D01*
X100075500Y-47428092D01*
X100076097Y-47415938D01*
X100087494Y-47300222D01*
X100092234Y-47276389D01*
X100124216Y-47170959D01*
X100133508Y-47148526D01*
X100185442Y-47051365D01*
X100198938Y-47031166D01*
X100268827Y-46946006D01*
X100286006Y-46928827D01*
X100371166Y-46858938D01*
X100391365Y-46845442D01*
X100488526Y-46793508D01*
X100510959Y-46784216D01*
X100616389Y-46752234D01*
X100640220Y-46747494D01*
X100755939Y-46736097D01*
X100768093Y-46735500D01*
X100786531Y-46735500D01*
X163417365Y-46735500D01*
X163484404Y-46755185D01*
G37*
%TD.AperFunction*%
%TD*%
M02*
