%TF.GenerationSoftware,KiCad,Pcbnew,8.0.8*%
%TF.CreationDate,2025-02-03T16:01:42-07:00*%
%TF.ProjectId,MicroProcess_PhaseB_thermo_uno,4d696372-6f50-4726-9f63-6573735f5068,rev?*%
%TF.SameCoordinates,Original*%
%TF.FileFunction,Legend,Top*%
%TF.FilePolarity,Positive*%
%FSLAX46Y46*%
G04 Gerber Fmt 4.6, Leading zero omitted, Abs format (unit mm)*
G04 Created by KiCad (PCBNEW 8.0.8) date 2025-02-03 16:01:42*
%MOMM*%
%LPD*%
G01*
G04 APERTURE LIST*
%ADD10C,0.150000*%
%ADD11C,0.120000*%
G04 APERTURE END LIST*
D10*
X100500000Y-69500000D02*
X127000000Y-69500000D01*
X127000000Y-95000000D01*
X100500000Y-95000000D01*
X100500000Y-69500000D01*
X103500000Y-51500000D02*
X125000000Y-51500000D01*
X125000000Y-68500000D01*
X103500000Y-68500000D01*
X103500000Y-51500000D01*
X106184819Y-71833333D02*
X106899104Y-71833333D01*
X106899104Y-71833333D02*
X107041961Y-71880952D01*
X107041961Y-71880952D02*
X107137200Y-71976190D01*
X107137200Y-71976190D02*
X107184819Y-72119047D01*
X107184819Y-72119047D02*
X107184819Y-72214285D01*
X106184819Y-71452380D02*
X106184819Y-70785714D01*
X106184819Y-70785714D02*
X107184819Y-71214285D01*
X130491905Y-53494819D02*
X130491905Y-52494819D01*
X130491905Y-52494819D02*
X130730000Y-52494819D01*
X130730000Y-52494819D02*
X130872857Y-52542438D01*
X130872857Y-52542438D02*
X130968095Y-52637676D01*
X130968095Y-52637676D02*
X131015714Y-52732914D01*
X131015714Y-52732914D02*
X131063333Y-52923390D01*
X131063333Y-52923390D02*
X131063333Y-53066247D01*
X131063333Y-53066247D02*
X131015714Y-53256723D01*
X131015714Y-53256723D02*
X130968095Y-53351961D01*
X130968095Y-53351961D02*
X130872857Y-53447200D01*
X130872857Y-53447200D02*
X130730000Y-53494819D01*
X130730000Y-53494819D02*
X130491905Y-53494819D01*
X132015714Y-53494819D02*
X131444286Y-53494819D01*
X131730000Y-53494819D02*
X131730000Y-52494819D01*
X131730000Y-52494819D02*
X131634762Y-52637676D01*
X131634762Y-52637676D02*
X131539524Y-52732914D01*
X131539524Y-52732914D02*
X131444286Y-52780533D01*
X128879819Y-79833333D02*
X129594104Y-79833333D01*
X129594104Y-79833333D02*
X129736961Y-79880952D01*
X129736961Y-79880952D02*
X129832200Y-79976190D01*
X129832200Y-79976190D02*
X129879819Y-80119047D01*
X129879819Y-80119047D02*
X129879819Y-80214285D01*
X128879819Y-78928571D02*
X128879819Y-79119047D01*
X128879819Y-79119047D02*
X128927438Y-79214285D01*
X128927438Y-79214285D02*
X128975057Y-79261904D01*
X128975057Y-79261904D02*
X129117914Y-79357142D01*
X129117914Y-79357142D02*
X129308390Y-79404761D01*
X129308390Y-79404761D02*
X129689342Y-79404761D01*
X129689342Y-79404761D02*
X129784580Y-79357142D01*
X129784580Y-79357142D02*
X129832200Y-79309523D01*
X129832200Y-79309523D02*
X129879819Y-79214285D01*
X129879819Y-79214285D02*
X129879819Y-79023809D01*
X129879819Y-79023809D02*
X129832200Y-78928571D01*
X129832200Y-78928571D02*
X129784580Y-78880952D01*
X129784580Y-78880952D02*
X129689342Y-78833333D01*
X129689342Y-78833333D02*
X129451247Y-78833333D01*
X129451247Y-78833333D02*
X129356009Y-78880952D01*
X129356009Y-78880952D02*
X129308390Y-78928571D01*
X129308390Y-78928571D02*
X129260771Y-79023809D01*
X129260771Y-79023809D02*
X129260771Y-79214285D01*
X129260771Y-79214285D02*
X129308390Y-79309523D01*
X129308390Y-79309523D02*
X129356009Y-79357142D01*
X129356009Y-79357142D02*
X129451247Y-79404761D01*
X142166667Y-68857200D02*
X142309524Y-68904819D01*
X142309524Y-68904819D02*
X142547619Y-68904819D01*
X142547619Y-68904819D02*
X142642857Y-68857200D01*
X142642857Y-68857200D02*
X142690476Y-68809580D01*
X142690476Y-68809580D02*
X142738095Y-68714342D01*
X142738095Y-68714342D02*
X142738095Y-68619104D01*
X142738095Y-68619104D02*
X142690476Y-68523866D01*
X142690476Y-68523866D02*
X142642857Y-68476247D01*
X142642857Y-68476247D02*
X142547619Y-68428628D01*
X142547619Y-68428628D02*
X142357143Y-68381009D01*
X142357143Y-68381009D02*
X142261905Y-68333390D01*
X142261905Y-68333390D02*
X142214286Y-68285771D01*
X142214286Y-68285771D02*
X142166667Y-68190533D01*
X142166667Y-68190533D02*
X142166667Y-68095295D01*
X142166667Y-68095295D02*
X142214286Y-68000057D01*
X142214286Y-68000057D02*
X142261905Y-67952438D01*
X142261905Y-67952438D02*
X142357143Y-67904819D01*
X142357143Y-67904819D02*
X142595238Y-67904819D01*
X142595238Y-67904819D02*
X142738095Y-67952438D01*
X143071429Y-67904819D02*
X143309524Y-68904819D01*
X143309524Y-68904819D02*
X143500000Y-68190533D01*
X143500000Y-68190533D02*
X143690476Y-68904819D01*
X143690476Y-68904819D02*
X143928572Y-67904819D01*
X144214286Y-67904819D02*
X144833333Y-67904819D01*
X144833333Y-67904819D02*
X144500000Y-68285771D01*
X144500000Y-68285771D02*
X144642857Y-68285771D01*
X144642857Y-68285771D02*
X144738095Y-68333390D01*
X144738095Y-68333390D02*
X144785714Y-68381009D01*
X144785714Y-68381009D02*
X144833333Y-68476247D01*
X144833333Y-68476247D02*
X144833333Y-68714342D01*
X144833333Y-68714342D02*
X144785714Y-68809580D01*
X144785714Y-68809580D02*
X144738095Y-68857200D01*
X144738095Y-68857200D02*
X144642857Y-68904819D01*
X144642857Y-68904819D02*
X144357143Y-68904819D01*
X144357143Y-68904819D02*
X144261905Y-68857200D01*
X144261905Y-68857200D02*
X144214286Y-68809580D01*
X164454819Y-59666666D02*
X163978628Y-59999999D01*
X164454819Y-60238094D02*
X163454819Y-60238094D01*
X163454819Y-60238094D02*
X163454819Y-59857142D01*
X163454819Y-59857142D02*
X163502438Y-59761904D01*
X163502438Y-59761904D02*
X163550057Y-59714285D01*
X163550057Y-59714285D02*
X163645295Y-59666666D01*
X163645295Y-59666666D02*
X163788152Y-59666666D01*
X163788152Y-59666666D02*
X163883390Y-59714285D01*
X163883390Y-59714285D02*
X163931009Y-59761904D01*
X163931009Y-59761904D02*
X163978628Y-59857142D01*
X163978628Y-59857142D02*
X163978628Y-60238094D01*
X164454819Y-58714285D02*
X164454819Y-59285713D01*
X164454819Y-58999999D02*
X163454819Y-58999999D01*
X163454819Y-58999999D02*
X163597676Y-59095237D01*
X163597676Y-59095237D02*
X163692914Y-59190475D01*
X163692914Y-59190475D02*
X163740533Y-59285713D01*
X145666667Y-84407200D02*
X145809524Y-84454819D01*
X145809524Y-84454819D02*
X146047619Y-84454819D01*
X146047619Y-84454819D02*
X146142857Y-84407200D01*
X146142857Y-84407200D02*
X146190476Y-84359580D01*
X146190476Y-84359580D02*
X146238095Y-84264342D01*
X146238095Y-84264342D02*
X146238095Y-84169104D01*
X146238095Y-84169104D02*
X146190476Y-84073866D01*
X146190476Y-84073866D02*
X146142857Y-84026247D01*
X146142857Y-84026247D02*
X146047619Y-83978628D01*
X146047619Y-83978628D02*
X145857143Y-83931009D01*
X145857143Y-83931009D02*
X145761905Y-83883390D01*
X145761905Y-83883390D02*
X145714286Y-83835771D01*
X145714286Y-83835771D02*
X145666667Y-83740533D01*
X145666667Y-83740533D02*
X145666667Y-83645295D01*
X145666667Y-83645295D02*
X145714286Y-83550057D01*
X145714286Y-83550057D02*
X145761905Y-83502438D01*
X145761905Y-83502438D02*
X145857143Y-83454819D01*
X145857143Y-83454819D02*
X146095238Y-83454819D01*
X146095238Y-83454819D02*
X146238095Y-83502438D01*
X146571429Y-83454819D02*
X146809524Y-84454819D01*
X146809524Y-84454819D02*
X147000000Y-83740533D01*
X147000000Y-83740533D02*
X147190476Y-84454819D01*
X147190476Y-84454819D02*
X147428572Y-83454819D01*
X148285714Y-83454819D02*
X147809524Y-83454819D01*
X147809524Y-83454819D02*
X147761905Y-83931009D01*
X147761905Y-83931009D02*
X147809524Y-83883390D01*
X147809524Y-83883390D02*
X147904762Y-83835771D01*
X147904762Y-83835771D02*
X148142857Y-83835771D01*
X148142857Y-83835771D02*
X148238095Y-83883390D01*
X148238095Y-83883390D02*
X148285714Y-83931009D01*
X148285714Y-83931009D02*
X148333333Y-84026247D01*
X148333333Y-84026247D02*
X148333333Y-84264342D01*
X148333333Y-84264342D02*
X148285714Y-84359580D01*
X148285714Y-84359580D02*
X148238095Y-84407200D01*
X148238095Y-84407200D02*
X148142857Y-84454819D01*
X148142857Y-84454819D02*
X147904762Y-84454819D01*
X147904762Y-84454819D02*
X147809524Y-84407200D01*
X147809524Y-84407200D02*
X147761905Y-84359580D01*
X155916667Y-59957200D02*
X156059524Y-60004819D01*
X156059524Y-60004819D02*
X156297619Y-60004819D01*
X156297619Y-60004819D02*
X156392857Y-59957200D01*
X156392857Y-59957200D02*
X156440476Y-59909580D01*
X156440476Y-59909580D02*
X156488095Y-59814342D01*
X156488095Y-59814342D02*
X156488095Y-59719104D01*
X156488095Y-59719104D02*
X156440476Y-59623866D01*
X156440476Y-59623866D02*
X156392857Y-59576247D01*
X156392857Y-59576247D02*
X156297619Y-59528628D01*
X156297619Y-59528628D02*
X156107143Y-59481009D01*
X156107143Y-59481009D02*
X156011905Y-59433390D01*
X156011905Y-59433390D02*
X155964286Y-59385771D01*
X155964286Y-59385771D02*
X155916667Y-59290533D01*
X155916667Y-59290533D02*
X155916667Y-59195295D01*
X155916667Y-59195295D02*
X155964286Y-59100057D01*
X155964286Y-59100057D02*
X156011905Y-59052438D01*
X156011905Y-59052438D02*
X156107143Y-59004819D01*
X156107143Y-59004819D02*
X156345238Y-59004819D01*
X156345238Y-59004819D02*
X156488095Y-59052438D01*
X156821429Y-59004819D02*
X157059524Y-60004819D01*
X157059524Y-60004819D02*
X157250000Y-59290533D01*
X157250000Y-59290533D02*
X157440476Y-60004819D01*
X157440476Y-60004819D02*
X157678572Y-59004819D01*
X158583333Y-60004819D02*
X158011905Y-60004819D01*
X158297619Y-60004819D02*
X158297619Y-59004819D01*
X158297619Y-59004819D02*
X158202381Y-59147676D01*
X158202381Y-59147676D02*
X158107143Y-59242914D01*
X158107143Y-59242914D02*
X158011905Y-59290533D01*
X142916667Y-60407200D02*
X143059524Y-60454819D01*
X143059524Y-60454819D02*
X143297619Y-60454819D01*
X143297619Y-60454819D02*
X143392857Y-60407200D01*
X143392857Y-60407200D02*
X143440476Y-60359580D01*
X143440476Y-60359580D02*
X143488095Y-60264342D01*
X143488095Y-60264342D02*
X143488095Y-60169104D01*
X143488095Y-60169104D02*
X143440476Y-60073866D01*
X143440476Y-60073866D02*
X143392857Y-60026247D01*
X143392857Y-60026247D02*
X143297619Y-59978628D01*
X143297619Y-59978628D02*
X143107143Y-59931009D01*
X143107143Y-59931009D02*
X143011905Y-59883390D01*
X143011905Y-59883390D02*
X142964286Y-59835771D01*
X142964286Y-59835771D02*
X142916667Y-59740533D01*
X142916667Y-59740533D02*
X142916667Y-59645295D01*
X142916667Y-59645295D02*
X142964286Y-59550057D01*
X142964286Y-59550057D02*
X143011905Y-59502438D01*
X143011905Y-59502438D02*
X143107143Y-59454819D01*
X143107143Y-59454819D02*
X143345238Y-59454819D01*
X143345238Y-59454819D02*
X143488095Y-59502438D01*
X143821429Y-59454819D02*
X144059524Y-60454819D01*
X144059524Y-60454819D02*
X144250000Y-59740533D01*
X144250000Y-59740533D02*
X144440476Y-60454819D01*
X144440476Y-60454819D02*
X144678572Y-59454819D01*
X145011905Y-59550057D02*
X145059524Y-59502438D01*
X145059524Y-59502438D02*
X145154762Y-59454819D01*
X145154762Y-59454819D02*
X145392857Y-59454819D01*
X145392857Y-59454819D02*
X145488095Y-59502438D01*
X145488095Y-59502438D02*
X145535714Y-59550057D01*
X145535714Y-59550057D02*
X145583333Y-59645295D01*
X145583333Y-59645295D02*
X145583333Y-59740533D01*
X145583333Y-59740533D02*
X145535714Y-59883390D01*
X145535714Y-59883390D02*
X144964286Y-60454819D01*
X144964286Y-60454819D02*
X145583333Y-60454819D01*
X137664819Y-67136666D02*
X137188628Y-67469999D01*
X137664819Y-67708094D02*
X136664819Y-67708094D01*
X136664819Y-67708094D02*
X136664819Y-67327142D01*
X136664819Y-67327142D02*
X136712438Y-67231904D01*
X136712438Y-67231904D02*
X136760057Y-67184285D01*
X136760057Y-67184285D02*
X136855295Y-67136666D01*
X136855295Y-67136666D02*
X136998152Y-67136666D01*
X136998152Y-67136666D02*
X137093390Y-67184285D01*
X137093390Y-67184285D02*
X137141009Y-67231904D01*
X137141009Y-67231904D02*
X137188628Y-67327142D01*
X137188628Y-67327142D02*
X137188628Y-67708094D01*
X136664819Y-66803332D02*
X136664819Y-66184285D01*
X136664819Y-66184285D02*
X137045771Y-66517618D01*
X137045771Y-66517618D02*
X137045771Y-66374761D01*
X137045771Y-66374761D02*
X137093390Y-66279523D01*
X137093390Y-66279523D02*
X137141009Y-66231904D01*
X137141009Y-66231904D02*
X137236247Y-66184285D01*
X137236247Y-66184285D02*
X137474342Y-66184285D01*
X137474342Y-66184285D02*
X137569580Y-66231904D01*
X137569580Y-66231904D02*
X137617200Y-66279523D01*
X137617200Y-66279523D02*
X137664819Y-66374761D01*
X137664819Y-66374761D02*
X137664819Y-66660475D01*
X137664819Y-66660475D02*
X137617200Y-66755713D01*
X137617200Y-66755713D02*
X137569580Y-66803332D01*
X151454819Y-73666666D02*
X150978628Y-73999999D01*
X151454819Y-74238094D02*
X150454819Y-74238094D01*
X150454819Y-74238094D02*
X150454819Y-73857142D01*
X150454819Y-73857142D02*
X150502438Y-73761904D01*
X150502438Y-73761904D02*
X150550057Y-73714285D01*
X150550057Y-73714285D02*
X150645295Y-73666666D01*
X150645295Y-73666666D02*
X150788152Y-73666666D01*
X150788152Y-73666666D02*
X150883390Y-73714285D01*
X150883390Y-73714285D02*
X150931009Y-73761904D01*
X150931009Y-73761904D02*
X150978628Y-73857142D01*
X150978628Y-73857142D02*
X150978628Y-74238094D01*
X150788152Y-72809523D02*
X151454819Y-72809523D01*
X150407200Y-73047618D02*
X151121485Y-73285713D01*
X151121485Y-73285713D02*
X151121485Y-72666666D01*
X101984819Y-66833333D02*
X102699104Y-66833333D01*
X102699104Y-66833333D02*
X102841961Y-66880952D01*
X102841961Y-66880952D02*
X102937200Y-66976190D01*
X102937200Y-66976190D02*
X102984819Y-67119047D01*
X102984819Y-67119047D02*
X102984819Y-67214285D01*
X101984819Y-65880952D02*
X101984819Y-66357142D01*
X101984819Y-66357142D02*
X102461009Y-66404761D01*
X102461009Y-66404761D02*
X102413390Y-66357142D01*
X102413390Y-66357142D02*
X102365771Y-66261904D01*
X102365771Y-66261904D02*
X102365771Y-66023809D01*
X102365771Y-66023809D02*
X102413390Y-65928571D01*
X102413390Y-65928571D02*
X102461009Y-65880952D01*
X102461009Y-65880952D02*
X102556247Y-65833333D01*
X102556247Y-65833333D02*
X102794342Y-65833333D01*
X102794342Y-65833333D02*
X102889580Y-65880952D01*
X102889580Y-65880952D02*
X102937200Y-65928571D01*
X102937200Y-65928571D02*
X102984819Y-66023809D01*
X102984819Y-66023809D02*
X102984819Y-66261904D01*
X102984819Y-66261904D02*
X102937200Y-66357142D01*
X102937200Y-66357142D02*
X102889580Y-66404761D01*
X131454819Y-67166666D02*
X130978628Y-67499999D01*
X131454819Y-67738094D02*
X130454819Y-67738094D01*
X130454819Y-67738094D02*
X130454819Y-67357142D01*
X130454819Y-67357142D02*
X130502438Y-67261904D01*
X130502438Y-67261904D02*
X130550057Y-67214285D01*
X130550057Y-67214285D02*
X130645295Y-67166666D01*
X130645295Y-67166666D02*
X130788152Y-67166666D01*
X130788152Y-67166666D02*
X130883390Y-67214285D01*
X130883390Y-67214285D02*
X130931009Y-67261904D01*
X130931009Y-67261904D02*
X130978628Y-67357142D01*
X130978628Y-67357142D02*
X130978628Y-67738094D01*
X130454819Y-66309523D02*
X130454819Y-66499999D01*
X130454819Y-66499999D02*
X130502438Y-66595237D01*
X130502438Y-66595237D02*
X130550057Y-66642856D01*
X130550057Y-66642856D02*
X130692914Y-66738094D01*
X130692914Y-66738094D02*
X130883390Y-66785713D01*
X130883390Y-66785713D02*
X131264342Y-66785713D01*
X131264342Y-66785713D02*
X131359580Y-66738094D01*
X131359580Y-66738094D02*
X131407200Y-66690475D01*
X131407200Y-66690475D02*
X131454819Y-66595237D01*
X131454819Y-66595237D02*
X131454819Y-66404761D01*
X131454819Y-66404761D02*
X131407200Y-66309523D01*
X131407200Y-66309523D02*
X131359580Y-66261904D01*
X131359580Y-66261904D02*
X131264342Y-66214285D01*
X131264342Y-66214285D02*
X131026247Y-66214285D01*
X131026247Y-66214285D02*
X130931009Y-66261904D01*
X130931009Y-66261904D02*
X130883390Y-66309523D01*
X130883390Y-66309523D02*
X130835771Y-66404761D01*
X130835771Y-66404761D02*
X130835771Y-66595237D01*
X130835771Y-66595237D02*
X130883390Y-66690475D01*
X130883390Y-66690475D02*
X130931009Y-66738094D01*
X130931009Y-66738094D02*
X131026247Y-66785713D01*
X162454819Y-88595238D02*
X161978628Y-88928571D01*
X162454819Y-89166666D02*
X161454819Y-89166666D01*
X161454819Y-89166666D02*
X161454819Y-88785714D01*
X161454819Y-88785714D02*
X161502438Y-88690476D01*
X161502438Y-88690476D02*
X161550057Y-88642857D01*
X161550057Y-88642857D02*
X161645295Y-88595238D01*
X161645295Y-88595238D02*
X161788152Y-88595238D01*
X161788152Y-88595238D02*
X161883390Y-88642857D01*
X161883390Y-88642857D02*
X161931009Y-88690476D01*
X161931009Y-88690476D02*
X161978628Y-88785714D01*
X161978628Y-88785714D02*
X161978628Y-89166666D01*
X161454819Y-88309523D02*
X162454819Y-87976190D01*
X162454819Y-87976190D02*
X161454819Y-87642857D01*
X162454819Y-86785714D02*
X162454819Y-87357142D01*
X162454819Y-87071428D02*
X161454819Y-87071428D01*
X161454819Y-87071428D02*
X161597676Y-87166666D01*
X161597676Y-87166666D02*
X161692914Y-87261904D01*
X161692914Y-87261904D02*
X161740533Y-87357142D01*
X151454819Y-60166666D02*
X150978628Y-60499999D01*
X151454819Y-60738094D02*
X150454819Y-60738094D01*
X150454819Y-60738094D02*
X150454819Y-60357142D01*
X150454819Y-60357142D02*
X150502438Y-60261904D01*
X150502438Y-60261904D02*
X150550057Y-60214285D01*
X150550057Y-60214285D02*
X150645295Y-60166666D01*
X150645295Y-60166666D02*
X150788152Y-60166666D01*
X150788152Y-60166666D02*
X150883390Y-60214285D01*
X150883390Y-60214285D02*
X150931009Y-60261904D01*
X150931009Y-60261904D02*
X150978628Y-60357142D01*
X150978628Y-60357142D02*
X150978628Y-60738094D01*
X150550057Y-59785713D02*
X150502438Y-59738094D01*
X150502438Y-59738094D02*
X150454819Y-59642856D01*
X150454819Y-59642856D02*
X150454819Y-59404761D01*
X150454819Y-59404761D02*
X150502438Y-59309523D01*
X150502438Y-59309523D02*
X150550057Y-59261904D01*
X150550057Y-59261904D02*
X150645295Y-59214285D01*
X150645295Y-59214285D02*
X150740533Y-59214285D01*
X150740533Y-59214285D02*
X150883390Y-59261904D01*
X150883390Y-59261904D02*
X151454819Y-59833332D01*
X151454819Y-59833332D02*
X151454819Y-59214285D01*
X156166667Y-70307200D02*
X156309524Y-70354819D01*
X156309524Y-70354819D02*
X156547619Y-70354819D01*
X156547619Y-70354819D02*
X156642857Y-70307200D01*
X156642857Y-70307200D02*
X156690476Y-70259580D01*
X156690476Y-70259580D02*
X156738095Y-70164342D01*
X156738095Y-70164342D02*
X156738095Y-70069104D01*
X156738095Y-70069104D02*
X156690476Y-69973866D01*
X156690476Y-69973866D02*
X156642857Y-69926247D01*
X156642857Y-69926247D02*
X156547619Y-69878628D01*
X156547619Y-69878628D02*
X156357143Y-69831009D01*
X156357143Y-69831009D02*
X156261905Y-69783390D01*
X156261905Y-69783390D02*
X156214286Y-69735771D01*
X156214286Y-69735771D02*
X156166667Y-69640533D01*
X156166667Y-69640533D02*
X156166667Y-69545295D01*
X156166667Y-69545295D02*
X156214286Y-69450057D01*
X156214286Y-69450057D02*
X156261905Y-69402438D01*
X156261905Y-69402438D02*
X156357143Y-69354819D01*
X156357143Y-69354819D02*
X156595238Y-69354819D01*
X156595238Y-69354819D02*
X156738095Y-69402438D01*
X157071429Y-69354819D02*
X157309524Y-70354819D01*
X157309524Y-70354819D02*
X157500000Y-69640533D01*
X157500000Y-69640533D02*
X157690476Y-70354819D01*
X157690476Y-70354819D02*
X157928572Y-69354819D01*
X158738095Y-69688152D02*
X158738095Y-70354819D01*
X158500000Y-69307200D02*
X158261905Y-70021485D01*
X158261905Y-70021485D02*
X158880952Y-70021485D01*
X139954819Y-81246666D02*
X139478628Y-81579999D01*
X139954819Y-81818094D02*
X138954819Y-81818094D01*
X138954819Y-81818094D02*
X138954819Y-81437142D01*
X138954819Y-81437142D02*
X139002438Y-81341904D01*
X139002438Y-81341904D02*
X139050057Y-81294285D01*
X139050057Y-81294285D02*
X139145295Y-81246666D01*
X139145295Y-81246666D02*
X139288152Y-81246666D01*
X139288152Y-81246666D02*
X139383390Y-81294285D01*
X139383390Y-81294285D02*
X139431009Y-81341904D01*
X139431009Y-81341904D02*
X139478628Y-81437142D01*
X139478628Y-81437142D02*
X139478628Y-81818094D01*
X138954819Y-80341904D02*
X138954819Y-80818094D01*
X138954819Y-80818094D02*
X139431009Y-80865713D01*
X139431009Y-80865713D02*
X139383390Y-80818094D01*
X139383390Y-80818094D02*
X139335771Y-80722856D01*
X139335771Y-80722856D02*
X139335771Y-80484761D01*
X139335771Y-80484761D02*
X139383390Y-80389523D01*
X139383390Y-80389523D02*
X139431009Y-80341904D01*
X139431009Y-80341904D02*
X139526247Y-80294285D01*
X139526247Y-80294285D02*
X139764342Y-80294285D01*
X139764342Y-80294285D02*
X139859580Y-80341904D01*
X139859580Y-80341904D02*
X139907200Y-80389523D01*
X139907200Y-80389523D02*
X139954819Y-80484761D01*
X139954819Y-80484761D02*
X139954819Y-80722856D01*
X139954819Y-80722856D02*
X139907200Y-80818094D01*
X139907200Y-80818094D02*
X139859580Y-80865713D01*
D11*
%TO.C,J1*%
X126670000Y-96170000D02*
X128000000Y-96170000D01*
X126670000Y-97500000D02*
X126670000Y-96170000D01*
X129270000Y-96170000D02*
X147110000Y-96170000D01*
X129270000Y-98830000D02*
X129270000Y-96170000D01*
X129270000Y-98830000D02*
X147110000Y-98830000D01*
X147110000Y-98830000D02*
X147110000Y-96170000D01*
%TO.C,J3*%
X149470000Y-96130000D02*
X150800000Y-96130000D01*
X149470000Y-97460000D02*
X149470000Y-96130000D01*
X152070000Y-96130000D02*
X164830000Y-96130000D01*
X152070000Y-98790000D02*
X152070000Y-96130000D01*
X152070000Y-98790000D02*
X164830000Y-98790000D01*
X164830000Y-98790000D02*
X164830000Y-96130000D01*
%TO.C,J2*%
X116170000Y-47870000D02*
X117500000Y-47870000D01*
X116170000Y-49200000D02*
X116170000Y-47870000D01*
X118770000Y-47870000D02*
X141690000Y-47870000D01*
X118770000Y-50530000D02*
X118770000Y-47870000D01*
X118770000Y-50530000D02*
X141690000Y-50530000D01*
X141690000Y-50530000D02*
X141690000Y-47870000D01*
%TO.C,J4*%
X143630000Y-48670000D02*
X144960000Y-48670000D01*
X143630000Y-50000000D02*
X143630000Y-48670000D01*
X146230000Y-48670000D02*
X164070000Y-48670000D01*
X146230000Y-51330000D02*
X146230000Y-48670000D01*
X146230000Y-51330000D02*
X164070000Y-51330000D01*
X164070000Y-51330000D02*
X164070000Y-48670000D01*
%TO.C,J7*%
X108170000Y-70170000D02*
X109500000Y-70170000D01*
X108170000Y-71500000D02*
X108170000Y-70170000D01*
X110770000Y-70170000D02*
X118450000Y-70170000D01*
X110770000Y-72830000D02*
X110770000Y-70170000D01*
X110770000Y-72830000D02*
X118450000Y-72830000D01*
X118450000Y-72830000D02*
X118450000Y-70170000D01*
%TO.C,D1*%
X128670000Y-55455000D02*
X128670000Y-58545000D01*
X128670000Y-55455170D02*
G75*
G02*
X134220000Y-56999952I2560000J-1544830D01*
G01*
X134220000Y-57000048D02*
G75*
G02*
X128670000Y-58544830I-2990000J48D01*
G01*
X133730000Y-57000000D02*
G75*
G02*
X128730000Y-57000000I-2500000J0D01*
G01*
X128730000Y-57000000D02*
G75*
G02*
X133730000Y-57000000I2500000J0D01*
G01*
%TO.C,J6*%
X130225000Y-83600000D02*
X130225000Y-84850000D01*
X130225000Y-84850000D02*
X131475000Y-84850000D01*
X130515000Y-74440000D02*
X130515000Y-84560000D01*
X130515000Y-84560000D02*
X136485000Y-84560000D01*
X130525000Y-74450000D02*
X130525000Y-76250000D01*
X130525000Y-76250000D02*
X131275000Y-76250000D01*
X130525000Y-77750000D02*
X130525000Y-81250000D01*
X130525000Y-81250000D02*
X131275000Y-81250000D01*
X130525000Y-82750000D02*
X130525000Y-84550000D01*
X130525000Y-84550000D02*
X131275000Y-84550000D01*
X131275000Y-74450000D02*
X130525000Y-74450000D01*
X131275000Y-76250000D02*
X131275000Y-74450000D01*
X131275000Y-77750000D02*
X130525000Y-77750000D01*
X131275000Y-81250000D02*
X131275000Y-77750000D01*
X131275000Y-82750000D02*
X130525000Y-82750000D01*
X131275000Y-84550000D02*
X131275000Y-82750000D01*
X132775000Y-74450000D02*
X132775000Y-75200000D01*
X132775000Y-75200000D02*
X135725000Y-75200000D01*
X132775000Y-83800000D02*
X134115000Y-83800000D01*
X132775000Y-84550000D02*
X132775000Y-83800000D01*
X135725000Y-75200000D02*
X135725000Y-79500000D01*
X135725000Y-79500000D02*
X135725000Y-82740000D01*
X136485000Y-74440000D02*
X130515000Y-74440000D01*
X136485000Y-84560000D02*
X136485000Y-74440000D01*
%TO.C,SW3*%
X140250000Y-69000000D02*
X140250000Y-70500000D01*
X141500000Y-73000000D02*
X146000000Y-73000000D01*
X146000000Y-66500000D02*
X141500000Y-66500000D01*
X147250000Y-70500000D02*
X147250000Y-69000000D01*
%TO.C,R1*%
X162630000Y-56230000D02*
X162630000Y-62770000D01*
X162630000Y-62770000D02*
X165370000Y-62770000D01*
X164000000Y-55460000D02*
X164000000Y-56230000D01*
X164000000Y-63540000D02*
X164000000Y-62770000D01*
X165370000Y-56230000D02*
X162630000Y-56230000D01*
X165370000Y-62770000D02*
X165370000Y-56230000D01*
%TO.C,SW5*%
X143250000Y-83500000D02*
X143250000Y-85000000D01*
X144500000Y-87500000D02*
X149000000Y-87500000D01*
X149000000Y-81000000D02*
X144500000Y-81000000D01*
X150250000Y-85000000D02*
X150250000Y-83500000D01*
%TO.C,SW1*%
X153750000Y-59000000D02*
X153750000Y-60500000D01*
X155000000Y-63000000D02*
X159500000Y-63000000D01*
X159500000Y-56500000D02*
X155000000Y-56500000D01*
X160750000Y-60500000D02*
X160750000Y-59000000D01*
%TO.C,SW2*%
X140750000Y-59500000D02*
X140750000Y-61000000D01*
X142000000Y-63500000D02*
X146500000Y-63500000D01*
X146500000Y-57000000D02*
X142000000Y-57000000D01*
X147750000Y-61000000D02*
X147750000Y-59500000D01*
%TO.C,R3*%
X135840000Y-63700000D02*
X135840000Y-70240000D01*
X135840000Y-70240000D02*
X138580000Y-70240000D01*
X137210000Y-62930000D02*
X137210000Y-63700000D01*
X137210000Y-71010000D02*
X137210000Y-70240000D01*
X138580000Y-63700000D02*
X135840000Y-63700000D01*
X138580000Y-70240000D02*
X138580000Y-63700000D01*
%TO.C,R4*%
X149630000Y-70230000D02*
X149630000Y-76770000D01*
X149630000Y-76770000D02*
X152370000Y-76770000D01*
X151000000Y-69460000D02*
X151000000Y-70230000D01*
X151000000Y-77540000D02*
X151000000Y-76770000D01*
X152370000Y-70230000D02*
X149630000Y-70230000D01*
X152370000Y-76770000D02*
X152370000Y-70230000D01*
%TO.C,J5*%
X103970000Y-65170000D02*
X105300000Y-65170000D01*
X103970000Y-66500000D02*
X103970000Y-65170000D01*
X106570000Y-65170000D02*
X124410000Y-65170000D01*
X106570000Y-67830000D02*
X106570000Y-65170000D01*
X106570000Y-67830000D02*
X124410000Y-67830000D01*
X124410000Y-67830000D02*
X124410000Y-65170000D01*
%TO.C,R6*%
X129630000Y-63730000D02*
X129630000Y-70270000D01*
X129630000Y-70270000D02*
X132370000Y-70270000D01*
X131000000Y-62960000D02*
X131000000Y-63730000D01*
X131000000Y-71040000D02*
X131000000Y-70270000D01*
X132370000Y-63730000D02*
X129630000Y-63730000D01*
X132370000Y-70270000D02*
X132370000Y-63730000D01*
%TO.C,RV1*%
X156575000Y-83600000D02*
X156575000Y-93370000D01*
X166345000Y-83600000D02*
X156575000Y-83600000D01*
X166345000Y-83600000D02*
X166345000Y-93370000D01*
X166345000Y-93370000D02*
X156575000Y-93370000D01*
%TO.C,R2*%
X149630000Y-56730000D02*
X149630000Y-63270000D01*
X149630000Y-63270000D02*
X152370000Y-63270000D01*
X151000000Y-55960000D02*
X151000000Y-56730000D01*
X151000000Y-64040000D02*
X151000000Y-63270000D01*
X152370000Y-56730000D02*
X149630000Y-56730000D01*
X152370000Y-63270000D02*
X152370000Y-56730000D01*
%TO.C,SW4*%
X153750000Y-70000000D02*
X153750000Y-71500000D01*
X155000000Y-74000000D02*
X159500000Y-74000000D01*
X159500000Y-67500000D02*
X155000000Y-67500000D01*
X160750000Y-71500000D02*
X160750000Y-70000000D01*
%TO.C,R5*%
X138130000Y-77810000D02*
X138130000Y-84350000D01*
X138130000Y-84350000D02*
X140870000Y-84350000D01*
X139500000Y-77040000D02*
X139500000Y-77810000D01*
X139500000Y-85120000D02*
X139500000Y-84350000D01*
X140870000Y-77810000D02*
X138130000Y-77810000D01*
X140870000Y-84350000D02*
X140870000Y-77810000D01*
%TD*%
M02*
