%TF.GenerationSoftware,KiCad,Pcbnew,8.0.8*%
%TF.CreationDate,2025-02-03T16:01:42-07:00*%
%TF.ProjectId,MicroProcess_PhaseB_thermo_uno,4d696372-6f50-4726-9f63-6573735f5068,rev?*%
%TF.SameCoordinates,Original*%
%TF.FileFunction,Copper,L1,Top*%
%TF.FilePolarity,Positive*%
%FSLAX46Y46*%
G04 Gerber Fmt 4.6, Leading zero omitted, Abs format (unit mm)*
G04 Created by KiCad (PCBNEW 8.0.8) date 2025-02-03 16:01:42*
%MOMM*%
%LPD*%
G01*
G04 APERTURE LIST*
G04 Aperture macros list*
%AMRoundRect*
0 Rectangle with rounded corners*
0 $1 Rounding radius*
0 $2 $3 $4 $5 $6 $7 $8 $9 X,Y pos of 4 corners*
0 Add a 4 corners polygon primitive as box body*
4,1,4,$2,$3,$4,$5,$6,$7,$8,$9,$2,$3,0*
0 Add four circle primitives for the rounded corners*
1,1,$1+$1,$2,$3*
1,1,$1+$1,$4,$5*
1,1,$1+$1,$6,$7*
1,1,$1+$1,$8,$9*
0 Add four rect primitives between the rounded corners*
20,1,$1+$1,$2,$3,$4,$5,0*
20,1,$1+$1,$4,$5,$6,$7,0*
20,1,$1+$1,$6,$7,$8,$9,0*
20,1,$1+$1,$8,$9,$2,$3,0*%
G04 Aperture macros list end*
%TA.AperFunction,ComponentPad*%
%ADD10R,1.700000X1.700000*%
%TD*%
%TA.AperFunction,ComponentPad*%
%ADD11O,1.700000X1.700000*%
%TD*%
%TA.AperFunction,ComponentPad*%
%ADD12R,1.800000X1.800000*%
%TD*%
%TA.AperFunction,ComponentPad*%
%ADD13C,1.800000*%
%TD*%
%TA.AperFunction,ComponentPad*%
%ADD14RoundRect,0.250000X0.725000X-0.600000X0.725000X0.600000X-0.725000X0.600000X-0.725000X-0.600000X0*%
%TD*%
%TA.AperFunction,ComponentPad*%
%ADD15O,1.950000X1.700000*%
%TD*%
%TA.AperFunction,ComponentPad*%
%ADD16C,2.000000*%
%TD*%
%TA.AperFunction,ComponentPad*%
%ADD17C,1.600000*%
%TD*%
%TA.AperFunction,ComponentPad*%
%ADD18O,1.600000X1.600000*%
%TD*%
%TA.AperFunction,ComponentPad*%
%ADD19C,1.440000*%
%TD*%
%TA.AperFunction,Conductor*%
%ADD20C,0.250000*%
%TD*%
G04 APERTURE END LIST*
D10*
%TO.P,J1,1,Pin_1*%
%TO.N,unconnected-(J1-Pin_1-Pad1)*%
X128000000Y-97500000D03*
D11*
%TO.P,J1,2,Pin_2*%
%TO.N,/IOREF*%
X130540000Y-97500000D03*
%TO.P,J1,3,Pin_3*%
%TO.N,/~{RESET}*%
X133080000Y-97500000D03*
%TO.P,J1,4,Pin_4*%
%TO.N,+3V3*%
X135620000Y-97500000D03*
%TO.P,J1,5,Pin_5*%
%TO.N,+5V*%
X138160000Y-97500000D03*
%TO.P,J1,6,Pin_6*%
%TO.N,GND*%
X140700000Y-97500000D03*
%TO.P,J1,7,Pin_7*%
X143240000Y-97500000D03*
%TO.P,J1,8,Pin_8*%
%TO.N,VCC*%
X145780000Y-97500000D03*
%TD*%
D10*
%TO.P,J3,1,Pin_1*%
%TO.N,/A0*%
X150800000Y-97460000D03*
D11*
%TO.P,J3,2,Pin_2*%
%TO.N,/SCL*%
X153340000Y-97460000D03*
%TO.P,J3,3,Pin_3*%
%TO.N,/SDA*%
X155880000Y-97460000D03*
%TO.P,J3,4,Pin_4*%
%TO.N,/A3*%
X158420000Y-97460000D03*
%TO.P,J3,5,Pin_5*%
%TO.N,unconnected-(J3-Pin_5-Pad5)*%
X160960000Y-97460000D03*
%TO.P,J3,6,Pin_6*%
%TO.N,unconnected-(J3-Pin_6-Pad6)*%
X163500000Y-97460000D03*
%TD*%
D10*
%TO.P,J2,1,Pin_1*%
%TO.N,/I2C_SCL*%
X117500000Y-49200000D03*
D11*
%TO.P,J2,2,Pin_2*%
%TO.N,/I2C_SDA*%
X120040000Y-49200000D03*
%TO.P,J2,3,Pin_3*%
%TO.N,/AREF*%
X122580000Y-49200000D03*
%TO.P,J2,4,Pin_4*%
%TO.N,GND*%
X125120000Y-49200000D03*
%TO.P,J2,5,Pin_5*%
%TO.N,/13*%
X127660000Y-49200000D03*
%TO.P,J2,6,Pin_6*%
%TO.N,/12*%
X130200000Y-49200000D03*
%TO.P,J2,7,Pin_7*%
%TO.N,/\u002A11*%
X132740000Y-49200000D03*
%TO.P,J2,8,Pin_8*%
%TO.N,/\u002A10*%
X135280000Y-49200000D03*
%TO.P,J2,9,Pin_9*%
%TO.N,/\u002A9*%
X137820000Y-49200000D03*
%TO.P,J2,10,Pin_10*%
%TO.N,/8*%
X140360000Y-49200000D03*
%TD*%
D10*
%TO.P,J4,1,Pin_1*%
%TO.N,/7*%
X144960000Y-50000000D03*
D11*
%TO.P,J4,2,Pin_2*%
%TO.N,/\u002A6*%
X147500000Y-50000000D03*
%TO.P,J4,3,Pin_3*%
%TO.N,/\u002A5*%
X150040000Y-50000000D03*
%TO.P,J4,4,Pin_4*%
%TO.N,/4*%
X152580000Y-50000000D03*
%TO.P,J4,5,Pin_5*%
%TO.N,/\u002A3*%
X155120000Y-50000000D03*
%TO.P,J4,6,Pin_6*%
%TO.N,/2*%
X157660000Y-50000000D03*
%TO.P,J4,7,Pin_7*%
%TO.N,/TX{slash}1*%
X160200000Y-50000000D03*
%TO.P,J4,8,Pin_8*%
%TO.N,/RX{slash}0*%
X162740000Y-50000000D03*
%TD*%
D10*
%TO.P,J7,1,Pin_1*%
%TO.N,GND*%
X109500000Y-71500000D03*
D11*
%TO.P,J7,2,Pin_2*%
%TO.N,+5V*%
X112040000Y-71500000D03*
%TO.P,J7,3,Pin_3*%
%TO.N,/I2C_SCL*%
X114580000Y-71500000D03*
%TO.P,J7,4,Pin_4*%
%TO.N,/I2C_SDA*%
X117120000Y-71500000D03*
%TD*%
D12*
%TO.P,D1,1,K*%
%TO.N,GND*%
X129960000Y-57000000D03*
D13*
%TO.P,D1,2,A*%
%TO.N,Net-(D1-A)*%
X132500000Y-57000000D03*
%TD*%
D14*
%TO.P,J6,1,Pin_1*%
%TO.N,+5V*%
X132975000Y-82000000D03*
D15*
%TO.P,J6,2,Pin_2*%
%TO.N,/\u002A9*%
X132975000Y-79500000D03*
%TO.P,J6,3,Pin_3*%
%TO.N,GND*%
X132975000Y-77000000D03*
%TD*%
D16*
%TO.P,SW3,1,A*%
%TO.N,/\u002A5*%
X140500000Y-67500000D03*
X147000000Y-67500000D03*
%TO.P,SW3,2,B*%
%TO.N,+5V*%
X140500000Y-72000000D03*
X147000000Y-72000000D03*
%TD*%
D17*
%TO.P,R1,1*%
%TO.N,/2*%
X164000000Y-54420000D03*
D18*
%TO.P,R1,2*%
%TO.N,GND*%
X164000000Y-64580000D03*
%TD*%
D16*
%TO.P,SW5,1,A*%
%TO.N,/\u002A6*%
X143500000Y-82000000D03*
X150000000Y-82000000D03*
%TO.P,SW5,2,B*%
%TO.N,+5V*%
X143500000Y-86500000D03*
X150000000Y-86500000D03*
%TD*%
%TO.P,SW1,1,A*%
%TO.N,/2*%
X154000000Y-57500000D03*
X160500000Y-57500000D03*
%TO.P,SW1,2,B*%
%TO.N,+5V*%
X154000000Y-62000000D03*
X160500000Y-62000000D03*
%TD*%
%TO.P,SW2,1,A*%
%TO.N,/4*%
X141000000Y-58000000D03*
X147500000Y-58000000D03*
%TO.P,SW2,2,B*%
%TO.N,+5V*%
X141000000Y-62500000D03*
X147500000Y-62500000D03*
%TD*%
D17*
%TO.P,R3,1*%
%TO.N,/\u002A5*%
X137210000Y-61890000D03*
D18*
%TO.P,R3,2*%
%TO.N,GND*%
X137210000Y-72050000D03*
%TD*%
D17*
%TO.P,R4,1*%
%TO.N,/\u002A3*%
X151000000Y-68420000D03*
D18*
%TO.P,R4,2*%
%TO.N,GND*%
X151000000Y-78580000D03*
%TD*%
D10*
%TO.P,J5,1,Pin_1*%
%TO.N,+5V*%
X105300000Y-66500000D03*
D11*
%TO.P,J5,2,Pin_2*%
%TO.N,GND*%
X107840000Y-66500000D03*
%TO.P,J5,3,Pin_3*%
%TO.N,/I2C_SCL*%
X110380000Y-66500000D03*
%TO.P,J5,4,Pin_4*%
%TO.N,/I2C_SDA*%
X112920000Y-66500000D03*
%TO.P,J5,5,Pin_5*%
%TO.N,unconnected-(J5-Pin_5-Pad5)*%
X115460000Y-66500000D03*
%TO.P,J5,6,Pin_6*%
%TO.N,unconnected-(J5-Pin_6-Pad6)*%
X118000000Y-66500000D03*
%TO.P,J5,7,Pin_7*%
%TO.N,unconnected-(J5-Pin_7-Pad7)*%
X120540000Y-66500000D03*
%TO.P,J5,8,Pin_8*%
%TO.N,unconnected-(J5-Pin_8-Pad8)*%
X123080000Y-66500000D03*
%TD*%
D17*
%TO.P,R6,1*%
%TO.N,/8*%
X131000000Y-72080000D03*
D18*
%TO.P,R6,2*%
%TO.N,Net-(D1-A)*%
X131000000Y-61920000D03*
%TD*%
D19*
%TO.P,RV1,1,1*%
%TO.N,+5V*%
X158920000Y-88500000D03*
%TO.P,RV1,2,2*%
%TO.N,/A0*%
X161460000Y-91040000D03*
%TO.P,RV1,3,3*%
%TO.N,GND*%
X164000000Y-88500000D03*
%TD*%
D17*
%TO.P,R2,1*%
%TO.N,/4*%
X151000000Y-54920000D03*
D18*
%TO.P,R2,2*%
%TO.N,GND*%
X151000000Y-65080000D03*
%TD*%
D16*
%TO.P,SW4,1,A*%
%TO.N,/\u002A3*%
X154000000Y-68500000D03*
X160500000Y-68500000D03*
%TO.P,SW4,2,B*%
%TO.N,+5V*%
X154000000Y-73000000D03*
X160500000Y-73000000D03*
%TD*%
D17*
%TO.P,R5,1*%
%TO.N,/\u002A6*%
X139500000Y-76000000D03*
D18*
%TO.P,R5,2*%
%TO.N,GND*%
X139500000Y-86160000D03*
%TD*%
D20*
%TO.N,+5V*%
X153500000Y-73000000D02*
X152500000Y-72000000D01*
X161825000Y-71675000D02*
X160500000Y-73000000D01*
X154000000Y-62000000D02*
X160500000Y-62000000D01*
X161825000Y-64739213D02*
X161825000Y-71675000D01*
X117000000Y-86815000D02*
X116815000Y-86815000D01*
X138160000Y-92000000D02*
X133080000Y-86920000D01*
X154000000Y-73000000D02*
X153500000Y-73000000D01*
X138160000Y-92000000D02*
X138160000Y-97500000D01*
X138160000Y-91840000D02*
X138160000Y-92000000D01*
X132975000Y-86815000D02*
X132975000Y-82000000D01*
X105300000Y-75300000D02*
X105300000Y-66500000D01*
X147500000Y-62500000D02*
X141000000Y-62500000D01*
X143500000Y-86500000D02*
X150000000Y-86500000D01*
X111250000Y-81250000D02*
X105300000Y-75300000D01*
X112040000Y-80460000D02*
X111250000Y-81250000D01*
X150000000Y-86500000D02*
X151000000Y-86500000D01*
X147000000Y-72000000D02*
X140500000Y-72000000D01*
X160500000Y-62000000D02*
X160500000Y-63414213D01*
X153000000Y-88500000D02*
X158920000Y-88500000D01*
X154000000Y-82500000D02*
X150000000Y-86500000D01*
X154000000Y-73000000D02*
X154000000Y-82500000D01*
X160500000Y-63414213D02*
X161825000Y-64739213D01*
X116815000Y-86815000D02*
X111250000Y-81250000D01*
X143500000Y-86500000D02*
X138160000Y-91840000D01*
X154000000Y-73000000D02*
X160500000Y-73000000D01*
X148500000Y-63500000D02*
X148500000Y-70500000D01*
X132975000Y-86815000D02*
X117000000Y-86815000D01*
X112040000Y-71500000D02*
X112040000Y-80460000D01*
X151000000Y-86500000D02*
X153000000Y-88500000D01*
X147500000Y-62500000D02*
X148500000Y-63500000D01*
X148500000Y-70500000D02*
X147000000Y-72000000D01*
X133080000Y-86920000D02*
X132975000Y-86815000D01*
X152500000Y-72000000D02*
X147000000Y-72000000D01*
%TO.N,/A0*%
X157220000Y-91040000D02*
X150800000Y-97460000D01*
X161460000Y-91040000D02*
X157220000Y-91040000D01*
%TO.N,/I2C_SCL*%
X114580000Y-71500000D02*
X110380000Y-67300000D01*
X110380000Y-67300000D02*
X110380000Y-66500000D01*
X117500000Y-59380000D02*
X110380000Y-66500000D01*
X117500000Y-49200000D02*
X117500000Y-59380000D01*
%TO.N,/I2C_SDA*%
X117120000Y-71500000D02*
X112920000Y-67300000D01*
X112920000Y-67300000D02*
X112920000Y-66500000D01*
X120040000Y-49200000D02*
X120040000Y-59380000D01*
X120040000Y-59380000D02*
X112920000Y-66500000D01*
%TO.N,/8*%
X140360000Y-54140000D02*
X133000000Y-61500000D01*
X133000000Y-61500000D02*
X133000000Y-70080000D01*
X140360000Y-49200000D02*
X140360000Y-54140000D01*
X133000000Y-70080000D02*
X131000000Y-72080000D01*
%TO.N,/\u002A9*%
X137820000Y-55736396D02*
X132500000Y-61056396D01*
X132500000Y-61056396D02*
X132500000Y-68989009D01*
X129500000Y-76025000D02*
X132975000Y-79500000D01*
X129500000Y-71989009D02*
X129500000Y-76025000D01*
X132500000Y-68989009D02*
X129500000Y-71989009D01*
X137820000Y-49200000D02*
X137820000Y-55736396D01*
%TO.N,/4*%
X153500000Y-52420000D02*
X153500000Y-50120000D01*
X153500000Y-50120000D02*
X152580000Y-49200000D01*
X151000000Y-54920000D02*
X153500000Y-52420000D01*
X150580000Y-54920000D02*
X151000000Y-54920000D01*
X147500000Y-58000000D02*
X150580000Y-54920000D01*
X147500000Y-58000000D02*
X141000000Y-58000000D01*
%TO.N,/2*%
X162880000Y-54420000D02*
X157660000Y-49200000D01*
X164000000Y-54420000D02*
X162880000Y-54420000D01*
X160920000Y-57500000D02*
X160500000Y-57500000D01*
X164000000Y-54420000D02*
X160920000Y-57500000D01*
X160500000Y-57500000D02*
X154000000Y-57500000D01*
%TO.N,/\u002A6*%
X147500000Y-50000000D02*
X143730000Y-53770000D01*
X150000000Y-82000000D02*
X143500000Y-82000000D01*
X141020000Y-54260000D02*
X133590000Y-61690000D01*
X133590000Y-61690000D02*
X133590000Y-70090000D01*
X141020000Y-53770000D02*
X141020000Y-54260000D01*
X143500000Y-82000000D02*
X143500000Y-80000000D01*
X143500000Y-80000000D02*
X139500000Y-76000000D01*
X133590000Y-70090000D02*
X139500000Y-76000000D01*
X143730000Y-53770000D02*
X141020000Y-53770000D01*
%TO.N,/\u002A5*%
X150040000Y-50000000D02*
X145593604Y-54446396D01*
X145593604Y-54446396D02*
X142593604Y-54446396D01*
X142593604Y-54446396D02*
X137210000Y-59830000D01*
X140500000Y-65180000D02*
X137210000Y-61890000D01*
X137210000Y-59830000D02*
X137210000Y-61890000D01*
X140500000Y-67500000D02*
X140500000Y-65180000D01*
X147000000Y-67500000D02*
X140500000Y-67500000D01*
%TO.N,/\u002A3*%
X154000000Y-68500000D02*
X160500000Y-68500000D01*
X152125000Y-57501167D02*
X152125000Y-67295000D01*
X151000000Y-68420000D02*
X153920000Y-68420000D01*
X155120000Y-54506167D02*
X152125000Y-57501167D01*
X152125000Y-67295000D02*
X151000000Y-68420000D01*
X155120000Y-50000000D02*
X155120000Y-54506167D01*
X153920000Y-68420000D02*
X154000000Y-68500000D01*
%TO.N,Net-(D1-A)*%
X132500000Y-57000000D02*
X133000000Y-56500000D01*
X132500000Y-57000000D02*
X132500000Y-60420000D01*
X132500000Y-60420000D02*
X131000000Y-61920000D01*
%TD*%
M02*
